M48
; DRILL file {KiCad (5.1.8)-1} date 06/09/21 22:40:46
; FORMAT={-:-/ absolute / metric / decimal}
; #@! TF.CreationDate,2021-06-09T22:40:46+08:00
; #@! TF.GenerationSoftware,Kicad,Pcbnew,(5.1.8)-1
; #@! TF.FileFunction,Plated,1,2,PTH
FMAT,2
METRIC
T1C0.400
T2C0.600
T3C0.800
%
G90
G05
T1
X101.2Y-92.75
X105.201Y-89.351
X105.225Y-93.275
X105.257Y-88.352
X108.3Y-87.15
X109.4Y-97.25
X112.8Y-95.95
X113.897Y-92.929
X114.2Y-91.95
X114.7Y-88.05
X114.7Y-89.25
X115.0Y-87.05
X116.169Y-97.117
X117.9Y-94.5
X119.6Y-94.75
X122.649Y-90.599
X122.8Y-91.75
X122.9Y-97.55
X122.95Y-89.2
X124.8Y-91.55
T3
X126.7Y-87.95
X126.7Y-89.95
X126.7Y-91.95
X126.7Y-93.95
X126.7Y-95.95
X126.7Y-97.95
T2
X98.45Y-88.63
X98.25Y-88.63
X98.05Y-88.63
X97.85Y-88.63
X98.45Y-97.27
X98.25Y-97.27
X98.05Y-97.27
X97.85Y-97.27
X102.88Y-88.63
X102.68Y-88.63
X102.48Y-88.63
X102.28Y-88.63
X102.08Y-88.63
X101.78Y-88.63
X102.88Y-97.27
X102.68Y-97.27
X102.48Y-97.27
X102.28Y-97.27
X102.08Y-97.27
X101.78Y-97.27
T0
M30
