%TF.GenerationSoftware,KiCad,Pcbnew,(5.1.8)-1*%
%TF.CreationDate,2021-05-04T18:07:08+08:00*%
%TF.ProjectId,downloader,646f776e-6c6f-4616-9465-722e6b696361,rev?*%
%TF.SameCoordinates,Original*%
%TF.FileFunction,Copper,L2,Bot*%
%TF.FilePolarity,Positive*%
%FSLAX46Y46*%
G04 Gerber Fmt 4.6, Leading zero omitted, Abs format (unit mm)*
G04 Created by KiCad (PCBNEW (5.1.8)-1) date 2021-05-04 18:07:08*
%MOMM*%
%LPD*%
G01*
G04 APERTURE LIST*
%TA.AperFunction,ComponentPad*%
%ADD10O,1.350000X1.350000*%
%TD*%
%TA.AperFunction,ComponentPad*%
%ADD11R,1.350000X1.350000*%
%TD*%
%TA.AperFunction,ComponentPad*%
%ADD12O,2.100000X1.000000*%
%TD*%
%TA.AperFunction,ComponentPad*%
%ADD13O,1.600000X1.000000*%
%TD*%
%TA.AperFunction,ViaPad*%
%ADD14C,0.800000*%
%TD*%
%TA.AperFunction,Conductor*%
%ADD15C,0.250000*%
%TD*%
%TA.AperFunction,Conductor*%
%ADD16C,0.400000*%
%TD*%
%TA.AperFunction,Conductor*%
%ADD17C,0.500000*%
%TD*%
%TA.AperFunction,Conductor*%
%ADD18C,0.300000*%
%TD*%
%TA.AperFunction,Conductor*%
%ADD19C,0.254000*%
%TD*%
%TA.AperFunction,Conductor*%
%ADD20C,0.350000*%
%TD*%
%ADD21C,0.350000*%
%ADD22O,1.700000X0.600000*%
%ADD23O,1.200000X0.600000*%
G04 APERTURE END LIST*
D10*
%TO.P,J2,6*%
%TO.N,+3V3*%
X132200000Y-97950000D03*
%TO.P,J2,5*%
%TO.N,GND*%
X132200000Y-95950000D03*
%TO.P,J2,4*%
%TO.N,/EN*%
X132200000Y-93950000D03*
%TO.P,J2,3*%
%TO.N,/IO0*%
X132200000Y-91950000D03*
%TO.P,J2,2*%
%TO.N,/TXD*%
X132200000Y-89950000D03*
D11*
%TO.P,J2,1*%
%TO.N,/RXD*%
X132200000Y-87950000D03*
%TD*%
D12*
%TO.P,J1,S1*%
%TO.N,GND*%
X102330000Y-97270000D03*
X102330000Y-88630000D03*
D13*
X98150000Y-88630000D03*
X98150000Y-97270000D03*
%TD*%
D14*
%TO.N,GND*%
X113450000Y-97700000D03*
X119950000Y-93449999D03*
X112700000Y-89700000D03*
%TO.N,VCC*%
X117700000Y-95950000D03*
X113200000Y-95850000D03*
%TO.N,+3V3*%
X114700000Y-97700000D03*
%TO.N,/IO0*%
X113600000Y-86650000D03*
X126200000Y-86750034D03*
X128450000Y-89200000D03*
%TO.N,/EN*%
X113600000Y-99250000D03*
X127900000Y-98950000D03*
%TO.N,/D-*%
X104700000Y-91950030D03*
X120511320Y-91847706D03*
%TO.N,/D+*%
X104700000Y-92950043D03*
X119699990Y-92450012D03*
%TO.N,/TXD*%
X118700000Y-96750000D03*
X128200000Y-92950000D03*
%TO.N,/RXD*%
X118700000Y-87950020D03*
%TO.N,/DTR*%
X119700000Y-95050000D03*
X119950000Y-98200000D03*
%TO.N,/RTS*%
X128199993Y-95399989D03*
X119700000Y-89450000D03*
X125450000Y-97950000D03*
%TD*%
D15*
%TO.N,GND*%
X112474999Y-96724999D02*
X113450000Y-97700000D01*
X112474999Y-95501999D02*
X112474999Y-96724999D01*
X114526999Y-93449999D02*
X112474999Y-95501999D01*
X119950000Y-93449999D02*
X114526999Y-93449999D01*
X113675001Y-88724999D02*
X112700000Y-89700000D01*
X125901477Y-88724999D02*
X113675001Y-88724999D01*
X129525010Y-92348532D02*
X125901477Y-88724999D01*
X129525010Y-93275010D02*
X129525010Y-92348532D01*
X132200000Y-95950000D02*
X129525010Y-93275010D01*
D16*
%TO.N,VCC*%
X113300000Y-95950000D02*
X113200000Y-95850000D01*
X117700000Y-95950000D02*
X113300000Y-95950000D01*
D17*
%TO.N,+3V3*%
X127641998Y-97950000D02*
X132200000Y-97950000D01*
X126541997Y-99050001D02*
X127641998Y-97950000D01*
X116050001Y-99050001D02*
X126541997Y-99050001D01*
X114700000Y-97700000D02*
X116050001Y-99050001D01*
%TO.N,/IO0*%
X113600000Y-86650000D02*
X113999999Y-86250001D01*
X113999999Y-86250001D02*
X125699967Y-86250001D01*
X125699967Y-86250001D02*
X125800001Y-86350035D01*
X125800001Y-86350035D02*
X126200000Y-86750034D01*
D16*
X131200000Y-91950000D02*
X132200000Y-91950000D01*
X128450000Y-89200000D02*
X131200000Y-91950000D01*
D17*
%TO.N,/EN*%
X114324990Y-99974990D02*
X126875010Y-99974990D01*
X113600000Y-99250000D02*
X114324990Y-99974990D01*
X126875010Y-99974990D02*
X127900000Y-98950000D01*
D18*
%TO.N,/D-*%
X104700000Y-91950030D02*
X105099999Y-91550031D01*
X105099999Y-91550031D02*
X120213645Y-91550031D01*
X120213645Y-91550031D02*
X120511320Y-91847706D01*
%TO.N,/D+*%
X119199959Y-92950043D02*
X119699990Y-92450012D01*
X104700000Y-92950043D02*
X119199959Y-92950043D01*
D16*
%TO.N,/TXD*%
X126900001Y-94249999D02*
X128200000Y-92950000D01*
X118700000Y-96750000D02*
X118700000Y-94865998D01*
X118700000Y-94865998D02*
X119315999Y-94249999D01*
X119315999Y-94249999D02*
X126900001Y-94249999D01*
%TO.N,/RXD*%
X132200000Y-87950000D02*
X119200000Y-87950000D01*
X119200000Y-87950000D02*
X118700020Y-87950000D01*
X118700020Y-87950000D02*
X118700000Y-87950020D01*
D17*
%TO.N,/DTR*%
X119700000Y-95050000D02*
X119700000Y-97950000D01*
X119700000Y-97950000D02*
X119950000Y-98200000D01*
D16*
%TO.N,/RTS*%
X129000001Y-92565999D02*
X129000001Y-94599981D01*
X129000001Y-94599981D02*
X128199993Y-95399989D01*
X125884002Y-89450000D02*
X129000001Y-92565999D01*
X119700000Y-89450000D02*
X125884002Y-89450000D01*
X125649982Y-97950000D02*
X125450000Y-97950000D01*
X128199993Y-95399989D02*
X125649982Y-97950000D01*
%TD*%
D19*
%TO.N,GND*%
X112682795Y-86159744D02*
X112604774Y-86348102D01*
X112565000Y-86548061D01*
X112565000Y-86751939D01*
X112604774Y-86951898D01*
X112682795Y-87140256D01*
X112796063Y-87309774D01*
X112940226Y-87453937D01*
X113109744Y-87567205D01*
X113298102Y-87645226D01*
X113498061Y-87685000D01*
X113701939Y-87685000D01*
X113901898Y-87645226D01*
X114090256Y-87567205D01*
X114259774Y-87453937D01*
X114403937Y-87309774D01*
X114517205Y-87140256D01*
X114519382Y-87135001D01*
X118056811Y-87135001D01*
X118040226Y-87146083D01*
X117896063Y-87290246D01*
X117782795Y-87459764D01*
X117704774Y-87648122D01*
X117665000Y-87848081D01*
X117665000Y-88051959D01*
X117704774Y-88251918D01*
X117782795Y-88440276D01*
X117896063Y-88609794D01*
X118040226Y-88753957D01*
X118209744Y-88867225D01*
X118398102Y-88945246D01*
X118598061Y-88985020D01*
X118772325Y-88985020D01*
X118704774Y-89148102D01*
X118665000Y-89348061D01*
X118665000Y-89551939D01*
X118704774Y-89751898D01*
X118782795Y-89940256D01*
X118896063Y-90109774D01*
X119040226Y-90253937D01*
X119209744Y-90367205D01*
X119398102Y-90445226D01*
X119598061Y-90485000D01*
X119801939Y-90485000D01*
X120001898Y-90445226D01*
X120190256Y-90367205D01*
X120313285Y-90285000D01*
X125538135Y-90285000D01*
X127469712Y-92216577D01*
X127396063Y-92290226D01*
X127282795Y-92459744D01*
X127204774Y-92648102D01*
X127175908Y-92793225D01*
X126554134Y-93414999D01*
X120074891Y-93414999D01*
X120190246Y-93367217D01*
X120359764Y-93253949D01*
X120503927Y-93109786D01*
X120617195Y-92940268D01*
X120643532Y-92876684D01*
X120813218Y-92842932D01*
X121001576Y-92764911D01*
X121171094Y-92651643D01*
X121315257Y-92507480D01*
X121428525Y-92337962D01*
X121506546Y-92149604D01*
X121546320Y-91949645D01*
X121546320Y-91745767D01*
X121506546Y-91545808D01*
X121428525Y-91357450D01*
X121315257Y-91187932D01*
X121171094Y-91043769D01*
X121001576Y-90930501D01*
X120813218Y-90852480D01*
X120613259Y-90812706D01*
X120487250Y-90812706D01*
X120367532Y-90776390D01*
X120252206Y-90765031D01*
X120252198Y-90765031D01*
X120213645Y-90761234D01*
X120175092Y-90765031D01*
X105138551Y-90765031D01*
X105099998Y-90761234D01*
X105061445Y-90765031D01*
X105061438Y-90765031D01*
X104946112Y-90776390D01*
X104798139Y-90821277D01*
X104661766Y-90894169D01*
X104636347Y-90915030D01*
X104598061Y-90915030D01*
X104398102Y-90954804D01*
X104209744Y-91032825D01*
X104040226Y-91146093D01*
X103896063Y-91290256D01*
X103782795Y-91459774D01*
X103704774Y-91648132D01*
X103665000Y-91848091D01*
X103665000Y-92051969D01*
X103704774Y-92251928D01*
X103782795Y-92440286D01*
X103789310Y-92450037D01*
X103782795Y-92459787D01*
X103704774Y-92648145D01*
X103665000Y-92848104D01*
X103665000Y-93051982D01*
X103704774Y-93251941D01*
X103782795Y-93440299D01*
X103896063Y-93609817D01*
X104040226Y-93753980D01*
X104209744Y-93867248D01*
X104398102Y-93945269D01*
X104598061Y-93985043D01*
X104801939Y-93985043D01*
X105001898Y-93945269D01*
X105190256Y-93867248D01*
X105359774Y-93753980D01*
X105378711Y-93735043D01*
X118650087Y-93735043D01*
X118138574Y-94246557D01*
X118106710Y-94272707D01*
X118080562Y-94304569D01*
X118002364Y-94399853D01*
X117924828Y-94544912D01*
X117877082Y-94702310D01*
X117860960Y-94865998D01*
X117865001Y-94907026D01*
X117865001Y-94927544D01*
X117801939Y-94915000D01*
X117598061Y-94915000D01*
X117398102Y-94954774D01*
X117209744Y-95032795D01*
X117086715Y-95115000D01*
X113928711Y-95115000D01*
X113859774Y-95046063D01*
X113690256Y-94932795D01*
X113501898Y-94854774D01*
X113301939Y-94815000D01*
X113098061Y-94815000D01*
X112898102Y-94854774D01*
X112709744Y-94932795D01*
X112540226Y-95046063D01*
X112396063Y-95190226D01*
X112282795Y-95359744D01*
X112204774Y-95548102D01*
X112165000Y-95748061D01*
X112165000Y-95951939D01*
X112204774Y-96151898D01*
X112282795Y-96340256D01*
X112396063Y-96509774D01*
X112540226Y-96653937D01*
X112709744Y-96767205D01*
X112898102Y-96845226D01*
X113098061Y-96885000D01*
X113301939Y-96885000D01*
X113501898Y-96845226D01*
X113647295Y-96785000D01*
X114206444Y-96785000D01*
X114040226Y-96896063D01*
X113896063Y-97040226D01*
X113782795Y-97209744D01*
X113704774Y-97398102D01*
X113665000Y-97598061D01*
X113665000Y-97801939D01*
X113704774Y-98001898D01*
X113782795Y-98190256D01*
X113814256Y-98237341D01*
X113701939Y-98215000D01*
X113498061Y-98215000D01*
X113298102Y-98254774D01*
X113109744Y-98332795D01*
X112940226Y-98446063D01*
X112796063Y-98590226D01*
X112682795Y-98759744D01*
X112604774Y-98948102D01*
X112565000Y-99148061D01*
X112565000Y-99351939D01*
X112604774Y-99551898D01*
X112682795Y-99740256D01*
X112716033Y-99790000D01*
X97360000Y-99790000D01*
X97360000Y-98296514D01*
X97504013Y-98358415D01*
X97723000Y-98405000D01*
X98023000Y-98405000D01*
X98023000Y-97397000D01*
X98277000Y-97397000D01*
X98277000Y-98405000D01*
X98577000Y-98405000D01*
X98795987Y-98358415D01*
X99001678Y-98270003D01*
X99186169Y-98143161D01*
X99342369Y-97982764D01*
X99464276Y-97794976D01*
X99544119Y-97571874D01*
X100685881Y-97571874D01*
X100765724Y-97794976D01*
X100887631Y-97982764D01*
X101043831Y-98143161D01*
X101228322Y-98270003D01*
X101434013Y-98358415D01*
X101653000Y-98405000D01*
X102203000Y-98405000D01*
X102203000Y-97397000D01*
X102457000Y-97397000D01*
X102457000Y-98405000D01*
X103007000Y-98405000D01*
X103225987Y-98358415D01*
X103431678Y-98270003D01*
X103616169Y-98143161D01*
X103772369Y-97982764D01*
X103894276Y-97794976D01*
X103974119Y-97571874D01*
X103847954Y-97397000D01*
X102457000Y-97397000D01*
X102203000Y-97397000D01*
X100812046Y-97397000D01*
X100685881Y-97571874D01*
X99544119Y-97571874D01*
X99417954Y-97397000D01*
X98277000Y-97397000D01*
X98023000Y-97397000D01*
X98003000Y-97397000D01*
X98003000Y-97143000D01*
X98023000Y-97143000D01*
X98023000Y-96135000D01*
X98277000Y-96135000D01*
X98277000Y-97143000D01*
X99417954Y-97143000D01*
X99544119Y-96968126D01*
X100685881Y-96968126D01*
X100812046Y-97143000D01*
X102203000Y-97143000D01*
X102203000Y-97123000D01*
X102457000Y-97123000D01*
X102457000Y-97143000D01*
X103847954Y-97143000D01*
X103974119Y-96968126D01*
X103894276Y-96745024D01*
X103772369Y-96557236D01*
X103616169Y-96396839D01*
X103431678Y-96269997D01*
X103225987Y-96181585D01*
X103007000Y-96135000D01*
X102716904Y-96135000D01*
X102723108Y-96120022D01*
X102760000Y-95934552D01*
X102760000Y-95745448D01*
X102723108Y-95559978D01*
X102650741Y-95385269D01*
X102545681Y-95228036D01*
X102411964Y-95094319D01*
X102254731Y-94989259D01*
X102080022Y-94916892D01*
X101894552Y-94880000D01*
X101705448Y-94880000D01*
X101519978Y-94916892D01*
X101345269Y-94989259D01*
X101188036Y-95094319D01*
X101054319Y-95228036D01*
X100949259Y-95385269D01*
X100876892Y-95559978D01*
X100840000Y-95745448D01*
X100840000Y-95934552D01*
X100876892Y-96120022D01*
X100949259Y-96294731D01*
X101028206Y-96412884D01*
X100887631Y-96557236D01*
X100765724Y-96745024D01*
X100685881Y-96968126D01*
X99544119Y-96968126D01*
X99464276Y-96745024D01*
X99342369Y-96557236D01*
X99186169Y-96396839D01*
X99001678Y-96269997D01*
X98795987Y-96181585D01*
X98577000Y-96135000D01*
X98277000Y-96135000D01*
X98023000Y-96135000D01*
X97723000Y-96135000D01*
X97504013Y-96181585D01*
X97360000Y-96243486D01*
X97360000Y-89656514D01*
X97504013Y-89718415D01*
X97723000Y-89765000D01*
X98023000Y-89765000D01*
X98023000Y-88757000D01*
X98277000Y-88757000D01*
X98277000Y-89765000D01*
X98577000Y-89765000D01*
X98795987Y-89718415D01*
X99001678Y-89630003D01*
X99186169Y-89503161D01*
X99342369Y-89342764D01*
X99464276Y-89154976D01*
X99544119Y-88931874D01*
X100685881Y-88931874D01*
X100765724Y-89154976D01*
X100887631Y-89342764D01*
X101028206Y-89487116D01*
X100949259Y-89605269D01*
X100876892Y-89779978D01*
X100840000Y-89965448D01*
X100840000Y-90154552D01*
X100876892Y-90340022D01*
X100949259Y-90514731D01*
X101054319Y-90671964D01*
X101188036Y-90805681D01*
X101345269Y-90910741D01*
X101519978Y-90983108D01*
X101705448Y-91020000D01*
X101894552Y-91020000D01*
X102080022Y-90983108D01*
X102254731Y-90910741D01*
X102411964Y-90805681D01*
X102545681Y-90671964D01*
X102650741Y-90514731D01*
X102723108Y-90340022D01*
X102760000Y-90154552D01*
X102760000Y-89965448D01*
X102723108Y-89779978D01*
X102716904Y-89765000D01*
X103007000Y-89765000D01*
X103225987Y-89718415D01*
X103431678Y-89630003D01*
X103616169Y-89503161D01*
X103772369Y-89342764D01*
X103894276Y-89154976D01*
X103974119Y-88931874D01*
X103847954Y-88757000D01*
X102457000Y-88757000D01*
X102457000Y-88777000D01*
X102203000Y-88777000D01*
X102203000Y-88757000D01*
X100812046Y-88757000D01*
X100685881Y-88931874D01*
X99544119Y-88931874D01*
X99417954Y-88757000D01*
X98277000Y-88757000D01*
X98023000Y-88757000D01*
X98003000Y-88757000D01*
X98003000Y-88503000D01*
X98023000Y-88503000D01*
X98023000Y-87495000D01*
X98277000Y-87495000D01*
X98277000Y-88503000D01*
X99417954Y-88503000D01*
X99544119Y-88328126D01*
X100685881Y-88328126D01*
X100812046Y-88503000D01*
X102203000Y-88503000D01*
X102203000Y-87495000D01*
X102457000Y-87495000D01*
X102457000Y-88503000D01*
X103847954Y-88503000D01*
X103974119Y-88328126D01*
X103894276Y-88105024D01*
X103772369Y-87917236D01*
X103616169Y-87756839D01*
X103431678Y-87629997D01*
X103225987Y-87541585D01*
X103007000Y-87495000D01*
X102457000Y-87495000D01*
X102203000Y-87495000D01*
X101653000Y-87495000D01*
X101434013Y-87541585D01*
X101228322Y-87629997D01*
X101043831Y-87756839D01*
X100887631Y-87917236D01*
X100765724Y-88105024D01*
X100685881Y-88328126D01*
X99544119Y-88328126D01*
X99464276Y-88105024D01*
X99342369Y-87917236D01*
X99186169Y-87756839D01*
X99001678Y-87629997D01*
X98795987Y-87541585D01*
X98577000Y-87495000D01*
X98277000Y-87495000D01*
X98023000Y-87495000D01*
X97723000Y-87495000D01*
X97504013Y-87541585D01*
X97360000Y-87603486D01*
X97360000Y-86110000D01*
X112716033Y-86110000D01*
X112682795Y-86159744D01*
%TA.AperFunction,Conductor*%
D20*
G36*
X112682795Y-86159744D02*
G01*
X112604774Y-86348102D01*
X112565000Y-86548061D01*
X112565000Y-86751939D01*
X112604774Y-86951898D01*
X112682795Y-87140256D01*
X112796063Y-87309774D01*
X112940226Y-87453937D01*
X113109744Y-87567205D01*
X113298102Y-87645226D01*
X113498061Y-87685000D01*
X113701939Y-87685000D01*
X113901898Y-87645226D01*
X114090256Y-87567205D01*
X114259774Y-87453937D01*
X114403937Y-87309774D01*
X114517205Y-87140256D01*
X114519382Y-87135001D01*
X118056811Y-87135001D01*
X118040226Y-87146083D01*
X117896063Y-87290246D01*
X117782795Y-87459764D01*
X117704774Y-87648122D01*
X117665000Y-87848081D01*
X117665000Y-88051959D01*
X117704774Y-88251918D01*
X117782795Y-88440276D01*
X117896063Y-88609794D01*
X118040226Y-88753957D01*
X118209744Y-88867225D01*
X118398102Y-88945246D01*
X118598061Y-88985020D01*
X118772325Y-88985020D01*
X118704774Y-89148102D01*
X118665000Y-89348061D01*
X118665000Y-89551939D01*
X118704774Y-89751898D01*
X118782795Y-89940256D01*
X118896063Y-90109774D01*
X119040226Y-90253937D01*
X119209744Y-90367205D01*
X119398102Y-90445226D01*
X119598061Y-90485000D01*
X119801939Y-90485000D01*
X120001898Y-90445226D01*
X120190256Y-90367205D01*
X120313285Y-90285000D01*
X125538135Y-90285000D01*
X127469712Y-92216577D01*
X127396063Y-92290226D01*
X127282795Y-92459744D01*
X127204774Y-92648102D01*
X127175908Y-92793225D01*
X126554134Y-93414999D01*
X120074891Y-93414999D01*
X120190246Y-93367217D01*
X120359764Y-93253949D01*
X120503927Y-93109786D01*
X120617195Y-92940268D01*
X120643532Y-92876684D01*
X120813218Y-92842932D01*
X121001576Y-92764911D01*
X121171094Y-92651643D01*
X121315257Y-92507480D01*
X121428525Y-92337962D01*
X121506546Y-92149604D01*
X121546320Y-91949645D01*
X121546320Y-91745767D01*
X121506546Y-91545808D01*
X121428525Y-91357450D01*
X121315257Y-91187932D01*
X121171094Y-91043769D01*
X121001576Y-90930501D01*
X120813218Y-90852480D01*
X120613259Y-90812706D01*
X120487250Y-90812706D01*
X120367532Y-90776390D01*
X120252206Y-90765031D01*
X120252198Y-90765031D01*
X120213645Y-90761234D01*
X120175092Y-90765031D01*
X105138551Y-90765031D01*
X105099998Y-90761234D01*
X105061445Y-90765031D01*
X105061438Y-90765031D01*
X104946112Y-90776390D01*
X104798139Y-90821277D01*
X104661766Y-90894169D01*
X104636347Y-90915030D01*
X104598061Y-90915030D01*
X104398102Y-90954804D01*
X104209744Y-91032825D01*
X104040226Y-91146093D01*
X103896063Y-91290256D01*
X103782795Y-91459774D01*
X103704774Y-91648132D01*
X103665000Y-91848091D01*
X103665000Y-92051969D01*
X103704774Y-92251928D01*
X103782795Y-92440286D01*
X103789310Y-92450037D01*
X103782795Y-92459787D01*
X103704774Y-92648145D01*
X103665000Y-92848104D01*
X103665000Y-93051982D01*
X103704774Y-93251941D01*
X103782795Y-93440299D01*
X103896063Y-93609817D01*
X104040226Y-93753980D01*
X104209744Y-93867248D01*
X104398102Y-93945269D01*
X104598061Y-93985043D01*
X104801939Y-93985043D01*
X105001898Y-93945269D01*
X105190256Y-93867248D01*
X105359774Y-93753980D01*
X105378711Y-93735043D01*
X118650087Y-93735043D01*
X118138574Y-94246557D01*
X118106710Y-94272707D01*
X118080562Y-94304569D01*
X118002364Y-94399853D01*
X117924828Y-94544912D01*
X117877082Y-94702310D01*
X117860960Y-94865998D01*
X117865001Y-94907026D01*
X117865001Y-94927544D01*
X117801939Y-94915000D01*
X117598061Y-94915000D01*
X117398102Y-94954774D01*
X117209744Y-95032795D01*
X117086715Y-95115000D01*
X113928711Y-95115000D01*
X113859774Y-95046063D01*
X113690256Y-94932795D01*
X113501898Y-94854774D01*
X113301939Y-94815000D01*
X113098061Y-94815000D01*
X112898102Y-94854774D01*
X112709744Y-94932795D01*
X112540226Y-95046063D01*
X112396063Y-95190226D01*
X112282795Y-95359744D01*
X112204774Y-95548102D01*
X112165000Y-95748061D01*
X112165000Y-95951939D01*
X112204774Y-96151898D01*
X112282795Y-96340256D01*
X112396063Y-96509774D01*
X112540226Y-96653937D01*
X112709744Y-96767205D01*
X112898102Y-96845226D01*
X113098061Y-96885000D01*
X113301939Y-96885000D01*
X113501898Y-96845226D01*
X113647295Y-96785000D01*
X114206444Y-96785000D01*
X114040226Y-96896063D01*
X113896063Y-97040226D01*
X113782795Y-97209744D01*
X113704774Y-97398102D01*
X113665000Y-97598061D01*
X113665000Y-97801939D01*
X113704774Y-98001898D01*
X113782795Y-98190256D01*
X113814256Y-98237341D01*
X113701939Y-98215000D01*
X113498061Y-98215000D01*
X113298102Y-98254774D01*
X113109744Y-98332795D01*
X112940226Y-98446063D01*
X112796063Y-98590226D01*
X112682795Y-98759744D01*
X112604774Y-98948102D01*
X112565000Y-99148061D01*
X112565000Y-99351939D01*
X112604774Y-99551898D01*
X112682795Y-99740256D01*
X112716033Y-99790000D01*
X97360000Y-99790000D01*
X97360000Y-98296514D01*
X97504013Y-98358415D01*
X97723000Y-98405000D01*
X98023000Y-98405000D01*
X98023000Y-97397000D01*
X98277000Y-97397000D01*
X98277000Y-98405000D01*
X98577000Y-98405000D01*
X98795987Y-98358415D01*
X99001678Y-98270003D01*
X99186169Y-98143161D01*
X99342369Y-97982764D01*
X99464276Y-97794976D01*
X99544119Y-97571874D01*
X100685881Y-97571874D01*
X100765724Y-97794976D01*
X100887631Y-97982764D01*
X101043831Y-98143161D01*
X101228322Y-98270003D01*
X101434013Y-98358415D01*
X101653000Y-98405000D01*
X102203000Y-98405000D01*
X102203000Y-97397000D01*
X102457000Y-97397000D01*
X102457000Y-98405000D01*
X103007000Y-98405000D01*
X103225987Y-98358415D01*
X103431678Y-98270003D01*
X103616169Y-98143161D01*
X103772369Y-97982764D01*
X103894276Y-97794976D01*
X103974119Y-97571874D01*
X103847954Y-97397000D01*
X102457000Y-97397000D01*
X102203000Y-97397000D01*
X100812046Y-97397000D01*
X100685881Y-97571874D01*
X99544119Y-97571874D01*
X99417954Y-97397000D01*
X98277000Y-97397000D01*
X98023000Y-97397000D01*
X98003000Y-97397000D01*
X98003000Y-97143000D01*
X98023000Y-97143000D01*
X98023000Y-96135000D01*
X98277000Y-96135000D01*
X98277000Y-97143000D01*
X99417954Y-97143000D01*
X99544119Y-96968126D01*
X100685881Y-96968126D01*
X100812046Y-97143000D01*
X102203000Y-97143000D01*
X102203000Y-97123000D01*
X102457000Y-97123000D01*
X102457000Y-97143000D01*
X103847954Y-97143000D01*
X103974119Y-96968126D01*
X103894276Y-96745024D01*
X103772369Y-96557236D01*
X103616169Y-96396839D01*
X103431678Y-96269997D01*
X103225987Y-96181585D01*
X103007000Y-96135000D01*
X102716904Y-96135000D01*
X102723108Y-96120022D01*
X102760000Y-95934552D01*
X102760000Y-95745448D01*
X102723108Y-95559978D01*
X102650741Y-95385269D01*
X102545681Y-95228036D01*
X102411964Y-95094319D01*
X102254731Y-94989259D01*
X102080022Y-94916892D01*
X101894552Y-94880000D01*
X101705448Y-94880000D01*
X101519978Y-94916892D01*
X101345269Y-94989259D01*
X101188036Y-95094319D01*
X101054319Y-95228036D01*
X100949259Y-95385269D01*
X100876892Y-95559978D01*
X100840000Y-95745448D01*
X100840000Y-95934552D01*
X100876892Y-96120022D01*
X100949259Y-96294731D01*
X101028206Y-96412884D01*
X100887631Y-96557236D01*
X100765724Y-96745024D01*
X100685881Y-96968126D01*
X99544119Y-96968126D01*
X99464276Y-96745024D01*
X99342369Y-96557236D01*
X99186169Y-96396839D01*
X99001678Y-96269997D01*
X98795987Y-96181585D01*
X98577000Y-96135000D01*
X98277000Y-96135000D01*
X98023000Y-96135000D01*
X97723000Y-96135000D01*
X97504013Y-96181585D01*
X97360000Y-96243486D01*
X97360000Y-89656514D01*
X97504013Y-89718415D01*
X97723000Y-89765000D01*
X98023000Y-89765000D01*
X98023000Y-88757000D01*
X98277000Y-88757000D01*
X98277000Y-89765000D01*
X98577000Y-89765000D01*
X98795987Y-89718415D01*
X99001678Y-89630003D01*
X99186169Y-89503161D01*
X99342369Y-89342764D01*
X99464276Y-89154976D01*
X99544119Y-88931874D01*
X100685881Y-88931874D01*
X100765724Y-89154976D01*
X100887631Y-89342764D01*
X101028206Y-89487116D01*
X100949259Y-89605269D01*
X100876892Y-89779978D01*
X100840000Y-89965448D01*
X100840000Y-90154552D01*
X100876892Y-90340022D01*
X100949259Y-90514731D01*
X101054319Y-90671964D01*
X101188036Y-90805681D01*
X101345269Y-90910741D01*
X101519978Y-90983108D01*
X101705448Y-91020000D01*
X101894552Y-91020000D01*
X102080022Y-90983108D01*
X102254731Y-90910741D01*
X102411964Y-90805681D01*
X102545681Y-90671964D01*
X102650741Y-90514731D01*
X102723108Y-90340022D01*
X102760000Y-90154552D01*
X102760000Y-89965448D01*
X102723108Y-89779978D01*
X102716904Y-89765000D01*
X103007000Y-89765000D01*
X103225987Y-89718415D01*
X103431678Y-89630003D01*
X103616169Y-89503161D01*
X103772369Y-89342764D01*
X103894276Y-89154976D01*
X103974119Y-88931874D01*
X103847954Y-88757000D01*
X102457000Y-88757000D01*
X102457000Y-88777000D01*
X102203000Y-88777000D01*
X102203000Y-88757000D01*
X100812046Y-88757000D01*
X100685881Y-88931874D01*
X99544119Y-88931874D01*
X99417954Y-88757000D01*
X98277000Y-88757000D01*
X98023000Y-88757000D01*
X98003000Y-88757000D01*
X98003000Y-88503000D01*
X98023000Y-88503000D01*
X98023000Y-87495000D01*
X98277000Y-87495000D01*
X98277000Y-88503000D01*
X99417954Y-88503000D01*
X99544119Y-88328126D01*
X100685881Y-88328126D01*
X100812046Y-88503000D01*
X102203000Y-88503000D01*
X102203000Y-87495000D01*
X102457000Y-87495000D01*
X102457000Y-88503000D01*
X103847954Y-88503000D01*
X103974119Y-88328126D01*
X103894276Y-88105024D01*
X103772369Y-87917236D01*
X103616169Y-87756839D01*
X103431678Y-87629997D01*
X103225987Y-87541585D01*
X103007000Y-87495000D01*
X102457000Y-87495000D01*
X102203000Y-87495000D01*
X101653000Y-87495000D01*
X101434013Y-87541585D01*
X101228322Y-87629997D01*
X101043831Y-87756839D01*
X100887631Y-87917236D01*
X100765724Y-88105024D01*
X100685881Y-88328126D01*
X99544119Y-88328126D01*
X99464276Y-88105024D01*
X99342369Y-87917236D01*
X99186169Y-87756839D01*
X99001678Y-87629997D01*
X98795987Y-87541585D01*
X98577000Y-87495000D01*
X98277000Y-87495000D01*
X98023000Y-87495000D01*
X97723000Y-87495000D01*
X97504013Y-87541585D01*
X97360000Y-87603486D01*
X97360000Y-86110000D01*
X112716033Y-86110000D01*
X112682795Y-86159744D01*
G37*
%TD.AperFunction*%
D19*
X127454774Y-88898102D02*
X127415000Y-89098061D01*
X127415000Y-89301939D01*
X127454774Y-89501898D01*
X127532795Y-89690256D01*
X127646063Y-89859774D01*
X127790226Y-90003937D01*
X127959744Y-90117205D01*
X128148102Y-90195226D01*
X128293225Y-90224093D01*
X130580559Y-92511427D01*
X130606709Y-92543291D01*
X130733854Y-92647636D01*
X130878913Y-92725172D01*
X131036311Y-92772918D01*
X131158981Y-92785000D01*
X131158991Y-92785000D01*
X131184934Y-92787555D01*
X131347379Y-92950000D01*
X131182456Y-93114923D01*
X131039093Y-93329482D01*
X130940342Y-93567887D01*
X130890000Y-93820976D01*
X130890000Y-94079024D01*
X130940342Y-94332113D01*
X131039093Y-94570518D01*
X131182456Y-94785077D01*
X131354060Y-94956681D01*
X131221697Y-95078773D01*
X131070527Y-95286371D01*
X130962762Y-95519472D01*
X130932090Y-95620600D01*
X131055776Y-95823000D01*
X132073000Y-95823000D01*
X132073000Y-95803000D01*
X132327000Y-95803000D01*
X132327000Y-95823000D01*
X132347000Y-95823000D01*
X132347000Y-96077000D01*
X132327000Y-96077000D01*
X132327000Y-96097000D01*
X132073000Y-96097000D01*
X132073000Y-96077000D01*
X131055776Y-96077000D01*
X130932090Y-96279400D01*
X130962762Y-96380528D01*
X131070527Y-96613629D01*
X131221697Y-96821227D01*
X131354060Y-96943319D01*
X131232379Y-97065000D01*
X127715850Y-97065000D01*
X128356768Y-96424081D01*
X128501891Y-96395215D01*
X128690249Y-96317194D01*
X128859767Y-96203926D01*
X129003930Y-96059763D01*
X129117198Y-95890245D01*
X129195219Y-95701887D01*
X129224086Y-95556764D01*
X129561427Y-95219423D01*
X129593292Y-95193272D01*
X129697637Y-95066127D01*
X129775173Y-94921068D01*
X129822919Y-94763670D01*
X129835001Y-94641000D01*
X129839041Y-94599982D01*
X129835001Y-94558963D01*
X129835001Y-92607017D01*
X129839041Y-92565998D01*
X129822919Y-92402310D01*
X129775173Y-92244912D01*
X129697637Y-92099853D01*
X129679574Y-92077843D01*
X129593292Y-91972708D01*
X129561429Y-91946559D01*
X126503448Y-88888579D01*
X126477293Y-88856709D01*
X126389915Y-88785000D01*
X127501623Y-88785000D01*
X127454774Y-88898102D01*
%TA.AperFunction,Conductor*%
D20*
G36*
X127454774Y-88898102D02*
G01*
X127415000Y-89098061D01*
X127415000Y-89301939D01*
X127454774Y-89501898D01*
X127532795Y-89690256D01*
X127646063Y-89859774D01*
X127790226Y-90003937D01*
X127959744Y-90117205D01*
X128148102Y-90195226D01*
X128293225Y-90224093D01*
X130580559Y-92511427D01*
X130606709Y-92543291D01*
X130733854Y-92647636D01*
X130878913Y-92725172D01*
X131036311Y-92772918D01*
X131158981Y-92785000D01*
X131158991Y-92785000D01*
X131184934Y-92787555D01*
X131347379Y-92950000D01*
X131182456Y-93114923D01*
X131039093Y-93329482D01*
X130940342Y-93567887D01*
X130890000Y-93820976D01*
X130890000Y-94079024D01*
X130940342Y-94332113D01*
X131039093Y-94570518D01*
X131182456Y-94785077D01*
X131354060Y-94956681D01*
X131221697Y-95078773D01*
X131070527Y-95286371D01*
X130962762Y-95519472D01*
X130932090Y-95620600D01*
X131055776Y-95823000D01*
X132073000Y-95823000D01*
X132073000Y-95803000D01*
X132327000Y-95803000D01*
X132327000Y-95823000D01*
X132347000Y-95823000D01*
X132347000Y-96077000D01*
X132327000Y-96077000D01*
X132327000Y-96097000D01*
X132073000Y-96097000D01*
X132073000Y-96077000D01*
X131055776Y-96077000D01*
X130932090Y-96279400D01*
X130962762Y-96380528D01*
X131070527Y-96613629D01*
X131221697Y-96821227D01*
X131354060Y-96943319D01*
X131232379Y-97065000D01*
X127715850Y-97065000D01*
X128356768Y-96424081D01*
X128501891Y-96395215D01*
X128690249Y-96317194D01*
X128859767Y-96203926D01*
X129003930Y-96059763D01*
X129117198Y-95890245D01*
X129195219Y-95701887D01*
X129224086Y-95556764D01*
X129561427Y-95219423D01*
X129593292Y-95193272D01*
X129697637Y-95066127D01*
X129775173Y-94921068D01*
X129822919Y-94763670D01*
X129835001Y-94641000D01*
X129839041Y-94599982D01*
X129835001Y-94558963D01*
X129835001Y-92607017D01*
X129839041Y-92565998D01*
X129822919Y-92402310D01*
X129775173Y-92244912D01*
X129697637Y-92099853D01*
X129679574Y-92077843D01*
X129593292Y-91972708D01*
X129561429Y-91946559D01*
X126503448Y-88888579D01*
X126477293Y-88856709D01*
X126389915Y-88785000D01*
X127501623Y-88785000D01*
X127454774Y-88898102D01*
G37*
%TD.AperFunction*%
%TD*%
D21*
X113450000Y-97700000D03*
X119950000Y-93449999D03*
X112700000Y-89700000D03*
X117700000Y-95950000D03*
X113200000Y-95850000D03*
X114700000Y-97700000D03*
X113600000Y-86650000D03*
X126200000Y-86750034D03*
X128450000Y-89200000D03*
X113600000Y-99250000D03*
X127900000Y-98950000D03*
X104700000Y-91950030D03*
X120511320Y-91847706D03*
X104700000Y-92950043D03*
X119699990Y-92450012D03*
X118700000Y-96750000D03*
X128200000Y-92950000D03*
X118700000Y-87950020D03*
X119700000Y-95050000D03*
X119950000Y-98200000D03*
X128199993Y-95399989D03*
X119700000Y-89450000D03*
X125450000Y-97950000D03*
X132200000Y-97950000D03*
X132200000Y-95950000D03*
X132200000Y-93950000D03*
X132200000Y-91950000D03*
X132200000Y-89950000D03*
X132200000Y-87950000D03*
D22*
X102330000Y-97270000D03*
X102330000Y-88630000D03*
D21*
X101800000Y-90060000D03*
D23*
X98150000Y-88630000D03*
D21*
X101800000Y-95840000D03*
D23*
X98150000Y-97270000D03*
M02*
