%TF.GenerationSoftware,KiCad,Pcbnew,(5.1.8)-1*%
%TF.CreationDate,2020-12-30T11:25:41+08:00*%
%TF.ProjectId,downloader,646f776e-6c6f-4616-9465-722e6b696361,rev?*%
%TF.SameCoordinates,Original*%
%TF.FileFunction,Legend,Bot*%
%TF.FilePolarity,Positive*%
%FSLAX46Y46*%
G04 Gerber Fmt 4.6, Leading zero omitted, Abs format (unit mm)*
G04 Created by KiCad (PCBNEW (5.1.8)-1) date 2020-12-30 11:25:41*
%MOMM*%
%LPD*%
G01*
G04 APERTURE LIST*
%ADD10C,0.200000*%
%ADD11C,0.125000*%
G04 APERTURE END LIST*
D10*
X122785714Y-93092857D02*
X122571428Y-93164285D01*
X122500000Y-93235714D01*
X122428571Y-93378571D01*
X122428571Y-93592857D01*
X122500000Y-93735714D01*
X122571428Y-93807142D01*
X122714285Y-93878571D01*
X123285714Y-93878571D01*
X123285714Y-92378571D01*
X122785714Y-92378571D01*
X122642857Y-92450000D01*
X122571428Y-92521428D01*
X122500000Y-92664285D01*
X122500000Y-92807142D01*
X122571428Y-92950000D01*
X122642857Y-93021428D01*
X122785714Y-93092857D01*
X123285714Y-93092857D01*
X121071428Y-93878571D02*
X121785714Y-93878571D01*
X121785714Y-92378571D01*
X119928571Y-93878571D02*
X119928571Y-93092857D01*
X120000000Y-92950000D01*
X120142857Y-92878571D01*
X120428571Y-92878571D01*
X120571428Y-92950000D01*
X119928571Y-93807142D02*
X120071428Y-93878571D01*
X120428571Y-93878571D01*
X120571428Y-93807142D01*
X120642857Y-93664285D01*
X120642857Y-93521428D01*
X120571428Y-93378571D01*
X120428571Y-93307142D01*
X120071428Y-93307142D01*
X119928571Y-93235714D01*
X119214285Y-93878571D02*
X119214285Y-92378571D01*
X119214285Y-92950000D02*
X119071428Y-92878571D01*
X118785714Y-92878571D01*
X118642857Y-92950000D01*
X118571428Y-93021428D01*
X118500000Y-93164285D01*
X118500000Y-93592857D01*
X118571428Y-93735714D01*
X118642857Y-93807142D01*
X118785714Y-93878571D01*
X119071428Y-93878571D01*
X119214285Y-93807142D01*
X118214285Y-94021428D02*
X117071428Y-94021428D01*
X116071428Y-93878571D02*
X116071428Y-92378571D01*
X116071428Y-93807142D02*
X116214285Y-93878571D01*
X116500000Y-93878571D01*
X116642857Y-93807142D01*
X116714285Y-93735714D01*
X116785714Y-93592857D01*
X116785714Y-93164285D01*
X116714285Y-93021428D01*
X116642857Y-92950000D01*
X116500000Y-92878571D01*
X116214285Y-92878571D01*
X116071428Y-92950000D01*
X115142857Y-93878571D02*
X115285714Y-93807142D01*
X115357142Y-93735714D01*
X115428571Y-93592857D01*
X115428571Y-93164285D01*
X115357142Y-93021428D01*
X115285714Y-92950000D01*
X115142857Y-92878571D01*
X114928571Y-92878571D01*
X114785714Y-92950000D01*
X114714285Y-93021428D01*
X114642857Y-93164285D01*
X114642857Y-93592857D01*
X114714285Y-93735714D01*
X114785714Y-93807142D01*
X114928571Y-93878571D01*
X115142857Y-93878571D01*
X114142857Y-92878571D02*
X113857142Y-93878571D01*
X113571428Y-93164285D01*
X113285714Y-93878571D01*
X113000000Y-92878571D01*
X112428571Y-92878571D02*
X112428571Y-93878571D01*
X112428571Y-93021428D02*
X112357142Y-92950000D01*
X112214285Y-92878571D01*
X112000000Y-92878571D01*
X111857142Y-92950000D01*
X111785714Y-93092857D01*
X111785714Y-93878571D01*
X110857142Y-93878571D02*
X111000000Y-93807142D01*
X111071428Y-93664285D01*
X111071428Y-92378571D01*
X110071428Y-93878571D02*
X110214285Y-93807142D01*
X110285714Y-93735714D01*
X110357142Y-93592857D01*
X110357142Y-93164285D01*
X110285714Y-93021428D01*
X110214285Y-92950000D01*
X110071428Y-92878571D01*
X109857142Y-92878571D01*
X109714285Y-92950000D01*
X109642857Y-93021428D01*
X109571428Y-93164285D01*
X109571428Y-93592857D01*
X109642857Y-93735714D01*
X109714285Y-93807142D01*
X109857142Y-93878571D01*
X110071428Y-93878571D01*
X108285714Y-93878571D02*
X108285714Y-93092857D01*
X108357142Y-92950000D01*
X108500000Y-92878571D01*
X108785714Y-92878571D01*
X108928571Y-92950000D01*
X108285714Y-93807142D02*
X108428571Y-93878571D01*
X108785714Y-93878571D01*
X108928571Y-93807142D01*
X109000000Y-93664285D01*
X109000000Y-93521428D01*
X108928571Y-93378571D01*
X108785714Y-93307142D01*
X108428571Y-93307142D01*
X108285714Y-93235714D01*
X106928571Y-93878571D02*
X106928571Y-92378571D01*
X106928571Y-93807142D02*
X107071428Y-93878571D01*
X107357142Y-93878571D01*
X107500000Y-93807142D01*
X107571428Y-93735714D01*
X107642857Y-93592857D01*
X107642857Y-93164285D01*
X107571428Y-93021428D01*
X107500000Y-92950000D01*
X107357142Y-92878571D01*
X107071428Y-92878571D01*
X106928571Y-92950000D01*
X105642857Y-93807142D02*
X105785714Y-93878571D01*
X106071428Y-93878571D01*
X106214285Y-93807142D01*
X106285714Y-93664285D01*
X106285714Y-93092857D01*
X106214285Y-92950000D01*
X106071428Y-92878571D01*
X105785714Y-92878571D01*
X105642857Y-92950000D01*
X105571428Y-93092857D01*
X105571428Y-93235714D01*
X106285714Y-93378571D01*
X104928571Y-93878571D02*
X104928571Y-92878571D01*
X104928571Y-93164285D02*
X104857142Y-93021428D01*
X104785714Y-92950000D01*
X104642857Y-92878571D01*
X104500000Y-92878571D01*
D11*
X127900000Y-95035714D02*
X127519047Y-95035714D01*
X127709523Y-95226190D02*
X127709523Y-94845238D01*
X127328571Y-94726190D02*
X127019047Y-94726190D01*
X127185714Y-94916666D01*
X127114285Y-94916666D01*
X127066666Y-94940476D01*
X127042857Y-94964285D01*
X127019047Y-95011904D01*
X127019047Y-95130952D01*
X127042857Y-95178571D01*
X127066666Y-95202380D01*
X127114285Y-95226190D01*
X127257142Y-95226190D01*
X127304761Y-95202380D01*
X127328571Y-95178571D01*
X126804761Y-95178571D02*
X126780952Y-95202380D01*
X126804761Y-95226190D01*
X126828571Y-95202380D01*
X126804761Y-95178571D01*
X126804761Y-95226190D01*
X126614285Y-94726190D02*
X126304761Y-94726190D01*
X126471428Y-94916666D01*
X126400000Y-94916666D01*
X126352380Y-94940476D01*
X126328571Y-94964285D01*
X126304761Y-95011904D01*
X126304761Y-95130952D01*
X126328571Y-95178571D01*
X126352380Y-95202380D01*
X126400000Y-95226190D01*
X126542857Y-95226190D01*
X126590476Y-95202380D01*
X126614285Y-95178571D01*
X126161904Y-94726190D02*
X125995238Y-95226190D01*
X125828571Y-94726190D01*
X127480952Y-93750000D02*
X127528571Y-93726190D01*
X127600000Y-93726190D01*
X127671428Y-93750000D01*
X127719047Y-93797619D01*
X127742857Y-93845238D01*
X127766666Y-93940476D01*
X127766666Y-94011904D01*
X127742857Y-94107142D01*
X127719047Y-94154761D01*
X127671428Y-94202380D01*
X127600000Y-94226190D01*
X127552380Y-94226190D01*
X127480952Y-94202380D01*
X127457142Y-94178571D01*
X127457142Y-94011904D01*
X127552380Y-94011904D01*
X127242857Y-94226190D02*
X127242857Y-93726190D01*
X126957142Y-94226190D01*
X126957142Y-93726190D01*
X126719047Y-94226190D02*
X126719047Y-93726190D01*
X126600000Y-93726190D01*
X126528571Y-93750000D01*
X126480952Y-93797619D01*
X126457142Y-93845238D01*
X126433333Y-93940476D01*
X126433333Y-94011904D01*
X126457142Y-94107142D01*
X126480952Y-94154761D01*
X126528571Y-94202380D01*
X126600000Y-94226190D01*
X126719047Y-94226190D01*
X127800000Y-93226190D02*
X127800000Y-92726190D01*
X127466666Y-92726190D02*
X127371428Y-92726190D01*
X127323809Y-92750000D01*
X127276190Y-92797619D01*
X127252380Y-92892857D01*
X127252380Y-93059523D01*
X127276190Y-93154761D01*
X127323809Y-93202380D01*
X127371428Y-93226190D01*
X127466666Y-93226190D01*
X127514285Y-93202380D01*
X127561904Y-93154761D01*
X127585714Y-93059523D01*
X127585714Y-92892857D01*
X127561904Y-92797619D01*
X127514285Y-92750000D01*
X127466666Y-92726190D01*
X126942857Y-92726190D02*
X126895238Y-92726190D01*
X126847619Y-92750000D01*
X126823809Y-92773809D01*
X126800000Y-92821428D01*
X126776190Y-92916666D01*
X126776190Y-93035714D01*
X126800000Y-93130952D01*
X126823809Y-93178571D01*
X126847619Y-93202380D01*
X126895238Y-93226190D01*
X126942857Y-93226190D01*
X126990476Y-93202380D01*
X127014285Y-93178571D01*
X127038095Y-93130952D01*
X127061904Y-93035714D01*
X127061904Y-92916666D01*
X127038095Y-92821428D01*
X127014285Y-92773809D01*
X126990476Y-92750000D01*
X126942857Y-92726190D01*
X127769047Y-91964285D02*
X127602380Y-91964285D01*
X127530952Y-92226190D02*
X127769047Y-92226190D01*
X127769047Y-91726190D01*
X127530952Y-91726190D01*
X127316666Y-92226190D02*
X127316666Y-91726190D01*
X127030952Y-92226190D01*
X127030952Y-91726190D01*
X127830952Y-90726190D02*
X127545238Y-90726190D01*
X127688095Y-91226190D02*
X127688095Y-90726190D01*
X127426190Y-90726190D02*
X127092857Y-91226190D01*
X127092857Y-90726190D02*
X127426190Y-91226190D01*
X126902380Y-91226190D02*
X126902380Y-90726190D01*
X126783333Y-90726190D01*
X126711904Y-90750000D01*
X126664285Y-90797619D01*
X126640476Y-90845238D01*
X126616666Y-90940476D01*
X126616666Y-91011904D01*
X126640476Y-91107142D01*
X126664285Y-91154761D01*
X126711904Y-91202380D01*
X126783333Y-91226190D01*
X126902380Y-91226190D01*
X127533333Y-90126190D02*
X127700000Y-89888095D01*
X127819047Y-90126190D02*
X127819047Y-89626190D01*
X127628571Y-89626190D01*
X127580952Y-89650000D01*
X127557142Y-89673809D01*
X127533333Y-89721428D01*
X127533333Y-89792857D01*
X127557142Y-89840476D01*
X127580952Y-89864285D01*
X127628571Y-89888095D01*
X127819047Y-89888095D01*
X127366666Y-89626190D02*
X127033333Y-90126190D01*
X127033333Y-89626190D02*
X127366666Y-90126190D01*
X126842857Y-90126190D02*
X126842857Y-89626190D01*
X126723809Y-89626190D01*
X126652380Y-89650000D01*
X126604761Y-89697619D01*
X126580952Y-89745238D01*
X126557142Y-89840476D01*
X126557142Y-89911904D01*
X126580952Y-90007142D01*
X126604761Y-90054761D01*
X126652380Y-90102380D01*
X126723809Y-90126190D01*
X126842857Y-90126190D01*
M02*
