%TF.GenerationSoftware,KiCad,Pcbnew,(5.1.8)-1*%
%TF.CreationDate,2020-12-30T11:25:41+08:00*%
%TF.ProjectId,downloader,646f776e-6c6f-4616-9465-722e6b696361,rev?*%
%TF.SameCoordinates,Original*%
%TF.FileFunction,Paste,Top*%
%TF.FilePolarity,Positive*%
%FSLAX46Y46*%
G04 Gerber Fmt 4.6, Leading zero omitted, Abs format (unit mm)*
G04 Created by KiCad (PCBNEW (5.1.8)-1) date 2020-12-30 11:25:41*
%MOMM*%
%LPD*%
G01*
G04 APERTURE LIST*
%ADD10R,1.100000X0.510000*%
%ADD11R,2.000000X1.500000*%
%ADD12R,2.000000X3.800000*%
%ADD13R,0.900000X1.700000*%
%ADD14R,0.900000X0.800000*%
%ADD15R,1.450000X0.600000*%
%ADD16R,1.450000X0.300000*%
G04 APERTURE END LIST*
%TO.C,R1*%
G36*
G01*
X118425000Y-99000000D02*
X118425000Y-98450000D01*
G75*
G02*
X118625000Y-98250000I200000J0D01*
G01*
X119025000Y-98250000D01*
G75*
G02*
X119225000Y-98450000I0J-200000D01*
G01*
X119225000Y-99000000D01*
G75*
G02*
X119025000Y-99200000I-200000J0D01*
G01*
X118625000Y-99200000D01*
G75*
G02*
X118425000Y-99000000I0J200000D01*
G01*
G37*
G36*
G01*
X116775000Y-99000000D02*
X116775000Y-98450000D01*
G75*
G02*
X116975000Y-98250000I200000J0D01*
G01*
X117375000Y-98250000D01*
G75*
G02*
X117575000Y-98450000I0J-200000D01*
G01*
X117575000Y-99000000D01*
G75*
G02*
X117375000Y-99200000I-200000J0D01*
G01*
X116975000Y-99200000D01*
G75*
G02*
X116775000Y-99000000I0J200000D01*
G01*
G37*
%TD*%
%TO.C,D1*%
G36*
G01*
X118350000Y-97206250D02*
X118350000Y-96693750D01*
G75*
G02*
X118568750Y-96475000I218750J0D01*
G01*
X119006250Y-96475000D01*
G75*
G02*
X119225000Y-96693750I0J-218750D01*
G01*
X119225000Y-97206250D01*
G75*
G02*
X119006250Y-97425000I-218750J0D01*
G01*
X118568750Y-97425000D01*
G75*
G02*
X118350000Y-97206250I0J218750D01*
G01*
G37*
G36*
G01*
X116775000Y-97206250D02*
X116775000Y-96693750D01*
G75*
G02*
X116993750Y-96475000I218750J0D01*
G01*
X117431250Y-96475000D01*
G75*
G02*
X117650000Y-96693750I0J-218750D01*
G01*
X117650000Y-97206250D01*
G75*
G02*
X117431250Y-97425000I-218750J0D01*
G01*
X116993750Y-97425000D01*
G75*
G02*
X116775000Y-97206250I0J218750D01*
G01*
G37*
%TD*%
D10*
%TO.C,U2*%
X126050000Y-90500000D03*
X126050000Y-91500000D03*
X120950000Y-94500000D03*
X126050000Y-92500000D03*
X126050000Y-93500000D03*
X126050000Y-94500000D03*
X120950000Y-93500000D03*
X120950000Y-92500000D03*
X120950000Y-91500000D03*
X120950000Y-90500000D03*
%TD*%
D11*
%TO.C,U1*%
X111650000Y-90200000D03*
X111650000Y-94800000D03*
X111650000Y-92500000D03*
D12*
X117950000Y-92500000D03*
%TD*%
D13*
%TO.C,SW2*%
X113700000Y-98000000D03*
X109300000Y-98000000D03*
%TD*%
%TO.C,SW1*%
X113700000Y-87000000D03*
X109300000Y-87000000D03*
%TD*%
%TO.C,R3*%
G36*
G01*
X121250000Y-97750000D02*
X121800000Y-97750000D01*
G75*
G02*
X122000000Y-97950000I0J-200000D01*
G01*
X122000000Y-98350000D01*
G75*
G02*
X121800000Y-98550000I-200000J0D01*
G01*
X121250000Y-98550000D01*
G75*
G02*
X121050000Y-98350000I0J200000D01*
G01*
X121050000Y-97950000D01*
G75*
G02*
X121250000Y-97750000I200000J0D01*
G01*
G37*
G36*
G01*
X121250000Y-96100000D02*
X121800000Y-96100000D01*
G75*
G02*
X122000000Y-96300000I0J-200000D01*
G01*
X122000000Y-96700000D01*
G75*
G02*
X121800000Y-96900000I-200000J0D01*
G01*
X121250000Y-96900000D01*
G75*
G02*
X121050000Y-96700000I0J200000D01*
G01*
X121050000Y-96300000D01*
G75*
G02*
X121250000Y-96100000I200000J0D01*
G01*
G37*
%TD*%
%TO.C,R2*%
G36*
G01*
X121225000Y-87925000D02*
X121775000Y-87925000D01*
G75*
G02*
X121975000Y-88125000I0J-200000D01*
G01*
X121975000Y-88525000D01*
G75*
G02*
X121775000Y-88725000I-200000J0D01*
G01*
X121225000Y-88725000D01*
G75*
G02*
X121025000Y-88525000I0J200000D01*
G01*
X121025000Y-88125000D01*
G75*
G02*
X121225000Y-87925000I200000J0D01*
G01*
G37*
G36*
G01*
X121225000Y-86275000D02*
X121775000Y-86275000D01*
G75*
G02*
X121975000Y-86475000I0J-200000D01*
G01*
X121975000Y-86875000D01*
G75*
G02*
X121775000Y-87075000I-200000J0D01*
G01*
X121225000Y-87075000D01*
G75*
G02*
X121025000Y-86875000I0J200000D01*
G01*
X121025000Y-86475000D01*
G75*
G02*
X121225000Y-86275000I200000J0D01*
G01*
G37*
%TD*%
D14*
%TO.C,Q2*%
X125475000Y-97475000D03*
X123475000Y-98425000D03*
X123475000Y-96525000D03*
%TD*%
%TO.C,Q1*%
X125500000Y-87500000D03*
X123500000Y-88450000D03*
X123500000Y-86550000D03*
%TD*%
D15*
%TO.C,J1*%
X107045000Y-95750000D03*
X107045000Y-94950000D03*
X107045000Y-90050000D03*
X107045000Y-89250000D03*
X107045000Y-89250000D03*
X107045000Y-90050000D03*
X107045000Y-94950000D03*
X107045000Y-95750000D03*
D16*
X107045000Y-90750000D03*
X107045000Y-91250000D03*
X107045000Y-91750000D03*
X107045000Y-92750000D03*
X107045000Y-93250000D03*
X107045000Y-93750000D03*
X107045000Y-94250000D03*
X107045000Y-92250000D03*
%TD*%
%TO.C,C4*%
G36*
G01*
X115750000Y-97675000D02*
X115250000Y-97675000D01*
G75*
G02*
X115025000Y-97450000I0J225000D01*
G01*
X115025000Y-97000000D01*
G75*
G02*
X115250000Y-96775000I225000J0D01*
G01*
X115750000Y-96775000D01*
G75*
G02*
X115975000Y-97000000I0J-225000D01*
G01*
X115975000Y-97450000D01*
G75*
G02*
X115750000Y-97675000I-225000J0D01*
G01*
G37*
G36*
G01*
X115750000Y-99225000D02*
X115250000Y-99225000D01*
G75*
G02*
X115025000Y-99000000I0J225000D01*
G01*
X115025000Y-98550000D01*
G75*
G02*
X115250000Y-98325000I225000J0D01*
G01*
X115750000Y-98325000D01*
G75*
G02*
X115975000Y-98550000I0J-225000D01*
G01*
X115975000Y-99000000D01*
G75*
G02*
X115750000Y-99225000I-225000J0D01*
G01*
G37*
%TD*%
%TO.C,C2*%
G36*
G01*
X115750000Y-86675000D02*
X115250000Y-86675000D01*
G75*
G02*
X115025000Y-86450000I0J225000D01*
G01*
X115025000Y-86000000D01*
G75*
G02*
X115250000Y-85775000I225000J0D01*
G01*
X115750000Y-85775000D01*
G75*
G02*
X115975000Y-86000000I0J-225000D01*
G01*
X115975000Y-86450000D01*
G75*
G02*
X115750000Y-86675000I-225000J0D01*
G01*
G37*
G36*
G01*
X115750000Y-88225000D02*
X115250000Y-88225000D01*
G75*
G02*
X115025000Y-88000000I0J225000D01*
G01*
X115025000Y-87550000D01*
G75*
G02*
X115250000Y-87325000I225000J0D01*
G01*
X115750000Y-87325000D01*
G75*
G02*
X115975000Y-87550000I0J-225000D01*
G01*
X115975000Y-88000000D01*
G75*
G02*
X115750000Y-88225000I-225000J0D01*
G01*
G37*
%TD*%
%TO.C,C3*%
G36*
G01*
X109750000Y-94175000D02*
X109250000Y-94175000D01*
G75*
G02*
X109025000Y-93950000I0J225000D01*
G01*
X109025000Y-93500000D01*
G75*
G02*
X109250000Y-93275000I225000J0D01*
G01*
X109750000Y-93275000D01*
G75*
G02*
X109975000Y-93500000I0J-225000D01*
G01*
X109975000Y-93950000D01*
G75*
G02*
X109750000Y-94175000I-225000J0D01*
G01*
G37*
G36*
G01*
X109750000Y-95725000D02*
X109250000Y-95725000D01*
G75*
G02*
X109025000Y-95500000I0J225000D01*
G01*
X109025000Y-95050000D01*
G75*
G02*
X109250000Y-94825000I225000J0D01*
G01*
X109750000Y-94825000D01*
G75*
G02*
X109975000Y-95050000I0J-225000D01*
G01*
X109975000Y-95500000D01*
G75*
G02*
X109750000Y-95725000I-225000J0D01*
G01*
G37*
%TD*%
%TO.C,C1*%
G36*
G01*
X109250000Y-90825000D02*
X109750000Y-90825000D01*
G75*
G02*
X109975000Y-91050000I0J-225000D01*
G01*
X109975000Y-91500000D01*
G75*
G02*
X109750000Y-91725000I-225000J0D01*
G01*
X109250000Y-91725000D01*
G75*
G02*
X109025000Y-91500000I0J225000D01*
G01*
X109025000Y-91050000D01*
G75*
G02*
X109250000Y-90825000I225000J0D01*
G01*
G37*
G36*
G01*
X109250000Y-89275000D02*
X109750000Y-89275000D01*
G75*
G02*
X109975000Y-89500000I0J-225000D01*
G01*
X109975000Y-89950000D01*
G75*
G02*
X109750000Y-90175000I-225000J0D01*
G01*
X109250000Y-90175000D01*
G75*
G02*
X109025000Y-89950000I0J225000D01*
G01*
X109025000Y-89500000D01*
G75*
G02*
X109250000Y-89275000I225000J0D01*
G01*
G37*
%TD*%
M02*
