%TF.GenerationSoftware,KiCad,Pcbnew,(5.1.8)-1*%
%TF.CreationDate,2021-06-09T22:40:46+08:00*%
%TF.ProjectId,downloader,646f776e-6c6f-4616-9465-722e6b696361,rev?*%
%TF.SameCoordinates,Original*%
%TF.FileFunction,Copper,L1,Top*%
%TF.FilePolarity,Positive*%
%FSLAX46Y46*%
G04 Gerber Fmt 4.6, Leading zero omitted, Abs format (unit mm)*
G04 Created by KiCad (PCBNEW (5.1.8)-1) date 2021-06-09 22:40:46*
%MOMM*%
%LPD*%
G01*
G04 APERTURE LIST*
%TA.AperFunction,SMDPad,CuDef*%
%ADD10R,2.500000X4.000000*%
%TD*%
%TA.AperFunction,SMDPad,CuDef*%
%ADD11R,1.100000X0.510000*%
%TD*%
%TA.AperFunction,SMDPad,CuDef*%
%ADD12R,0.900000X1.700000*%
%TD*%
%TA.AperFunction,SMDPad,CuDef*%
%ADD13R,0.650000X0.400000*%
%TD*%
%TA.AperFunction,ComponentPad*%
%ADD14O,1.350000X1.350000*%
%TD*%
%TA.AperFunction,ComponentPad*%
%ADD15R,1.350000X1.350000*%
%TD*%
%TA.AperFunction,SMDPad,CuDef*%
%ADD16R,1.450000X0.600000*%
%TD*%
%TA.AperFunction,SMDPad,CuDef*%
%ADD17R,1.450000X0.300000*%
%TD*%
%TA.AperFunction,ComponentPad*%
%ADD18O,2.100000X1.000000*%
%TD*%
%TA.AperFunction,ComponentPad*%
%ADD19O,1.600000X1.000000*%
%TD*%
%TA.AperFunction,ViaPad*%
%ADD20C,0.800000*%
%TD*%
%TA.AperFunction,Conductor*%
%ADD21C,0.400000*%
%TD*%
%TA.AperFunction,Conductor*%
%ADD22C,0.500000*%
%TD*%
%TA.AperFunction,Conductor*%
%ADD23C,0.250000*%
%TD*%
%TA.AperFunction,Conductor*%
%ADD24C,0.300000*%
%TD*%
%TA.AperFunction,Conductor*%
%ADD25C,0.254000*%
%TD*%
%TA.AperFunction,Conductor*%
%ADD26C,0.350000*%
%TD*%
%ADD27C,0.350000*%
%ADD28O,1.700000X0.600000*%
%ADD29O,1.200000X0.600000*%
G04 APERTURE END LIST*
D10*
%TO.P,U2,11*%
%TO.N,N/C*%
X118900000Y-91750000D03*
D11*
%TO.P,U2,10*%
%TO.N,Net-(C3-Pad2)*%
X121450000Y-89750000D03*
%TO.P,U2,9*%
%TO.N,/RXD*%
X121450000Y-90750000D03*
%TO.P,U2,5*%
%TO.N,N/C*%
X116350000Y-93750000D03*
%TO.P,U2,8*%
%TO.N,/TXD*%
X121450000Y-91750000D03*
%TO.P,U2,7*%
%TO.N,VCC*%
X121450000Y-92750000D03*
%TO.P,U2,6*%
%TO.N,/RTS*%
X121450000Y-93750000D03*
%TO.P,U2,4*%
%TO.N,/DTR*%
X116350000Y-92750000D03*
%TO.P,U2,3*%
%TO.N,GND*%
X116350000Y-91750000D03*
%TO.P,U2,2*%
%TO.N,/D-*%
X116350000Y-90750000D03*
%TO.P,U2,1*%
%TO.N,/D+*%
X116350000Y-89750000D03*
%TD*%
D12*
%TO.P,SW2,2*%
%TO.N,/EN*%
X111400000Y-98050000D03*
%TO.P,SW2,1*%
%TO.N,GND*%
X107000000Y-98050000D03*
%TD*%
%TO.P,SW1,2*%
%TO.N,/IO0*%
X111400000Y-87650000D03*
%TO.P,SW1,1*%
%TO.N,GND*%
X107000000Y-87650000D03*
%TD*%
%TO.P,R3,2*%
%TO.N,/TXD*%
%TA.AperFunction,SMDPad,CuDef*%
G36*
G01*
X113125000Y-94225000D02*
X113125000Y-93675000D01*
G75*
G02*
X113325000Y-93475000I200000J0D01*
G01*
X113725000Y-93475000D01*
G75*
G02*
X113925000Y-93675000I0J-200000D01*
G01*
X113925000Y-94225000D01*
G75*
G02*
X113725000Y-94425000I-200000J0D01*
G01*
X113325000Y-94425000D01*
G75*
G02*
X113125000Y-94225000I0J200000D01*
G01*
G37*
%TD.AperFunction*%
%TO.P,R3,1*%
%TO.N,Net-(D3-Pad1)*%
%TA.AperFunction,SMDPad,CuDef*%
G36*
G01*
X111475000Y-94225000D02*
X111475000Y-93675000D01*
G75*
G02*
X111675000Y-93475000I200000J0D01*
G01*
X112075000Y-93475000D01*
G75*
G02*
X112275000Y-93675000I0J-200000D01*
G01*
X112275000Y-94225000D01*
G75*
G02*
X112075000Y-94425000I-200000J0D01*
G01*
X111675000Y-94425000D01*
G75*
G02*
X111475000Y-94225000I0J200000D01*
G01*
G37*
%TD.AperFunction*%
%TD*%
%TO.P,R2,2*%
%TO.N,/RXD*%
%TA.AperFunction,SMDPad,CuDef*%
G36*
G01*
X113325000Y-91425000D02*
X113325000Y-90875000D01*
G75*
G02*
X113525000Y-90675000I200000J0D01*
G01*
X113925000Y-90675000D01*
G75*
G02*
X114125000Y-90875000I0J-200000D01*
G01*
X114125000Y-91425000D01*
G75*
G02*
X113925000Y-91625000I-200000J0D01*
G01*
X113525000Y-91625000D01*
G75*
G02*
X113325000Y-91425000I0J200000D01*
G01*
G37*
%TD.AperFunction*%
%TO.P,R2,1*%
%TO.N,Net-(D2-Pad1)*%
%TA.AperFunction,SMDPad,CuDef*%
G36*
G01*
X111675000Y-91425000D02*
X111675000Y-90875000D01*
G75*
G02*
X111875000Y-90675000I200000J0D01*
G01*
X112275000Y-90675000D01*
G75*
G02*
X112475000Y-90875000I0J-200000D01*
G01*
X112475000Y-91425000D01*
G75*
G02*
X112275000Y-91625000I-200000J0D01*
G01*
X111875000Y-91625000D01*
G75*
G02*
X111675000Y-91425000I0J200000D01*
G01*
G37*
%TD.AperFunction*%
%TD*%
%TO.P,R1,2*%
%TO.N,GND*%
%TA.AperFunction,SMDPad,CuDef*%
G36*
G01*
X106825000Y-94875000D02*
X107375000Y-94875000D01*
G75*
G02*
X107575000Y-95075000I0J-200000D01*
G01*
X107575000Y-95475000D01*
G75*
G02*
X107375000Y-95675000I-200000J0D01*
G01*
X106825000Y-95675000D01*
G75*
G02*
X106625000Y-95475000I0J200000D01*
G01*
X106625000Y-95075000D01*
G75*
G02*
X106825000Y-94875000I200000J0D01*
G01*
G37*
%TD.AperFunction*%
%TO.P,R1,1*%
%TO.N,Net-(D1-Pad1)*%
%TA.AperFunction,SMDPad,CuDef*%
G36*
G01*
X106825000Y-93225000D02*
X107375000Y-93225000D01*
G75*
G02*
X107575000Y-93425000I0J-200000D01*
G01*
X107575000Y-93825000D01*
G75*
G02*
X107375000Y-94025000I-200000J0D01*
G01*
X106825000Y-94025000D01*
G75*
G02*
X106625000Y-93825000I0J200000D01*
G01*
X106625000Y-93425000D01*
G75*
G02*
X106825000Y-93225000I200000J0D01*
G01*
G37*
%TD.AperFunction*%
%TD*%
%TO.P,D3,2*%
%TO.N,VCC*%
%TA.AperFunction,SMDPad,CuDef*%
G36*
G01*
X109150000Y-93693750D02*
X109150000Y-94206250D01*
G75*
G02*
X108931250Y-94425000I-218750J0D01*
G01*
X108493750Y-94425000D01*
G75*
G02*
X108275000Y-94206250I0J218750D01*
G01*
X108275000Y-93693750D01*
G75*
G02*
X108493750Y-93475000I218750J0D01*
G01*
X108931250Y-93475000D01*
G75*
G02*
X109150000Y-93693750I0J-218750D01*
G01*
G37*
%TD.AperFunction*%
%TO.P,D3,1*%
%TO.N,Net-(D3-Pad1)*%
%TA.AperFunction,SMDPad,CuDef*%
G36*
G01*
X110725000Y-93693750D02*
X110725000Y-94206250D01*
G75*
G02*
X110506250Y-94425000I-218750J0D01*
G01*
X110068750Y-94425000D01*
G75*
G02*
X109850000Y-94206250I0J218750D01*
G01*
X109850000Y-93693750D01*
G75*
G02*
X110068750Y-93475000I218750J0D01*
G01*
X110506250Y-93475000D01*
G75*
G02*
X110725000Y-93693750I0J-218750D01*
G01*
G37*
%TD.AperFunction*%
%TD*%
%TO.P,D2,2*%
%TO.N,VCC*%
%TA.AperFunction,SMDPad,CuDef*%
G36*
G01*
X109350000Y-90893750D02*
X109350000Y-91406250D01*
G75*
G02*
X109131250Y-91625000I-218750J0D01*
G01*
X108693750Y-91625000D01*
G75*
G02*
X108475000Y-91406250I0J218750D01*
G01*
X108475000Y-90893750D01*
G75*
G02*
X108693750Y-90675000I218750J0D01*
G01*
X109131250Y-90675000D01*
G75*
G02*
X109350000Y-90893750I0J-218750D01*
G01*
G37*
%TD.AperFunction*%
%TO.P,D2,1*%
%TO.N,Net-(D2-Pad1)*%
%TA.AperFunction,SMDPad,CuDef*%
G36*
G01*
X110925000Y-90893750D02*
X110925000Y-91406250D01*
G75*
G02*
X110706250Y-91625000I-218750J0D01*
G01*
X110268750Y-91625000D01*
G75*
G02*
X110050000Y-91406250I0J218750D01*
G01*
X110050000Y-90893750D01*
G75*
G02*
X110268750Y-90675000I218750J0D01*
G01*
X110706250Y-90675000D01*
G75*
G02*
X110925000Y-90893750I0J-218750D01*
G01*
G37*
%TD.AperFunction*%
%TD*%
%TO.P,D1,2*%
%TO.N,VCC*%
%TA.AperFunction,SMDPad,CuDef*%
G36*
G01*
X107356250Y-90700000D02*
X106843750Y-90700000D01*
G75*
G02*
X106625000Y-90481250I0J218750D01*
G01*
X106625000Y-90043750D01*
G75*
G02*
X106843750Y-89825000I218750J0D01*
G01*
X107356250Y-89825000D01*
G75*
G02*
X107575000Y-90043750I0J-218750D01*
G01*
X107575000Y-90481250D01*
G75*
G02*
X107356250Y-90700000I-218750J0D01*
G01*
G37*
%TD.AperFunction*%
%TO.P,D1,1*%
%TO.N,Net-(D1-Pad1)*%
%TA.AperFunction,SMDPad,CuDef*%
G36*
G01*
X107356250Y-92275000D02*
X106843750Y-92275000D01*
G75*
G02*
X106625000Y-92056250I0J218750D01*
G01*
X106625000Y-91618750D01*
G75*
G02*
X106843750Y-91400000I218750J0D01*
G01*
X107356250Y-91400000D01*
G75*
G02*
X107575000Y-91618750I0J-218750D01*
G01*
X107575000Y-92056250D01*
G75*
G02*
X107356250Y-92275000I-218750J0D01*
G01*
G37*
%TD.AperFunction*%
%TD*%
%TO.P,C6,2*%
%TO.N,GND*%
%TA.AperFunction,SMDPad,CuDef*%
G36*
G01*
X113450000Y-97725000D02*
X112950000Y-97725000D01*
G75*
G02*
X112725000Y-97500000I0J225000D01*
G01*
X112725000Y-97050000D01*
G75*
G02*
X112950000Y-96825000I225000J0D01*
G01*
X113450000Y-96825000D01*
G75*
G02*
X113675000Y-97050000I0J-225000D01*
G01*
X113675000Y-97500000D01*
G75*
G02*
X113450000Y-97725000I-225000J0D01*
G01*
G37*
%TD.AperFunction*%
%TO.P,C6,1*%
%TO.N,/EN*%
%TA.AperFunction,SMDPad,CuDef*%
G36*
G01*
X113450000Y-99275000D02*
X112950000Y-99275000D01*
G75*
G02*
X112725000Y-99050000I0J225000D01*
G01*
X112725000Y-98600000D01*
G75*
G02*
X112950000Y-98375000I225000J0D01*
G01*
X113450000Y-98375000D01*
G75*
G02*
X113675000Y-98600000I0J-225000D01*
G01*
X113675000Y-99050000D01*
G75*
G02*
X113450000Y-99275000I-225000J0D01*
G01*
G37*
%TD.AperFunction*%
%TD*%
%TO.P,C5,2*%
%TO.N,GND*%
%TA.AperFunction,SMDPad,CuDef*%
G36*
G01*
X112950000Y-87975000D02*
X113450000Y-87975000D01*
G75*
G02*
X113675000Y-88200000I0J-225000D01*
G01*
X113675000Y-88650000D01*
G75*
G02*
X113450000Y-88875000I-225000J0D01*
G01*
X112950000Y-88875000D01*
G75*
G02*
X112725000Y-88650000I0J225000D01*
G01*
X112725000Y-88200000D01*
G75*
G02*
X112950000Y-87975000I225000J0D01*
G01*
G37*
%TD.AperFunction*%
%TO.P,C5,1*%
%TO.N,/IO0*%
%TA.AperFunction,SMDPad,CuDef*%
G36*
G01*
X112950000Y-86425000D02*
X113450000Y-86425000D01*
G75*
G02*
X113675000Y-86650000I0J-225000D01*
G01*
X113675000Y-87100000D01*
G75*
G02*
X113450000Y-87325000I-225000J0D01*
G01*
X112950000Y-87325000D01*
G75*
G02*
X112725000Y-87100000I0J225000D01*
G01*
X112725000Y-86650000D01*
G75*
G02*
X112950000Y-86425000I225000J0D01*
G01*
G37*
%TD.AperFunction*%
%TD*%
%TO.P,C4,2*%
%TO.N,VCC*%
%TA.AperFunction,SMDPad,CuDef*%
G36*
G01*
X116875000Y-87700000D02*
X116875000Y-88200000D01*
G75*
G02*
X116650000Y-88425000I-225000J0D01*
G01*
X116200000Y-88425000D01*
G75*
G02*
X115975000Y-88200000I0J225000D01*
G01*
X115975000Y-87700000D01*
G75*
G02*
X116200000Y-87475000I225000J0D01*
G01*
X116650000Y-87475000D01*
G75*
G02*
X116875000Y-87700000I0J-225000D01*
G01*
G37*
%TD.AperFunction*%
%TO.P,C4,1*%
%TO.N,GND*%
%TA.AperFunction,SMDPad,CuDef*%
G36*
G01*
X118425000Y-87700000D02*
X118425000Y-88200000D01*
G75*
G02*
X118200000Y-88425000I-225000J0D01*
G01*
X117750000Y-88425000D01*
G75*
G02*
X117525000Y-88200000I0J225000D01*
G01*
X117525000Y-87700000D01*
G75*
G02*
X117750000Y-87475000I225000J0D01*
G01*
X118200000Y-87475000D01*
G75*
G02*
X118425000Y-87700000I0J-225000D01*
G01*
G37*
%TD.AperFunction*%
%TD*%
%TO.P,C3,2*%
%TO.N,Net-(C3-Pad2)*%
%TA.AperFunction,SMDPad,CuDef*%
G36*
G01*
X121025000Y-88200000D02*
X121025000Y-87700000D01*
G75*
G02*
X121250000Y-87475000I225000J0D01*
G01*
X121700000Y-87475000D01*
G75*
G02*
X121925000Y-87700000I0J-225000D01*
G01*
X121925000Y-88200000D01*
G75*
G02*
X121700000Y-88425000I-225000J0D01*
G01*
X121250000Y-88425000D01*
G75*
G02*
X121025000Y-88200000I0J225000D01*
G01*
G37*
%TD.AperFunction*%
%TO.P,C3,1*%
%TO.N,GND*%
%TA.AperFunction,SMDPad,CuDef*%
G36*
G01*
X119475000Y-88200000D02*
X119475000Y-87700000D01*
G75*
G02*
X119700000Y-87475000I225000J0D01*
G01*
X120150000Y-87475000D01*
G75*
G02*
X120375000Y-87700000I0J-225000D01*
G01*
X120375000Y-88200000D01*
G75*
G02*
X120150000Y-88425000I-225000J0D01*
G01*
X119700000Y-88425000D01*
G75*
G02*
X119475000Y-88200000I0J225000D01*
G01*
G37*
%TD.AperFunction*%
%TD*%
D13*
%TO.P,U1,6*%
%TO.N,/EN*%
X121150000Y-95800000D03*
%TO.P,U1,4*%
%TO.N,/DTR*%
X121150000Y-97100000D03*
%TO.P,U1,2*%
X119250000Y-96450000D03*
%TO.P,U1,5*%
%TO.N,/RTS*%
X121150000Y-96450000D03*
%TO.P,U1,3*%
%TO.N,/IO0*%
X119250000Y-97100000D03*
%TO.P,U1,1*%
%TO.N,/RTS*%
X119250000Y-95800000D03*
%TD*%
D14*
%TO.P,J2,6*%
%TO.N,VCC*%
X126700000Y-97950000D03*
%TO.P,J2,5*%
%TO.N,GND*%
X126700000Y-95950000D03*
%TO.P,J2,4*%
%TO.N,/EN*%
X126700000Y-93950000D03*
%TO.P,J2,3*%
%TO.N,/IO0*%
X126700000Y-91950000D03*
%TO.P,J2,2*%
%TO.N,/TXD*%
X126700000Y-89950000D03*
D15*
%TO.P,J2,1*%
%TO.N,/RXD*%
X126700000Y-87950000D03*
%TD*%
D16*
%TO.P,J1,B1*%
%TO.N,GND*%
X103245000Y-96200000D03*
%TO.P,J1,A9*%
%TO.N,VCC*%
X103245000Y-95400000D03*
%TO.P,J1,B9*%
X103245000Y-90500000D03*
%TO.P,J1,B12*%
%TO.N,GND*%
X103245000Y-89700000D03*
%TO.P,J1,A1*%
X103245000Y-89700000D03*
%TO.P,J1,A4*%
%TO.N,VCC*%
X103245000Y-90500000D03*
%TO.P,J1,B4*%
X103245000Y-95400000D03*
%TO.P,J1,A12*%
%TO.N,GND*%
X103245000Y-96200000D03*
D17*
%TO.P,J1,B8*%
%TO.N,N/C*%
X103245000Y-91200000D03*
%TO.P,J1,A5*%
X103245000Y-91700000D03*
%TO.P,J1,B7*%
%TO.N,/D-*%
X103245000Y-92200000D03*
%TO.P,J1,A7*%
X103245000Y-93200000D03*
%TO.P,J1,B6*%
%TO.N,/D+*%
X103245000Y-93700000D03*
%TO.P,J1,A8*%
%TO.N,N/C*%
X103245000Y-94200000D03*
%TO.P,J1,B5*%
X103245000Y-94700000D03*
%TO.P,J1,A6*%
%TO.N,/D+*%
X103245000Y-92700000D03*
D18*
%TO.P,J1,S1*%
%TO.N,GND*%
X102330000Y-97270000D03*
X102330000Y-88630000D03*
D19*
X98150000Y-88630000D03*
X98150000Y-97270000D03*
%TD*%
D20*
%TO.N,GND*%
X115000000Y-87050000D03*
X108300000Y-87150000D03*
X124800000Y-91550000D03*
X122950000Y-89200000D03*
%TO.N,VCC*%
X109400006Y-97250006D03*
%TO.N,/IO0*%
X117900000Y-94499990D03*
X114700000Y-88050000D03*
%TO.N,/EN*%
X119600000Y-94750000D03*
X112800000Y-95950000D03*
%TO.N,/D-*%
X101200000Y-92750000D03*
X105257450Y-88351639D03*
%TO.N,/D+*%
X114700000Y-89250000D03*
X105201048Y-89351048D03*
X105225001Y-93275001D03*
%TO.N,/TXD*%
X113896601Y-92929108D03*
X122799998Y-91750000D03*
%TO.N,/RXD*%
X114200000Y-91950008D03*
X122648954Y-90598950D03*
%TO.N,/DTR*%
X122900000Y-97550000D03*
X116169365Y-97116627D03*
%TD*%
D21*
%TO.N,GND*%
X119925000Y-87950000D02*
X117975000Y-87950000D01*
D22*
X107100000Y-97950000D02*
X107000000Y-98050000D01*
X107100000Y-95275000D02*
X107100000Y-97950000D01*
X103245000Y-96355000D02*
X102330000Y-97270000D01*
X103245000Y-96200000D02*
X103245000Y-96355000D01*
X98150000Y-97270000D02*
X102330000Y-97270000D01*
X98150000Y-88630000D02*
X102330000Y-88630000D01*
X102330000Y-88785000D02*
X103245000Y-89700000D01*
X102330000Y-88630000D02*
X102330000Y-88785000D01*
X106851638Y-87501638D02*
X107000000Y-87650000D01*
X103458362Y-87501638D02*
X106851638Y-87501638D01*
X102330000Y-88630000D02*
X103458362Y-87501638D01*
X103110000Y-98050000D02*
X107000000Y-98050000D01*
X102330000Y-97270000D02*
X103110000Y-98050000D01*
D23*
X114624990Y-95850010D02*
X113200000Y-97275000D01*
X114624990Y-92611824D02*
X114624990Y-95850010D01*
X117075000Y-87050000D02*
X115000000Y-87050000D01*
X117975000Y-87950000D02*
X117075000Y-87050000D01*
X107500000Y-87150000D02*
X107000000Y-87650000D01*
X108300000Y-87150000D02*
X107500000Y-87150000D01*
X108175001Y-88825001D02*
X107000000Y-87650000D01*
X112799999Y-88825001D02*
X108175001Y-88825001D01*
X113200000Y-88425000D02*
X112799999Y-88825001D01*
X115486814Y-91750000D02*
X114624990Y-92611824D01*
X116350000Y-91750000D02*
X115486814Y-91750000D01*
X109800000Y-98050000D02*
X107000000Y-98050000D01*
X110300000Y-97550000D02*
X109800000Y-98050000D01*
X111925001Y-95224999D02*
X110300000Y-96850000D01*
X114025001Y-95224999D02*
X111925001Y-95224999D01*
X110300000Y-96850000D02*
X110300000Y-97550000D01*
X114624990Y-94625010D02*
X114025001Y-95224999D01*
X114624990Y-92611824D02*
X114624990Y-94625010D01*
D22*
X124800000Y-94050000D02*
X124800000Y-91550000D01*
X126700000Y-95950000D02*
X124800000Y-94050000D01*
X122350000Y-86850000D02*
X122950000Y-87450000D01*
X120787500Y-86850000D02*
X122350000Y-86850000D01*
X122950000Y-87450000D02*
X122950000Y-89200000D01*
X119925000Y-87712500D02*
X120787500Y-86850000D01*
X119925000Y-87950000D02*
X119925000Y-87712500D01*
%TO.N,VCC*%
X108912500Y-93750000D02*
X108712500Y-93950000D01*
X108912500Y-91150000D02*
X108912500Y-93750000D01*
X107987500Y-91150000D02*
X107100000Y-90262500D01*
X108912500Y-91150000D02*
X107987500Y-91150000D01*
X125100000Y-96350000D02*
X126700000Y-97950000D01*
X125100000Y-95784998D02*
X125100000Y-96350000D01*
X122065002Y-92750000D02*
X125100000Y-95784998D01*
X121450000Y-92750000D02*
X122065002Y-92750000D01*
X106862500Y-90500000D02*
X107100000Y-90262500D01*
X103245000Y-90500000D02*
X106862500Y-90500000D01*
X106174990Y-93695010D02*
X106174990Y-91187510D01*
X104470000Y-95400000D02*
X106174990Y-93695010D01*
X106174990Y-91187510D02*
X107100000Y-90262500D01*
X103245000Y-95400000D02*
X104470000Y-95400000D01*
D23*
X121059998Y-92750000D02*
X121450000Y-92750000D01*
X120500000Y-92190002D02*
X121059998Y-92750000D01*
X120500000Y-89350000D02*
X120500000Y-92190002D01*
X117325000Y-88850000D02*
X120000000Y-88850000D01*
X120000000Y-88850000D02*
X120500000Y-89350000D01*
X116425000Y-87950000D02*
X117325000Y-88850000D01*
D22*
X108712500Y-93950000D02*
X108712500Y-96562500D01*
X108712500Y-96562500D02*
X109400006Y-97250006D01*
D21*
%TO.N,Net-(C3-Pad2)*%
X121475000Y-89725000D02*
X121450000Y-89750000D01*
X121475000Y-87950000D02*
X121475000Y-89725000D01*
D22*
%TO.N,/IO0*%
X112425000Y-87650000D02*
X113200000Y-86875000D01*
X111400000Y-87650000D02*
X112425000Y-87650000D01*
X119250000Y-97100000D02*
X118425000Y-97100000D01*
X118425000Y-97100000D02*
X117900000Y-96575000D01*
X117900000Y-96575000D02*
X117900000Y-94499990D01*
X113525000Y-86875000D02*
X114700000Y-88050000D01*
X113200000Y-86875000D02*
X113525000Y-86875000D01*
%TO.N,/EN*%
X112425000Y-98050000D02*
X113200000Y-98825000D01*
X111400000Y-98050000D02*
X112425000Y-98050000D01*
D21*
X120500000Y-94750000D02*
X119600000Y-94750000D01*
X121150000Y-95400000D02*
X120500000Y-94750000D01*
X121150000Y-95800000D02*
X121150000Y-95400000D01*
D22*
X112150000Y-95950000D02*
X112800000Y-95950000D01*
X111400000Y-96700000D02*
X112150000Y-95950000D01*
X111400000Y-98050000D02*
X111400000Y-96700000D01*
%TO.N,Net-(D1-Pad1)*%
X107100000Y-91837500D02*
X107100000Y-93625000D01*
%TO.N,Net-(D2-Pad1)*%
X110487500Y-91150000D02*
X112075000Y-91150000D01*
%TO.N,Net-(D3-Pad1)*%
X110287500Y-93950000D02*
X111875000Y-93950000D01*
D24*
%TO.N,/D-*%
X101750000Y-92200000D02*
X101200000Y-92750000D01*
X103245000Y-92200000D02*
X101750000Y-92200000D01*
X101650000Y-93200000D02*
X101200000Y-92750000D01*
X103245000Y-93200000D02*
X101650000Y-93200000D01*
D22*
X105459643Y-88351639D02*
X105257450Y-88351639D01*
X106329002Y-89220998D02*
X105459643Y-88351639D01*
X107479270Y-89220998D02*
X106329002Y-89220998D01*
X108025010Y-89850000D02*
X108025010Y-89766738D01*
X108025010Y-89766738D02*
X107479270Y-89220998D01*
X113900000Y-89850000D02*
X108025010Y-89850000D01*
X114800000Y-90750000D02*
X113900000Y-89850000D01*
X116350000Y-90750000D02*
X114800000Y-90750000D01*
D24*
%TO.N,/D+*%
X103245000Y-93700000D02*
X104800002Y-93700000D01*
X104639545Y-92700000D02*
X105189547Y-93250002D01*
X103245000Y-92700000D02*
X104639545Y-92700000D01*
X105189547Y-93250002D02*
X105250000Y-93250002D01*
D22*
X115200000Y-89750000D02*
X114700000Y-89250000D01*
X116350000Y-89750000D02*
X115200000Y-89750000D01*
X105189547Y-93250002D02*
X105201048Y-93238501D01*
D24*
X105225001Y-93275001D02*
X105250000Y-93250002D01*
X104800002Y-93700000D02*
X105225001Y-93275001D01*
D21*
%TO.N,/TXD*%
X113525000Y-93950000D02*
X113525000Y-93300709D01*
X113525000Y-93300709D02*
X113896601Y-92929108D01*
D22*
X121450000Y-91750000D02*
X122799998Y-91750000D01*
X126200000Y-89450000D02*
X125000000Y-89450000D01*
X122799998Y-91650002D02*
X122799998Y-91750000D01*
X125000000Y-89450000D02*
X122799998Y-91650002D01*
X126700000Y-89950000D02*
X126200000Y-89450000D01*
D21*
%TO.N,/RXD*%
X114200000Y-91625000D02*
X114200000Y-91950008D01*
X113725000Y-91150000D02*
X114200000Y-91625000D01*
D22*
X121450000Y-90750000D02*
X122497904Y-90750000D01*
X122497904Y-90750000D02*
X122648954Y-90598950D01*
X126700000Y-87950000D02*
X125458004Y-87950000D01*
X125458004Y-87950000D02*
X122809054Y-90598950D01*
X122809054Y-90598950D02*
X122648954Y-90598950D01*
D21*
%TO.N,/DTR*%
X119776458Y-96450000D02*
X119250000Y-96450000D01*
X120426458Y-97100000D02*
X119776458Y-96450000D01*
X121150000Y-97100000D02*
X120426458Y-97100000D01*
D22*
X121150000Y-97100000D02*
X122450000Y-97100000D01*
X122450000Y-97100000D02*
X122900000Y-97550000D01*
X116350000Y-92750000D02*
X115300000Y-92750000D01*
X115300000Y-92750000D02*
X115200000Y-92850000D01*
X115200000Y-92850000D02*
X115200000Y-96147262D01*
X115200000Y-96147262D02*
X116169365Y-97116627D01*
D21*
%TO.N,/RTS*%
X122200000Y-95995002D02*
X121745002Y-96450000D01*
X121745002Y-96450000D02*
X121150000Y-96450000D01*
X122200000Y-94500000D02*
X122200000Y-95995002D01*
X121450000Y-93750000D02*
X122200000Y-94500000D01*
X120625000Y-96450000D02*
X121150000Y-96450000D01*
X119975000Y-95800000D02*
X120625000Y-96450000D01*
X119250000Y-95800000D02*
X119975000Y-95800000D01*
%TD*%
D25*
%TO.N,GND*%
X114315001Y-96103783D02*
X114310719Y-96147262D01*
X114327805Y-96320752D01*
X114378412Y-96487575D01*
X114460590Y-96641321D01*
X114543468Y-96742308D01*
X114543471Y-96742311D01*
X114571184Y-96776079D01*
X114604951Y-96803791D01*
X115162830Y-97361671D01*
X115174139Y-97418525D01*
X115252160Y-97606883D01*
X115365428Y-97776401D01*
X115509591Y-97920564D01*
X115679109Y-98033832D01*
X115867467Y-98111853D01*
X116067426Y-98151627D01*
X116271304Y-98151627D01*
X116471263Y-98111853D01*
X116659621Y-98033832D01*
X116829139Y-97920564D01*
X116973302Y-97776401D01*
X117086570Y-97606883D01*
X117164591Y-97418525D01*
X117204365Y-97218566D01*
X117204365Y-97122399D01*
X117271183Y-97203817D01*
X117304956Y-97231534D01*
X117768466Y-97695044D01*
X117796183Y-97728817D01*
X117910944Y-97823000D01*
X117200000Y-97823000D01*
X117175224Y-97825440D01*
X117151399Y-97832667D01*
X117129443Y-97844403D01*
X117110197Y-97860197D01*
X117094403Y-97879443D01*
X117082667Y-97901399D01*
X117075440Y-97925224D01*
X117073000Y-97950000D01*
X117073000Y-99790000D01*
X113887623Y-99790000D01*
X113929497Y-99767618D01*
X114060284Y-99660284D01*
X114167618Y-99529497D01*
X114247375Y-99380283D01*
X114296488Y-99218377D01*
X114313072Y-99050000D01*
X114313072Y-98600000D01*
X114296488Y-98431623D01*
X114247375Y-98269717D01*
X114169300Y-98123649D01*
X114205537Y-98079494D01*
X114264502Y-97969180D01*
X114300812Y-97849482D01*
X114313072Y-97725000D01*
X114310000Y-97560750D01*
X114151250Y-97402000D01*
X113327000Y-97402000D01*
X113327000Y-97422000D01*
X113073000Y-97422000D01*
X113073000Y-97402000D01*
X113053000Y-97402000D01*
X113053000Y-97148000D01*
X113073000Y-97148000D01*
X113073000Y-97128000D01*
X113327000Y-97128000D01*
X113327000Y-97148000D01*
X114151250Y-97148000D01*
X114310000Y-96989250D01*
X114313072Y-96825000D01*
X114300812Y-96700518D01*
X114264502Y-96580820D01*
X114205537Y-96470506D01*
X114126185Y-96373815D01*
X114029494Y-96294463D01*
X113919180Y-96235498D01*
X113805356Y-96200970D01*
X113835000Y-96051939D01*
X113835000Y-95848061D01*
X113795226Y-95648102D01*
X113717205Y-95459744D01*
X113603937Y-95290226D01*
X113459774Y-95146063D01*
X113335569Y-95063072D01*
X113725000Y-95063072D01*
X113888500Y-95046969D01*
X114045716Y-94999278D01*
X114190608Y-94921831D01*
X114315001Y-94819744D01*
X114315001Y-96103783D01*
%TA.AperFunction,Conductor*%
D26*
G36*
X114315001Y-96103783D02*
G01*
X114310719Y-96147262D01*
X114327805Y-96320752D01*
X114378412Y-96487575D01*
X114460590Y-96641321D01*
X114543468Y-96742308D01*
X114543471Y-96742311D01*
X114571184Y-96776079D01*
X114604951Y-96803791D01*
X115162830Y-97361671D01*
X115174139Y-97418525D01*
X115252160Y-97606883D01*
X115365428Y-97776401D01*
X115509591Y-97920564D01*
X115679109Y-98033832D01*
X115867467Y-98111853D01*
X116067426Y-98151627D01*
X116271304Y-98151627D01*
X116471263Y-98111853D01*
X116659621Y-98033832D01*
X116829139Y-97920564D01*
X116973302Y-97776401D01*
X117086570Y-97606883D01*
X117164591Y-97418525D01*
X117204365Y-97218566D01*
X117204365Y-97122399D01*
X117271183Y-97203817D01*
X117304956Y-97231534D01*
X117768466Y-97695044D01*
X117796183Y-97728817D01*
X117910944Y-97823000D01*
X117200000Y-97823000D01*
X117175224Y-97825440D01*
X117151399Y-97832667D01*
X117129443Y-97844403D01*
X117110197Y-97860197D01*
X117094403Y-97879443D01*
X117082667Y-97901399D01*
X117075440Y-97925224D01*
X117073000Y-97950000D01*
X117073000Y-99790000D01*
X113887623Y-99790000D01*
X113929497Y-99767618D01*
X114060284Y-99660284D01*
X114167618Y-99529497D01*
X114247375Y-99380283D01*
X114296488Y-99218377D01*
X114313072Y-99050000D01*
X114313072Y-98600000D01*
X114296488Y-98431623D01*
X114247375Y-98269717D01*
X114169300Y-98123649D01*
X114205537Y-98079494D01*
X114264502Y-97969180D01*
X114300812Y-97849482D01*
X114313072Y-97725000D01*
X114310000Y-97560750D01*
X114151250Y-97402000D01*
X113327000Y-97402000D01*
X113327000Y-97422000D01*
X113073000Y-97422000D01*
X113073000Y-97402000D01*
X113053000Y-97402000D01*
X113053000Y-97148000D01*
X113073000Y-97148000D01*
X113073000Y-97128000D01*
X113327000Y-97128000D01*
X113327000Y-97148000D01*
X114151250Y-97148000D01*
X114310000Y-96989250D01*
X114313072Y-96825000D01*
X114300812Y-96700518D01*
X114264502Y-96580820D01*
X114205537Y-96470506D01*
X114126185Y-96373815D01*
X114029494Y-96294463D01*
X113919180Y-96235498D01*
X113805356Y-96200970D01*
X113835000Y-96051939D01*
X113835000Y-95848061D01*
X113795226Y-95648102D01*
X113717205Y-95459744D01*
X113603937Y-95290226D01*
X113459774Y-95146063D01*
X113335569Y-95063072D01*
X113725000Y-95063072D01*
X113888500Y-95046969D01*
X114045716Y-94999278D01*
X114190608Y-94921831D01*
X114315001Y-94819744D01*
X114315001Y-96103783D01*
G37*
%TD.AperFunction*%
D25*
X112232382Y-86170503D02*
X112185044Y-86259066D01*
X112094180Y-86210498D01*
X111974482Y-86174188D01*
X111850000Y-86161928D01*
X110950000Y-86161928D01*
X110825518Y-86174188D01*
X110705820Y-86210498D01*
X110595506Y-86269463D01*
X110498815Y-86348815D01*
X110419463Y-86445506D01*
X110360498Y-86555820D01*
X110324188Y-86675518D01*
X110311928Y-86800000D01*
X110311928Y-88500000D01*
X110324188Y-88624482D01*
X110360498Y-88744180D01*
X110419463Y-88854494D01*
X110498815Y-88951185D01*
X110515649Y-88965000D01*
X108474850Y-88965000D01*
X108135804Y-88625954D01*
X108108087Y-88592181D01*
X108081169Y-88570090D01*
X108088072Y-88500000D01*
X108085000Y-87935750D01*
X107926250Y-87777000D01*
X107127000Y-87777000D01*
X107127000Y-87797000D01*
X106873000Y-87797000D01*
X106873000Y-87777000D01*
X106853000Y-87777000D01*
X106853000Y-87523000D01*
X106873000Y-87523000D01*
X106873000Y-86323750D01*
X107127000Y-86323750D01*
X107127000Y-87523000D01*
X107926250Y-87523000D01*
X108085000Y-87364250D01*
X108088072Y-86800000D01*
X108075812Y-86675518D01*
X108039502Y-86555820D01*
X107980537Y-86445506D01*
X107901185Y-86348815D01*
X107804494Y-86269463D01*
X107694180Y-86210498D01*
X107574482Y-86174188D01*
X107450000Y-86161928D01*
X107285750Y-86165000D01*
X107127000Y-86323750D01*
X106873000Y-86323750D01*
X106714250Y-86165000D01*
X106550000Y-86161928D01*
X106425518Y-86174188D01*
X106305820Y-86210498D01*
X106195506Y-86269463D01*
X106098815Y-86348815D01*
X106019463Y-86445506D01*
X105960498Y-86555820D01*
X105924188Y-86675518D01*
X105911928Y-86800000D01*
X105915000Y-87364250D01*
X106073748Y-87522998D01*
X105915000Y-87522998D01*
X105915000Y-87546216D01*
X105747706Y-87434434D01*
X105559348Y-87356413D01*
X105359389Y-87316639D01*
X105155511Y-87316639D01*
X104955552Y-87356413D01*
X104767194Y-87434434D01*
X104597676Y-87547702D01*
X104453513Y-87691865D01*
X104340245Y-87861383D01*
X104262224Y-88049741D01*
X104222450Y-88249700D01*
X104222450Y-88453578D01*
X104262224Y-88653537D01*
X104323493Y-88801452D01*
X104290272Y-88851171D01*
X104214180Y-88810498D01*
X104094482Y-88774188D01*
X103970000Y-88761928D01*
X103852104Y-88762753D01*
X103847954Y-88757000D01*
X102457000Y-88757000D01*
X102457000Y-88768133D01*
X102395518Y-88774188D01*
X102386248Y-88777000D01*
X102203000Y-88777000D01*
X102203000Y-88757000D01*
X100812046Y-88757000D01*
X100685881Y-88931874D01*
X100765724Y-89154976D01*
X100887631Y-89342764D01*
X101028206Y-89487116D01*
X100949259Y-89605269D01*
X100876892Y-89779978D01*
X100840000Y-89965448D01*
X100840000Y-90154552D01*
X100876892Y-90340022D01*
X100949259Y-90514731D01*
X101054319Y-90671964D01*
X101188036Y-90805681D01*
X101345269Y-90910741D01*
X101519978Y-90983108D01*
X101705448Y-91020000D01*
X101884883Y-91020000D01*
X101881928Y-91050000D01*
X101881928Y-91350000D01*
X101888330Y-91415000D01*
X101788552Y-91415000D01*
X101749999Y-91411203D01*
X101711446Y-91415000D01*
X101711439Y-91415000D01*
X101618155Y-91424188D01*
X101596112Y-91426359D01*
X101561672Y-91436806D01*
X101448140Y-91471246D01*
X101311767Y-91544138D01*
X101263219Y-91583981D01*
X101222187Y-91617655D01*
X101222184Y-91617658D01*
X101192236Y-91642236D01*
X101167657Y-91672185D01*
X101124842Y-91715000D01*
X101098061Y-91715000D01*
X100898102Y-91754774D01*
X100709744Y-91832795D01*
X100540226Y-91946063D01*
X100396063Y-92090226D01*
X100282795Y-92259744D01*
X100204774Y-92448102D01*
X100165000Y-92648061D01*
X100165000Y-92851939D01*
X100204774Y-93051898D01*
X100282795Y-93240256D01*
X100396063Y-93409774D01*
X100540226Y-93553937D01*
X100709744Y-93667205D01*
X100898102Y-93745226D01*
X101098061Y-93785000D01*
X101125423Y-93785000D01*
X101211767Y-93855862D01*
X101322408Y-93915000D01*
X101348140Y-93928754D01*
X101496112Y-93973641D01*
X101508164Y-93974828D01*
X101611439Y-93985000D01*
X101611446Y-93985000D01*
X101649999Y-93988797D01*
X101688552Y-93985000D01*
X101888330Y-93985000D01*
X101881928Y-94050000D01*
X101881928Y-94350000D01*
X101891777Y-94450000D01*
X101881928Y-94550000D01*
X101881928Y-94850000D01*
X101884883Y-94880000D01*
X101705448Y-94880000D01*
X101519978Y-94916892D01*
X101345269Y-94989259D01*
X101188036Y-95094319D01*
X101054319Y-95228036D01*
X100949259Y-95385269D01*
X100876892Y-95559978D01*
X100840000Y-95745448D01*
X100840000Y-95934552D01*
X100876892Y-96120022D01*
X100949259Y-96294731D01*
X101028206Y-96412884D01*
X100887631Y-96557236D01*
X100765724Y-96745024D01*
X100685881Y-96968126D01*
X100812046Y-97143000D01*
X102203000Y-97143000D01*
X102203000Y-97123000D01*
X102386248Y-97123000D01*
X102395518Y-97125812D01*
X102457000Y-97131867D01*
X102457000Y-97143000D01*
X103847954Y-97143000D01*
X103852104Y-97137247D01*
X103970000Y-97138072D01*
X104094482Y-97125812D01*
X104214180Y-97089502D01*
X104324494Y-97030537D01*
X104421185Y-96951185D01*
X104500537Y-96854494D01*
X104559502Y-96744180D01*
X104595812Y-96624482D01*
X104608072Y-96500000D01*
X104605000Y-96485750D01*
X104446252Y-96327002D01*
X104605000Y-96327002D01*
X104605000Y-96275986D01*
X104643490Y-96272195D01*
X104810313Y-96221589D01*
X104964059Y-96139411D01*
X105098817Y-96028817D01*
X105126534Y-95995044D01*
X105446578Y-95675000D01*
X105986928Y-95675000D01*
X105999188Y-95799482D01*
X106035498Y-95919180D01*
X106094463Y-96029494D01*
X106173815Y-96126185D01*
X106270506Y-96205537D01*
X106380820Y-96264502D01*
X106500518Y-96300812D01*
X106625000Y-96313072D01*
X106814250Y-96310000D01*
X106973000Y-96151250D01*
X106973000Y-95402000D01*
X106148750Y-95402000D01*
X105990000Y-95560750D01*
X105986928Y-95675000D01*
X105446578Y-95675000D01*
X106061164Y-95060414D01*
X106148750Y-95148000D01*
X106973000Y-95148000D01*
X106973000Y-95128000D01*
X107227000Y-95128000D01*
X107227000Y-95148000D01*
X107247000Y-95148000D01*
X107247000Y-95402000D01*
X107227000Y-95402000D01*
X107227000Y-96151250D01*
X107385750Y-96310000D01*
X107575000Y-96313072D01*
X107699482Y-96300812D01*
X107819180Y-96264502D01*
X107827501Y-96260054D01*
X107827501Y-96519021D01*
X107823219Y-96562500D01*
X107836326Y-96695587D01*
X107804494Y-96669463D01*
X107694180Y-96610498D01*
X107574482Y-96574188D01*
X107450000Y-96561928D01*
X107285750Y-96565000D01*
X107127000Y-96723750D01*
X107127000Y-97923000D01*
X107926250Y-97923000D01*
X108085000Y-97764250D01*
X108088072Y-97200000D01*
X108087527Y-97194471D01*
X108117451Y-97219029D01*
X108393471Y-97495049D01*
X108404780Y-97551904D01*
X108482801Y-97740262D01*
X108596069Y-97909780D01*
X108740232Y-98053943D01*
X108909750Y-98167211D01*
X109098108Y-98245232D01*
X109298067Y-98285006D01*
X109501945Y-98285006D01*
X109701904Y-98245232D01*
X109890262Y-98167211D01*
X110059780Y-98053943D01*
X110203943Y-97909780D01*
X110311928Y-97748169D01*
X110311928Y-98900000D01*
X110324188Y-99024482D01*
X110360498Y-99144180D01*
X110419463Y-99254494D01*
X110498815Y-99351185D01*
X110595506Y-99430537D01*
X110705820Y-99489502D01*
X110825518Y-99525812D01*
X110950000Y-99538072D01*
X111850000Y-99538072D01*
X111974482Y-99525812D01*
X112094180Y-99489502D01*
X112185044Y-99440934D01*
X112232382Y-99529497D01*
X112339716Y-99660284D01*
X112470503Y-99767618D01*
X112512377Y-99790000D01*
X97360000Y-99790000D01*
X97360000Y-98900000D01*
X105911928Y-98900000D01*
X105924188Y-99024482D01*
X105960498Y-99144180D01*
X106019463Y-99254494D01*
X106098815Y-99351185D01*
X106195506Y-99430537D01*
X106305820Y-99489502D01*
X106425518Y-99525812D01*
X106550000Y-99538072D01*
X106714250Y-99535000D01*
X106873000Y-99376250D01*
X106873000Y-98177000D01*
X107127000Y-98177000D01*
X107127000Y-99376250D01*
X107285750Y-99535000D01*
X107450000Y-99538072D01*
X107574482Y-99525812D01*
X107694180Y-99489502D01*
X107804494Y-99430537D01*
X107901185Y-99351185D01*
X107980537Y-99254494D01*
X108039502Y-99144180D01*
X108075812Y-99024482D01*
X108088072Y-98900000D01*
X108085000Y-98335750D01*
X107926250Y-98177000D01*
X107127000Y-98177000D01*
X106873000Y-98177000D01*
X106073750Y-98177000D01*
X105915000Y-98335750D01*
X105911928Y-98900000D01*
X97360000Y-98900000D01*
X97360000Y-98296514D01*
X97504013Y-98358415D01*
X97723000Y-98405000D01*
X98023000Y-98405000D01*
X98023000Y-97397000D01*
X98277000Y-97397000D01*
X98277000Y-98405000D01*
X98577000Y-98405000D01*
X98795987Y-98358415D01*
X99001678Y-98270003D01*
X99186169Y-98143161D01*
X99342369Y-97982764D01*
X99464276Y-97794976D01*
X99544119Y-97571874D01*
X100685881Y-97571874D01*
X100765724Y-97794976D01*
X100887631Y-97982764D01*
X101043831Y-98143161D01*
X101228322Y-98270003D01*
X101434013Y-98358415D01*
X101653000Y-98405000D01*
X102203000Y-98405000D01*
X102203000Y-97397000D01*
X102457000Y-97397000D01*
X102457000Y-98405000D01*
X103007000Y-98405000D01*
X103225987Y-98358415D01*
X103431678Y-98270003D01*
X103616169Y-98143161D01*
X103772369Y-97982764D01*
X103894276Y-97794976D01*
X103974119Y-97571874D01*
X103847954Y-97397000D01*
X102457000Y-97397000D01*
X102203000Y-97397000D01*
X100812046Y-97397000D01*
X100685881Y-97571874D01*
X99544119Y-97571874D01*
X99417954Y-97397000D01*
X98277000Y-97397000D01*
X98023000Y-97397000D01*
X98003000Y-97397000D01*
X98003000Y-97200000D01*
X105911928Y-97200000D01*
X105915000Y-97764250D01*
X106073750Y-97923000D01*
X106873000Y-97923000D01*
X106873000Y-96723750D01*
X106714250Y-96565000D01*
X106550000Y-96561928D01*
X106425518Y-96574188D01*
X106305820Y-96610498D01*
X106195506Y-96669463D01*
X106098815Y-96748815D01*
X106019463Y-96845506D01*
X105960498Y-96955820D01*
X105924188Y-97075518D01*
X105911928Y-97200000D01*
X98003000Y-97200000D01*
X98003000Y-97143000D01*
X98023000Y-97143000D01*
X98023000Y-96135000D01*
X98277000Y-96135000D01*
X98277000Y-97143000D01*
X99417954Y-97143000D01*
X99544119Y-96968126D01*
X99464276Y-96745024D01*
X99342369Y-96557236D01*
X99186169Y-96396839D01*
X99001678Y-96269997D01*
X98795987Y-96181585D01*
X98577000Y-96135000D01*
X98277000Y-96135000D01*
X98023000Y-96135000D01*
X97723000Y-96135000D01*
X97504013Y-96181585D01*
X97360000Y-96243486D01*
X97360000Y-89656514D01*
X97504013Y-89718415D01*
X97723000Y-89765000D01*
X98023000Y-89765000D01*
X98023000Y-88757000D01*
X98277000Y-88757000D01*
X98277000Y-89765000D01*
X98577000Y-89765000D01*
X98795987Y-89718415D01*
X99001678Y-89630003D01*
X99186169Y-89503161D01*
X99342369Y-89342764D01*
X99464276Y-89154976D01*
X99544119Y-88931874D01*
X99417954Y-88757000D01*
X98277000Y-88757000D01*
X98023000Y-88757000D01*
X98003000Y-88757000D01*
X98003000Y-88503000D01*
X98023000Y-88503000D01*
X98023000Y-87495000D01*
X98277000Y-87495000D01*
X98277000Y-88503000D01*
X99417954Y-88503000D01*
X99544119Y-88328126D01*
X100685881Y-88328126D01*
X100812046Y-88503000D01*
X102203000Y-88503000D01*
X102203000Y-87495000D01*
X102457000Y-87495000D01*
X102457000Y-88503000D01*
X103847954Y-88503000D01*
X103974119Y-88328126D01*
X103894276Y-88105024D01*
X103772369Y-87917236D01*
X103616169Y-87756839D01*
X103431678Y-87629997D01*
X103225987Y-87541585D01*
X103007000Y-87495000D01*
X102457000Y-87495000D01*
X102203000Y-87495000D01*
X101653000Y-87495000D01*
X101434013Y-87541585D01*
X101228322Y-87629997D01*
X101043831Y-87756839D01*
X100887631Y-87917236D01*
X100765724Y-88105024D01*
X100685881Y-88328126D01*
X99544119Y-88328126D01*
X99464276Y-88105024D01*
X99342369Y-87917236D01*
X99186169Y-87756839D01*
X99001678Y-87629997D01*
X98795987Y-87541585D01*
X98577000Y-87495000D01*
X98277000Y-87495000D01*
X98023000Y-87495000D01*
X97723000Y-87495000D01*
X97504013Y-87541585D01*
X97360000Y-87603486D01*
X97360000Y-86110000D01*
X112282035Y-86110000D01*
X112232382Y-86170503D01*
%TA.AperFunction,Conductor*%
D26*
G36*
X112232382Y-86170503D02*
G01*
X112185044Y-86259066D01*
X112094180Y-86210498D01*
X111974482Y-86174188D01*
X111850000Y-86161928D01*
X110950000Y-86161928D01*
X110825518Y-86174188D01*
X110705820Y-86210498D01*
X110595506Y-86269463D01*
X110498815Y-86348815D01*
X110419463Y-86445506D01*
X110360498Y-86555820D01*
X110324188Y-86675518D01*
X110311928Y-86800000D01*
X110311928Y-88500000D01*
X110324188Y-88624482D01*
X110360498Y-88744180D01*
X110419463Y-88854494D01*
X110498815Y-88951185D01*
X110515649Y-88965000D01*
X108474850Y-88965000D01*
X108135804Y-88625954D01*
X108108087Y-88592181D01*
X108081169Y-88570090D01*
X108088072Y-88500000D01*
X108085000Y-87935750D01*
X107926250Y-87777000D01*
X107127000Y-87777000D01*
X107127000Y-87797000D01*
X106873000Y-87797000D01*
X106873000Y-87777000D01*
X106853000Y-87777000D01*
X106853000Y-87523000D01*
X106873000Y-87523000D01*
X106873000Y-86323750D01*
X107127000Y-86323750D01*
X107127000Y-87523000D01*
X107926250Y-87523000D01*
X108085000Y-87364250D01*
X108088072Y-86800000D01*
X108075812Y-86675518D01*
X108039502Y-86555820D01*
X107980537Y-86445506D01*
X107901185Y-86348815D01*
X107804494Y-86269463D01*
X107694180Y-86210498D01*
X107574482Y-86174188D01*
X107450000Y-86161928D01*
X107285750Y-86165000D01*
X107127000Y-86323750D01*
X106873000Y-86323750D01*
X106714250Y-86165000D01*
X106550000Y-86161928D01*
X106425518Y-86174188D01*
X106305820Y-86210498D01*
X106195506Y-86269463D01*
X106098815Y-86348815D01*
X106019463Y-86445506D01*
X105960498Y-86555820D01*
X105924188Y-86675518D01*
X105911928Y-86800000D01*
X105915000Y-87364250D01*
X106073748Y-87522998D01*
X105915000Y-87522998D01*
X105915000Y-87546216D01*
X105747706Y-87434434D01*
X105559348Y-87356413D01*
X105359389Y-87316639D01*
X105155511Y-87316639D01*
X104955552Y-87356413D01*
X104767194Y-87434434D01*
X104597676Y-87547702D01*
X104453513Y-87691865D01*
X104340245Y-87861383D01*
X104262224Y-88049741D01*
X104222450Y-88249700D01*
X104222450Y-88453578D01*
X104262224Y-88653537D01*
X104323493Y-88801452D01*
X104290272Y-88851171D01*
X104214180Y-88810498D01*
X104094482Y-88774188D01*
X103970000Y-88761928D01*
X103852104Y-88762753D01*
X103847954Y-88757000D01*
X102457000Y-88757000D01*
X102457000Y-88768133D01*
X102395518Y-88774188D01*
X102386248Y-88777000D01*
X102203000Y-88777000D01*
X102203000Y-88757000D01*
X100812046Y-88757000D01*
X100685881Y-88931874D01*
X100765724Y-89154976D01*
X100887631Y-89342764D01*
X101028206Y-89487116D01*
X100949259Y-89605269D01*
X100876892Y-89779978D01*
X100840000Y-89965448D01*
X100840000Y-90154552D01*
X100876892Y-90340022D01*
X100949259Y-90514731D01*
X101054319Y-90671964D01*
X101188036Y-90805681D01*
X101345269Y-90910741D01*
X101519978Y-90983108D01*
X101705448Y-91020000D01*
X101884883Y-91020000D01*
X101881928Y-91050000D01*
X101881928Y-91350000D01*
X101888330Y-91415000D01*
X101788552Y-91415000D01*
X101749999Y-91411203D01*
X101711446Y-91415000D01*
X101711439Y-91415000D01*
X101618155Y-91424188D01*
X101596112Y-91426359D01*
X101561672Y-91436806D01*
X101448140Y-91471246D01*
X101311767Y-91544138D01*
X101263219Y-91583981D01*
X101222187Y-91617655D01*
X101222184Y-91617658D01*
X101192236Y-91642236D01*
X101167657Y-91672185D01*
X101124842Y-91715000D01*
X101098061Y-91715000D01*
X100898102Y-91754774D01*
X100709744Y-91832795D01*
X100540226Y-91946063D01*
X100396063Y-92090226D01*
X100282795Y-92259744D01*
X100204774Y-92448102D01*
X100165000Y-92648061D01*
X100165000Y-92851939D01*
X100204774Y-93051898D01*
X100282795Y-93240256D01*
X100396063Y-93409774D01*
X100540226Y-93553937D01*
X100709744Y-93667205D01*
X100898102Y-93745226D01*
X101098061Y-93785000D01*
X101125423Y-93785000D01*
X101211767Y-93855862D01*
X101322408Y-93915000D01*
X101348140Y-93928754D01*
X101496112Y-93973641D01*
X101508164Y-93974828D01*
X101611439Y-93985000D01*
X101611446Y-93985000D01*
X101649999Y-93988797D01*
X101688552Y-93985000D01*
X101888330Y-93985000D01*
X101881928Y-94050000D01*
X101881928Y-94350000D01*
X101891777Y-94450000D01*
X101881928Y-94550000D01*
X101881928Y-94850000D01*
X101884883Y-94880000D01*
X101705448Y-94880000D01*
X101519978Y-94916892D01*
X101345269Y-94989259D01*
X101188036Y-95094319D01*
X101054319Y-95228036D01*
X100949259Y-95385269D01*
X100876892Y-95559978D01*
X100840000Y-95745448D01*
X100840000Y-95934552D01*
X100876892Y-96120022D01*
X100949259Y-96294731D01*
X101028206Y-96412884D01*
X100887631Y-96557236D01*
X100765724Y-96745024D01*
X100685881Y-96968126D01*
X100812046Y-97143000D01*
X102203000Y-97143000D01*
X102203000Y-97123000D01*
X102386248Y-97123000D01*
X102395518Y-97125812D01*
X102457000Y-97131867D01*
X102457000Y-97143000D01*
X103847954Y-97143000D01*
X103852104Y-97137247D01*
X103970000Y-97138072D01*
X104094482Y-97125812D01*
X104214180Y-97089502D01*
X104324494Y-97030537D01*
X104421185Y-96951185D01*
X104500537Y-96854494D01*
X104559502Y-96744180D01*
X104595812Y-96624482D01*
X104608072Y-96500000D01*
X104605000Y-96485750D01*
X104446252Y-96327002D01*
X104605000Y-96327002D01*
X104605000Y-96275986D01*
X104643490Y-96272195D01*
X104810313Y-96221589D01*
X104964059Y-96139411D01*
X105098817Y-96028817D01*
X105126534Y-95995044D01*
X105446578Y-95675000D01*
X105986928Y-95675000D01*
X105999188Y-95799482D01*
X106035498Y-95919180D01*
X106094463Y-96029494D01*
X106173815Y-96126185D01*
X106270506Y-96205537D01*
X106380820Y-96264502D01*
X106500518Y-96300812D01*
X106625000Y-96313072D01*
X106814250Y-96310000D01*
X106973000Y-96151250D01*
X106973000Y-95402000D01*
X106148750Y-95402000D01*
X105990000Y-95560750D01*
X105986928Y-95675000D01*
X105446578Y-95675000D01*
X106061164Y-95060414D01*
X106148750Y-95148000D01*
X106973000Y-95148000D01*
X106973000Y-95128000D01*
X107227000Y-95128000D01*
X107227000Y-95148000D01*
X107247000Y-95148000D01*
X107247000Y-95402000D01*
X107227000Y-95402000D01*
X107227000Y-96151250D01*
X107385750Y-96310000D01*
X107575000Y-96313072D01*
X107699482Y-96300812D01*
X107819180Y-96264502D01*
X107827501Y-96260054D01*
X107827501Y-96519021D01*
X107823219Y-96562500D01*
X107836326Y-96695587D01*
X107804494Y-96669463D01*
X107694180Y-96610498D01*
X107574482Y-96574188D01*
X107450000Y-96561928D01*
X107285750Y-96565000D01*
X107127000Y-96723750D01*
X107127000Y-97923000D01*
X107926250Y-97923000D01*
X108085000Y-97764250D01*
X108088072Y-97200000D01*
X108087527Y-97194471D01*
X108117451Y-97219029D01*
X108393471Y-97495049D01*
X108404780Y-97551904D01*
X108482801Y-97740262D01*
X108596069Y-97909780D01*
X108740232Y-98053943D01*
X108909750Y-98167211D01*
X109098108Y-98245232D01*
X109298067Y-98285006D01*
X109501945Y-98285006D01*
X109701904Y-98245232D01*
X109890262Y-98167211D01*
X110059780Y-98053943D01*
X110203943Y-97909780D01*
X110311928Y-97748169D01*
X110311928Y-98900000D01*
X110324188Y-99024482D01*
X110360498Y-99144180D01*
X110419463Y-99254494D01*
X110498815Y-99351185D01*
X110595506Y-99430537D01*
X110705820Y-99489502D01*
X110825518Y-99525812D01*
X110950000Y-99538072D01*
X111850000Y-99538072D01*
X111974482Y-99525812D01*
X112094180Y-99489502D01*
X112185044Y-99440934D01*
X112232382Y-99529497D01*
X112339716Y-99660284D01*
X112470503Y-99767618D01*
X112512377Y-99790000D01*
X97360000Y-99790000D01*
X97360000Y-98900000D01*
X105911928Y-98900000D01*
X105924188Y-99024482D01*
X105960498Y-99144180D01*
X106019463Y-99254494D01*
X106098815Y-99351185D01*
X106195506Y-99430537D01*
X106305820Y-99489502D01*
X106425518Y-99525812D01*
X106550000Y-99538072D01*
X106714250Y-99535000D01*
X106873000Y-99376250D01*
X106873000Y-98177000D01*
X107127000Y-98177000D01*
X107127000Y-99376250D01*
X107285750Y-99535000D01*
X107450000Y-99538072D01*
X107574482Y-99525812D01*
X107694180Y-99489502D01*
X107804494Y-99430537D01*
X107901185Y-99351185D01*
X107980537Y-99254494D01*
X108039502Y-99144180D01*
X108075812Y-99024482D01*
X108088072Y-98900000D01*
X108085000Y-98335750D01*
X107926250Y-98177000D01*
X107127000Y-98177000D01*
X106873000Y-98177000D01*
X106073750Y-98177000D01*
X105915000Y-98335750D01*
X105911928Y-98900000D01*
X97360000Y-98900000D01*
X97360000Y-98296514D01*
X97504013Y-98358415D01*
X97723000Y-98405000D01*
X98023000Y-98405000D01*
X98023000Y-97397000D01*
X98277000Y-97397000D01*
X98277000Y-98405000D01*
X98577000Y-98405000D01*
X98795987Y-98358415D01*
X99001678Y-98270003D01*
X99186169Y-98143161D01*
X99342369Y-97982764D01*
X99464276Y-97794976D01*
X99544119Y-97571874D01*
X100685881Y-97571874D01*
X100765724Y-97794976D01*
X100887631Y-97982764D01*
X101043831Y-98143161D01*
X101228322Y-98270003D01*
X101434013Y-98358415D01*
X101653000Y-98405000D01*
X102203000Y-98405000D01*
X102203000Y-97397000D01*
X102457000Y-97397000D01*
X102457000Y-98405000D01*
X103007000Y-98405000D01*
X103225987Y-98358415D01*
X103431678Y-98270003D01*
X103616169Y-98143161D01*
X103772369Y-97982764D01*
X103894276Y-97794976D01*
X103974119Y-97571874D01*
X103847954Y-97397000D01*
X102457000Y-97397000D01*
X102203000Y-97397000D01*
X100812046Y-97397000D01*
X100685881Y-97571874D01*
X99544119Y-97571874D01*
X99417954Y-97397000D01*
X98277000Y-97397000D01*
X98023000Y-97397000D01*
X98003000Y-97397000D01*
X98003000Y-97200000D01*
X105911928Y-97200000D01*
X105915000Y-97764250D01*
X106073750Y-97923000D01*
X106873000Y-97923000D01*
X106873000Y-96723750D01*
X106714250Y-96565000D01*
X106550000Y-96561928D01*
X106425518Y-96574188D01*
X106305820Y-96610498D01*
X106195506Y-96669463D01*
X106098815Y-96748815D01*
X106019463Y-96845506D01*
X105960498Y-96955820D01*
X105924188Y-97075518D01*
X105911928Y-97200000D01*
X98003000Y-97200000D01*
X98003000Y-97143000D01*
X98023000Y-97143000D01*
X98023000Y-96135000D01*
X98277000Y-96135000D01*
X98277000Y-97143000D01*
X99417954Y-97143000D01*
X99544119Y-96968126D01*
X99464276Y-96745024D01*
X99342369Y-96557236D01*
X99186169Y-96396839D01*
X99001678Y-96269997D01*
X98795987Y-96181585D01*
X98577000Y-96135000D01*
X98277000Y-96135000D01*
X98023000Y-96135000D01*
X97723000Y-96135000D01*
X97504013Y-96181585D01*
X97360000Y-96243486D01*
X97360000Y-89656514D01*
X97504013Y-89718415D01*
X97723000Y-89765000D01*
X98023000Y-89765000D01*
X98023000Y-88757000D01*
X98277000Y-88757000D01*
X98277000Y-89765000D01*
X98577000Y-89765000D01*
X98795987Y-89718415D01*
X99001678Y-89630003D01*
X99186169Y-89503161D01*
X99342369Y-89342764D01*
X99464276Y-89154976D01*
X99544119Y-88931874D01*
X99417954Y-88757000D01*
X98277000Y-88757000D01*
X98023000Y-88757000D01*
X98003000Y-88757000D01*
X98003000Y-88503000D01*
X98023000Y-88503000D01*
X98023000Y-87495000D01*
X98277000Y-87495000D01*
X98277000Y-88503000D01*
X99417954Y-88503000D01*
X99544119Y-88328126D01*
X100685881Y-88328126D01*
X100812046Y-88503000D01*
X102203000Y-88503000D01*
X102203000Y-87495000D01*
X102457000Y-87495000D01*
X102457000Y-88503000D01*
X103847954Y-88503000D01*
X103974119Y-88328126D01*
X103894276Y-88105024D01*
X103772369Y-87917236D01*
X103616169Y-87756839D01*
X103431678Y-87629997D01*
X103225987Y-87541585D01*
X103007000Y-87495000D01*
X102457000Y-87495000D01*
X102203000Y-87495000D01*
X101653000Y-87495000D01*
X101434013Y-87541585D01*
X101228322Y-87629997D01*
X101043831Y-87756839D01*
X100887631Y-87917236D01*
X100765724Y-88105024D01*
X100685881Y-88328126D01*
X99544119Y-88328126D01*
X99464276Y-88105024D01*
X99342369Y-87917236D01*
X99186169Y-87756839D01*
X99001678Y-87629997D01*
X98795987Y-87541585D01*
X98577000Y-87495000D01*
X98277000Y-87495000D01*
X98023000Y-87495000D01*
X97723000Y-87495000D01*
X97504013Y-87541585D01*
X97360000Y-87603486D01*
X97360000Y-86110000D01*
X112282035Y-86110000D01*
X112232382Y-86170503D01*
G37*
%TD.AperFunction*%
D25*
X111209392Y-94921831D02*
X111354284Y-94999278D01*
X111511500Y-95046969D01*
X111675000Y-95063072D01*
X112075000Y-95063072D01*
X112238500Y-95046969D01*
X112376829Y-95005007D01*
X112309744Y-95032795D01*
X112261546Y-95065000D01*
X112193465Y-95065000D01*
X112149999Y-95060719D01*
X112106533Y-95065000D01*
X112106523Y-95065000D01*
X111976510Y-95077805D01*
X111809687Y-95128411D01*
X111655941Y-95210589D01*
X111655939Y-95210590D01*
X111655940Y-95210590D01*
X111554953Y-95293468D01*
X111554951Y-95293470D01*
X111521183Y-95321183D01*
X111493470Y-95354951D01*
X110804951Y-96043471D01*
X110771184Y-96071183D01*
X110743471Y-96104951D01*
X110743468Y-96104954D01*
X110660590Y-96205941D01*
X110578412Y-96359687D01*
X110527805Y-96526510D01*
X110510719Y-96700000D01*
X110514277Y-96736126D01*
X110498815Y-96748815D01*
X110419463Y-96845506D01*
X110381867Y-96915842D01*
X110317211Y-96759750D01*
X110203943Y-96590232D01*
X110059780Y-96446069D01*
X109890262Y-96332801D01*
X109701904Y-96254780D01*
X109645049Y-96243471D01*
X109597500Y-96195922D01*
X109597500Y-94921223D01*
X109740858Y-94997850D01*
X109901592Y-95046608D01*
X110068750Y-95063072D01*
X110506250Y-95063072D01*
X110673408Y-95046608D01*
X110834142Y-94997850D01*
X110982275Y-94918671D01*
X111084229Y-94835000D01*
X111103589Y-94835000D01*
X111209392Y-94921831D01*
%TA.AperFunction,Conductor*%
D26*
G36*
X111209392Y-94921831D02*
G01*
X111354284Y-94999278D01*
X111511500Y-95046969D01*
X111675000Y-95063072D01*
X112075000Y-95063072D01*
X112238500Y-95046969D01*
X112376829Y-95005007D01*
X112309744Y-95032795D01*
X112261546Y-95065000D01*
X112193465Y-95065000D01*
X112149999Y-95060719D01*
X112106533Y-95065000D01*
X112106523Y-95065000D01*
X111976510Y-95077805D01*
X111809687Y-95128411D01*
X111655941Y-95210589D01*
X111655939Y-95210590D01*
X111655940Y-95210590D01*
X111554953Y-95293468D01*
X111554951Y-95293470D01*
X111521183Y-95321183D01*
X111493470Y-95354951D01*
X110804951Y-96043471D01*
X110771184Y-96071183D01*
X110743471Y-96104951D01*
X110743468Y-96104954D01*
X110660590Y-96205941D01*
X110578412Y-96359687D01*
X110527805Y-96526510D01*
X110510719Y-96700000D01*
X110514277Y-96736126D01*
X110498815Y-96748815D01*
X110419463Y-96845506D01*
X110381867Y-96915842D01*
X110317211Y-96759750D01*
X110203943Y-96590232D01*
X110059780Y-96446069D01*
X109890262Y-96332801D01*
X109701904Y-96254780D01*
X109645049Y-96243471D01*
X109597500Y-96195922D01*
X109597500Y-94921223D01*
X109740858Y-94997850D01*
X109901592Y-95046608D01*
X110068750Y-95063072D01*
X110506250Y-95063072D01*
X110673408Y-95046608D01*
X110834142Y-94997850D01*
X110982275Y-94918671D01*
X111084229Y-94835000D01*
X111103589Y-94835000D01*
X111209392Y-94921831D01*
G37*
%TD.AperFunction*%
D25*
X126827000Y-95823000D02*
X126847000Y-95823000D01*
X126847000Y-96077000D01*
X126827000Y-96077000D01*
X126827000Y-96097000D01*
X126573000Y-96097000D01*
X126573000Y-96077000D01*
X126553000Y-96077000D01*
X126553000Y-95823000D01*
X126573000Y-95823000D01*
X126573000Y-95803000D01*
X126827000Y-95803000D01*
X126827000Y-95823000D01*
%TA.AperFunction,Conductor*%
D26*
G36*
X126827000Y-95823000D02*
G01*
X126847000Y-95823000D01*
X126847000Y-96077000D01*
X126827000Y-96077000D01*
X126827000Y-96097000D01*
X126573000Y-96097000D01*
X126573000Y-96077000D01*
X126553000Y-96077000D01*
X126553000Y-95823000D01*
X126573000Y-95823000D01*
X126573000Y-95803000D01*
X126827000Y-95803000D01*
X126827000Y-95823000D01*
G37*
%TD.AperFunction*%
D25*
X125539093Y-90570518D02*
X125682456Y-90785077D01*
X125847379Y-90950000D01*
X125682456Y-91114923D01*
X125539093Y-91329482D01*
X125440342Y-91567887D01*
X125390000Y-91820976D01*
X125390000Y-92079024D01*
X125440342Y-92332113D01*
X125539093Y-92570518D01*
X125682456Y-92785077D01*
X125847379Y-92950000D01*
X125682456Y-93114923D01*
X125539093Y-93329482D01*
X125440342Y-93567887D01*
X125390000Y-93820976D01*
X125390000Y-94079024D01*
X125440342Y-94332113D01*
X125539093Y-94570518D01*
X125682456Y-94785077D01*
X125854060Y-94956681D01*
X125721697Y-95078773D01*
X125689529Y-95122948D01*
X123250325Y-92683744D01*
X123290254Y-92667205D01*
X123459772Y-92553937D01*
X123603935Y-92409774D01*
X123717203Y-92240256D01*
X123795224Y-92051898D01*
X123831363Y-91870216D01*
X125366579Y-90335000D01*
X125441538Y-90335000D01*
X125539093Y-90570518D01*
%TA.AperFunction,Conductor*%
D26*
G36*
X125539093Y-90570518D02*
G01*
X125682456Y-90785077D01*
X125847379Y-90950000D01*
X125682456Y-91114923D01*
X125539093Y-91329482D01*
X125440342Y-91567887D01*
X125390000Y-91820976D01*
X125390000Y-92079024D01*
X125440342Y-92332113D01*
X125539093Y-92570518D01*
X125682456Y-92785077D01*
X125847379Y-92950000D01*
X125682456Y-93114923D01*
X125539093Y-93329482D01*
X125440342Y-93567887D01*
X125390000Y-93820976D01*
X125390000Y-94079024D01*
X125440342Y-94332113D01*
X125539093Y-94570518D01*
X125682456Y-94785077D01*
X125854060Y-94956681D01*
X125721697Y-95078773D01*
X125689529Y-95122948D01*
X123250325Y-92683744D01*
X123290254Y-92667205D01*
X123459772Y-92553937D01*
X123603935Y-92409774D01*
X123717203Y-92240256D01*
X123795224Y-92051898D01*
X123831363Y-91870216D01*
X125366579Y-90335000D01*
X125441538Y-90335000D01*
X125539093Y-90570518D01*
G37*
%TD.AperFunction*%
D25*
X116497000Y-91856928D02*
X116203000Y-91856928D01*
X116203000Y-91643072D01*
X116497000Y-91643072D01*
X116497000Y-91856928D01*
%TA.AperFunction,Conductor*%
D26*
G36*
X116497000Y-91856928D02*
G01*
X116203000Y-91856928D01*
X116203000Y-91643072D01*
X116497000Y-91643072D01*
X116497000Y-91856928D01*
G37*
%TD.AperFunction*%
D25*
X127540000Y-86661479D02*
X127499482Y-86649188D01*
X127375000Y-86636928D01*
X126025000Y-86636928D01*
X125900518Y-86649188D01*
X125780820Y-86685498D01*
X125670506Y-86744463D01*
X125573815Y-86823815D01*
X125494463Y-86920506D01*
X125435498Y-87030820D01*
X125425456Y-87063925D01*
X125414537Y-87065000D01*
X125414527Y-87065000D01*
X125284514Y-87077805D01*
X125117691Y-87128411D01*
X124963945Y-87210589D01*
X124963943Y-87210590D01*
X124963944Y-87210590D01*
X124862957Y-87293468D01*
X124862955Y-87293470D01*
X124829187Y-87321183D01*
X124801474Y-87354951D01*
X122638072Y-89518354D01*
X122638072Y-89495000D01*
X122625812Y-89370518D01*
X122589502Y-89250820D01*
X122530537Y-89140506D01*
X122451185Y-89043815D01*
X122354494Y-88964463D01*
X122310000Y-88940680D01*
X122310000Y-88810517D01*
X122310284Y-88810284D01*
X122417618Y-88679497D01*
X122497375Y-88530283D01*
X122546488Y-88368377D01*
X122563072Y-88200000D01*
X122563072Y-87700000D01*
X122546488Y-87531623D01*
X122497375Y-87369717D01*
X122417618Y-87220503D01*
X122310284Y-87089716D01*
X122179497Y-86982382D01*
X122030283Y-86902625D01*
X121868377Y-86853512D01*
X121700000Y-86836928D01*
X121250000Y-86836928D01*
X121081623Y-86853512D01*
X120919717Y-86902625D01*
X120773649Y-86980700D01*
X120729494Y-86944463D01*
X120619180Y-86885498D01*
X120499482Y-86849188D01*
X120375000Y-86836928D01*
X120210750Y-86840000D01*
X120052000Y-86998750D01*
X120052000Y-87823000D01*
X120072000Y-87823000D01*
X120072000Y-88077000D01*
X120052000Y-88077000D01*
X120052000Y-88091445D01*
X120037333Y-88090000D01*
X120037322Y-88090000D01*
X120000000Y-88086324D01*
X119962678Y-88090000D01*
X119798000Y-88090000D01*
X119798000Y-88077000D01*
X118998750Y-88077000D01*
X118985750Y-88090000D01*
X118914250Y-88090000D01*
X118901250Y-88077000D01*
X118102000Y-88077000D01*
X118102000Y-88090000D01*
X117848000Y-88090000D01*
X117848000Y-88077000D01*
X117828000Y-88077000D01*
X117828000Y-87823000D01*
X117848000Y-87823000D01*
X117848000Y-86998750D01*
X118102000Y-86998750D01*
X118102000Y-87823000D01*
X118901250Y-87823000D01*
X118950000Y-87774250D01*
X118998750Y-87823000D01*
X119798000Y-87823000D01*
X119798000Y-86998750D01*
X119639250Y-86840000D01*
X119475000Y-86836928D01*
X119350518Y-86849188D01*
X119230820Y-86885498D01*
X119120506Y-86944463D01*
X119023815Y-87023815D01*
X118950000Y-87113759D01*
X118876185Y-87023815D01*
X118779494Y-86944463D01*
X118669180Y-86885498D01*
X118549482Y-86849188D01*
X118425000Y-86836928D01*
X118260750Y-86840000D01*
X118102000Y-86998750D01*
X117848000Y-86998750D01*
X117689250Y-86840000D01*
X117525000Y-86836928D01*
X117400518Y-86849188D01*
X117280820Y-86885498D01*
X117170506Y-86944463D01*
X117126351Y-86980700D01*
X116980283Y-86902625D01*
X116818377Y-86853512D01*
X116650000Y-86836928D01*
X116200000Y-86836928D01*
X116031623Y-86853512D01*
X115869717Y-86902625D01*
X115720503Y-86982382D01*
X115589716Y-87089716D01*
X115482382Y-87220503D01*
X115430771Y-87317060D01*
X115359774Y-87246063D01*
X115190256Y-87132795D01*
X115001898Y-87054774D01*
X114945044Y-87043465D01*
X114258731Y-86357153D01*
X114247375Y-86319717D01*
X114167618Y-86170503D01*
X114117965Y-86110000D01*
X127540000Y-86110000D01*
X127540000Y-86661479D01*
%TA.AperFunction,Conductor*%
D26*
G36*
X127540000Y-86661479D02*
G01*
X127499482Y-86649188D01*
X127375000Y-86636928D01*
X126025000Y-86636928D01*
X125900518Y-86649188D01*
X125780820Y-86685498D01*
X125670506Y-86744463D01*
X125573815Y-86823815D01*
X125494463Y-86920506D01*
X125435498Y-87030820D01*
X125425456Y-87063925D01*
X125414537Y-87065000D01*
X125414527Y-87065000D01*
X125284514Y-87077805D01*
X125117691Y-87128411D01*
X124963945Y-87210589D01*
X124963943Y-87210590D01*
X124963944Y-87210590D01*
X124862957Y-87293468D01*
X124862955Y-87293470D01*
X124829187Y-87321183D01*
X124801474Y-87354951D01*
X122638072Y-89518354D01*
X122638072Y-89495000D01*
X122625812Y-89370518D01*
X122589502Y-89250820D01*
X122530537Y-89140506D01*
X122451185Y-89043815D01*
X122354494Y-88964463D01*
X122310000Y-88940680D01*
X122310000Y-88810517D01*
X122310284Y-88810284D01*
X122417618Y-88679497D01*
X122497375Y-88530283D01*
X122546488Y-88368377D01*
X122563072Y-88200000D01*
X122563072Y-87700000D01*
X122546488Y-87531623D01*
X122497375Y-87369717D01*
X122417618Y-87220503D01*
X122310284Y-87089716D01*
X122179497Y-86982382D01*
X122030283Y-86902625D01*
X121868377Y-86853512D01*
X121700000Y-86836928D01*
X121250000Y-86836928D01*
X121081623Y-86853512D01*
X120919717Y-86902625D01*
X120773649Y-86980700D01*
X120729494Y-86944463D01*
X120619180Y-86885498D01*
X120499482Y-86849188D01*
X120375000Y-86836928D01*
X120210750Y-86840000D01*
X120052000Y-86998750D01*
X120052000Y-87823000D01*
X120072000Y-87823000D01*
X120072000Y-88077000D01*
X120052000Y-88077000D01*
X120052000Y-88091445D01*
X120037333Y-88090000D01*
X120037322Y-88090000D01*
X120000000Y-88086324D01*
X119962678Y-88090000D01*
X119798000Y-88090000D01*
X119798000Y-88077000D01*
X118998750Y-88077000D01*
X118985750Y-88090000D01*
X118914250Y-88090000D01*
X118901250Y-88077000D01*
X118102000Y-88077000D01*
X118102000Y-88090000D01*
X117848000Y-88090000D01*
X117848000Y-88077000D01*
X117828000Y-88077000D01*
X117828000Y-87823000D01*
X117848000Y-87823000D01*
X117848000Y-86998750D01*
X118102000Y-86998750D01*
X118102000Y-87823000D01*
X118901250Y-87823000D01*
X118950000Y-87774250D01*
X118998750Y-87823000D01*
X119798000Y-87823000D01*
X119798000Y-86998750D01*
X119639250Y-86840000D01*
X119475000Y-86836928D01*
X119350518Y-86849188D01*
X119230820Y-86885498D01*
X119120506Y-86944463D01*
X119023815Y-87023815D01*
X118950000Y-87113759D01*
X118876185Y-87023815D01*
X118779494Y-86944463D01*
X118669180Y-86885498D01*
X118549482Y-86849188D01*
X118425000Y-86836928D01*
X118260750Y-86840000D01*
X118102000Y-86998750D01*
X117848000Y-86998750D01*
X117689250Y-86840000D01*
X117525000Y-86836928D01*
X117400518Y-86849188D01*
X117280820Y-86885498D01*
X117170506Y-86944463D01*
X117126351Y-86980700D01*
X116980283Y-86902625D01*
X116818377Y-86853512D01*
X116650000Y-86836928D01*
X116200000Y-86836928D01*
X116031623Y-86853512D01*
X115869717Y-86902625D01*
X115720503Y-86982382D01*
X115589716Y-87089716D01*
X115482382Y-87220503D01*
X115430771Y-87317060D01*
X115359774Y-87246063D01*
X115190256Y-87132795D01*
X115001898Y-87054774D01*
X114945044Y-87043465D01*
X114258731Y-86357153D01*
X114247375Y-86319717D01*
X114167618Y-86170503D01*
X114117965Y-86110000D01*
X127540000Y-86110000D01*
X127540000Y-86661479D01*
G37*
%TD.AperFunction*%
D25*
X113327000Y-88298000D02*
X113347000Y-88298000D01*
X113347000Y-88552000D01*
X113327000Y-88552000D01*
X113327000Y-88572000D01*
X113073000Y-88572000D01*
X113073000Y-88552000D01*
X113053000Y-88552000D01*
X113053000Y-88298000D01*
X113073000Y-88298000D01*
X113073000Y-88278000D01*
X113327000Y-88278000D01*
X113327000Y-88298000D01*
%TA.AperFunction,Conductor*%
D26*
G36*
X113327000Y-88298000D02*
G01*
X113347000Y-88298000D01*
X113347000Y-88552000D01*
X113327000Y-88552000D01*
X113327000Y-88572000D01*
X113073000Y-88572000D01*
X113073000Y-88552000D01*
X113053000Y-88552000D01*
X113053000Y-88298000D01*
X113073000Y-88298000D01*
X113073000Y-88278000D01*
X113327000Y-88278000D01*
X113327000Y-88298000D01*
G37*
%TD.AperFunction*%
%TD*%
D27*
X115000000Y-87050000D03*
X108300000Y-87150000D03*
X124800000Y-91550000D03*
X122950000Y-89200000D03*
X109400006Y-97250006D03*
X117900000Y-94499990D03*
X114700000Y-88050000D03*
X119600000Y-94750000D03*
X112800000Y-95950000D03*
X101200000Y-92750000D03*
X105257450Y-88351639D03*
X114700000Y-89250000D03*
X105201048Y-89351048D03*
X105225001Y-93275001D03*
X113896601Y-92929108D03*
X122799998Y-91750000D03*
X114200000Y-91950008D03*
X122648954Y-90598950D03*
X122900000Y-97550000D03*
X116169365Y-97116627D03*
X126700000Y-97950000D03*
X126700000Y-95950000D03*
X126700000Y-93950000D03*
X126700000Y-91950000D03*
X126700000Y-89950000D03*
X126700000Y-87950000D03*
D28*
X102330000Y-97270000D03*
X102330000Y-88630000D03*
D27*
X101800000Y-90060000D03*
D29*
X98150000Y-88630000D03*
D27*
X101800000Y-95840000D03*
D29*
X98150000Y-97270000D03*
M02*
