%TF.GenerationSoftware,KiCad,Pcbnew,(5.1.8)-1*%
%TF.CreationDate,2021-05-04T18:07:08+08:00*%
%TF.ProjectId,downloader,646f776e-6c6f-4616-9465-722e6b696361,rev?*%
%TF.SameCoordinates,Original*%
%TF.FileFunction,Legend,Bot*%
%TF.FilePolarity,Positive*%
%FSLAX46Y46*%
G04 Gerber Fmt 4.6, Leading zero omitted, Abs format (unit mm)*
G04 Created by KiCad (PCBNEW (5.1.8)-1) date 2021-05-04 18:07:08*
%MOMM*%
%LPD*%
G01*
G04 APERTURE LIST*
%ADD10C,0.300000*%
G04 APERTURE END LIST*
D10*
X124664285Y-92807142D02*
X124378571Y-92902380D01*
X124283333Y-92997619D01*
X124188095Y-93188095D01*
X124188095Y-93473809D01*
X124283333Y-93664285D01*
X124378571Y-93759523D01*
X124569047Y-93854761D01*
X125330952Y-93854761D01*
X125330952Y-91854761D01*
X124664285Y-91854761D01*
X124473809Y-91950000D01*
X124378571Y-92045238D01*
X124283333Y-92235714D01*
X124283333Y-92426190D01*
X124378571Y-92616666D01*
X124473809Y-92711904D01*
X124664285Y-92807142D01*
X125330952Y-92807142D01*
X122378571Y-93854761D02*
X123330952Y-93854761D01*
X123330952Y-91854761D01*
X120854761Y-93854761D02*
X120854761Y-92807142D01*
X120950000Y-92616666D01*
X121140476Y-92521428D01*
X121521428Y-92521428D01*
X121711904Y-92616666D01*
X120854761Y-93759523D02*
X121045238Y-93854761D01*
X121521428Y-93854761D01*
X121711904Y-93759523D01*
X121807142Y-93569047D01*
X121807142Y-93378571D01*
X121711904Y-93188095D01*
X121521428Y-93092857D01*
X121045238Y-93092857D01*
X120854761Y-92997619D01*
X119902380Y-93854761D02*
X119902380Y-91854761D01*
X119902380Y-92616666D02*
X119711904Y-92521428D01*
X119330952Y-92521428D01*
X119140476Y-92616666D01*
X119045238Y-92711904D01*
X118950000Y-92902380D01*
X118950000Y-93473809D01*
X119045238Y-93664285D01*
X119140476Y-93759523D01*
X119330952Y-93854761D01*
X119711904Y-93854761D01*
X119902380Y-93759523D01*
X118569047Y-94045238D02*
X117045238Y-94045238D01*
X115711904Y-93854761D02*
X115711904Y-91854761D01*
X115711904Y-93759523D02*
X115902380Y-93854761D01*
X116283333Y-93854761D01*
X116473809Y-93759523D01*
X116569047Y-93664285D01*
X116664285Y-93473809D01*
X116664285Y-92902380D01*
X116569047Y-92711904D01*
X116473809Y-92616666D01*
X116283333Y-92521428D01*
X115902380Y-92521428D01*
X115711904Y-92616666D01*
X114473809Y-93854761D02*
X114664285Y-93759523D01*
X114759523Y-93664285D01*
X114854761Y-93473809D01*
X114854761Y-92902380D01*
X114759523Y-92711904D01*
X114664285Y-92616666D01*
X114473809Y-92521428D01*
X114188095Y-92521428D01*
X113997619Y-92616666D01*
X113902380Y-92711904D01*
X113807142Y-92902380D01*
X113807142Y-93473809D01*
X113902380Y-93664285D01*
X113997619Y-93759523D01*
X114188095Y-93854761D01*
X114473809Y-93854761D01*
X113140476Y-92521428D02*
X112759523Y-93854761D01*
X112378571Y-92902380D01*
X111997619Y-93854761D01*
X111616666Y-92521428D01*
X110854761Y-92521428D02*
X110854761Y-93854761D01*
X110854761Y-92711904D02*
X110759523Y-92616666D01*
X110569047Y-92521428D01*
X110283333Y-92521428D01*
X110092857Y-92616666D01*
X109997619Y-92807142D01*
X109997619Y-93854761D01*
X108759523Y-93854761D02*
X108950000Y-93759523D01*
X109045238Y-93569047D01*
X109045238Y-91854761D01*
X107711904Y-93854761D02*
X107902380Y-93759523D01*
X107997619Y-93664285D01*
X108092857Y-93473809D01*
X108092857Y-92902380D01*
X107997619Y-92711904D01*
X107902380Y-92616666D01*
X107711904Y-92521428D01*
X107426190Y-92521428D01*
X107235714Y-92616666D01*
X107140476Y-92711904D01*
X107045238Y-92902380D01*
X107045238Y-93473809D01*
X107140476Y-93664285D01*
X107235714Y-93759523D01*
X107426190Y-93854761D01*
X107711904Y-93854761D01*
X105330952Y-93854761D02*
X105330952Y-92807142D01*
X105426190Y-92616666D01*
X105616666Y-92521428D01*
X105997619Y-92521428D01*
X106188095Y-92616666D01*
X105330952Y-93759523D02*
X105521428Y-93854761D01*
X105997619Y-93854761D01*
X106188095Y-93759523D01*
X106283333Y-93569047D01*
X106283333Y-93378571D01*
X106188095Y-93188095D01*
X105997619Y-93092857D01*
X105521428Y-93092857D01*
X105330952Y-92997619D01*
X103521428Y-93854761D02*
X103521428Y-91854761D01*
X103521428Y-93759523D02*
X103711904Y-93854761D01*
X104092857Y-93854761D01*
X104283333Y-93759523D01*
X104378571Y-93664285D01*
X104473809Y-93473809D01*
X104473809Y-92902380D01*
X104378571Y-92711904D01*
X104283333Y-92616666D01*
X104092857Y-92521428D01*
X103711904Y-92521428D01*
X103521428Y-92616666D01*
X101807142Y-93759523D02*
X101997619Y-93854761D01*
X102378571Y-93854761D01*
X102569047Y-93759523D01*
X102664285Y-93569047D01*
X102664285Y-92807142D01*
X102569047Y-92616666D01*
X102378571Y-92521428D01*
X101997619Y-92521428D01*
X101807142Y-92616666D01*
X101711904Y-92807142D01*
X101711904Y-92997619D01*
X102664285Y-93188095D01*
X100854761Y-93854761D02*
X100854761Y-92521428D01*
X100854761Y-92902380D02*
X100759523Y-92711904D01*
X100664285Y-92616666D01*
X100473809Y-92521428D01*
X100283333Y-92521428D01*
M02*
