M48
; DRILL file {KiCad (5.1.8)-1} date 01/13/21 21:24:39
; FORMAT={-:-/ absolute / metric / decimal}
; #@! TF.CreationDate,2021-01-13T21:24:39+08:00
; #@! TF.GenerationSoftware,Kicad,Pcbnew,(5.1.8)-1
; #@! TF.FileFunction,Plated,1,2,PTH
FMAT,2
METRIC
T1C0.400
T2C0.600
T3C0.800
%
G90
G05
T1
X104.5Y-91.475
X104.5Y-92.525
X112.475Y-98.0
X114.55Y-96.075
X118.5Y-89.5
X119.2Y-95.75
X119.65Y-90.3
X119.713Y-91.713
X122.075Y-92.5
X122.075Y-93.6
X123.6Y-93.6
X124.575Y-98.825
X124.6Y-93.6
X125.5Y-89.5
X126.8Y-85.8
X126.8Y-88.2
X126.8Y-99.0
T3
X128.8Y-87.6
X128.8Y-89.6
X128.8Y-91.6
X128.8Y-93.6
X128.8Y-95.6
X128.8Y-97.6
T2
X102.25Y-88.18
X102.05Y-88.18
X101.85Y-88.18
X101.65Y-88.18
X102.25Y-96.82
X102.05Y-96.82
X101.85Y-96.82
X101.65Y-96.82
X106.68Y-88.18
X106.48Y-88.18
X106.28Y-88.18
X106.08Y-88.18
X105.88Y-88.18
X105.68Y-88.18
X105.58Y-88.18
X106.68Y-96.82
X106.48Y-96.82
X106.28Y-96.82
X106.08Y-96.82
X105.88Y-96.82
X105.68Y-96.82
X105.58Y-96.82
T0
M30
