%TF.GenerationSoftware,KiCad,Pcbnew,(5.1.8)-1*%
%TF.CreationDate,2021-01-13T21:24:39+08:00*%
%TF.ProjectId,downloader,646f776e-6c6f-4616-9465-722e6b696361,rev?*%
%TF.SameCoordinates,Original*%
%TF.FileFunction,Copper,L2,Bot*%
%TF.FilePolarity,Positive*%
%FSLAX46Y46*%
G04 Gerber Fmt 4.6, Leading zero omitted, Abs format (unit mm)*
G04 Created by KiCad (PCBNEW (5.1.8)-1) date 2021-01-13 21:24:39*
%MOMM*%
%LPD*%
G01*
G04 APERTURE LIST*
%TA.AperFunction,ComponentPad*%
%ADD10O,1.350000X1.350000*%
%TD*%
%TA.AperFunction,ComponentPad*%
%ADD11R,1.350000X1.350000*%
%TD*%
%TA.AperFunction,ComponentPad*%
%ADD12O,2.100000X1.000000*%
%TD*%
%TA.AperFunction,ComponentPad*%
%ADD13O,1.600000X1.000000*%
%TD*%
%TA.AperFunction,ViaPad*%
%ADD14C,0.800000*%
%TD*%
%TA.AperFunction,Conductor*%
%ADD15C,0.250000*%
%TD*%
%TA.AperFunction,Conductor*%
%ADD16C,0.254000*%
%TD*%
%TA.AperFunction,Conductor*%
%ADD17C,0.350000*%
%TD*%
%ADD18C,0.350000*%
%ADD19O,1.700000X0.600000*%
%ADD20O,1.200000X0.600000*%
G04 APERTURE END LIST*
D10*
%TO.P,J2,6*%
%TO.N,+3V3*%
X128800000Y-97600000D03*
%TO.P,J2,5*%
%TO.N,GND*%
X128800000Y-95600000D03*
%TO.P,J2,4*%
%TO.N,/IO0*%
X128800000Y-93600000D03*
%TO.P,J2,3*%
%TO.N,/EN*%
X128800000Y-91600000D03*
%TO.P,J2,2*%
%TO.N,/TXD*%
X128800000Y-89600000D03*
D11*
%TO.P,J2,1*%
%TO.N,/RXD*%
X128800000Y-87600000D03*
%TD*%
D12*
%TO.P,J1,S1*%
%TO.N,GND*%
X106130000Y-96820000D03*
X106130000Y-88180000D03*
D13*
X101950000Y-88180000D03*
X101950000Y-96820000D03*
%TD*%
D14*
%TO.N,*%
X126800000Y-99000000D03*
%TO.N,GND*%
X126800000Y-85800000D03*
X122074990Y-92500000D03*
%TO.N,/D-*%
X104500000Y-91475000D03*
X119650000Y-90300000D03*
%TO.N,/D+*%
X104500000Y-92525000D03*
X119712664Y-91712678D03*
%TO.N,/IO0*%
X126800000Y-88200000D03*
%TO.N,/DTR*%
X122074990Y-93600000D03*
X123600000Y-93600000D03*
%TO.N,/EN*%
X124575000Y-98825000D03*
X112474991Y-98000009D03*
%TO.N,+3V3*%
X125500000Y-89500000D03*
X118499990Y-89500000D03*
X124600000Y-93600000D03*
%TO.N,Net-(C1-Pad1)*%
X114550000Y-96075000D03*
X119199990Y-95750000D03*
%TD*%
D15*
%TO.N,GND*%
X125700000Y-92500000D02*
X122074990Y-92500000D01*
X128800000Y-95600000D02*
X125700000Y-92500000D01*
%TO.N,/D-*%
X104500000Y-91475000D02*
X118475000Y-91475000D01*
X118475000Y-91475000D02*
X119650000Y-90300000D01*
%TO.N,/D+*%
X118900342Y-92525000D02*
X119712664Y-91712678D01*
X104500000Y-92525000D02*
X118900342Y-92525000D01*
%TO.N,/IO0*%
X128800000Y-93080002D02*
X128800000Y-93600000D01*
X126800000Y-91080002D02*
X128800000Y-93080002D01*
X126800000Y-88200000D02*
X126800000Y-91080002D01*
%TO.N,/DTR*%
X122074990Y-93600000D02*
X123600000Y-93600000D01*
%TO.N,/EN*%
X124575000Y-98825000D02*
X113299982Y-98825000D01*
X113299982Y-98825000D02*
X112474991Y-98000009D01*
%TO.N,+3V3*%
X128600000Y-97600000D02*
X128800000Y-97600000D01*
X124600000Y-93600000D02*
X128600000Y-97600000D01*
X119224991Y-88774999D02*
X118499990Y-89500000D01*
X125500000Y-89500000D02*
X124774999Y-88774999D01*
X124774999Y-88774999D02*
X119224991Y-88774999D01*
%TO.N,Net-(C1-Pad1)*%
X118874990Y-96075000D02*
X119199990Y-95750000D01*
X114550000Y-96075000D02*
X118874990Y-96075000D01*
%TD*%
D16*
%TO.N,GND*%
X129340001Y-86286928D02*
X128125000Y-86286928D01*
X128000518Y-86299188D01*
X127880820Y-86335498D01*
X127770506Y-86394463D01*
X127673815Y-86473815D01*
X127594463Y-86570506D01*
X127535498Y-86680820D01*
X127499188Y-86800518D01*
X127486928Y-86925000D01*
X127486928Y-87423217D01*
X127459774Y-87396063D01*
X127290256Y-87282795D01*
X127101898Y-87204774D01*
X126901939Y-87165000D01*
X126698061Y-87165000D01*
X126498102Y-87204774D01*
X126309744Y-87282795D01*
X126140226Y-87396063D01*
X125996063Y-87540226D01*
X125882795Y-87709744D01*
X125804774Y-87898102D01*
X125765000Y-88098061D01*
X125765000Y-88301939D01*
X125804774Y-88501898D01*
X125806808Y-88506808D01*
X125801898Y-88504774D01*
X125601939Y-88465000D01*
X125539801Y-88465000D01*
X125338802Y-88264001D01*
X125315000Y-88234998D01*
X125199275Y-88140025D01*
X125067246Y-88069453D01*
X124923985Y-88025996D01*
X124812332Y-88014999D01*
X124812321Y-88014999D01*
X124774999Y-88011323D01*
X124737677Y-88014999D01*
X119262313Y-88014999D01*
X119224990Y-88011323D01*
X119187667Y-88014999D01*
X119187658Y-88014999D01*
X119076005Y-88025996D01*
X118932744Y-88069453D01*
X118800715Y-88140025D01*
X118684990Y-88234998D01*
X118661192Y-88263997D01*
X118460188Y-88465000D01*
X118398051Y-88465000D01*
X118198092Y-88504774D01*
X118009734Y-88582795D01*
X117840216Y-88696063D01*
X117696053Y-88840226D01*
X117582785Y-89009744D01*
X117504764Y-89198102D01*
X117464990Y-89398061D01*
X117464990Y-89601939D01*
X117504764Y-89801898D01*
X117582785Y-89990256D01*
X117696053Y-90159774D01*
X117840216Y-90303937D01*
X118009734Y-90417205D01*
X118198092Y-90495226D01*
X118349797Y-90525402D01*
X118160199Y-90715000D01*
X105203711Y-90715000D01*
X105159774Y-90671063D01*
X104990256Y-90557795D01*
X104801898Y-90479774D01*
X104601939Y-90440000D01*
X104398061Y-90440000D01*
X104198102Y-90479774D01*
X104009744Y-90557795D01*
X103840226Y-90671063D01*
X103696063Y-90815226D01*
X103582795Y-90984744D01*
X103504774Y-91173102D01*
X103465000Y-91373061D01*
X103465000Y-91576939D01*
X103504774Y-91776898D01*
X103582795Y-91965256D01*
X103606010Y-92000000D01*
X103582795Y-92034744D01*
X103504774Y-92223102D01*
X103465000Y-92423061D01*
X103465000Y-92626939D01*
X103504774Y-92826898D01*
X103582795Y-93015256D01*
X103696063Y-93184774D01*
X103840226Y-93328937D01*
X104009744Y-93442205D01*
X104198102Y-93520226D01*
X104398061Y-93560000D01*
X104601939Y-93560000D01*
X104801898Y-93520226D01*
X104990256Y-93442205D01*
X105159774Y-93328937D01*
X105203711Y-93285000D01*
X118863020Y-93285000D01*
X118900342Y-93288676D01*
X118937664Y-93285000D01*
X118937675Y-93285000D01*
X119049328Y-93274003D01*
X119192589Y-93230546D01*
X119324618Y-93159974D01*
X119440343Y-93065001D01*
X119464145Y-93035998D01*
X119752465Y-92747678D01*
X119814603Y-92747678D01*
X120014562Y-92707904D01*
X120202920Y-92629883D01*
X120372438Y-92516615D01*
X120516601Y-92372452D01*
X120629869Y-92202934D01*
X120707890Y-92014576D01*
X120747664Y-91814617D01*
X120747664Y-91610739D01*
X120707890Y-91410780D01*
X120629869Y-91222422D01*
X120516601Y-91052904D01*
X120438704Y-90975007D01*
X120453937Y-90959774D01*
X120567205Y-90790256D01*
X120645226Y-90601898D01*
X120685000Y-90401939D01*
X120685000Y-90198061D01*
X120645226Y-89998102D01*
X120567205Y-89809744D01*
X120453937Y-89640226D01*
X120348710Y-89534999D01*
X124460198Y-89534999D01*
X124465000Y-89539801D01*
X124465000Y-89601939D01*
X124504774Y-89801898D01*
X124582795Y-89990256D01*
X124696063Y-90159774D01*
X124840226Y-90303937D01*
X125009744Y-90417205D01*
X125198102Y-90495226D01*
X125398061Y-90535000D01*
X125601939Y-90535000D01*
X125801898Y-90495226D01*
X125990256Y-90417205D01*
X126040001Y-90383967D01*
X126040001Y-91042670D01*
X126036324Y-91080002D01*
X126040001Y-91117335D01*
X126049838Y-91217205D01*
X126050998Y-91228987D01*
X126094454Y-91372248D01*
X126165026Y-91504278D01*
X126224658Y-91576939D01*
X126260000Y-91620003D01*
X126288998Y-91643801D01*
X127634871Y-92989675D01*
X127540342Y-93217887D01*
X127490000Y-93470976D01*
X127490000Y-93729024D01*
X127540342Y-93982113D01*
X127639093Y-94220518D01*
X127782456Y-94435077D01*
X127954060Y-94606681D01*
X127821697Y-94728773D01*
X127670527Y-94936371D01*
X127562762Y-95169472D01*
X127532090Y-95270600D01*
X127655775Y-95472998D01*
X127547800Y-95472998D01*
X125635000Y-93560199D01*
X125635000Y-93498061D01*
X125595226Y-93298102D01*
X125517205Y-93109744D01*
X125403937Y-92940226D01*
X125259774Y-92796063D01*
X125090256Y-92682795D01*
X124901898Y-92604774D01*
X124701939Y-92565000D01*
X124498061Y-92565000D01*
X124298102Y-92604774D01*
X124109744Y-92682795D01*
X124100000Y-92689306D01*
X124090256Y-92682795D01*
X123901898Y-92604774D01*
X123701939Y-92565000D01*
X123498061Y-92565000D01*
X123298102Y-92604774D01*
X123109744Y-92682795D01*
X122940226Y-92796063D01*
X122896289Y-92840000D01*
X122778701Y-92840000D01*
X122734764Y-92796063D01*
X122565246Y-92682795D01*
X122376888Y-92604774D01*
X122176929Y-92565000D01*
X121973051Y-92565000D01*
X121773092Y-92604774D01*
X121584734Y-92682795D01*
X121415216Y-92796063D01*
X121271053Y-92940226D01*
X121157785Y-93109744D01*
X121079764Y-93298102D01*
X121039990Y-93498061D01*
X121039990Y-93701939D01*
X121079764Y-93901898D01*
X121157785Y-94090256D01*
X121271053Y-94259774D01*
X121415216Y-94403937D01*
X121584734Y-94517205D01*
X121773092Y-94595226D01*
X121973051Y-94635000D01*
X122176929Y-94635000D01*
X122376888Y-94595226D01*
X122565246Y-94517205D01*
X122734764Y-94403937D01*
X122778701Y-94360000D01*
X122896289Y-94360000D01*
X122940226Y-94403937D01*
X123109744Y-94517205D01*
X123298102Y-94595226D01*
X123498061Y-94635000D01*
X123701939Y-94635000D01*
X123901898Y-94595226D01*
X124090256Y-94517205D01*
X124100000Y-94510694D01*
X124109744Y-94517205D01*
X124298102Y-94595226D01*
X124498061Y-94635000D01*
X124560199Y-94635000D01*
X127490000Y-97564802D01*
X127490000Y-97729024D01*
X127540342Y-97982113D01*
X127639093Y-98220518D01*
X127782456Y-98435077D01*
X127964923Y-98617544D01*
X128179482Y-98760907D01*
X128417887Y-98859658D01*
X128670976Y-98910000D01*
X128929024Y-98910000D01*
X129182113Y-98859658D01*
X129340000Y-98794259D01*
X129340000Y-99340000D01*
X127779444Y-99340000D01*
X127795226Y-99301898D01*
X127835000Y-99101939D01*
X127835000Y-98898061D01*
X127795226Y-98698102D01*
X127717205Y-98509744D01*
X127603937Y-98340226D01*
X127459774Y-98196063D01*
X127290256Y-98082795D01*
X127101898Y-98004774D01*
X126901939Y-97965000D01*
X126698061Y-97965000D01*
X126498102Y-98004774D01*
X126309744Y-98082795D01*
X126140226Y-98196063D01*
X125996063Y-98340226D01*
X125882795Y-98509744D01*
X125804774Y-98698102D01*
X125765000Y-98898061D01*
X125765000Y-99101939D01*
X125804774Y-99301898D01*
X125820556Y-99340000D01*
X125475672Y-99340000D01*
X125492205Y-99315256D01*
X125570226Y-99126898D01*
X125610000Y-98926939D01*
X125610000Y-98723061D01*
X125570226Y-98523102D01*
X125492205Y-98334744D01*
X125378937Y-98165226D01*
X125234774Y-98021063D01*
X125065256Y-97907795D01*
X124876898Y-97829774D01*
X124676939Y-97790000D01*
X124473061Y-97790000D01*
X124273102Y-97829774D01*
X124084744Y-97907795D01*
X123915226Y-98021063D01*
X123871289Y-98065000D01*
X113614784Y-98065000D01*
X113509991Y-97960207D01*
X113509991Y-97898070D01*
X113470217Y-97698111D01*
X113392196Y-97509753D01*
X113278928Y-97340235D01*
X113134765Y-97196072D01*
X112965247Y-97082804D01*
X112776889Y-97004783D01*
X112576930Y-96965009D01*
X112373052Y-96965009D01*
X112173093Y-97004783D01*
X111984735Y-97082804D01*
X111815217Y-97196072D01*
X111671054Y-97340235D01*
X111557786Y-97509753D01*
X111479765Y-97698111D01*
X111439991Y-97898070D01*
X111439991Y-98101948D01*
X111479765Y-98301907D01*
X111557786Y-98490265D01*
X111671054Y-98659783D01*
X111815217Y-98803946D01*
X111984735Y-98917214D01*
X112173093Y-98995235D01*
X112373052Y-99035009D01*
X112435189Y-99035009D01*
X112736187Y-99336008D01*
X112739463Y-99340000D01*
X100660000Y-99340000D01*
X100660000Y-97382371D01*
X100757631Y-97532764D01*
X100913831Y-97693161D01*
X101098322Y-97820003D01*
X101304013Y-97908415D01*
X101523000Y-97955000D01*
X101823000Y-97955000D01*
X101823000Y-96947000D01*
X102077000Y-96947000D01*
X102077000Y-97955000D01*
X102377000Y-97955000D01*
X102595987Y-97908415D01*
X102801678Y-97820003D01*
X102986169Y-97693161D01*
X103142369Y-97532764D01*
X103264276Y-97344976D01*
X103344119Y-97121874D01*
X104485881Y-97121874D01*
X104565724Y-97344976D01*
X104687631Y-97532764D01*
X104843831Y-97693161D01*
X105028322Y-97820003D01*
X105234013Y-97908415D01*
X105453000Y-97955000D01*
X106003000Y-97955000D01*
X106003000Y-96947000D01*
X106257000Y-96947000D01*
X106257000Y-97955000D01*
X106807000Y-97955000D01*
X107025987Y-97908415D01*
X107231678Y-97820003D01*
X107416169Y-97693161D01*
X107572369Y-97532764D01*
X107694276Y-97344976D01*
X107774119Y-97121874D01*
X107647954Y-96947000D01*
X106257000Y-96947000D01*
X106003000Y-96947000D01*
X104612046Y-96947000D01*
X104485881Y-97121874D01*
X103344119Y-97121874D01*
X103217954Y-96947000D01*
X102077000Y-96947000D01*
X101823000Y-96947000D01*
X101803000Y-96947000D01*
X101803000Y-96693000D01*
X101823000Y-96693000D01*
X101823000Y-95685000D01*
X102077000Y-95685000D01*
X102077000Y-96693000D01*
X103217954Y-96693000D01*
X103344119Y-96518126D01*
X104485881Y-96518126D01*
X104612046Y-96693000D01*
X106003000Y-96693000D01*
X106003000Y-96673000D01*
X106257000Y-96673000D01*
X106257000Y-96693000D01*
X107647954Y-96693000D01*
X107774119Y-96518126D01*
X107694276Y-96295024D01*
X107572369Y-96107236D01*
X107441705Y-95973061D01*
X113515000Y-95973061D01*
X113515000Y-96176939D01*
X113554774Y-96376898D01*
X113632795Y-96565256D01*
X113746063Y-96734774D01*
X113890226Y-96878937D01*
X114059744Y-96992205D01*
X114248102Y-97070226D01*
X114448061Y-97110000D01*
X114651939Y-97110000D01*
X114851898Y-97070226D01*
X115040256Y-96992205D01*
X115209774Y-96878937D01*
X115253711Y-96835000D01*
X118837668Y-96835000D01*
X118874990Y-96838676D01*
X118912312Y-96835000D01*
X118912323Y-96835000D01*
X119023976Y-96824003D01*
X119152554Y-96785000D01*
X119301929Y-96785000D01*
X119501888Y-96745226D01*
X119690246Y-96667205D01*
X119859764Y-96553937D01*
X120003927Y-96409774D01*
X120117195Y-96240256D01*
X120195216Y-96051898D01*
X120234990Y-95851939D01*
X120234990Y-95648061D01*
X120195216Y-95448102D01*
X120117195Y-95259744D01*
X120003927Y-95090226D01*
X119859764Y-94946063D01*
X119690246Y-94832795D01*
X119501888Y-94754774D01*
X119301929Y-94715000D01*
X119098051Y-94715000D01*
X118898092Y-94754774D01*
X118709734Y-94832795D01*
X118540216Y-94946063D01*
X118396053Y-95090226D01*
X118282785Y-95259744D01*
X118259897Y-95315000D01*
X115253711Y-95315000D01*
X115209774Y-95271063D01*
X115040256Y-95157795D01*
X114851898Y-95079774D01*
X114651939Y-95040000D01*
X114448061Y-95040000D01*
X114248102Y-95079774D01*
X114059744Y-95157795D01*
X113890226Y-95271063D01*
X113746063Y-95415226D01*
X113632795Y-95584744D01*
X113554774Y-95773102D01*
X113515000Y-95973061D01*
X107441705Y-95973061D01*
X107416169Y-95946839D01*
X107231678Y-95819997D01*
X107025987Y-95731585D01*
X106807000Y-95685000D01*
X106516904Y-95685000D01*
X106523108Y-95670022D01*
X106560000Y-95484552D01*
X106560000Y-95295448D01*
X106523108Y-95109978D01*
X106450741Y-94935269D01*
X106345681Y-94778036D01*
X106211964Y-94644319D01*
X106054731Y-94539259D01*
X105880022Y-94466892D01*
X105694552Y-94430000D01*
X105505448Y-94430000D01*
X105319978Y-94466892D01*
X105145269Y-94539259D01*
X104988036Y-94644319D01*
X104854319Y-94778036D01*
X104749259Y-94935269D01*
X104676892Y-95109978D01*
X104640000Y-95295448D01*
X104640000Y-95484552D01*
X104676892Y-95670022D01*
X104749259Y-95844731D01*
X104828206Y-95962884D01*
X104687631Y-96107236D01*
X104565724Y-96295024D01*
X104485881Y-96518126D01*
X103344119Y-96518126D01*
X103264276Y-96295024D01*
X103142369Y-96107236D01*
X102986169Y-95946839D01*
X102801678Y-95819997D01*
X102595987Y-95731585D01*
X102377000Y-95685000D01*
X102077000Y-95685000D01*
X101823000Y-95685000D01*
X101523000Y-95685000D01*
X101304013Y-95731585D01*
X101098322Y-95819997D01*
X100913831Y-95946839D01*
X100757631Y-96107236D01*
X100660000Y-96257629D01*
X100660000Y-88742371D01*
X100757631Y-88892764D01*
X100913831Y-89053161D01*
X101098322Y-89180003D01*
X101304013Y-89268415D01*
X101523000Y-89315000D01*
X101823000Y-89315000D01*
X101823000Y-88307000D01*
X102077000Y-88307000D01*
X102077000Y-89315000D01*
X102377000Y-89315000D01*
X102595987Y-89268415D01*
X102801678Y-89180003D01*
X102986169Y-89053161D01*
X103142369Y-88892764D01*
X103264276Y-88704976D01*
X103344119Y-88481874D01*
X104485881Y-88481874D01*
X104565724Y-88704976D01*
X104687631Y-88892764D01*
X104828206Y-89037116D01*
X104749259Y-89155269D01*
X104676892Y-89329978D01*
X104640000Y-89515448D01*
X104640000Y-89704552D01*
X104676892Y-89890022D01*
X104749259Y-90064731D01*
X104854319Y-90221964D01*
X104988036Y-90355681D01*
X105145269Y-90460741D01*
X105319978Y-90533108D01*
X105505448Y-90570000D01*
X105694552Y-90570000D01*
X105880022Y-90533108D01*
X106054731Y-90460741D01*
X106211964Y-90355681D01*
X106345681Y-90221964D01*
X106450741Y-90064731D01*
X106523108Y-89890022D01*
X106560000Y-89704552D01*
X106560000Y-89515448D01*
X106523108Y-89329978D01*
X106516904Y-89315000D01*
X106807000Y-89315000D01*
X107025987Y-89268415D01*
X107231678Y-89180003D01*
X107416169Y-89053161D01*
X107572369Y-88892764D01*
X107694276Y-88704976D01*
X107774119Y-88481874D01*
X107647954Y-88307000D01*
X106257000Y-88307000D01*
X106257000Y-88327000D01*
X106003000Y-88327000D01*
X106003000Y-88307000D01*
X104612046Y-88307000D01*
X104485881Y-88481874D01*
X103344119Y-88481874D01*
X103217954Y-88307000D01*
X102077000Y-88307000D01*
X101823000Y-88307000D01*
X101803000Y-88307000D01*
X101803000Y-88053000D01*
X101823000Y-88053000D01*
X101823000Y-87045000D01*
X102077000Y-87045000D01*
X102077000Y-88053000D01*
X103217954Y-88053000D01*
X103344119Y-87878126D01*
X104485881Y-87878126D01*
X104612046Y-88053000D01*
X106003000Y-88053000D01*
X106003000Y-87045000D01*
X106257000Y-87045000D01*
X106257000Y-88053000D01*
X107647954Y-88053000D01*
X107774119Y-87878126D01*
X107694276Y-87655024D01*
X107572369Y-87467236D01*
X107416169Y-87306839D01*
X107231678Y-87179997D01*
X107025987Y-87091585D01*
X106807000Y-87045000D01*
X106257000Y-87045000D01*
X106003000Y-87045000D01*
X105453000Y-87045000D01*
X105234013Y-87091585D01*
X105028322Y-87179997D01*
X104843831Y-87306839D01*
X104687631Y-87467236D01*
X104565724Y-87655024D01*
X104485881Y-87878126D01*
X103344119Y-87878126D01*
X103264276Y-87655024D01*
X103142369Y-87467236D01*
X102986169Y-87306839D01*
X102801678Y-87179997D01*
X102595987Y-87091585D01*
X102377000Y-87045000D01*
X102077000Y-87045000D01*
X101823000Y-87045000D01*
X101523000Y-87045000D01*
X101304013Y-87091585D01*
X101098322Y-87179997D01*
X100913831Y-87306839D01*
X100757631Y-87467236D01*
X100660000Y-87617629D01*
X100660000Y-85660000D01*
X129340001Y-85660000D01*
X129340001Y-86286928D01*
%TA.AperFunction,Conductor*%
D17*
G36*
X129340001Y-86286928D02*
G01*
X128125000Y-86286928D01*
X128000518Y-86299188D01*
X127880820Y-86335498D01*
X127770506Y-86394463D01*
X127673815Y-86473815D01*
X127594463Y-86570506D01*
X127535498Y-86680820D01*
X127499188Y-86800518D01*
X127486928Y-86925000D01*
X127486928Y-87423217D01*
X127459774Y-87396063D01*
X127290256Y-87282795D01*
X127101898Y-87204774D01*
X126901939Y-87165000D01*
X126698061Y-87165000D01*
X126498102Y-87204774D01*
X126309744Y-87282795D01*
X126140226Y-87396063D01*
X125996063Y-87540226D01*
X125882795Y-87709744D01*
X125804774Y-87898102D01*
X125765000Y-88098061D01*
X125765000Y-88301939D01*
X125804774Y-88501898D01*
X125806808Y-88506808D01*
X125801898Y-88504774D01*
X125601939Y-88465000D01*
X125539801Y-88465000D01*
X125338802Y-88264001D01*
X125315000Y-88234998D01*
X125199275Y-88140025D01*
X125067246Y-88069453D01*
X124923985Y-88025996D01*
X124812332Y-88014999D01*
X124812321Y-88014999D01*
X124774999Y-88011323D01*
X124737677Y-88014999D01*
X119262313Y-88014999D01*
X119224990Y-88011323D01*
X119187667Y-88014999D01*
X119187658Y-88014999D01*
X119076005Y-88025996D01*
X118932744Y-88069453D01*
X118800715Y-88140025D01*
X118684990Y-88234998D01*
X118661192Y-88263997D01*
X118460188Y-88465000D01*
X118398051Y-88465000D01*
X118198092Y-88504774D01*
X118009734Y-88582795D01*
X117840216Y-88696063D01*
X117696053Y-88840226D01*
X117582785Y-89009744D01*
X117504764Y-89198102D01*
X117464990Y-89398061D01*
X117464990Y-89601939D01*
X117504764Y-89801898D01*
X117582785Y-89990256D01*
X117696053Y-90159774D01*
X117840216Y-90303937D01*
X118009734Y-90417205D01*
X118198092Y-90495226D01*
X118349797Y-90525402D01*
X118160199Y-90715000D01*
X105203711Y-90715000D01*
X105159774Y-90671063D01*
X104990256Y-90557795D01*
X104801898Y-90479774D01*
X104601939Y-90440000D01*
X104398061Y-90440000D01*
X104198102Y-90479774D01*
X104009744Y-90557795D01*
X103840226Y-90671063D01*
X103696063Y-90815226D01*
X103582795Y-90984744D01*
X103504774Y-91173102D01*
X103465000Y-91373061D01*
X103465000Y-91576939D01*
X103504774Y-91776898D01*
X103582795Y-91965256D01*
X103606010Y-92000000D01*
X103582795Y-92034744D01*
X103504774Y-92223102D01*
X103465000Y-92423061D01*
X103465000Y-92626939D01*
X103504774Y-92826898D01*
X103582795Y-93015256D01*
X103696063Y-93184774D01*
X103840226Y-93328937D01*
X104009744Y-93442205D01*
X104198102Y-93520226D01*
X104398061Y-93560000D01*
X104601939Y-93560000D01*
X104801898Y-93520226D01*
X104990256Y-93442205D01*
X105159774Y-93328937D01*
X105203711Y-93285000D01*
X118863020Y-93285000D01*
X118900342Y-93288676D01*
X118937664Y-93285000D01*
X118937675Y-93285000D01*
X119049328Y-93274003D01*
X119192589Y-93230546D01*
X119324618Y-93159974D01*
X119440343Y-93065001D01*
X119464145Y-93035998D01*
X119752465Y-92747678D01*
X119814603Y-92747678D01*
X120014562Y-92707904D01*
X120202920Y-92629883D01*
X120372438Y-92516615D01*
X120516601Y-92372452D01*
X120629869Y-92202934D01*
X120707890Y-92014576D01*
X120747664Y-91814617D01*
X120747664Y-91610739D01*
X120707890Y-91410780D01*
X120629869Y-91222422D01*
X120516601Y-91052904D01*
X120438704Y-90975007D01*
X120453937Y-90959774D01*
X120567205Y-90790256D01*
X120645226Y-90601898D01*
X120685000Y-90401939D01*
X120685000Y-90198061D01*
X120645226Y-89998102D01*
X120567205Y-89809744D01*
X120453937Y-89640226D01*
X120348710Y-89534999D01*
X124460198Y-89534999D01*
X124465000Y-89539801D01*
X124465000Y-89601939D01*
X124504774Y-89801898D01*
X124582795Y-89990256D01*
X124696063Y-90159774D01*
X124840226Y-90303937D01*
X125009744Y-90417205D01*
X125198102Y-90495226D01*
X125398061Y-90535000D01*
X125601939Y-90535000D01*
X125801898Y-90495226D01*
X125990256Y-90417205D01*
X126040001Y-90383967D01*
X126040001Y-91042670D01*
X126036324Y-91080002D01*
X126040001Y-91117335D01*
X126049838Y-91217205D01*
X126050998Y-91228987D01*
X126094454Y-91372248D01*
X126165026Y-91504278D01*
X126224658Y-91576939D01*
X126260000Y-91620003D01*
X126288998Y-91643801D01*
X127634871Y-92989675D01*
X127540342Y-93217887D01*
X127490000Y-93470976D01*
X127490000Y-93729024D01*
X127540342Y-93982113D01*
X127639093Y-94220518D01*
X127782456Y-94435077D01*
X127954060Y-94606681D01*
X127821697Y-94728773D01*
X127670527Y-94936371D01*
X127562762Y-95169472D01*
X127532090Y-95270600D01*
X127655775Y-95472998D01*
X127547800Y-95472998D01*
X125635000Y-93560199D01*
X125635000Y-93498061D01*
X125595226Y-93298102D01*
X125517205Y-93109744D01*
X125403937Y-92940226D01*
X125259774Y-92796063D01*
X125090256Y-92682795D01*
X124901898Y-92604774D01*
X124701939Y-92565000D01*
X124498061Y-92565000D01*
X124298102Y-92604774D01*
X124109744Y-92682795D01*
X124100000Y-92689306D01*
X124090256Y-92682795D01*
X123901898Y-92604774D01*
X123701939Y-92565000D01*
X123498061Y-92565000D01*
X123298102Y-92604774D01*
X123109744Y-92682795D01*
X122940226Y-92796063D01*
X122896289Y-92840000D01*
X122778701Y-92840000D01*
X122734764Y-92796063D01*
X122565246Y-92682795D01*
X122376888Y-92604774D01*
X122176929Y-92565000D01*
X121973051Y-92565000D01*
X121773092Y-92604774D01*
X121584734Y-92682795D01*
X121415216Y-92796063D01*
X121271053Y-92940226D01*
X121157785Y-93109744D01*
X121079764Y-93298102D01*
X121039990Y-93498061D01*
X121039990Y-93701939D01*
X121079764Y-93901898D01*
X121157785Y-94090256D01*
X121271053Y-94259774D01*
X121415216Y-94403937D01*
X121584734Y-94517205D01*
X121773092Y-94595226D01*
X121973051Y-94635000D01*
X122176929Y-94635000D01*
X122376888Y-94595226D01*
X122565246Y-94517205D01*
X122734764Y-94403937D01*
X122778701Y-94360000D01*
X122896289Y-94360000D01*
X122940226Y-94403937D01*
X123109744Y-94517205D01*
X123298102Y-94595226D01*
X123498061Y-94635000D01*
X123701939Y-94635000D01*
X123901898Y-94595226D01*
X124090256Y-94517205D01*
X124100000Y-94510694D01*
X124109744Y-94517205D01*
X124298102Y-94595226D01*
X124498061Y-94635000D01*
X124560199Y-94635000D01*
X127490000Y-97564802D01*
X127490000Y-97729024D01*
X127540342Y-97982113D01*
X127639093Y-98220518D01*
X127782456Y-98435077D01*
X127964923Y-98617544D01*
X128179482Y-98760907D01*
X128417887Y-98859658D01*
X128670976Y-98910000D01*
X128929024Y-98910000D01*
X129182113Y-98859658D01*
X129340000Y-98794259D01*
X129340000Y-99340000D01*
X127779444Y-99340000D01*
X127795226Y-99301898D01*
X127835000Y-99101939D01*
X127835000Y-98898061D01*
X127795226Y-98698102D01*
X127717205Y-98509744D01*
X127603937Y-98340226D01*
X127459774Y-98196063D01*
X127290256Y-98082795D01*
X127101898Y-98004774D01*
X126901939Y-97965000D01*
X126698061Y-97965000D01*
X126498102Y-98004774D01*
X126309744Y-98082795D01*
X126140226Y-98196063D01*
X125996063Y-98340226D01*
X125882795Y-98509744D01*
X125804774Y-98698102D01*
X125765000Y-98898061D01*
X125765000Y-99101939D01*
X125804774Y-99301898D01*
X125820556Y-99340000D01*
X125475672Y-99340000D01*
X125492205Y-99315256D01*
X125570226Y-99126898D01*
X125610000Y-98926939D01*
X125610000Y-98723061D01*
X125570226Y-98523102D01*
X125492205Y-98334744D01*
X125378937Y-98165226D01*
X125234774Y-98021063D01*
X125065256Y-97907795D01*
X124876898Y-97829774D01*
X124676939Y-97790000D01*
X124473061Y-97790000D01*
X124273102Y-97829774D01*
X124084744Y-97907795D01*
X123915226Y-98021063D01*
X123871289Y-98065000D01*
X113614784Y-98065000D01*
X113509991Y-97960207D01*
X113509991Y-97898070D01*
X113470217Y-97698111D01*
X113392196Y-97509753D01*
X113278928Y-97340235D01*
X113134765Y-97196072D01*
X112965247Y-97082804D01*
X112776889Y-97004783D01*
X112576930Y-96965009D01*
X112373052Y-96965009D01*
X112173093Y-97004783D01*
X111984735Y-97082804D01*
X111815217Y-97196072D01*
X111671054Y-97340235D01*
X111557786Y-97509753D01*
X111479765Y-97698111D01*
X111439991Y-97898070D01*
X111439991Y-98101948D01*
X111479765Y-98301907D01*
X111557786Y-98490265D01*
X111671054Y-98659783D01*
X111815217Y-98803946D01*
X111984735Y-98917214D01*
X112173093Y-98995235D01*
X112373052Y-99035009D01*
X112435189Y-99035009D01*
X112736187Y-99336008D01*
X112739463Y-99340000D01*
X100660000Y-99340000D01*
X100660000Y-97382371D01*
X100757631Y-97532764D01*
X100913831Y-97693161D01*
X101098322Y-97820003D01*
X101304013Y-97908415D01*
X101523000Y-97955000D01*
X101823000Y-97955000D01*
X101823000Y-96947000D01*
X102077000Y-96947000D01*
X102077000Y-97955000D01*
X102377000Y-97955000D01*
X102595987Y-97908415D01*
X102801678Y-97820003D01*
X102986169Y-97693161D01*
X103142369Y-97532764D01*
X103264276Y-97344976D01*
X103344119Y-97121874D01*
X104485881Y-97121874D01*
X104565724Y-97344976D01*
X104687631Y-97532764D01*
X104843831Y-97693161D01*
X105028322Y-97820003D01*
X105234013Y-97908415D01*
X105453000Y-97955000D01*
X106003000Y-97955000D01*
X106003000Y-96947000D01*
X106257000Y-96947000D01*
X106257000Y-97955000D01*
X106807000Y-97955000D01*
X107025987Y-97908415D01*
X107231678Y-97820003D01*
X107416169Y-97693161D01*
X107572369Y-97532764D01*
X107694276Y-97344976D01*
X107774119Y-97121874D01*
X107647954Y-96947000D01*
X106257000Y-96947000D01*
X106003000Y-96947000D01*
X104612046Y-96947000D01*
X104485881Y-97121874D01*
X103344119Y-97121874D01*
X103217954Y-96947000D01*
X102077000Y-96947000D01*
X101823000Y-96947000D01*
X101803000Y-96947000D01*
X101803000Y-96693000D01*
X101823000Y-96693000D01*
X101823000Y-95685000D01*
X102077000Y-95685000D01*
X102077000Y-96693000D01*
X103217954Y-96693000D01*
X103344119Y-96518126D01*
X104485881Y-96518126D01*
X104612046Y-96693000D01*
X106003000Y-96693000D01*
X106003000Y-96673000D01*
X106257000Y-96673000D01*
X106257000Y-96693000D01*
X107647954Y-96693000D01*
X107774119Y-96518126D01*
X107694276Y-96295024D01*
X107572369Y-96107236D01*
X107441705Y-95973061D01*
X113515000Y-95973061D01*
X113515000Y-96176939D01*
X113554774Y-96376898D01*
X113632795Y-96565256D01*
X113746063Y-96734774D01*
X113890226Y-96878937D01*
X114059744Y-96992205D01*
X114248102Y-97070226D01*
X114448061Y-97110000D01*
X114651939Y-97110000D01*
X114851898Y-97070226D01*
X115040256Y-96992205D01*
X115209774Y-96878937D01*
X115253711Y-96835000D01*
X118837668Y-96835000D01*
X118874990Y-96838676D01*
X118912312Y-96835000D01*
X118912323Y-96835000D01*
X119023976Y-96824003D01*
X119152554Y-96785000D01*
X119301929Y-96785000D01*
X119501888Y-96745226D01*
X119690246Y-96667205D01*
X119859764Y-96553937D01*
X120003927Y-96409774D01*
X120117195Y-96240256D01*
X120195216Y-96051898D01*
X120234990Y-95851939D01*
X120234990Y-95648061D01*
X120195216Y-95448102D01*
X120117195Y-95259744D01*
X120003927Y-95090226D01*
X119859764Y-94946063D01*
X119690246Y-94832795D01*
X119501888Y-94754774D01*
X119301929Y-94715000D01*
X119098051Y-94715000D01*
X118898092Y-94754774D01*
X118709734Y-94832795D01*
X118540216Y-94946063D01*
X118396053Y-95090226D01*
X118282785Y-95259744D01*
X118259897Y-95315000D01*
X115253711Y-95315000D01*
X115209774Y-95271063D01*
X115040256Y-95157795D01*
X114851898Y-95079774D01*
X114651939Y-95040000D01*
X114448061Y-95040000D01*
X114248102Y-95079774D01*
X114059744Y-95157795D01*
X113890226Y-95271063D01*
X113746063Y-95415226D01*
X113632795Y-95584744D01*
X113554774Y-95773102D01*
X113515000Y-95973061D01*
X107441705Y-95973061D01*
X107416169Y-95946839D01*
X107231678Y-95819997D01*
X107025987Y-95731585D01*
X106807000Y-95685000D01*
X106516904Y-95685000D01*
X106523108Y-95670022D01*
X106560000Y-95484552D01*
X106560000Y-95295448D01*
X106523108Y-95109978D01*
X106450741Y-94935269D01*
X106345681Y-94778036D01*
X106211964Y-94644319D01*
X106054731Y-94539259D01*
X105880022Y-94466892D01*
X105694552Y-94430000D01*
X105505448Y-94430000D01*
X105319978Y-94466892D01*
X105145269Y-94539259D01*
X104988036Y-94644319D01*
X104854319Y-94778036D01*
X104749259Y-94935269D01*
X104676892Y-95109978D01*
X104640000Y-95295448D01*
X104640000Y-95484552D01*
X104676892Y-95670022D01*
X104749259Y-95844731D01*
X104828206Y-95962884D01*
X104687631Y-96107236D01*
X104565724Y-96295024D01*
X104485881Y-96518126D01*
X103344119Y-96518126D01*
X103264276Y-96295024D01*
X103142369Y-96107236D01*
X102986169Y-95946839D01*
X102801678Y-95819997D01*
X102595987Y-95731585D01*
X102377000Y-95685000D01*
X102077000Y-95685000D01*
X101823000Y-95685000D01*
X101523000Y-95685000D01*
X101304013Y-95731585D01*
X101098322Y-95819997D01*
X100913831Y-95946839D01*
X100757631Y-96107236D01*
X100660000Y-96257629D01*
X100660000Y-88742371D01*
X100757631Y-88892764D01*
X100913831Y-89053161D01*
X101098322Y-89180003D01*
X101304013Y-89268415D01*
X101523000Y-89315000D01*
X101823000Y-89315000D01*
X101823000Y-88307000D01*
X102077000Y-88307000D01*
X102077000Y-89315000D01*
X102377000Y-89315000D01*
X102595987Y-89268415D01*
X102801678Y-89180003D01*
X102986169Y-89053161D01*
X103142369Y-88892764D01*
X103264276Y-88704976D01*
X103344119Y-88481874D01*
X104485881Y-88481874D01*
X104565724Y-88704976D01*
X104687631Y-88892764D01*
X104828206Y-89037116D01*
X104749259Y-89155269D01*
X104676892Y-89329978D01*
X104640000Y-89515448D01*
X104640000Y-89704552D01*
X104676892Y-89890022D01*
X104749259Y-90064731D01*
X104854319Y-90221964D01*
X104988036Y-90355681D01*
X105145269Y-90460741D01*
X105319978Y-90533108D01*
X105505448Y-90570000D01*
X105694552Y-90570000D01*
X105880022Y-90533108D01*
X106054731Y-90460741D01*
X106211964Y-90355681D01*
X106345681Y-90221964D01*
X106450741Y-90064731D01*
X106523108Y-89890022D01*
X106560000Y-89704552D01*
X106560000Y-89515448D01*
X106523108Y-89329978D01*
X106516904Y-89315000D01*
X106807000Y-89315000D01*
X107025987Y-89268415D01*
X107231678Y-89180003D01*
X107416169Y-89053161D01*
X107572369Y-88892764D01*
X107694276Y-88704976D01*
X107774119Y-88481874D01*
X107647954Y-88307000D01*
X106257000Y-88307000D01*
X106257000Y-88327000D01*
X106003000Y-88327000D01*
X106003000Y-88307000D01*
X104612046Y-88307000D01*
X104485881Y-88481874D01*
X103344119Y-88481874D01*
X103217954Y-88307000D01*
X102077000Y-88307000D01*
X101823000Y-88307000D01*
X101803000Y-88307000D01*
X101803000Y-88053000D01*
X101823000Y-88053000D01*
X101823000Y-87045000D01*
X102077000Y-87045000D01*
X102077000Y-88053000D01*
X103217954Y-88053000D01*
X103344119Y-87878126D01*
X104485881Y-87878126D01*
X104612046Y-88053000D01*
X106003000Y-88053000D01*
X106003000Y-87045000D01*
X106257000Y-87045000D01*
X106257000Y-88053000D01*
X107647954Y-88053000D01*
X107774119Y-87878126D01*
X107694276Y-87655024D01*
X107572369Y-87467236D01*
X107416169Y-87306839D01*
X107231678Y-87179997D01*
X107025987Y-87091585D01*
X106807000Y-87045000D01*
X106257000Y-87045000D01*
X106003000Y-87045000D01*
X105453000Y-87045000D01*
X105234013Y-87091585D01*
X105028322Y-87179997D01*
X104843831Y-87306839D01*
X104687631Y-87467236D01*
X104565724Y-87655024D01*
X104485881Y-87878126D01*
X103344119Y-87878126D01*
X103264276Y-87655024D01*
X103142369Y-87467236D01*
X102986169Y-87306839D01*
X102801678Y-87179997D01*
X102595987Y-87091585D01*
X102377000Y-87045000D01*
X102077000Y-87045000D01*
X101823000Y-87045000D01*
X101523000Y-87045000D01*
X101304013Y-87091585D01*
X101098322Y-87179997D01*
X100913831Y-87306839D01*
X100757631Y-87467236D01*
X100660000Y-87617629D01*
X100660000Y-85660000D01*
X129340001Y-85660000D01*
X129340001Y-86286928D01*
G37*
%TD.AperFunction*%
D16*
X128927000Y-95473000D02*
X128947000Y-95473000D01*
X128947000Y-95727000D01*
X128927000Y-95727000D01*
X128927000Y-95747000D01*
X128673000Y-95747000D01*
X128673000Y-95727000D01*
X128653000Y-95727000D01*
X128653000Y-95473000D01*
X128673000Y-95473000D01*
X128673000Y-95453000D01*
X128927000Y-95453000D01*
X128927000Y-95473000D01*
%TA.AperFunction,Conductor*%
D17*
G36*
X128927000Y-95473000D02*
G01*
X128947000Y-95473000D01*
X128947000Y-95727000D01*
X128927000Y-95727000D01*
X128927000Y-95747000D01*
X128673000Y-95747000D01*
X128673000Y-95727000D01*
X128653000Y-95727000D01*
X128653000Y-95473000D01*
X128673000Y-95473000D01*
X128673000Y-95453000D01*
X128927000Y-95453000D01*
X128927000Y-95473000D01*
G37*
%TD.AperFunction*%
%TD*%
D18*
X126800000Y-99000000D03*
X126800000Y-85800000D03*
X122074990Y-92500000D03*
X104500000Y-91475000D03*
X119650000Y-90300000D03*
X104500000Y-92525000D03*
X119712664Y-91712678D03*
X126800000Y-88200000D03*
X122074990Y-93600000D03*
X123600000Y-93600000D03*
X124575000Y-98825000D03*
X112474991Y-98000009D03*
X125500000Y-89500000D03*
X118499990Y-89500000D03*
X124600000Y-93600000D03*
X114550000Y-96075000D03*
X119199990Y-95750000D03*
X128800000Y-97600000D03*
X128800000Y-95600000D03*
X128800000Y-93600000D03*
X128800000Y-91600000D03*
X128800000Y-89600000D03*
X128800000Y-87600000D03*
D19*
X106130000Y-96820000D03*
X106130000Y-88180000D03*
D18*
X105600000Y-89610000D03*
D20*
X101950000Y-88180000D03*
D18*
X105600000Y-95390000D03*
D20*
X101950000Y-96820000D03*
M02*
