%TF.GenerationSoftware,KiCad,Pcbnew,(5.1.8)-1*%
%TF.CreationDate,2020-12-30T11:25:41+08:00*%
%TF.ProjectId,downloader,646f776e-6c6f-4616-9465-722e6b696361,rev?*%
%TF.SameCoordinates,Original*%
%TF.FileFunction,Copper,L2,Bot*%
%TF.FilePolarity,Positive*%
%FSLAX46Y46*%
G04 Gerber Fmt 4.6, Leading zero omitted, Abs format (unit mm)*
G04 Created by KiCad (PCBNEW (5.1.8)-1) date 2020-12-30 11:25:41*
%MOMM*%
%LPD*%
G01*
G04 APERTURE LIST*
%TA.AperFunction,ComponentPad*%
%ADD10O,0.850000X0.850000*%
%TD*%
%TA.AperFunction,ComponentPad*%
%ADD11R,0.850000X0.850000*%
%TD*%
%TA.AperFunction,ComponentPad*%
%ADD12O,2.100000X1.000000*%
%TD*%
%TA.AperFunction,ComponentPad*%
%ADD13O,1.600000X1.000000*%
%TD*%
%TA.AperFunction,ViaPad*%
%ADD14C,0.800000*%
%TD*%
%TA.AperFunction,Conductor*%
%ADD15C,0.250000*%
%TD*%
%TA.AperFunction,Conductor*%
%ADD16C,0.254000*%
%TD*%
%TA.AperFunction,Conductor*%
%ADD17C,0.100000*%
%TD*%
G04 APERTURE END LIST*
D10*
%TO.P,J2,6*%
%TO.N,+3V3*%
X129000000Y-95000000D03*
%TO.P,J2,5*%
%TO.N,GND*%
X129000000Y-94000000D03*
%TO.P,J2,4*%
%TO.N,/IO0*%
X129000000Y-93000000D03*
%TO.P,J2,3*%
%TO.N,/EN*%
X129000000Y-92000000D03*
%TO.P,J2,2*%
%TO.N,/TXD*%
X129000000Y-91000000D03*
D11*
%TO.P,J2,1*%
%TO.N,/RXD*%
X129000000Y-90000000D03*
%TD*%
D12*
%TO.P,J1,S1*%
%TO.N,GND*%
X106130000Y-96820000D03*
X106130000Y-88180000D03*
D13*
X101950000Y-88180000D03*
X101950000Y-96820000D03*
%TD*%
D14*
%TO.N,GND*%
X122100000Y-92500000D03*
X126900000Y-86200000D03*
%TO.N,/D-*%
X104500000Y-91475000D03*
X119700006Y-90700000D03*
%TO.N,/D+*%
X104500000Y-92525000D03*
X119712656Y-91712670D03*
%TO.N,/IO0*%
X127337465Y-89572282D03*
%TO.N,/DTR*%
X124351540Y-93574230D03*
X122500000Y-94000000D03*
%TO.N,/EN*%
X124575000Y-98825000D03*
X112474991Y-98000009D03*
%TO.N,+3V3*%
X125500000Y-89500000D03*
X118499990Y-89500000D03*
X126899998Y-95800000D03*
%TO.N,Net-(C1-Pad1)*%
X114550000Y-96075000D03*
X119199990Y-95750000D03*
%TD*%
D15*
%TO.N,GND*%
X128873002Y-94000000D02*
X129000000Y-94000000D01*
X122100000Y-92500000D02*
X127373002Y-92500000D01*
X127373002Y-92500000D02*
X128873002Y-94000000D01*
%TO.N,/D-*%
X118925006Y-91475000D02*
X119700006Y-90700000D01*
X104500000Y-91475000D02*
X118925006Y-91475000D01*
%TO.N,/D+*%
X118900326Y-92525000D02*
X119712656Y-91712670D01*
X104500000Y-92525000D02*
X118900326Y-92525000D01*
%TO.N,/IO0*%
X127337465Y-91828052D02*
X128509413Y-93000000D01*
X128509413Y-93000000D02*
X129000000Y-93000000D01*
X127337465Y-89572282D02*
X127337465Y-91828052D01*
%TO.N,/DTR*%
X122925770Y-93574230D02*
X122500000Y-94000000D01*
X124351540Y-93574230D02*
X122925770Y-93574230D01*
%TO.N,/EN*%
X124575000Y-98825000D02*
X113299982Y-98825000D01*
X113299982Y-98825000D02*
X112474991Y-98000009D01*
%TO.N,+3V3*%
X125500000Y-89500000D02*
X120000000Y-89500000D01*
X120000000Y-89500000D02*
X118499990Y-89500000D01*
X129000000Y-95000000D02*
X127699998Y-95000000D01*
X127699998Y-95000000D02*
X126899998Y-95800000D01*
%TO.N,Net-(C1-Pad1)*%
X118874990Y-96075000D02*
X119199990Y-95750000D01*
X114550000Y-96075000D02*
X118874990Y-96075000D01*
%TD*%
D16*
%TO.N,GND*%
X129340001Y-88936928D02*
X128575000Y-88936928D01*
X128450518Y-88949188D01*
X128330820Y-88985498D01*
X128227186Y-89040893D01*
X128141402Y-88912508D01*
X127997239Y-88768345D01*
X127827721Y-88655077D01*
X127639363Y-88577056D01*
X127439404Y-88537282D01*
X127235526Y-88537282D01*
X127035567Y-88577056D01*
X126847209Y-88655077D01*
X126677691Y-88768345D01*
X126533528Y-88912508D01*
X126436857Y-89057187D01*
X126417205Y-89009744D01*
X126303937Y-88840226D01*
X126159774Y-88696063D01*
X125990256Y-88582795D01*
X125801898Y-88504774D01*
X125601939Y-88465000D01*
X125398061Y-88465000D01*
X125198102Y-88504774D01*
X125009744Y-88582795D01*
X124840226Y-88696063D01*
X124796289Y-88740000D01*
X119203701Y-88740000D01*
X119159764Y-88696063D01*
X118990246Y-88582795D01*
X118801888Y-88504774D01*
X118601929Y-88465000D01*
X118398051Y-88465000D01*
X118198092Y-88504774D01*
X118009734Y-88582795D01*
X117840216Y-88696063D01*
X117696053Y-88840226D01*
X117582785Y-89009744D01*
X117504764Y-89198102D01*
X117464990Y-89398061D01*
X117464990Y-89601939D01*
X117504764Y-89801898D01*
X117582785Y-89990256D01*
X117696053Y-90159774D01*
X117840216Y-90303937D01*
X118009734Y-90417205D01*
X118198092Y-90495226D01*
X118398051Y-90535000D01*
X118601929Y-90535000D01*
X118680665Y-90519339D01*
X118665006Y-90598061D01*
X118665006Y-90660199D01*
X118610205Y-90715000D01*
X105203711Y-90715000D01*
X105159774Y-90671063D01*
X104990256Y-90557795D01*
X104801898Y-90479774D01*
X104601939Y-90440000D01*
X104398061Y-90440000D01*
X104198102Y-90479774D01*
X104009744Y-90557795D01*
X103840226Y-90671063D01*
X103696063Y-90815226D01*
X103582795Y-90984744D01*
X103504774Y-91173102D01*
X103465000Y-91373061D01*
X103465000Y-91576939D01*
X103504774Y-91776898D01*
X103582795Y-91965256D01*
X103606010Y-92000000D01*
X103582795Y-92034744D01*
X103504774Y-92223102D01*
X103465000Y-92423061D01*
X103465000Y-92626939D01*
X103504774Y-92826898D01*
X103582795Y-93015256D01*
X103696063Y-93184774D01*
X103840226Y-93328937D01*
X104009744Y-93442205D01*
X104198102Y-93520226D01*
X104398061Y-93560000D01*
X104601939Y-93560000D01*
X104801898Y-93520226D01*
X104990256Y-93442205D01*
X105159774Y-93328937D01*
X105203711Y-93285000D01*
X118863004Y-93285000D01*
X118900326Y-93288676D01*
X118937648Y-93285000D01*
X118937659Y-93285000D01*
X119049312Y-93274003D01*
X119192573Y-93230546D01*
X119324602Y-93159974D01*
X119440327Y-93065001D01*
X119464129Y-93035998D01*
X119752457Y-92747670D01*
X119814595Y-92747670D01*
X120014554Y-92707896D01*
X120202912Y-92629875D01*
X120372430Y-92516607D01*
X120516593Y-92372444D01*
X120629861Y-92202926D01*
X120707882Y-92014568D01*
X120747656Y-91814609D01*
X120747656Y-91610731D01*
X120707882Y-91410772D01*
X120629861Y-91222414D01*
X120612792Y-91196869D01*
X120617211Y-91190256D01*
X120695232Y-91001898D01*
X120735006Y-90801939D01*
X120735006Y-90598061D01*
X120695232Y-90398102D01*
X120638028Y-90260000D01*
X124796289Y-90260000D01*
X124840226Y-90303937D01*
X125009744Y-90417205D01*
X125198102Y-90495226D01*
X125398061Y-90535000D01*
X125601939Y-90535000D01*
X125801898Y-90495226D01*
X125990256Y-90417205D01*
X126159774Y-90303937D01*
X126303937Y-90159774D01*
X126400608Y-90015095D01*
X126420260Y-90062538D01*
X126533528Y-90232056D01*
X126577465Y-90275993D01*
X126577466Y-91790720D01*
X126573789Y-91828052D01*
X126577466Y-91865385D01*
X126588463Y-91977038D01*
X126590878Y-91984999D01*
X126631919Y-92120298D01*
X126702491Y-92252328D01*
X126749158Y-92309191D01*
X126797465Y-92368053D01*
X126826463Y-92391851D01*
X127945614Y-93511003D01*
X127969412Y-93540001D01*
X128028590Y-93588567D01*
X127991128Y-93674750D01*
X127980460Y-93709938D01*
X128107743Y-93873000D01*
X128398587Y-93873000D01*
X128497902Y-93939360D01*
X128644299Y-94000000D01*
X128497902Y-94060640D01*
X128398587Y-94127000D01*
X128107743Y-94127000D01*
X128019537Y-94240000D01*
X127737321Y-94240000D01*
X127699998Y-94236324D01*
X127662675Y-94240000D01*
X127662665Y-94240000D01*
X127551012Y-94250997D01*
X127407751Y-94294454D01*
X127275722Y-94365026D01*
X127159997Y-94459999D01*
X127136199Y-94488998D01*
X126860196Y-94765000D01*
X126798059Y-94765000D01*
X126598100Y-94804774D01*
X126409742Y-94882795D01*
X126240224Y-94996063D01*
X126096061Y-95140226D01*
X125982793Y-95309744D01*
X125904772Y-95498102D01*
X125864998Y-95698061D01*
X125864998Y-95901939D01*
X125904772Y-96101898D01*
X125982793Y-96290256D01*
X126096061Y-96459774D01*
X126240224Y-96603937D01*
X126409742Y-96717205D01*
X126598100Y-96795226D01*
X126798059Y-96835000D01*
X127001937Y-96835000D01*
X127201896Y-96795226D01*
X127390254Y-96717205D01*
X127559772Y-96603937D01*
X127703935Y-96459774D01*
X127817203Y-96290256D01*
X127895224Y-96101898D01*
X127934998Y-95901939D01*
X127934998Y-95839802D01*
X128014800Y-95760000D01*
X128260933Y-95760000D01*
X128324289Y-95823356D01*
X128497902Y-95939360D01*
X128690809Y-96019265D01*
X128895599Y-96060000D01*
X129104401Y-96060000D01*
X129309191Y-96019265D01*
X129340000Y-96006503D01*
X129340000Y-99340000D01*
X125475672Y-99340000D01*
X125492205Y-99315256D01*
X125570226Y-99126898D01*
X125610000Y-98926939D01*
X125610000Y-98723061D01*
X125570226Y-98523102D01*
X125492205Y-98334744D01*
X125378937Y-98165226D01*
X125234774Y-98021063D01*
X125065256Y-97907795D01*
X124876898Y-97829774D01*
X124676939Y-97790000D01*
X124473061Y-97790000D01*
X124273102Y-97829774D01*
X124084744Y-97907795D01*
X123915226Y-98021063D01*
X123871289Y-98065000D01*
X113614784Y-98065000D01*
X113509991Y-97960207D01*
X113509991Y-97898070D01*
X113470217Y-97698111D01*
X113392196Y-97509753D01*
X113278928Y-97340235D01*
X113134765Y-97196072D01*
X112965247Y-97082804D01*
X112776889Y-97004783D01*
X112576930Y-96965009D01*
X112373052Y-96965009D01*
X112173093Y-97004783D01*
X111984735Y-97082804D01*
X111815217Y-97196072D01*
X111671054Y-97340235D01*
X111557786Y-97509753D01*
X111479765Y-97698111D01*
X111439991Y-97898070D01*
X111439991Y-98101948D01*
X111479765Y-98301907D01*
X111557786Y-98490265D01*
X111671054Y-98659783D01*
X111815217Y-98803946D01*
X111984735Y-98917214D01*
X112173093Y-98995235D01*
X112373052Y-99035009D01*
X112435189Y-99035009D01*
X112736187Y-99336008D01*
X112739463Y-99340000D01*
X100660000Y-99340000D01*
X100660000Y-97382371D01*
X100757631Y-97532764D01*
X100913831Y-97693161D01*
X101098322Y-97820003D01*
X101304013Y-97908415D01*
X101523000Y-97955000D01*
X101823000Y-97955000D01*
X101823000Y-96947000D01*
X102077000Y-96947000D01*
X102077000Y-97955000D01*
X102377000Y-97955000D01*
X102595987Y-97908415D01*
X102801678Y-97820003D01*
X102986169Y-97693161D01*
X103142369Y-97532764D01*
X103264276Y-97344976D01*
X103344119Y-97121874D01*
X104485881Y-97121874D01*
X104565724Y-97344976D01*
X104687631Y-97532764D01*
X104843831Y-97693161D01*
X105028322Y-97820003D01*
X105234013Y-97908415D01*
X105453000Y-97955000D01*
X106003000Y-97955000D01*
X106003000Y-96947000D01*
X106257000Y-96947000D01*
X106257000Y-97955000D01*
X106807000Y-97955000D01*
X107025987Y-97908415D01*
X107231678Y-97820003D01*
X107416169Y-97693161D01*
X107572369Y-97532764D01*
X107694276Y-97344976D01*
X107774119Y-97121874D01*
X107647954Y-96947000D01*
X106257000Y-96947000D01*
X106003000Y-96947000D01*
X104612046Y-96947000D01*
X104485881Y-97121874D01*
X103344119Y-97121874D01*
X103217954Y-96947000D01*
X102077000Y-96947000D01*
X101823000Y-96947000D01*
X101803000Y-96947000D01*
X101803000Y-96693000D01*
X101823000Y-96693000D01*
X101823000Y-95685000D01*
X102077000Y-95685000D01*
X102077000Y-96693000D01*
X103217954Y-96693000D01*
X103344119Y-96518126D01*
X104485881Y-96518126D01*
X104612046Y-96693000D01*
X106003000Y-96693000D01*
X106003000Y-96673000D01*
X106257000Y-96673000D01*
X106257000Y-96693000D01*
X107647954Y-96693000D01*
X107774119Y-96518126D01*
X107694276Y-96295024D01*
X107572369Y-96107236D01*
X107441705Y-95973061D01*
X113515000Y-95973061D01*
X113515000Y-96176939D01*
X113554774Y-96376898D01*
X113632795Y-96565256D01*
X113746063Y-96734774D01*
X113890226Y-96878937D01*
X114059744Y-96992205D01*
X114248102Y-97070226D01*
X114448061Y-97110000D01*
X114651939Y-97110000D01*
X114851898Y-97070226D01*
X115040256Y-96992205D01*
X115209774Y-96878937D01*
X115253711Y-96835000D01*
X118837668Y-96835000D01*
X118874990Y-96838676D01*
X118912312Y-96835000D01*
X118912323Y-96835000D01*
X119023976Y-96824003D01*
X119152554Y-96785000D01*
X119301929Y-96785000D01*
X119501888Y-96745226D01*
X119690246Y-96667205D01*
X119859764Y-96553937D01*
X120003927Y-96409774D01*
X120117195Y-96240256D01*
X120195216Y-96051898D01*
X120234990Y-95851939D01*
X120234990Y-95648061D01*
X120195216Y-95448102D01*
X120117195Y-95259744D01*
X120003927Y-95090226D01*
X119859764Y-94946063D01*
X119690246Y-94832795D01*
X119501888Y-94754774D01*
X119301929Y-94715000D01*
X119098051Y-94715000D01*
X118898092Y-94754774D01*
X118709734Y-94832795D01*
X118540216Y-94946063D01*
X118396053Y-95090226D01*
X118282785Y-95259744D01*
X118259897Y-95315000D01*
X115253711Y-95315000D01*
X115209774Y-95271063D01*
X115040256Y-95157795D01*
X114851898Y-95079774D01*
X114651939Y-95040000D01*
X114448061Y-95040000D01*
X114248102Y-95079774D01*
X114059744Y-95157795D01*
X113890226Y-95271063D01*
X113746063Y-95415226D01*
X113632795Y-95584744D01*
X113554774Y-95773102D01*
X113515000Y-95973061D01*
X107441705Y-95973061D01*
X107416169Y-95946839D01*
X107231678Y-95819997D01*
X107025987Y-95731585D01*
X106807000Y-95685000D01*
X106516904Y-95685000D01*
X106523108Y-95670022D01*
X106560000Y-95484552D01*
X106560000Y-95295448D01*
X106523108Y-95109978D01*
X106450741Y-94935269D01*
X106345681Y-94778036D01*
X106211964Y-94644319D01*
X106054731Y-94539259D01*
X105880022Y-94466892D01*
X105694552Y-94430000D01*
X105505448Y-94430000D01*
X105319978Y-94466892D01*
X105145269Y-94539259D01*
X104988036Y-94644319D01*
X104854319Y-94778036D01*
X104749259Y-94935269D01*
X104676892Y-95109978D01*
X104640000Y-95295448D01*
X104640000Y-95484552D01*
X104676892Y-95670022D01*
X104749259Y-95844731D01*
X104828206Y-95962884D01*
X104687631Y-96107236D01*
X104565724Y-96295024D01*
X104485881Y-96518126D01*
X103344119Y-96518126D01*
X103264276Y-96295024D01*
X103142369Y-96107236D01*
X102986169Y-95946839D01*
X102801678Y-95819997D01*
X102595987Y-95731585D01*
X102377000Y-95685000D01*
X102077000Y-95685000D01*
X101823000Y-95685000D01*
X101523000Y-95685000D01*
X101304013Y-95731585D01*
X101098322Y-95819997D01*
X100913831Y-95946839D01*
X100757631Y-96107236D01*
X100660000Y-96257629D01*
X100660000Y-93898061D01*
X121465000Y-93898061D01*
X121465000Y-94101939D01*
X121504774Y-94301898D01*
X121582795Y-94490256D01*
X121696063Y-94659774D01*
X121840226Y-94803937D01*
X122009744Y-94917205D01*
X122198102Y-94995226D01*
X122398061Y-95035000D01*
X122601939Y-95035000D01*
X122801898Y-94995226D01*
X122990256Y-94917205D01*
X123159774Y-94803937D01*
X123303937Y-94659774D01*
X123417205Y-94490256D01*
X123481834Y-94334230D01*
X123647829Y-94334230D01*
X123691766Y-94378167D01*
X123861284Y-94491435D01*
X124049642Y-94569456D01*
X124249601Y-94609230D01*
X124453479Y-94609230D01*
X124653438Y-94569456D01*
X124841796Y-94491435D01*
X125011314Y-94378167D01*
X125155477Y-94234004D01*
X125268745Y-94064486D01*
X125346766Y-93876128D01*
X125386540Y-93676169D01*
X125386540Y-93472291D01*
X125346766Y-93272332D01*
X125268745Y-93083974D01*
X125155477Y-92914456D01*
X125011314Y-92770293D01*
X124841796Y-92657025D01*
X124653438Y-92579004D01*
X124453479Y-92539230D01*
X124249601Y-92539230D01*
X124049642Y-92579004D01*
X123861284Y-92657025D01*
X123691766Y-92770293D01*
X123647829Y-92814230D01*
X122963095Y-92814230D01*
X122925770Y-92810554D01*
X122888445Y-92814230D01*
X122888437Y-92814230D01*
X122776784Y-92825227D01*
X122633523Y-92868684D01*
X122501494Y-92939256D01*
X122470125Y-92965000D01*
X122398061Y-92965000D01*
X122198102Y-93004774D01*
X122009744Y-93082795D01*
X121840226Y-93196063D01*
X121696063Y-93340226D01*
X121582795Y-93509744D01*
X121504774Y-93698102D01*
X121465000Y-93898061D01*
X100660000Y-93898061D01*
X100660000Y-88742371D01*
X100757631Y-88892764D01*
X100913831Y-89053161D01*
X101098322Y-89180003D01*
X101304013Y-89268415D01*
X101523000Y-89315000D01*
X101823000Y-89315000D01*
X101823000Y-88307000D01*
X102077000Y-88307000D01*
X102077000Y-89315000D01*
X102377000Y-89315000D01*
X102595987Y-89268415D01*
X102801678Y-89180003D01*
X102986169Y-89053161D01*
X103142369Y-88892764D01*
X103264276Y-88704976D01*
X103344119Y-88481874D01*
X104485881Y-88481874D01*
X104565724Y-88704976D01*
X104687631Y-88892764D01*
X104828206Y-89037116D01*
X104749259Y-89155269D01*
X104676892Y-89329978D01*
X104640000Y-89515448D01*
X104640000Y-89704552D01*
X104676892Y-89890022D01*
X104749259Y-90064731D01*
X104854319Y-90221964D01*
X104988036Y-90355681D01*
X105145269Y-90460741D01*
X105319978Y-90533108D01*
X105505448Y-90570000D01*
X105694552Y-90570000D01*
X105880022Y-90533108D01*
X106054731Y-90460741D01*
X106211964Y-90355681D01*
X106345681Y-90221964D01*
X106450741Y-90064731D01*
X106523108Y-89890022D01*
X106560000Y-89704552D01*
X106560000Y-89515448D01*
X106523108Y-89329978D01*
X106516904Y-89315000D01*
X106807000Y-89315000D01*
X107025987Y-89268415D01*
X107231678Y-89180003D01*
X107416169Y-89053161D01*
X107572369Y-88892764D01*
X107694276Y-88704976D01*
X107774119Y-88481874D01*
X107647954Y-88307000D01*
X106257000Y-88307000D01*
X106257000Y-88327000D01*
X106003000Y-88327000D01*
X106003000Y-88307000D01*
X104612046Y-88307000D01*
X104485881Y-88481874D01*
X103344119Y-88481874D01*
X103217954Y-88307000D01*
X102077000Y-88307000D01*
X101823000Y-88307000D01*
X101803000Y-88307000D01*
X101803000Y-88053000D01*
X101823000Y-88053000D01*
X101823000Y-87045000D01*
X102077000Y-87045000D01*
X102077000Y-88053000D01*
X103217954Y-88053000D01*
X103344119Y-87878126D01*
X104485881Y-87878126D01*
X104612046Y-88053000D01*
X106003000Y-88053000D01*
X106003000Y-87045000D01*
X106257000Y-87045000D01*
X106257000Y-88053000D01*
X107647954Y-88053000D01*
X107774119Y-87878126D01*
X107694276Y-87655024D01*
X107572369Y-87467236D01*
X107416169Y-87306839D01*
X107231678Y-87179997D01*
X107025987Y-87091585D01*
X106807000Y-87045000D01*
X106257000Y-87045000D01*
X106003000Y-87045000D01*
X105453000Y-87045000D01*
X105234013Y-87091585D01*
X105028322Y-87179997D01*
X104843831Y-87306839D01*
X104687631Y-87467236D01*
X104565724Y-87655024D01*
X104485881Y-87878126D01*
X103344119Y-87878126D01*
X103264276Y-87655024D01*
X103142369Y-87467236D01*
X102986169Y-87306839D01*
X102801678Y-87179997D01*
X102595987Y-87091585D01*
X102377000Y-87045000D01*
X102077000Y-87045000D01*
X101823000Y-87045000D01*
X101523000Y-87045000D01*
X101304013Y-87091585D01*
X101098322Y-87179997D01*
X100913831Y-87306839D01*
X100757631Y-87467236D01*
X100660000Y-87617629D01*
X100660000Y-85660000D01*
X129340001Y-85660000D01*
X129340001Y-88936928D01*
%TA.AperFunction,Conductor*%
D17*
G36*
X129340001Y-88936928D02*
G01*
X128575000Y-88936928D01*
X128450518Y-88949188D01*
X128330820Y-88985498D01*
X128227186Y-89040893D01*
X128141402Y-88912508D01*
X127997239Y-88768345D01*
X127827721Y-88655077D01*
X127639363Y-88577056D01*
X127439404Y-88537282D01*
X127235526Y-88537282D01*
X127035567Y-88577056D01*
X126847209Y-88655077D01*
X126677691Y-88768345D01*
X126533528Y-88912508D01*
X126436857Y-89057187D01*
X126417205Y-89009744D01*
X126303937Y-88840226D01*
X126159774Y-88696063D01*
X125990256Y-88582795D01*
X125801898Y-88504774D01*
X125601939Y-88465000D01*
X125398061Y-88465000D01*
X125198102Y-88504774D01*
X125009744Y-88582795D01*
X124840226Y-88696063D01*
X124796289Y-88740000D01*
X119203701Y-88740000D01*
X119159764Y-88696063D01*
X118990246Y-88582795D01*
X118801888Y-88504774D01*
X118601929Y-88465000D01*
X118398051Y-88465000D01*
X118198092Y-88504774D01*
X118009734Y-88582795D01*
X117840216Y-88696063D01*
X117696053Y-88840226D01*
X117582785Y-89009744D01*
X117504764Y-89198102D01*
X117464990Y-89398061D01*
X117464990Y-89601939D01*
X117504764Y-89801898D01*
X117582785Y-89990256D01*
X117696053Y-90159774D01*
X117840216Y-90303937D01*
X118009734Y-90417205D01*
X118198092Y-90495226D01*
X118398051Y-90535000D01*
X118601929Y-90535000D01*
X118680665Y-90519339D01*
X118665006Y-90598061D01*
X118665006Y-90660199D01*
X118610205Y-90715000D01*
X105203711Y-90715000D01*
X105159774Y-90671063D01*
X104990256Y-90557795D01*
X104801898Y-90479774D01*
X104601939Y-90440000D01*
X104398061Y-90440000D01*
X104198102Y-90479774D01*
X104009744Y-90557795D01*
X103840226Y-90671063D01*
X103696063Y-90815226D01*
X103582795Y-90984744D01*
X103504774Y-91173102D01*
X103465000Y-91373061D01*
X103465000Y-91576939D01*
X103504774Y-91776898D01*
X103582795Y-91965256D01*
X103606010Y-92000000D01*
X103582795Y-92034744D01*
X103504774Y-92223102D01*
X103465000Y-92423061D01*
X103465000Y-92626939D01*
X103504774Y-92826898D01*
X103582795Y-93015256D01*
X103696063Y-93184774D01*
X103840226Y-93328937D01*
X104009744Y-93442205D01*
X104198102Y-93520226D01*
X104398061Y-93560000D01*
X104601939Y-93560000D01*
X104801898Y-93520226D01*
X104990256Y-93442205D01*
X105159774Y-93328937D01*
X105203711Y-93285000D01*
X118863004Y-93285000D01*
X118900326Y-93288676D01*
X118937648Y-93285000D01*
X118937659Y-93285000D01*
X119049312Y-93274003D01*
X119192573Y-93230546D01*
X119324602Y-93159974D01*
X119440327Y-93065001D01*
X119464129Y-93035998D01*
X119752457Y-92747670D01*
X119814595Y-92747670D01*
X120014554Y-92707896D01*
X120202912Y-92629875D01*
X120372430Y-92516607D01*
X120516593Y-92372444D01*
X120629861Y-92202926D01*
X120707882Y-92014568D01*
X120747656Y-91814609D01*
X120747656Y-91610731D01*
X120707882Y-91410772D01*
X120629861Y-91222414D01*
X120612792Y-91196869D01*
X120617211Y-91190256D01*
X120695232Y-91001898D01*
X120735006Y-90801939D01*
X120735006Y-90598061D01*
X120695232Y-90398102D01*
X120638028Y-90260000D01*
X124796289Y-90260000D01*
X124840226Y-90303937D01*
X125009744Y-90417205D01*
X125198102Y-90495226D01*
X125398061Y-90535000D01*
X125601939Y-90535000D01*
X125801898Y-90495226D01*
X125990256Y-90417205D01*
X126159774Y-90303937D01*
X126303937Y-90159774D01*
X126400608Y-90015095D01*
X126420260Y-90062538D01*
X126533528Y-90232056D01*
X126577465Y-90275993D01*
X126577466Y-91790720D01*
X126573789Y-91828052D01*
X126577466Y-91865385D01*
X126588463Y-91977038D01*
X126590878Y-91984999D01*
X126631919Y-92120298D01*
X126702491Y-92252328D01*
X126749158Y-92309191D01*
X126797465Y-92368053D01*
X126826463Y-92391851D01*
X127945614Y-93511003D01*
X127969412Y-93540001D01*
X128028590Y-93588567D01*
X127991128Y-93674750D01*
X127980460Y-93709938D01*
X128107743Y-93873000D01*
X128398587Y-93873000D01*
X128497902Y-93939360D01*
X128644299Y-94000000D01*
X128497902Y-94060640D01*
X128398587Y-94127000D01*
X128107743Y-94127000D01*
X128019537Y-94240000D01*
X127737321Y-94240000D01*
X127699998Y-94236324D01*
X127662675Y-94240000D01*
X127662665Y-94240000D01*
X127551012Y-94250997D01*
X127407751Y-94294454D01*
X127275722Y-94365026D01*
X127159997Y-94459999D01*
X127136199Y-94488998D01*
X126860196Y-94765000D01*
X126798059Y-94765000D01*
X126598100Y-94804774D01*
X126409742Y-94882795D01*
X126240224Y-94996063D01*
X126096061Y-95140226D01*
X125982793Y-95309744D01*
X125904772Y-95498102D01*
X125864998Y-95698061D01*
X125864998Y-95901939D01*
X125904772Y-96101898D01*
X125982793Y-96290256D01*
X126096061Y-96459774D01*
X126240224Y-96603937D01*
X126409742Y-96717205D01*
X126598100Y-96795226D01*
X126798059Y-96835000D01*
X127001937Y-96835000D01*
X127201896Y-96795226D01*
X127390254Y-96717205D01*
X127559772Y-96603937D01*
X127703935Y-96459774D01*
X127817203Y-96290256D01*
X127895224Y-96101898D01*
X127934998Y-95901939D01*
X127934998Y-95839802D01*
X128014800Y-95760000D01*
X128260933Y-95760000D01*
X128324289Y-95823356D01*
X128497902Y-95939360D01*
X128690809Y-96019265D01*
X128895599Y-96060000D01*
X129104401Y-96060000D01*
X129309191Y-96019265D01*
X129340000Y-96006503D01*
X129340000Y-99340000D01*
X125475672Y-99340000D01*
X125492205Y-99315256D01*
X125570226Y-99126898D01*
X125610000Y-98926939D01*
X125610000Y-98723061D01*
X125570226Y-98523102D01*
X125492205Y-98334744D01*
X125378937Y-98165226D01*
X125234774Y-98021063D01*
X125065256Y-97907795D01*
X124876898Y-97829774D01*
X124676939Y-97790000D01*
X124473061Y-97790000D01*
X124273102Y-97829774D01*
X124084744Y-97907795D01*
X123915226Y-98021063D01*
X123871289Y-98065000D01*
X113614784Y-98065000D01*
X113509991Y-97960207D01*
X113509991Y-97898070D01*
X113470217Y-97698111D01*
X113392196Y-97509753D01*
X113278928Y-97340235D01*
X113134765Y-97196072D01*
X112965247Y-97082804D01*
X112776889Y-97004783D01*
X112576930Y-96965009D01*
X112373052Y-96965009D01*
X112173093Y-97004783D01*
X111984735Y-97082804D01*
X111815217Y-97196072D01*
X111671054Y-97340235D01*
X111557786Y-97509753D01*
X111479765Y-97698111D01*
X111439991Y-97898070D01*
X111439991Y-98101948D01*
X111479765Y-98301907D01*
X111557786Y-98490265D01*
X111671054Y-98659783D01*
X111815217Y-98803946D01*
X111984735Y-98917214D01*
X112173093Y-98995235D01*
X112373052Y-99035009D01*
X112435189Y-99035009D01*
X112736187Y-99336008D01*
X112739463Y-99340000D01*
X100660000Y-99340000D01*
X100660000Y-97382371D01*
X100757631Y-97532764D01*
X100913831Y-97693161D01*
X101098322Y-97820003D01*
X101304013Y-97908415D01*
X101523000Y-97955000D01*
X101823000Y-97955000D01*
X101823000Y-96947000D01*
X102077000Y-96947000D01*
X102077000Y-97955000D01*
X102377000Y-97955000D01*
X102595987Y-97908415D01*
X102801678Y-97820003D01*
X102986169Y-97693161D01*
X103142369Y-97532764D01*
X103264276Y-97344976D01*
X103344119Y-97121874D01*
X104485881Y-97121874D01*
X104565724Y-97344976D01*
X104687631Y-97532764D01*
X104843831Y-97693161D01*
X105028322Y-97820003D01*
X105234013Y-97908415D01*
X105453000Y-97955000D01*
X106003000Y-97955000D01*
X106003000Y-96947000D01*
X106257000Y-96947000D01*
X106257000Y-97955000D01*
X106807000Y-97955000D01*
X107025987Y-97908415D01*
X107231678Y-97820003D01*
X107416169Y-97693161D01*
X107572369Y-97532764D01*
X107694276Y-97344976D01*
X107774119Y-97121874D01*
X107647954Y-96947000D01*
X106257000Y-96947000D01*
X106003000Y-96947000D01*
X104612046Y-96947000D01*
X104485881Y-97121874D01*
X103344119Y-97121874D01*
X103217954Y-96947000D01*
X102077000Y-96947000D01*
X101823000Y-96947000D01*
X101803000Y-96947000D01*
X101803000Y-96693000D01*
X101823000Y-96693000D01*
X101823000Y-95685000D01*
X102077000Y-95685000D01*
X102077000Y-96693000D01*
X103217954Y-96693000D01*
X103344119Y-96518126D01*
X104485881Y-96518126D01*
X104612046Y-96693000D01*
X106003000Y-96693000D01*
X106003000Y-96673000D01*
X106257000Y-96673000D01*
X106257000Y-96693000D01*
X107647954Y-96693000D01*
X107774119Y-96518126D01*
X107694276Y-96295024D01*
X107572369Y-96107236D01*
X107441705Y-95973061D01*
X113515000Y-95973061D01*
X113515000Y-96176939D01*
X113554774Y-96376898D01*
X113632795Y-96565256D01*
X113746063Y-96734774D01*
X113890226Y-96878937D01*
X114059744Y-96992205D01*
X114248102Y-97070226D01*
X114448061Y-97110000D01*
X114651939Y-97110000D01*
X114851898Y-97070226D01*
X115040256Y-96992205D01*
X115209774Y-96878937D01*
X115253711Y-96835000D01*
X118837668Y-96835000D01*
X118874990Y-96838676D01*
X118912312Y-96835000D01*
X118912323Y-96835000D01*
X119023976Y-96824003D01*
X119152554Y-96785000D01*
X119301929Y-96785000D01*
X119501888Y-96745226D01*
X119690246Y-96667205D01*
X119859764Y-96553937D01*
X120003927Y-96409774D01*
X120117195Y-96240256D01*
X120195216Y-96051898D01*
X120234990Y-95851939D01*
X120234990Y-95648061D01*
X120195216Y-95448102D01*
X120117195Y-95259744D01*
X120003927Y-95090226D01*
X119859764Y-94946063D01*
X119690246Y-94832795D01*
X119501888Y-94754774D01*
X119301929Y-94715000D01*
X119098051Y-94715000D01*
X118898092Y-94754774D01*
X118709734Y-94832795D01*
X118540216Y-94946063D01*
X118396053Y-95090226D01*
X118282785Y-95259744D01*
X118259897Y-95315000D01*
X115253711Y-95315000D01*
X115209774Y-95271063D01*
X115040256Y-95157795D01*
X114851898Y-95079774D01*
X114651939Y-95040000D01*
X114448061Y-95040000D01*
X114248102Y-95079774D01*
X114059744Y-95157795D01*
X113890226Y-95271063D01*
X113746063Y-95415226D01*
X113632795Y-95584744D01*
X113554774Y-95773102D01*
X113515000Y-95973061D01*
X107441705Y-95973061D01*
X107416169Y-95946839D01*
X107231678Y-95819997D01*
X107025987Y-95731585D01*
X106807000Y-95685000D01*
X106516904Y-95685000D01*
X106523108Y-95670022D01*
X106560000Y-95484552D01*
X106560000Y-95295448D01*
X106523108Y-95109978D01*
X106450741Y-94935269D01*
X106345681Y-94778036D01*
X106211964Y-94644319D01*
X106054731Y-94539259D01*
X105880022Y-94466892D01*
X105694552Y-94430000D01*
X105505448Y-94430000D01*
X105319978Y-94466892D01*
X105145269Y-94539259D01*
X104988036Y-94644319D01*
X104854319Y-94778036D01*
X104749259Y-94935269D01*
X104676892Y-95109978D01*
X104640000Y-95295448D01*
X104640000Y-95484552D01*
X104676892Y-95670022D01*
X104749259Y-95844731D01*
X104828206Y-95962884D01*
X104687631Y-96107236D01*
X104565724Y-96295024D01*
X104485881Y-96518126D01*
X103344119Y-96518126D01*
X103264276Y-96295024D01*
X103142369Y-96107236D01*
X102986169Y-95946839D01*
X102801678Y-95819997D01*
X102595987Y-95731585D01*
X102377000Y-95685000D01*
X102077000Y-95685000D01*
X101823000Y-95685000D01*
X101523000Y-95685000D01*
X101304013Y-95731585D01*
X101098322Y-95819997D01*
X100913831Y-95946839D01*
X100757631Y-96107236D01*
X100660000Y-96257629D01*
X100660000Y-93898061D01*
X121465000Y-93898061D01*
X121465000Y-94101939D01*
X121504774Y-94301898D01*
X121582795Y-94490256D01*
X121696063Y-94659774D01*
X121840226Y-94803937D01*
X122009744Y-94917205D01*
X122198102Y-94995226D01*
X122398061Y-95035000D01*
X122601939Y-95035000D01*
X122801898Y-94995226D01*
X122990256Y-94917205D01*
X123159774Y-94803937D01*
X123303937Y-94659774D01*
X123417205Y-94490256D01*
X123481834Y-94334230D01*
X123647829Y-94334230D01*
X123691766Y-94378167D01*
X123861284Y-94491435D01*
X124049642Y-94569456D01*
X124249601Y-94609230D01*
X124453479Y-94609230D01*
X124653438Y-94569456D01*
X124841796Y-94491435D01*
X125011314Y-94378167D01*
X125155477Y-94234004D01*
X125268745Y-94064486D01*
X125346766Y-93876128D01*
X125386540Y-93676169D01*
X125386540Y-93472291D01*
X125346766Y-93272332D01*
X125268745Y-93083974D01*
X125155477Y-92914456D01*
X125011314Y-92770293D01*
X124841796Y-92657025D01*
X124653438Y-92579004D01*
X124453479Y-92539230D01*
X124249601Y-92539230D01*
X124049642Y-92579004D01*
X123861284Y-92657025D01*
X123691766Y-92770293D01*
X123647829Y-92814230D01*
X122963095Y-92814230D01*
X122925770Y-92810554D01*
X122888445Y-92814230D01*
X122888437Y-92814230D01*
X122776784Y-92825227D01*
X122633523Y-92868684D01*
X122501494Y-92939256D01*
X122470125Y-92965000D01*
X122398061Y-92965000D01*
X122198102Y-93004774D01*
X122009744Y-93082795D01*
X121840226Y-93196063D01*
X121696063Y-93340226D01*
X121582795Y-93509744D01*
X121504774Y-93698102D01*
X121465000Y-93898061D01*
X100660000Y-93898061D01*
X100660000Y-88742371D01*
X100757631Y-88892764D01*
X100913831Y-89053161D01*
X101098322Y-89180003D01*
X101304013Y-89268415D01*
X101523000Y-89315000D01*
X101823000Y-89315000D01*
X101823000Y-88307000D01*
X102077000Y-88307000D01*
X102077000Y-89315000D01*
X102377000Y-89315000D01*
X102595987Y-89268415D01*
X102801678Y-89180003D01*
X102986169Y-89053161D01*
X103142369Y-88892764D01*
X103264276Y-88704976D01*
X103344119Y-88481874D01*
X104485881Y-88481874D01*
X104565724Y-88704976D01*
X104687631Y-88892764D01*
X104828206Y-89037116D01*
X104749259Y-89155269D01*
X104676892Y-89329978D01*
X104640000Y-89515448D01*
X104640000Y-89704552D01*
X104676892Y-89890022D01*
X104749259Y-90064731D01*
X104854319Y-90221964D01*
X104988036Y-90355681D01*
X105145269Y-90460741D01*
X105319978Y-90533108D01*
X105505448Y-90570000D01*
X105694552Y-90570000D01*
X105880022Y-90533108D01*
X106054731Y-90460741D01*
X106211964Y-90355681D01*
X106345681Y-90221964D01*
X106450741Y-90064731D01*
X106523108Y-89890022D01*
X106560000Y-89704552D01*
X106560000Y-89515448D01*
X106523108Y-89329978D01*
X106516904Y-89315000D01*
X106807000Y-89315000D01*
X107025987Y-89268415D01*
X107231678Y-89180003D01*
X107416169Y-89053161D01*
X107572369Y-88892764D01*
X107694276Y-88704976D01*
X107774119Y-88481874D01*
X107647954Y-88307000D01*
X106257000Y-88307000D01*
X106257000Y-88327000D01*
X106003000Y-88327000D01*
X106003000Y-88307000D01*
X104612046Y-88307000D01*
X104485881Y-88481874D01*
X103344119Y-88481874D01*
X103217954Y-88307000D01*
X102077000Y-88307000D01*
X101823000Y-88307000D01*
X101803000Y-88307000D01*
X101803000Y-88053000D01*
X101823000Y-88053000D01*
X101823000Y-87045000D01*
X102077000Y-87045000D01*
X102077000Y-88053000D01*
X103217954Y-88053000D01*
X103344119Y-87878126D01*
X104485881Y-87878126D01*
X104612046Y-88053000D01*
X106003000Y-88053000D01*
X106003000Y-87045000D01*
X106257000Y-87045000D01*
X106257000Y-88053000D01*
X107647954Y-88053000D01*
X107774119Y-87878126D01*
X107694276Y-87655024D01*
X107572369Y-87467236D01*
X107416169Y-87306839D01*
X107231678Y-87179997D01*
X107025987Y-87091585D01*
X106807000Y-87045000D01*
X106257000Y-87045000D01*
X106003000Y-87045000D01*
X105453000Y-87045000D01*
X105234013Y-87091585D01*
X105028322Y-87179997D01*
X104843831Y-87306839D01*
X104687631Y-87467236D01*
X104565724Y-87655024D01*
X104485881Y-87878126D01*
X103344119Y-87878126D01*
X103264276Y-87655024D01*
X103142369Y-87467236D01*
X102986169Y-87306839D01*
X102801678Y-87179997D01*
X102595987Y-87091585D01*
X102377000Y-87045000D01*
X102077000Y-87045000D01*
X101823000Y-87045000D01*
X101523000Y-87045000D01*
X101304013Y-87091585D01*
X101098322Y-87179997D01*
X100913831Y-87306839D01*
X100757631Y-87467236D01*
X100660000Y-87617629D01*
X100660000Y-85660000D01*
X129340001Y-85660000D01*
X129340001Y-88936928D01*
G37*
%TD.AperFunction*%
%TD*%
M02*
