%TF.GenerationSoftware,KiCad,Pcbnew,(5.1.8)-1*%
%TF.CreationDate,2021-06-09T22:40:46+08:00*%
%TF.ProjectId,downloader,646f776e-6c6f-4616-9465-722e6b696361,rev?*%
%TF.SameCoordinates,Original*%
%TF.FileFunction,Soldermask,Top*%
%TF.FilePolarity,Negative*%
%FSLAX46Y46*%
G04 Gerber Fmt 4.6, Leading zero omitted, Abs format (unit mm)*
G04 Created by KiCad (PCBNEW (5.1.8)-1) date 2021-06-09 22:40:46*
%MOMM*%
%LPD*%
G01*
G04 APERTURE LIST*
%ADD10O,1.450000X1.450000*%
%ADD11O,2.200000X1.100000*%
%ADD12C,0.750000*%
%ADD13O,1.700000X1.100000*%
G04 APERTURE END LIST*
%TO.C,U2*%
G36*
G01*
X117600000Y-93750000D02*
X117600000Y-89750000D01*
G75*
G02*
X117650000Y-89700000I50000J0D01*
G01*
X120150000Y-89700000D01*
G75*
G02*
X120200000Y-89750000I0J-50000D01*
G01*
X120200000Y-93750000D01*
G75*
G02*
X120150000Y-93800000I-50000J0D01*
G01*
X117650000Y-93800000D01*
G75*
G02*
X117600000Y-93750000I0J50000D01*
G01*
G37*
G36*
G01*
X120850000Y-90005001D02*
X120850000Y-89494999D01*
G75*
G02*
X120899999Y-89445000I49999J0D01*
G01*
X122000001Y-89445000D01*
G75*
G02*
X122050000Y-89494999I0J-49999D01*
G01*
X122050000Y-90005001D01*
G75*
G02*
X122000001Y-90055000I-49999J0D01*
G01*
X120899999Y-90055000D01*
G75*
G02*
X120850000Y-90005001I0J49999D01*
G01*
G37*
G36*
G01*
X120850000Y-91005001D02*
X120850000Y-90494999D01*
G75*
G02*
X120899999Y-90445000I49999J0D01*
G01*
X122000001Y-90445000D01*
G75*
G02*
X122050000Y-90494999I0J-49999D01*
G01*
X122050000Y-91005001D01*
G75*
G02*
X122000001Y-91055000I-49999J0D01*
G01*
X120899999Y-91055000D01*
G75*
G02*
X120850000Y-91005001I0J49999D01*
G01*
G37*
G36*
G01*
X115750000Y-94005001D02*
X115750000Y-93494999D01*
G75*
G02*
X115799999Y-93445000I49999J0D01*
G01*
X116900001Y-93445000D01*
G75*
G02*
X116950000Y-93494999I0J-49999D01*
G01*
X116950000Y-94005001D01*
G75*
G02*
X116900001Y-94055000I-49999J0D01*
G01*
X115799999Y-94055000D01*
G75*
G02*
X115750000Y-94005001I0J49999D01*
G01*
G37*
G36*
G01*
X120850000Y-92005001D02*
X120850000Y-91494999D01*
G75*
G02*
X120899999Y-91445000I49999J0D01*
G01*
X122000001Y-91445000D01*
G75*
G02*
X122050000Y-91494999I0J-49999D01*
G01*
X122050000Y-92005001D01*
G75*
G02*
X122000001Y-92055000I-49999J0D01*
G01*
X120899999Y-92055000D01*
G75*
G02*
X120850000Y-92005001I0J49999D01*
G01*
G37*
G36*
G01*
X120850000Y-93005001D02*
X120850000Y-92494999D01*
G75*
G02*
X120899999Y-92445000I49999J0D01*
G01*
X122000001Y-92445000D01*
G75*
G02*
X122050000Y-92494999I0J-49999D01*
G01*
X122050000Y-93005001D01*
G75*
G02*
X122000001Y-93055000I-49999J0D01*
G01*
X120899999Y-93055000D01*
G75*
G02*
X120850000Y-93005001I0J49999D01*
G01*
G37*
G36*
G01*
X120850000Y-94005001D02*
X120850000Y-93494999D01*
G75*
G02*
X120899999Y-93445000I49999J0D01*
G01*
X122000001Y-93445000D01*
G75*
G02*
X122050000Y-93494999I0J-49999D01*
G01*
X122050000Y-94005001D01*
G75*
G02*
X122000001Y-94055000I-49999J0D01*
G01*
X120899999Y-94055000D01*
G75*
G02*
X120850000Y-94005001I0J49999D01*
G01*
G37*
G36*
G01*
X115750000Y-93005001D02*
X115750000Y-92494999D01*
G75*
G02*
X115799999Y-92445000I49999J0D01*
G01*
X116900001Y-92445000D01*
G75*
G02*
X116950000Y-92494999I0J-49999D01*
G01*
X116950000Y-93005001D01*
G75*
G02*
X116900001Y-93055000I-49999J0D01*
G01*
X115799999Y-93055000D01*
G75*
G02*
X115750000Y-93005001I0J49999D01*
G01*
G37*
G36*
G01*
X115750000Y-92005001D02*
X115750000Y-91494999D01*
G75*
G02*
X115799999Y-91445000I49999J0D01*
G01*
X116900001Y-91445000D01*
G75*
G02*
X116950000Y-91494999I0J-49999D01*
G01*
X116950000Y-92005001D01*
G75*
G02*
X116900001Y-92055000I-49999J0D01*
G01*
X115799999Y-92055000D01*
G75*
G02*
X115750000Y-92005001I0J49999D01*
G01*
G37*
G36*
G01*
X115750000Y-91005001D02*
X115750000Y-90494999D01*
G75*
G02*
X115799999Y-90445000I49999J0D01*
G01*
X116900001Y-90445000D01*
G75*
G02*
X116950000Y-90494999I0J-49999D01*
G01*
X116950000Y-91005001D01*
G75*
G02*
X116900001Y-91055000I-49999J0D01*
G01*
X115799999Y-91055000D01*
G75*
G02*
X115750000Y-91005001I0J49999D01*
G01*
G37*
G36*
G01*
X115750000Y-90005001D02*
X115750000Y-89494999D01*
G75*
G02*
X115799999Y-89445000I49999J0D01*
G01*
X116900001Y-89445000D01*
G75*
G02*
X116950000Y-89494999I0J-49999D01*
G01*
X116950000Y-90005001D01*
G75*
G02*
X116900001Y-90055000I-49999J0D01*
G01*
X115799999Y-90055000D01*
G75*
G02*
X115750000Y-90005001I0J49999D01*
G01*
G37*
%TD*%
%TO.C,SW2*%
G36*
G01*
X110900000Y-98900000D02*
X110900000Y-97200000D01*
G75*
G02*
X110950000Y-97150000I50000J0D01*
G01*
X111850000Y-97150000D01*
G75*
G02*
X111900000Y-97200000I0J-50000D01*
G01*
X111900000Y-98900000D01*
G75*
G02*
X111850000Y-98950000I-50000J0D01*
G01*
X110950000Y-98950000D01*
G75*
G02*
X110900000Y-98900000I0J50000D01*
G01*
G37*
G36*
G01*
X106500000Y-98900000D02*
X106500000Y-97200000D01*
G75*
G02*
X106550000Y-97150000I50000J0D01*
G01*
X107450000Y-97150000D01*
G75*
G02*
X107500000Y-97200000I0J-50000D01*
G01*
X107500000Y-98900000D01*
G75*
G02*
X107450000Y-98950000I-50000J0D01*
G01*
X106550000Y-98950000D01*
G75*
G02*
X106500000Y-98900000I0J50000D01*
G01*
G37*
%TD*%
%TO.C,SW1*%
G36*
G01*
X110900000Y-88500000D02*
X110900000Y-86800000D01*
G75*
G02*
X110950000Y-86750000I50000J0D01*
G01*
X111850000Y-86750000D01*
G75*
G02*
X111900000Y-86800000I0J-50000D01*
G01*
X111900000Y-88500000D01*
G75*
G02*
X111850000Y-88550000I-50000J0D01*
G01*
X110950000Y-88550000D01*
G75*
G02*
X110900000Y-88500000I0J50000D01*
G01*
G37*
G36*
G01*
X106500000Y-88500000D02*
X106500000Y-86800000D01*
G75*
G02*
X106550000Y-86750000I50000J0D01*
G01*
X107450000Y-86750000D01*
G75*
G02*
X107500000Y-86800000I0J-50000D01*
G01*
X107500000Y-88500000D01*
G75*
G02*
X107450000Y-88550000I-50000J0D01*
G01*
X106550000Y-88550000D01*
G75*
G02*
X106500000Y-88500000I0J50000D01*
G01*
G37*
%TD*%
%TO.C,R3*%
G36*
G01*
X113075000Y-94250000D02*
X113075000Y-93650000D01*
G75*
G02*
X113300000Y-93425000I225000J0D01*
G01*
X113750000Y-93425000D01*
G75*
G02*
X113975000Y-93650000I0J-225000D01*
G01*
X113975000Y-94250000D01*
G75*
G02*
X113750000Y-94475000I-225000J0D01*
G01*
X113300000Y-94475000D01*
G75*
G02*
X113075000Y-94250000I0J225000D01*
G01*
G37*
G36*
G01*
X111425000Y-94250000D02*
X111425000Y-93650000D01*
G75*
G02*
X111650000Y-93425000I225000J0D01*
G01*
X112100000Y-93425000D01*
G75*
G02*
X112325000Y-93650000I0J-225000D01*
G01*
X112325000Y-94250000D01*
G75*
G02*
X112100000Y-94475000I-225000J0D01*
G01*
X111650000Y-94475000D01*
G75*
G02*
X111425000Y-94250000I0J225000D01*
G01*
G37*
%TD*%
%TO.C,R2*%
G36*
G01*
X113275000Y-91450000D02*
X113275000Y-90850000D01*
G75*
G02*
X113500000Y-90625000I225000J0D01*
G01*
X113950000Y-90625000D01*
G75*
G02*
X114175000Y-90850000I0J-225000D01*
G01*
X114175000Y-91450000D01*
G75*
G02*
X113950000Y-91675000I-225000J0D01*
G01*
X113500000Y-91675000D01*
G75*
G02*
X113275000Y-91450000I0J225000D01*
G01*
G37*
G36*
G01*
X111625000Y-91450000D02*
X111625000Y-90850000D01*
G75*
G02*
X111850000Y-90625000I225000J0D01*
G01*
X112300000Y-90625000D01*
G75*
G02*
X112525000Y-90850000I0J-225000D01*
G01*
X112525000Y-91450000D01*
G75*
G02*
X112300000Y-91675000I-225000J0D01*
G01*
X111850000Y-91675000D01*
G75*
G02*
X111625000Y-91450000I0J225000D01*
G01*
G37*
%TD*%
%TO.C,R1*%
G36*
G01*
X106800000Y-94825000D02*
X107400000Y-94825000D01*
G75*
G02*
X107625000Y-95050000I0J-225000D01*
G01*
X107625000Y-95500000D01*
G75*
G02*
X107400000Y-95725000I-225000J0D01*
G01*
X106800000Y-95725000D01*
G75*
G02*
X106575000Y-95500000I0J225000D01*
G01*
X106575000Y-95050000D01*
G75*
G02*
X106800000Y-94825000I225000J0D01*
G01*
G37*
G36*
G01*
X106800000Y-93175000D02*
X107400000Y-93175000D01*
G75*
G02*
X107625000Y-93400000I0J-225000D01*
G01*
X107625000Y-93850000D01*
G75*
G02*
X107400000Y-94075000I-225000J0D01*
G01*
X106800000Y-94075000D01*
G75*
G02*
X106575000Y-93850000I0J225000D01*
G01*
X106575000Y-93400000D01*
G75*
G02*
X106800000Y-93175000I225000J0D01*
G01*
G37*
%TD*%
%TO.C,D3*%
G36*
G01*
X109200000Y-93668750D02*
X109200000Y-94231250D01*
G75*
G02*
X108956250Y-94475000I-243750J0D01*
G01*
X108468750Y-94475000D01*
G75*
G02*
X108225000Y-94231250I0J243750D01*
G01*
X108225000Y-93668750D01*
G75*
G02*
X108468750Y-93425000I243750J0D01*
G01*
X108956250Y-93425000D01*
G75*
G02*
X109200000Y-93668750I0J-243750D01*
G01*
G37*
G36*
G01*
X110775000Y-93668750D02*
X110775000Y-94231250D01*
G75*
G02*
X110531250Y-94475000I-243750J0D01*
G01*
X110043750Y-94475000D01*
G75*
G02*
X109800000Y-94231250I0J243750D01*
G01*
X109800000Y-93668750D01*
G75*
G02*
X110043750Y-93425000I243750J0D01*
G01*
X110531250Y-93425000D01*
G75*
G02*
X110775000Y-93668750I0J-243750D01*
G01*
G37*
%TD*%
%TO.C,D2*%
G36*
G01*
X109400000Y-90868750D02*
X109400000Y-91431250D01*
G75*
G02*
X109156250Y-91675000I-243750J0D01*
G01*
X108668750Y-91675000D01*
G75*
G02*
X108425000Y-91431250I0J243750D01*
G01*
X108425000Y-90868750D01*
G75*
G02*
X108668750Y-90625000I243750J0D01*
G01*
X109156250Y-90625000D01*
G75*
G02*
X109400000Y-90868750I0J-243750D01*
G01*
G37*
G36*
G01*
X110975000Y-90868750D02*
X110975000Y-91431250D01*
G75*
G02*
X110731250Y-91675000I-243750J0D01*
G01*
X110243750Y-91675000D01*
G75*
G02*
X110000000Y-91431250I0J243750D01*
G01*
X110000000Y-90868750D01*
G75*
G02*
X110243750Y-90625000I243750J0D01*
G01*
X110731250Y-90625000D01*
G75*
G02*
X110975000Y-90868750I0J-243750D01*
G01*
G37*
%TD*%
%TO.C,D1*%
G36*
G01*
X107381250Y-90750000D02*
X106818750Y-90750000D01*
G75*
G02*
X106575000Y-90506250I0J243750D01*
G01*
X106575000Y-90018750D01*
G75*
G02*
X106818750Y-89775000I243750J0D01*
G01*
X107381250Y-89775000D01*
G75*
G02*
X107625000Y-90018750I0J-243750D01*
G01*
X107625000Y-90506250D01*
G75*
G02*
X107381250Y-90750000I-243750J0D01*
G01*
G37*
G36*
G01*
X107381250Y-92325000D02*
X106818750Y-92325000D01*
G75*
G02*
X106575000Y-92081250I0J243750D01*
G01*
X106575000Y-91593750D01*
G75*
G02*
X106818750Y-91350000I243750J0D01*
G01*
X107381250Y-91350000D01*
G75*
G02*
X107625000Y-91593750I0J-243750D01*
G01*
X107625000Y-92081250D01*
G75*
G02*
X107381250Y-92325000I-243750J0D01*
G01*
G37*
%TD*%
%TO.C,C6*%
G36*
G01*
X113475000Y-97775000D02*
X112925000Y-97775000D01*
G75*
G02*
X112675000Y-97525000I0J250000D01*
G01*
X112675000Y-97025000D01*
G75*
G02*
X112925000Y-96775000I250000J0D01*
G01*
X113475000Y-96775000D01*
G75*
G02*
X113725000Y-97025000I0J-250000D01*
G01*
X113725000Y-97525000D01*
G75*
G02*
X113475000Y-97775000I-250000J0D01*
G01*
G37*
G36*
G01*
X113475000Y-99325000D02*
X112925000Y-99325000D01*
G75*
G02*
X112675000Y-99075000I0J250000D01*
G01*
X112675000Y-98575000D01*
G75*
G02*
X112925000Y-98325000I250000J0D01*
G01*
X113475000Y-98325000D01*
G75*
G02*
X113725000Y-98575000I0J-250000D01*
G01*
X113725000Y-99075000D01*
G75*
G02*
X113475000Y-99325000I-250000J0D01*
G01*
G37*
%TD*%
%TO.C,C5*%
G36*
G01*
X112925000Y-87925000D02*
X113475000Y-87925000D01*
G75*
G02*
X113725000Y-88175000I0J-250000D01*
G01*
X113725000Y-88675000D01*
G75*
G02*
X113475000Y-88925000I-250000J0D01*
G01*
X112925000Y-88925000D01*
G75*
G02*
X112675000Y-88675000I0J250000D01*
G01*
X112675000Y-88175000D01*
G75*
G02*
X112925000Y-87925000I250000J0D01*
G01*
G37*
G36*
G01*
X112925000Y-86375000D02*
X113475000Y-86375000D01*
G75*
G02*
X113725000Y-86625000I0J-250000D01*
G01*
X113725000Y-87125000D01*
G75*
G02*
X113475000Y-87375000I-250000J0D01*
G01*
X112925000Y-87375000D01*
G75*
G02*
X112675000Y-87125000I0J250000D01*
G01*
X112675000Y-86625000D01*
G75*
G02*
X112925000Y-86375000I250000J0D01*
G01*
G37*
%TD*%
%TO.C,C4*%
G36*
G01*
X116925000Y-87675000D02*
X116925000Y-88225000D01*
G75*
G02*
X116675000Y-88475000I-250000J0D01*
G01*
X116175000Y-88475000D01*
G75*
G02*
X115925000Y-88225000I0J250000D01*
G01*
X115925000Y-87675000D01*
G75*
G02*
X116175000Y-87425000I250000J0D01*
G01*
X116675000Y-87425000D01*
G75*
G02*
X116925000Y-87675000I0J-250000D01*
G01*
G37*
G36*
G01*
X118475000Y-87675000D02*
X118475000Y-88225000D01*
G75*
G02*
X118225000Y-88475000I-250000J0D01*
G01*
X117725000Y-88475000D01*
G75*
G02*
X117475000Y-88225000I0J250000D01*
G01*
X117475000Y-87675000D01*
G75*
G02*
X117725000Y-87425000I250000J0D01*
G01*
X118225000Y-87425000D01*
G75*
G02*
X118475000Y-87675000I0J-250000D01*
G01*
G37*
%TD*%
%TO.C,C3*%
G36*
G01*
X120975000Y-88225000D02*
X120975000Y-87675000D01*
G75*
G02*
X121225000Y-87425000I250000J0D01*
G01*
X121725000Y-87425000D01*
G75*
G02*
X121975000Y-87675000I0J-250000D01*
G01*
X121975000Y-88225000D01*
G75*
G02*
X121725000Y-88475000I-250000J0D01*
G01*
X121225000Y-88475000D01*
G75*
G02*
X120975000Y-88225000I0J250000D01*
G01*
G37*
G36*
G01*
X119425000Y-88225000D02*
X119425000Y-87675000D01*
G75*
G02*
X119675000Y-87425000I250000J0D01*
G01*
X120175000Y-87425000D01*
G75*
G02*
X120425000Y-87675000I0J-250000D01*
G01*
X120425000Y-88225000D01*
G75*
G02*
X120175000Y-88475000I-250000J0D01*
G01*
X119675000Y-88475000D01*
G75*
G02*
X119425000Y-88225000I0J250000D01*
G01*
G37*
%TD*%
%TO.C,U1*%
G36*
G01*
X120775000Y-96000000D02*
X120775000Y-95600000D01*
G75*
G02*
X120825000Y-95550000I50000J0D01*
G01*
X121475000Y-95550000D01*
G75*
G02*
X121525000Y-95600000I0J-50000D01*
G01*
X121525000Y-96000000D01*
G75*
G02*
X121475000Y-96050000I-50000J0D01*
G01*
X120825000Y-96050000D01*
G75*
G02*
X120775000Y-96000000I0J50000D01*
G01*
G37*
G36*
G01*
X120775000Y-97300000D02*
X120775000Y-96900000D01*
G75*
G02*
X120825000Y-96850000I50000J0D01*
G01*
X121475000Y-96850000D01*
G75*
G02*
X121525000Y-96900000I0J-50000D01*
G01*
X121525000Y-97300000D01*
G75*
G02*
X121475000Y-97350000I-50000J0D01*
G01*
X120825000Y-97350000D01*
G75*
G02*
X120775000Y-97300000I0J50000D01*
G01*
G37*
G36*
G01*
X118875000Y-96650000D02*
X118875000Y-96250000D01*
G75*
G02*
X118925000Y-96200000I50000J0D01*
G01*
X119575000Y-96200000D01*
G75*
G02*
X119625000Y-96250000I0J-50000D01*
G01*
X119625000Y-96650000D01*
G75*
G02*
X119575000Y-96700000I-50000J0D01*
G01*
X118925000Y-96700000D01*
G75*
G02*
X118875000Y-96650000I0J50000D01*
G01*
G37*
G36*
G01*
X120775000Y-96650000D02*
X120775000Y-96250000D01*
G75*
G02*
X120825000Y-96200000I50000J0D01*
G01*
X121475000Y-96200000D01*
G75*
G02*
X121525000Y-96250000I0J-50000D01*
G01*
X121525000Y-96650000D01*
G75*
G02*
X121475000Y-96700000I-50000J0D01*
G01*
X120825000Y-96700000D01*
G75*
G02*
X120775000Y-96650000I0J50000D01*
G01*
G37*
G36*
G01*
X118875000Y-97300000D02*
X118875000Y-96900000D01*
G75*
G02*
X118925000Y-96850000I50000J0D01*
G01*
X119575000Y-96850000D01*
G75*
G02*
X119625000Y-96900000I0J-50000D01*
G01*
X119625000Y-97300000D01*
G75*
G02*
X119575000Y-97350000I-50000J0D01*
G01*
X118925000Y-97350000D01*
G75*
G02*
X118875000Y-97300000I0J50000D01*
G01*
G37*
G36*
G01*
X118875000Y-96000000D02*
X118875000Y-95600000D01*
G75*
G02*
X118925000Y-95550000I50000J0D01*
G01*
X119575000Y-95550000D01*
G75*
G02*
X119625000Y-95600000I0J-50000D01*
G01*
X119625000Y-96000000D01*
G75*
G02*
X119575000Y-96050000I-50000J0D01*
G01*
X118925000Y-96050000D01*
G75*
G02*
X118875000Y-96000000I0J50000D01*
G01*
G37*
%TD*%
D10*
%TO.C,J2*%
X126700000Y-97950000D03*
X126700000Y-95950000D03*
X126700000Y-93950000D03*
X126700000Y-91950000D03*
X126700000Y-89950000D03*
G36*
G01*
X125975000Y-88625000D02*
X125975000Y-87275000D01*
G75*
G02*
X126025000Y-87225000I50000J0D01*
G01*
X127375000Y-87225000D01*
G75*
G02*
X127425000Y-87275000I0J-50000D01*
G01*
X127425000Y-88625000D01*
G75*
G02*
X127375000Y-88675000I-50000J0D01*
G01*
X126025000Y-88675000D01*
G75*
G02*
X125975000Y-88625000I0J50000D01*
G01*
G37*
%TD*%
%TO.C,J1*%
G36*
G01*
X102520000Y-95850000D02*
X103970000Y-95850000D01*
G75*
G02*
X104020000Y-95900000I0J-50000D01*
G01*
X104020000Y-96500000D01*
G75*
G02*
X103970000Y-96550000I-50000J0D01*
G01*
X102520000Y-96550000D01*
G75*
G02*
X102470000Y-96500000I0J50000D01*
G01*
X102470000Y-95900000D01*
G75*
G02*
X102520000Y-95850000I50000J0D01*
G01*
G37*
G36*
G01*
X102520000Y-95050000D02*
X103970000Y-95050000D01*
G75*
G02*
X104020000Y-95100000I0J-50000D01*
G01*
X104020000Y-95700000D01*
G75*
G02*
X103970000Y-95750000I-50000J0D01*
G01*
X102520000Y-95750000D01*
G75*
G02*
X102470000Y-95700000I0J50000D01*
G01*
X102470000Y-95100000D01*
G75*
G02*
X102520000Y-95050000I50000J0D01*
G01*
G37*
G36*
G01*
X102520000Y-90150000D02*
X103970000Y-90150000D01*
G75*
G02*
X104020000Y-90200000I0J-50000D01*
G01*
X104020000Y-90800000D01*
G75*
G02*
X103970000Y-90850000I-50000J0D01*
G01*
X102520000Y-90850000D01*
G75*
G02*
X102470000Y-90800000I0J50000D01*
G01*
X102470000Y-90200000D01*
G75*
G02*
X102520000Y-90150000I50000J0D01*
G01*
G37*
G36*
G01*
X102520000Y-89350000D02*
X103970000Y-89350000D01*
G75*
G02*
X104020000Y-89400000I0J-50000D01*
G01*
X104020000Y-90000000D01*
G75*
G02*
X103970000Y-90050000I-50000J0D01*
G01*
X102520000Y-90050000D01*
G75*
G02*
X102470000Y-90000000I0J50000D01*
G01*
X102470000Y-89400000D01*
G75*
G02*
X102520000Y-89350000I50000J0D01*
G01*
G37*
G36*
G01*
X102520000Y-89350000D02*
X103970000Y-89350000D01*
G75*
G02*
X104020000Y-89400000I0J-50000D01*
G01*
X104020000Y-90000000D01*
G75*
G02*
X103970000Y-90050000I-50000J0D01*
G01*
X102520000Y-90050000D01*
G75*
G02*
X102470000Y-90000000I0J50000D01*
G01*
X102470000Y-89400000D01*
G75*
G02*
X102520000Y-89350000I50000J0D01*
G01*
G37*
G36*
G01*
X102520000Y-90150000D02*
X103970000Y-90150000D01*
G75*
G02*
X104020000Y-90200000I0J-50000D01*
G01*
X104020000Y-90800000D01*
G75*
G02*
X103970000Y-90850000I-50000J0D01*
G01*
X102520000Y-90850000D01*
G75*
G02*
X102470000Y-90800000I0J50000D01*
G01*
X102470000Y-90200000D01*
G75*
G02*
X102520000Y-90150000I50000J0D01*
G01*
G37*
G36*
G01*
X102520000Y-95050000D02*
X103970000Y-95050000D01*
G75*
G02*
X104020000Y-95100000I0J-50000D01*
G01*
X104020000Y-95700000D01*
G75*
G02*
X103970000Y-95750000I-50000J0D01*
G01*
X102520000Y-95750000D01*
G75*
G02*
X102470000Y-95700000I0J50000D01*
G01*
X102470000Y-95100000D01*
G75*
G02*
X102520000Y-95050000I50000J0D01*
G01*
G37*
G36*
G01*
X102520000Y-95850000D02*
X103970000Y-95850000D01*
G75*
G02*
X104020000Y-95900000I0J-50000D01*
G01*
X104020000Y-96500000D01*
G75*
G02*
X103970000Y-96550000I-50000J0D01*
G01*
X102520000Y-96550000D01*
G75*
G02*
X102470000Y-96500000I0J50000D01*
G01*
X102470000Y-95900000D01*
G75*
G02*
X102520000Y-95850000I50000J0D01*
G01*
G37*
G36*
G01*
X102520000Y-91000000D02*
X103970000Y-91000000D01*
G75*
G02*
X104020000Y-91050000I0J-50000D01*
G01*
X104020000Y-91350000D01*
G75*
G02*
X103970000Y-91400000I-50000J0D01*
G01*
X102520000Y-91400000D01*
G75*
G02*
X102470000Y-91350000I0J50000D01*
G01*
X102470000Y-91050000D01*
G75*
G02*
X102520000Y-91000000I50000J0D01*
G01*
G37*
G36*
G01*
X102520000Y-91500000D02*
X103970000Y-91500000D01*
G75*
G02*
X104020000Y-91550000I0J-50000D01*
G01*
X104020000Y-91850000D01*
G75*
G02*
X103970000Y-91900000I-50000J0D01*
G01*
X102520000Y-91900000D01*
G75*
G02*
X102470000Y-91850000I0J50000D01*
G01*
X102470000Y-91550000D01*
G75*
G02*
X102520000Y-91500000I50000J0D01*
G01*
G37*
G36*
G01*
X102520000Y-92000000D02*
X103970000Y-92000000D01*
G75*
G02*
X104020000Y-92050000I0J-50000D01*
G01*
X104020000Y-92350000D01*
G75*
G02*
X103970000Y-92400000I-50000J0D01*
G01*
X102520000Y-92400000D01*
G75*
G02*
X102470000Y-92350000I0J50000D01*
G01*
X102470000Y-92050000D01*
G75*
G02*
X102520000Y-92000000I50000J0D01*
G01*
G37*
G36*
G01*
X102520000Y-93000000D02*
X103970000Y-93000000D01*
G75*
G02*
X104020000Y-93050000I0J-50000D01*
G01*
X104020000Y-93350000D01*
G75*
G02*
X103970000Y-93400000I-50000J0D01*
G01*
X102520000Y-93400000D01*
G75*
G02*
X102470000Y-93350000I0J50000D01*
G01*
X102470000Y-93050000D01*
G75*
G02*
X102520000Y-93000000I50000J0D01*
G01*
G37*
G36*
G01*
X102520000Y-93500000D02*
X103970000Y-93500000D01*
G75*
G02*
X104020000Y-93550000I0J-50000D01*
G01*
X104020000Y-93850000D01*
G75*
G02*
X103970000Y-93900000I-50000J0D01*
G01*
X102520000Y-93900000D01*
G75*
G02*
X102470000Y-93850000I0J50000D01*
G01*
X102470000Y-93550000D01*
G75*
G02*
X102520000Y-93500000I50000J0D01*
G01*
G37*
G36*
G01*
X102520000Y-94000000D02*
X103970000Y-94000000D01*
G75*
G02*
X104020000Y-94050000I0J-50000D01*
G01*
X104020000Y-94350000D01*
G75*
G02*
X103970000Y-94400000I-50000J0D01*
G01*
X102520000Y-94400000D01*
G75*
G02*
X102470000Y-94350000I0J50000D01*
G01*
X102470000Y-94050000D01*
G75*
G02*
X102520000Y-94000000I50000J0D01*
G01*
G37*
G36*
G01*
X102520000Y-94500000D02*
X103970000Y-94500000D01*
G75*
G02*
X104020000Y-94550000I0J-50000D01*
G01*
X104020000Y-94850000D01*
G75*
G02*
X103970000Y-94900000I-50000J0D01*
G01*
X102520000Y-94900000D01*
G75*
G02*
X102470000Y-94850000I0J50000D01*
G01*
X102470000Y-94550000D01*
G75*
G02*
X102520000Y-94500000I50000J0D01*
G01*
G37*
G36*
G01*
X102520000Y-92500000D02*
X103970000Y-92500000D01*
G75*
G02*
X104020000Y-92550000I0J-50000D01*
G01*
X104020000Y-92850000D01*
G75*
G02*
X103970000Y-92900000I-50000J0D01*
G01*
X102520000Y-92900000D01*
G75*
G02*
X102470000Y-92850000I0J50000D01*
G01*
X102470000Y-92550000D01*
G75*
G02*
X102520000Y-92500000I50000J0D01*
G01*
G37*
D11*
X102330000Y-97270000D03*
X102330000Y-88630000D03*
D12*
X101800000Y-90060000D03*
D13*
X98150000Y-88630000D03*
D12*
X101800000Y-95840000D03*
D13*
X98150000Y-97270000D03*
%TD*%
M02*
