%TF.GenerationSoftware,KiCad,Pcbnew,(5.1.8)-1*%
%TF.CreationDate,2021-01-13T21:24:39+08:00*%
%TF.ProjectId,downloader,646f776e-6c6f-4616-9465-722e6b696361,rev?*%
%TF.SameCoordinates,Original*%
%TF.FileFunction,Legend,Bot*%
%TF.FilePolarity,Positive*%
%FSLAX46Y46*%
G04 Gerber Fmt 4.6, Leading zero omitted, Abs format (unit mm)*
G04 Created by KiCad (PCBNEW (5.1.8)-1) date 2021-01-13 21:24:39*
%MOMM*%
%LPD*%
G01*
G04 APERTURE LIST*
%ADD10C,0.200000*%
%ADD11C,0.125000*%
G04 APERTURE END LIST*
D10*
X122785714Y-93092857D02*
X122571428Y-93164285D01*
X122500000Y-93235714D01*
X122428571Y-93378571D01*
X122428571Y-93592857D01*
X122500000Y-93735714D01*
X122571428Y-93807142D01*
X122714285Y-93878571D01*
X123285714Y-93878571D01*
X123285714Y-92378571D01*
X122785714Y-92378571D01*
X122642857Y-92450000D01*
X122571428Y-92521428D01*
X122500000Y-92664285D01*
X122500000Y-92807142D01*
X122571428Y-92950000D01*
X122642857Y-93021428D01*
X122785714Y-93092857D01*
X123285714Y-93092857D01*
X121071428Y-93878571D02*
X121785714Y-93878571D01*
X121785714Y-92378571D01*
X119928571Y-93878571D02*
X119928571Y-93092857D01*
X120000000Y-92950000D01*
X120142857Y-92878571D01*
X120428571Y-92878571D01*
X120571428Y-92950000D01*
X119928571Y-93807142D02*
X120071428Y-93878571D01*
X120428571Y-93878571D01*
X120571428Y-93807142D01*
X120642857Y-93664285D01*
X120642857Y-93521428D01*
X120571428Y-93378571D01*
X120428571Y-93307142D01*
X120071428Y-93307142D01*
X119928571Y-93235714D01*
X119214285Y-93878571D02*
X119214285Y-92378571D01*
X119214285Y-92950000D02*
X119071428Y-92878571D01*
X118785714Y-92878571D01*
X118642857Y-92950000D01*
X118571428Y-93021428D01*
X118500000Y-93164285D01*
X118500000Y-93592857D01*
X118571428Y-93735714D01*
X118642857Y-93807142D01*
X118785714Y-93878571D01*
X119071428Y-93878571D01*
X119214285Y-93807142D01*
X118214285Y-94021428D02*
X117071428Y-94021428D01*
X116071428Y-93878571D02*
X116071428Y-92378571D01*
X116071428Y-93807142D02*
X116214285Y-93878571D01*
X116500000Y-93878571D01*
X116642857Y-93807142D01*
X116714285Y-93735714D01*
X116785714Y-93592857D01*
X116785714Y-93164285D01*
X116714285Y-93021428D01*
X116642857Y-92950000D01*
X116500000Y-92878571D01*
X116214285Y-92878571D01*
X116071428Y-92950000D01*
X115142857Y-93878571D02*
X115285714Y-93807142D01*
X115357142Y-93735714D01*
X115428571Y-93592857D01*
X115428571Y-93164285D01*
X115357142Y-93021428D01*
X115285714Y-92950000D01*
X115142857Y-92878571D01*
X114928571Y-92878571D01*
X114785714Y-92950000D01*
X114714285Y-93021428D01*
X114642857Y-93164285D01*
X114642857Y-93592857D01*
X114714285Y-93735714D01*
X114785714Y-93807142D01*
X114928571Y-93878571D01*
X115142857Y-93878571D01*
X114142857Y-92878571D02*
X113857142Y-93878571D01*
X113571428Y-93164285D01*
X113285714Y-93878571D01*
X113000000Y-92878571D01*
X112428571Y-92878571D02*
X112428571Y-93878571D01*
X112428571Y-93021428D02*
X112357142Y-92950000D01*
X112214285Y-92878571D01*
X112000000Y-92878571D01*
X111857142Y-92950000D01*
X111785714Y-93092857D01*
X111785714Y-93878571D01*
X110857142Y-93878571D02*
X111000000Y-93807142D01*
X111071428Y-93664285D01*
X111071428Y-92378571D01*
X110071428Y-93878571D02*
X110214285Y-93807142D01*
X110285714Y-93735714D01*
X110357142Y-93592857D01*
X110357142Y-93164285D01*
X110285714Y-93021428D01*
X110214285Y-92950000D01*
X110071428Y-92878571D01*
X109857142Y-92878571D01*
X109714285Y-92950000D01*
X109642857Y-93021428D01*
X109571428Y-93164285D01*
X109571428Y-93592857D01*
X109642857Y-93735714D01*
X109714285Y-93807142D01*
X109857142Y-93878571D01*
X110071428Y-93878571D01*
X108285714Y-93878571D02*
X108285714Y-93092857D01*
X108357142Y-92950000D01*
X108500000Y-92878571D01*
X108785714Y-92878571D01*
X108928571Y-92950000D01*
X108285714Y-93807142D02*
X108428571Y-93878571D01*
X108785714Y-93878571D01*
X108928571Y-93807142D01*
X109000000Y-93664285D01*
X109000000Y-93521428D01*
X108928571Y-93378571D01*
X108785714Y-93307142D01*
X108428571Y-93307142D01*
X108285714Y-93235714D01*
X106928571Y-93878571D02*
X106928571Y-92378571D01*
X106928571Y-93807142D02*
X107071428Y-93878571D01*
X107357142Y-93878571D01*
X107500000Y-93807142D01*
X107571428Y-93735714D01*
X107642857Y-93592857D01*
X107642857Y-93164285D01*
X107571428Y-93021428D01*
X107500000Y-92950000D01*
X107357142Y-92878571D01*
X107071428Y-92878571D01*
X106928571Y-92950000D01*
X105642857Y-93807142D02*
X105785714Y-93878571D01*
X106071428Y-93878571D01*
X106214285Y-93807142D01*
X106285714Y-93664285D01*
X106285714Y-93092857D01*
X106214285Y-92950000D01*
X106071428Y-92878571D01*
X105785714Y-92878571D01*
X105642857Y-92950000D01*
X105571428Y-93092857D01*
X105571428Y-93235714D01*
X106285714Y-93378571D01*
X104928571Y-93878571D02*
X104928571Y-92878571D01*
X104928571Y-93164285D02*
X104857142Y-93021428D01*
X104785714Y-92950000D01*
X104642857Y-92878571D01*
X104500000Y-92878571D01*
D11*
X127450000Y-97635714D02*
X127069047Y-97635714D01*
X127259523Y-97826190D02*
X127259523Y-97445238D01*
X126878571Y-97326190D02*
X126569047Y-97326190D01*
X126735714Y-97516666D01*
X126664285Y-97516666D01*
X126616666Y-97540476D01*
X126592857Y-97564285D01*
X126569047Y-97611904D01*
X126569047Y-97730952D01*
X126592857Y-97778571D01*
X126616666Y-97802380D01*
X126664285Y-97826190D01*
X126807142Y-97826190D01*
X126854761Y-97802380D01*
X126878571Y-97778571D01*
X126354761Y-97778571D02*
X126330952Y-97802380D01*
X126354761Y-97826190D01*
X126378571Y-97802380D01*
X126354761Y-97778571D01*
X126354761Y-97826190D01*
X126164285Y-97326190D02*
X125854761Y-97326190D01*
X126021428Y-97516666D01*
X125950000Y-97516666D01*
X125902380Y-97540476D01*
X125878571Y-97564285D01*
X125854761Y-97611904D01*
X125854761Y-97730952D01*
X125878571Y-97778571D01*
X125902380Y-97802380D01*
X125950000Y-97826190D01*
X126092857Y-97826190D01*
X126140476Y-97802380D01*
X126164285Y-97778571D01*
X125711904Y-97326190D02*
X125545238Y-97826190D01*
X125378571Y-97326190D01*
X126980952Y-95550000D02*
X127028571Y-95526190D01*
X127100000Y-95526190D01*
X127171428Y-95550000D01*
X127219047Y-95597619D01*
X127242857Y-95645238D01*
X127266666Y-95740476D01*
X127266666Y-95811904D01*
X127242857Y-95907142D01*
X127219047Y-95954761D01*
X127171428Y-96002380D01*
X127100000Y-96026190D01*
X127052380Y-96026190D01*
X126980952Y-96002380D01*
X126957142Y-95978571D01*
X126957142Y-95811904D01*
X127052380Y-95811904D01*
X126742857Y-96026190D02*
X126742857Y-95526190D01*
X126457142Y-96026190D01*
X126457142Y-95526190D01*
X126219047Y-96026190D02*
X126219047Y-95526190D01*
X126100000Y-95526190D01*
X126028571Y-95550000D01*
X125980952Y-95597619D01*
X125957142Y-95645238D01*
X125933333Y-95740476D01*
X125933333Y-95811904D01*
X125957142Y-95907142D01*
X125980952Y-95954761D01*
X126028571Y-96002380D01*
X126100000Y-96026190D01*
X126219047Y-96026190D01*
X127100000Y-94026190D02*
X127100000Y-93526190D01*
X126766666Y-93526190D02*
X126671428Y-93526190D01*
X126623809Y-93550000D01*
X126576190Y-93597619D01*
X126552380Y-93692857D01*
X126552380Y-93859523D01*
X126576190Y-93954761D01*
X126623809Y-94002380D01*
X126671428Y-94026190D01*
X126766666Y-94026190D01*
X126814285Y-94002380D01*
X126861904Y-93954761D01*
X126885714Y-93859523D01*
X126885714Y-93692857D01*
X126861904Y-93597619D01*
X126814285Y-93550000D01*
X126766666Y-93526190D01*
X126242857Y-93526190D02*
X126195238Y-93526190D01*
X126147619Y-93550000D01*
X126123809Y-93573809D01*
X126100000Y-93621428D01*
X126076190Y-93716666D01*
X126076190Y-93835714D01*
X126100000Y-93930952D01*
X126123809Y-93978571D01*
X126147619Y-94002380D01*
X126195238Y-94026190D01*
X126242857Y-94026190D01*
X126290476Y-94002380D01*
X126314285Y-93978571D01*
X126338095Y-93930952D01*
X126361904Y-93835714D01*
X126361904Y-93716666D01*
X126338095Y-93621428D01*
X126314285Y-93573809D01*
X126290476Y-93550000D01*
X126242857Y-93526190D01*
X126919047Y-91764285D02*
X126752380Y-91764285D01*
X126680952Y-92026190D02*
X126919047Y-92026190D01*
X126919047Y-91526190D01*
X126680952Y-91526190D01*
X126466666Y-92026190D02*
X126466666Y-91526190D01*
X126180952Y-92026190D01*
X126180952Y-91526190D01*
X127230952Y-89526190D02*
X126945238Y-89526190D01*
X127088095Y-90026190D02*
X127088095Y-89526190D01*
X126826190Y-89526190D02*
X126492857Y-90026190D01*
X126492857Y-89526190D02*
X126826190Y-90026190D01*
X126302380Y-90026190D02*
X126302380Y-89526190D01*
X126183333Y-89526190D01*
X126111904Y-89550000D01*
X126064285Y-89597619D01*
X126040476Y-89645238D01*
X126016666Y-89740476D01*
X126016666Y-89811904D01*
X126040476Y-89907142D01*
X126064285Y-89954761D01*
X126111904Y-90002380D01*
X126183333Y-90026190D01*
X126302380Y-90026190D01*
X126933333Y-87826190D02*
X127100000Y-87588095D01*
X127219047Y-87826190D02*
X127219047Y-87326190D01*
X127028571Y-87326190D01*
X126980952Y-87350000D01*
X126957142Y-87373809D01*
X126933333Y-87421428D01*
X126933333Y-87492857D01*
X126957142Y-87540476D01*
X126980952Y-87564285D01*
X127028571Y-87588095D01*
X127219047Y-87588095D01*
X126766666Y-87326190D02*
X126433333Y-87826190D01*
X126433333Y-87326190D02*
X126766666Y-87826190D01*
X126242857Y-87826190D02*
X126242857Y-87326190D01*
X126123809Y-87326190D01*
X126052380Y-87350000D01*
X126004761Y-87397619D01*
X125980952Y-87445238D01*
X125957142Y-87540476D01*
X125957142Y-87611904D01*
X125980952Y-87707142D01*
X126004761Y-87754761D01*
X126052380Y-87802380D01*
X126123809Y-87826190D01*
X126242857Y-87826190D01*
M02*
