M48
; DRILL file {KiCad (5.1.8)-1} date 12/30/20 11:25:52
; FORMAT={-:-/ absolute / inch / decimal}
; #@! TF.CreationDate,2020-12-30T11:25:52+08:00
; #@! TF.GenerationSoftware,Kicad,Pcbnew,(5.1.8)-1
; #@! TF.FileFunction,Plated,1,2,PTH
FMAT,2
INCH
T1C0.0157
T2C0.0197
T3C0.0236
%
G90
G05
T1
X4.1142Y-3.6014
X4.1142Y-3.6427
X4.4281Y-3.8583
X4.5098Y-3.7825
X4.6654Y-3.5236
X4.6929Y-3.7697
X4.7126Y-3.5709
X4.7131Y-3.6107
X4.8071Y-3.6417
X4.8228Y-3.7008
X4.8957Y-3.684
X4.9045Y-3.8907
X4.9409Y-3.5236
X4.9961Y-3.7717
X4.9961Y-3.3937
X5.0133Y-3.5265
T2
X5.0787Y-3.5433
X5.0787Y-3.5827
X5.0787Y-3.622
X5.0787Y-3.6614
X5.0787Y-3.7008
X5.0787Y-3.7402
T3
G00X4.0256Y-3.4717
M15
G01X4.002Y-3.4717
M16
G05
G00X4.0256Y-3.8118
M15
G01X4.002Y-3.8118
M16
G05
G00X4.2Y-3.4717
M15
G01X4.1567Y-3.4717
M16
G05
G00X4.2Y-3.8118
M15
G01X4.1567Y-3.8118
M16
G05
T0
M30
