%TF.GenerationSoftware,KiCad,Pcbnew,(5.1.8)-1*%
%TF.CreationDate,2021-01-13T21:24:39+08:00*%
%TF.ProjectId,downloader,646f776e-6c6f-4616-9465-722e6b696361,rev?*%
%TF.SameCoordinates,Original*%
%TF.FileFunction,Copper,L1,Top*%
%TF.FilePolarity,Positive*%
%FSLAX46Y46*%
G04 Gerber Fmt 4.6, Leading zero omitted, Abs format (unit mm)*
G04 Created by KiCad (PCBNEW (5.1.8)-1) date 2021-01-13 21:24:39*
%MOMM*%
%LPD*%
G01*
G04 APERTURE LIST*
%TA.AperFunction,ComponentPad*%
%ADD10O,1.350000X1.350000*%
%TD*%
%TA.AperFunction,ComponentPad*%
%ADD11R,1.350000X1.350000*%
%TD*%
%TA.AperFunction,SMDPad,CuDef*%
%ADD12R,1.450000X0.600000*%
%TD*%
%TA.AperFunction,SMDPad,CuDef*%
%ADD13R,1.450000X0.300000*%
%TD*%
%TA.AperFunction,ComponentPad*%
%ADD14O,2.100000X1.000000*%
%TD*%
%TA.AperFunction,ComponentPad*%
%ADD15O,1.600000X1.000000*%
%TD*%
%TA.AperFunction,SMDPad,CuDef*%
%ADD16R,1.100000X0.510000*%
%TD*%
%TA.AperFunction,SMDPad,CuDef*%
%ADD17R,2.000000X1.500000*%
%TD*%
%TA.AperFunction,SMDPad,CuDef*%
%ADD18R,2.000000X3.800000*%
%TD*%
%TA.AperFunction,SMDPad,CuDef*%
%ADD19R,0.900000X1.700000*%
%TD*%
%TA.AperFunction,SMDPad,CuDef*%
%ADD20R,0.900000X0.800000*%
%TD*%
%TA.AperFunction,ViaPad*%
%ADD21C,0.800000*%
%TD*%
%TA.AperFunction,Conductor*%
%ADD22C,0.250000*%
%TD*%
%TA.AperFunction,Conductor*%
%ADD23C,0.200000*%
%TD*%
%TA.AperFunction,Conductor*%
%ADD24C,0.254000*%
%TD*%
%TA.AperFunction,Conductor*%
%ADD25C,0.350000*%
%TD*%
%ADD26C,0.350000*%
%ADD27O,1.700000X0.600000*%
%ADD28O,1.200000X0.600000*%
G04 APERTURE END LIST*
D10*
%TO.P,J2,6*%
%TO.N,+3V3*%
X128800000Y-97600000D03*
%TO.P,J2,5*%
%TO.N,GND*%
X128800000Y-95600000D03*
%TO.P,J2,4*%
%TO.N,/IO0*%
X128800000Y-93600000D03*
%TO.P,J2,3*%
%TO.N,/EN*%
X128800000Y-91600000D03*
%TO.P,J2,2*%
%TO.N,/TXD*%
X128800000Y-89600000D03*
D11*
%TO.P,J2,1*%
%TO.N,/RXD*%
X128800000Y-87600000D03*
%TD*%
D12*
%TO.P,J1,B1*%
%TO.N,GND*%
X107045000Y-95750000D03*
%TO.P,J1,A9*%
%TO.N,Net-(C1-Pad1)*%
X107045000Y-94950000D03*
%TO.P,J1,B9*%
X107045000Y-90050000D03*
%TO.P,J1,B12*%
%TO.N,GND*%
X107045000Y-89250000D03*
%TO.P,J1,A1*%
X107045000Y-89250000D03*
%TO.P,J1,A4*%
%TO.N,Net-(C1-Pad1)*%
X107045000Y-90050000D03*
%TO.P,J1,B4*%
X107045000Y-94950000D03*
%TO.P,J1,A12*%
%TO.N,GND*%
X107045000Y-95750000D03*
D13*
%TO.P,J1,B8*%
%TO.N,Net-(J1-PadB8)*%
X107045000Y-90750000D03*
%TO.P,J1,A5*%
%TO.N,Net-(J1-PadA5)*%
X107045000Y-91250000D03*
%TO.P,J1,B7*%
%TO.N,/D-*%
X107045000Y-91750000D03*
%TO.P,J1,A7*%
X107045000Y-92750000D03*
%TO.P,J1,B6*%
%TO.N,/D+*%
X107045000Y-93250000D03*
%TO.P,J1,A8*%
%TO.N,Net-(J1-PadA8)*%
X107045000Y-93750000D03*
%TO.P,J1,B5*%
%TO.N,Net-(J1-PadB5)*%
X107045000Y-94250000D03*
%TO.P,J1,A6*%
%TO.N,/D+*%
X107045000Y-92250000D03*
D14*
%TO.P,J1,S1*%
%TO.N,GND*%
X106130000Y-96820000D03*
X106130000Y-88180000D03*
D15*
X101950000Y-88180000D03*
X101950000Y-96820000D03*
%TD*%
%TO.P,R1,2*%
%TO.N,GND*%
%TA.AperFunction,SMDPad,CuDef*%
G36*
G01*
X118425000Y-99000000D02*
X118425000Y-98450000D01*
G75*
G02*
X118625000Y-98250000I200000J0D01*
G01*
X119025000Y-98250000D01*
G75*
G02*
X119225000Y-98450000I0J-200000D01*
G01*
X119225000Y-99000000D01*
G75*
G02*
X119025000Y-99200000I-200000J0D01*
G01*
X118625000Y-99200000D01*
G75*
G02*
X118425000Y-99000000I0J200000D01*
G01*
G37*
%TD.AperFunction*%
%TO.P,R1,1*%
%TO.N,Net-(D1-Pad1)*%
%TA.AperFunction,SMDPad,CuDef*%
G36*
G01*
X116775000Y-99000000D02*
X116775000Y-98450000D01*
G75*
G02*
X116975000Y-98250000I200000J0D01*
G01*
X117375000Y-98250000D01*
G75*
G02*
X117575000Y-98450000I0J-200000D01*
G01*
X117575000Y-99000000D01*
G75*
G02*
X117375000Y-99200000I-200000J0D01*
G01*
X116975000Y-99200000D01*
G75*
G02*
X116775000Y-99000000I0J200000D01*
G01*
G37*
%TD.AperFunction*%
%TD*%
%TO.P,D1,2*%
%TO.N,Net-(C1-Pad1)*%
%TA.AperFunction,SMDPad,CuDef*%
G36*
G01*
X118350000Y-97206250D02*
X118350000Y-96693750D01*
G75*
G02*
X118568750Y-96475000I218750J0D01*
G01*
X119006250Y-96475000D01*
G75*
G02*
X119225000Y-96693750I0J-218750D01*
G01*
X119225000Y-97206250D01*
G75*
G02*
X119006250Y-97425000I-218750J0D01*
G01*
X118568750Y-97425000D01*
G75*
G02*
X118350000Y-97206250I0J218750D01*
G01*
G37*
%TD.AperFunction*%
%TO.P,D1,1*%
%TO.N,Net-(D1-Pad1)*%
%TA.AperFunction,SMDPad,CuDef*%
G36*
G01*
X116775000Y-97206250D02*
X116775000Y-96693750D01*
G75*
G02*
X116993750Y-96475000I218750J0D01*
G01*
X117431250Y-96475000D01*
G75*
G02*
X117650000Y-96693750I0J-218750D01*
G01*
X117650000Y-97206250D01*
G75*
G02*
X117431250Y-97425000I-218750J0D01*
G01*
X116993750Y-97425000D01*
G75*
G02*
X116775000Y-97206250I0J218750D01*
G01*
G37*
%TD.AperFunction*%
%TD*%
D16*
%TO.P,U2,10*%
%TO.N,+3V3*%
X126050000Y-90500000D03*
%TO.P,U2,9*%
%TO.N,/RXD*%
X126050000Y-91500000D03*
%TO.P,U2,5*%
%TO.N,Net-(U2-Pad5)*%
X120950000Y-94500000D03*
%TO.P,U2,8*%
%TO.N,/TXD*%
X126050000Y-92500000D03*
%TO.P,U2,7*%
%TO.N,+3V3*%
X126050000Y-93500000D03*
%TO.P,U2,6*%
%TO.N,/RTS*%
X126050000Y-94500000D03*
%TO.P,U2,4*%
%TO.N,/DTR*%
X120950000Y-93500000D03*
%TO.P,U2,3*%
%TO.N,GND*%
X120950000Y-92500000D03*
%TO.P,U2,2*%
%TO.N,/D-*%
X120950000Y-91500000D03*
%TO.P,U2,1*%
%TO.N,/D+*%
X120950000Y-90500000D03*
%TD*%
D17*
%TO.P,U1,1*%
%TO.N,GND*%
X111650000Y-90200000D03*
%TO.P,U1,3*%
%TO.N,Net-(C1-Pad1)*%
X111650000Y-94800000D03*
%TO.P,U1,2*%
%TO.N,+3V3*%
X111650000Y-92500000D03*
D18*
X117950000Y-92500000D03*
%TD*%
D19*
%TO.P,SW2,2*%
%TO.N,/EN*%
X113700000Y-98000000D03*
%TO.P,SW2,1*%
%TO.N,GND*%
X109300000Y-98000000D03*
%TD*%
%TO.P,SW1,2*%
%TO.N,/IO0*%
X113700000Y-87000000D03*
%TO.P,SW1,1*%
%TO.N,GND*%
X109300000Y-87000000D03*
%TD*%
%TO.P,R3,2*%
%TO.N,/DTR*%
%TA.AperFunction,SMDPad,CuDef*%
G36*
G01*
X121250000Y-97750000D02*
X121800000Y-97750000D01*
G75*
G02*
X122000000Y-97950000I0J-200000D01*
G01*
X122000000Y-98350000D01*
G75*
G02*
X121800000Y-98550000I-200000J0D01*
G01*
X121250000Y-98550000D01*
G75*
G02*
X121050000Y-98350000I0J200000D01*
G01*
X121050000Y-97950000D01*
G75*
G02*
X121250000Y-97750000I200000J0D01*
G01*
G37*
%TD.AperFunction*%
%TO.P,R3,1*%
%TO.N,Net-(Q2-Pad1)*%
%TA.AperFunction,SMDPad,CuDef*%
G36*
G01*
X121250000Y-96100000D02*
X121800000Y-96100000D01*
G75*
G02*
X122000000Y-96300000I0J-200000D01*
G01*
X122000000Y-96700000D01*
G75*
G02*
X121800000Y-96900000I-200000J0D01*
G01*
X121250000Y-96900000D01*
G75*
G02*
X121050000Y-96700000I0J200000D01*
G01*
X121050000Y-96300000D01*
G75*
G02*
X121250000Y-96100000I200000J0D01*
G01*
G37*
%TD.AperFunction*%
%TD*%
%TO.P,R2,2*%
%TO.N,/RTS*%
%TA.AperFunction,SMDPad,CuDef*%
G36*
G01*
X121225000Y-87925000D02*
X121775000Y-87925000D01*
G75*
G02*
X121975000Y-88125000I0J-200000D01*
G01*
X121975000Y-88525000D01*
G75*
G02*
X121775000Y-88725000I-200000J0D01*
G01*
X121225000Y-88725000D01*
G75*
G02*
X121025000Y-88525000I0J200000D01*
G01*
X121025000Y-88125000D01*
G75*
G02*
X121225000Y-87925000I200000J0D01*
G01*
G37*
%TD.AperFunction*%
%TO.P,R2,1*%
%TO.N,Net-(Q1-Pad1)*%
%TA.AperFunction,SMDPad,CuDef*%
G36*
G01*
X121225000Y-86275000D02*
X121775000Y-86275000D01*
G75*
G02*
X121975000Y-86475000I0J-200000D01*
G01*
X121975000Y-86875000D01*
G75*
G02*
X121775000Y-87075000I-200000J0D01*
G01*
X121225000Y-87075000D01*
G75*
G02*
X121025000Y-86875000I0J200000D01*
G01*
X121025000Y-86475000D01*
G75*
G02*
X121225000Y-86275000I200000J0D01*
G01*
G37*
%TD.AperFunction*%
%TD*%
D20*
%TO.P,Q2,3*%
%TO.N,/RTS*%
X125475000Y-97475000D03*
%TO.P,Q2,2*%
%TO.N,/EN*%
X123475000Y-98425000D03*
%TO.P,Q2,1*%
%TO.N,Net-(Q2-Pad1)*%
X123475000Y-96525000D03*
%TD*%
%TO.P,Q1,3*%
%TO.N,/IO0*%
X125500000Y-87500000D03*
%TO.P,Q1,2*%
%TO.N,/DTR*%
X123500000Y-88450000D03*
%TO.P,Q1,1*%
%TO.N,Net-(Q1-Pad1)*%
X123500000Y-86550000D03*
%TD*%
%TO.P,C4,2*%
%TO.N,GND*%
%TA.AperFunction,SMDPad,CuDef*%
G36*
G01*
X115750000Y-97675000D02*
X115250000Y-97675000D01*
G75*
G02*
X115025000Y-97450000I0J225000D01*
G01*
X115025000Y-97000000D01*
G75*
G02*
X115250000Y-96775000I225000J0D01*
G01*
X115750000Y-96775000D01*
G75*
G02*
X115975000Y-97000000I0J-225000D01*
G01*
X115975000Y-97450000D01*
G75*
G02*
X115750000Y-97675000I-225000J0D01*
G01*
G37*
%TD.AperFunction*%
%TO.P,C4,1*%
%TO.N,/EN*%
%TA.AperFunction,SMDPad,CuDef*%
G36*
G01*
X115750000Y-99225000D02*
X115250000Y-99225000D01*
G75*
G02*
X115025000Y-99000000I0J225000D01*
G01*
X115025000Y-98550000D01*
G75*
G02*
X115250000Y-98325000I225000J0D01*
G01*
X115750000Y-98325000D01*
G75*
G02*
X115975000Y-98550000I0J-225000D01*
G01*
X115975000Y-99000000D01*
G75*
G02*
X115750000Y-99225000I-225000J0D01*
G01*
G37*
%TD.AperFunction*%
%TD*%
%TO.P,C2,2*%
%TO.N,GND*%
%TA.AperFunction,SMDPad,CuDef*%
G36*
G01*
X115750000Y-86675000D02*
X115250000Y-86675000D01*
G75*
G02*
X115025000Y-86450000I0J225000D01*
G01*
X115025000Y-86000000D01*
G75*
G02*
X115250000Y-85775000I225000J0D01*
G01*
X115750000Y-85775000D01*
G75*
G02*
X115975000Y-86000000I0J-225000D01*
G01*
X115975000Y-86450000D01*
G75*
G02*
X115750000Y-86675000I-225000J0D01*
G01*
G37*
%TD.AperFunction*%
%TO.P,C2,1*%
%TO.N,/IO0*%
%TA.AperFunction,SMDPad,CuDef*%
G36*
G01*
X115750000Y-88225000D02*
X115250000Y-88225000D01*
G75*
G02*
X115025000Y-88000000I0J225000D01*
G01*
X115025000Y-87550000D01*
G75*
G02*
X115250000Y-87325000I225000J0D01*
G01*
X115750000Y-87325000D01*
G75*
G02*
X115975000Y-87550000I0J-225000D01*
G01*
X115975000Y-88000000D01*
G75*
G02*
X115750000Y-88225000I-225000J0D01*
G01*
G37*
%TD.AperFunction*%
%TD*%
%TO.P,C3,2*%
%TO.N,GND*%
%TA.AperFunction,SMDPad,CuDef*%
G36*
G01*
X109750000Y-94175000D02*
X109250000Y-94175000D01*
G75*
G02*
X109025000Y-93950000I0J225000D01*
G01*
X109025000Y-93500000D01*
G75*
G02*
X109250000Y-93275000I225000J0D01*
G01*
X109750000Y-93275000D01*
G75*
G02*
X109975000Y-93500000I0J-225000D01*
G01*
X109975000Y-93950000D01*
G75*
G02*
X109750000Y-94175000I-225000J0D01*
G01*
G37*
%TD.AperFunction*%
%TO.P,C3,1*%
%TO.N,+3V3*%
%TA.AperFunction,SMDPad,CuDef*%
G36*
G01*
X109750000Y-95725000D02*
X109250000Y-95725000D01*
G75*
G02*
X109025000Y-95500000I0J225000D01*
G01*
X109025000Y-95050000D01*
G75*
G02*
X109250000Y-94825000I225000J0D01*
G01*
X109750000Y-94825000D01*
G75*
G02*
X109975000Y-95050000I0J-225000D01*
G01*
X109975000Y-95500000D01*
G75*
G02*
X109750000Y-95725000I-225000J0D01*
G01*
G37*
%TD.AperFunction*%
%TD*%
%TO.P,C1,2*%
%TO.N,GND*%
%TA.AperFunction,SMDPad,CuDef*%
G36*
G01*
X109250000Y-90825000D02*
X109750000Y-90825000D01*
G75*
G02*
X109975000Y-91050000I0J-225000D01*
G01*
X109975000Y-91500000D01*
G75*
G02*
X109750000Y-91725000I-225000J0D01*
G01*
X109250000Y-91725000D01*
G75*
G02*
X109025000Y-91500000I0J225000D01*
G01*
X109025000Y-91050000D01*
G75*
G02*
X109250000Y-90825000I225000J0D01*
G01*
G37*
%TD.AperFunction*%
%TO.P,C1,1*%
%TO.N,Net-(C1-Pad1)*%
%TA.AperFunction,SMDPad,CuDef*%
G36*
G01*
X109250000Y-89275000D02*
X109750000Y-89275000D01*
G75*
G02*
X109975000Y-89500000I0J-225000D01*
G01*
X109975000Y-89950000D01*
G75*
G02*
X109750000Y-90175000I-225000J0D01*
G01*
X109250000Y-90175000D01*
G75*
G02*
X109025000Y-89950000I0J225000D01*
G01*
X109025000Y-89500000D01*
G75*
G02*
X109250000Y-89275000I225000J0D01*
G01*
G37*
%TD.AperFunction*%
%TD*%
D21*
%TO.N,*%
X126800000Y-99000000D03*
%TO.N,GND*%
X126800000Y-85800000D03*
X122074990Y-92500000D03*
%TO.N,/D-*%
X104500000Y-91475000D03*
X119650000Y-90300000D03*
%TO.N,/D+*%
X104500000Y-92525000D03*
X119712664Y-91712678D03*
%TO.N,/IO0*%
X126800000Y-88200000D03*
%TO.N,/DTR*%
X122074990Y-93600000D03*
X123600000Y-93600000D03*
%TO.N,/EN*%
X124575000Y-98825000D03*
X112474991Y-98000009D03*
%TO.N,+3V3*%
X125500000Y-89500000D03*
X118499990Y-89500000D03*
X124600000Y-93600000D03*
%TO.N,Net-(C1-Pad1)*%
X114550000Y-96075000D03*
X119199990Y-95750000D03*
%TD*%
D22*
%TO.N,GND*%
X109500000Y-91275000D02*
X109500000Y-93725000D01*
X115099999Y-85824999D02*
X115500000Y-86225000D01*
X110475001Y-85824999D02*
X115099999Y-85824999D01*
X109300000Y-87000000D02*
X110475001Y-85824999D01*
X115099999Y-96824999D02*
X115500000Y-97225000D01*
X110475001Y-96824999D02*
X115099999Y-96824999D01*
X109300000Y-98000000D02*
X110475001Y-96824999D01*
X109295000Y-87000000D02*
X107045000Y-89250000D01*
X109300000Y-87000000D02*
X109295000Y-87000000D01*
X109295000Y-98000000D02*
X107045000Y-95750000D01*
X109300000Y-98000000D02*
X109295000Y-98000000D01*
X110575000Y-90200000D02*
X109500000Y-91275000D01*
X111650000Y-90200000D02*
X110575000Y-90200000D01*
X111650000Y-89350000D02*
X109300000Y-87000000D01*
X111650000Y-90200000D02*
X111650000Y-89350000D01*
X115500000Y-96825000D02*
X115500000Y-97225000D01*
X117750000Y-96100000D02*
X116225000Y-96100000D01*
X118000000Y-96350000D02*
X117750000Y-96100000D01*
X116225000Y-96100000D02*
X115500000Y-96825000D01*
X118000000Y-97900000D02*
X118000000Y-96350000D01*
X118825000Y-98725000D02*
X118000000Y-97900000D01*
X117225000Y-95100000D02*
X115500000Y-96825000D01*
X118835002Y-95100000D02*
X117225000Y-95100000D01*
X119450000Y-93200011D02*
X119450000Y-94485002D01*
X119449989Y-93200011D02*
X119450000Y-93200011D01*
X120150000Y-92500000D02*
X119449989Y-93200011D01*
X119450000Y-94485002D02*
X118835002Y-95100000D01*
X120950000Y-92500000D02*
X120150000Y-92500000D01*
X120950000Y-92500000D02*
X122074990Y-92500000D01*
%TO.N,/D-*%
X106084998Y-92750000D02*
X107045000Y-92750000D01*
X105994999Y-92660001D02*
X106084998Y-92750000D01*
X105994999Y-91839999D02*
X105994999Y-92660001D01*
X106084998Y-91750000D02*
X105994999Y-91839999D01*
X107045000Y-91750000D02*
X106084998Y-91750000D01*
D23*
X107045000Y-91750000D02*
X105957499Y-91750000D01*
X105932499Y-91775000D02*
X104800000Y-91775000D01*
X104800000Y-91775000D02*
X104500000Y-91475000D01*
X105957499Y-91750000D02*
X105932499Y-91775000D01*
D22*
X121690002Y-89850000D02*
X120100000Y-89850000D01*
X121900000Y-90059998D02*
X121690002Y-89850000D01*
X121900000Y-91350000D02*
X121900000Y-90059998D01*
X121750000Y-91500000D02*
X121900000Y-91350000D01*
X120100000Y-89850000D02*
X119650000Y-90300000D01*
X120950000Y-91500000D02*
X121750000Y-91500000D01*
%TO.N,/D+*%
X108020000Y-93250000D02*
X107045000Y-93250000D01*
X108095001Y-93174999D02*
X108020000Y-93250000D01*
X108095001Y-92339999D02*
X108095001Y-93174999D01*
X108005002Y-92250000D02*
X108095001Y-92339999D01*
X107045000Y-92250000D02*
X108005002Y-92250000D01*
D23*
X108070001Y-93140001D02*
X108010001Y-93200001D01*
X105569989Y-92836045D02*
X105569989Y-92225000D01*
X104800000Y-92225000D02*
X104500000Y-92525000D01*
X107045000Y-92250000D02*
X107960002Y-92250000D01*
X108070001Y-92359999D02*
X108070001Y-93140001D01*
X108010001Y-93200001D02*
X105933945Y-93200001D01*
X107960002Y-92250000D02*
X108070001Y-92359999D01*
X105933945Y-93200001D02*
X105569989Y-92836045D01*
X105569989Y-92225000D02*
X104800000Y-92225000D01*
D22*
X120950000Y-90500000D02*
X120655000Y-90500000D01*
X120655000Y-90500000D02*
X119712664Y-91442336D01*
X119712664Y-91442336D02*
X119712664Y-91712678D01*
%TO.N,/IO0*%
X114725000Y-87000000D02*
X115500000Y-87775000D01*
X113700000Y-87000000D02*
X114725000Y-87000000D01*
X121000000Y-87500000D02*
X125500000Y-87500000D01*
X120725000Y-87775000D02*
X121000000Y-87500000D01*
X115500000Y-87775000D02*
X120725000Y-87775000D01*
X126100000Y-87500000D02*
X126800000Y-88200000D01*
X125500000Y-87500000D02*
X126100000Y-87500000D01*
%TO.N,/DTR*%
X119925000Y-96725000D02*
X121350000Y-98150000D01*
X120150000Y-93500000D02*
X119925000Y-93725000D01*
X120950000Y-93500000D02*
X120150000Y-93500000D01*
X119925000Y-93725000D02*
X119925000Y-96725000D01*
X121974990Y-93500000D02*
X122074990Y-93600000D01*
X120950000Y-93500000D02*
X121974990Y-93500000D01*
X123500000Y-88450000D02*
X123500000Y-93500000D01*
X123500000Y-93500000D02*
X123600000Y-93600000D01*
%TO.N,Net-(Q1-Pad1)*%
X121625000Y-86550000D02*
X121500000Y-86675000D01*
X123500000Y-86550000D02*
X121625000Y-86550000D01*
%TO.N,/RTS*%
X126000000Y-96950000D02*
X125475000Y-97475000D01*
X126000000Y-94550000D02*
X126000000Y-96950000D01*
X126050000Y-94500000D02*
X126000000Y-94550000D01*
X121500000Y-88325000D02*
X121975000Y-88325000D01*
X121975000Y-88325000D02*
X122800000Y-89150000D01*
X122800000Y-89150000D02*
X122800000Y-93873004D01*
X123426996Y-94500000D02*
X126050000Y-94500000D01*
X122800000Y-93873004D02*
X123426996Y-94500000D01*
%TO.N,/EN*%
X114725000Y-98000000D02*
X115500000Y-98775000D01*
X113700000Y-98000000D02*
X114725000Y-98000000D01*
X123875000Y-98825000D02*
X123475000Y-98425000D01*
X124575000Y-98825000D02*
X123875000Y-98825000D01*
X112475000Y-98000000D02*
X112474991Y-98000009D01*
X113700000Y-98000000D02*
X112475000Y-98000000D01*
X125560002Y-98825000D02*
X124575000Y-98825000D01*
X126925001Y-97460001D02*
X125560002Y-98825000D01*
X126925001Y-93474999D02*
X126925001Y-97460001D01*
X128800000Y-91600000D02*
X126925001Y-93474999D01*
%TO.N,Net-(Q2-Pad1)*%
X123450000Y-96500000D02*
X123475000Y-96525000D01*
X121350000Y-96500000D02*
X123450000Y-96500000D01*
%TO.N,+3V3*%
X125000000Y-93250000D02*
X125250000Y-93500000D01*
X125250000Y-93500000D02*
X126050000Y-93500000D01*
X125000000Y-90750000D02*
X125000000Y-93250000D01*
X125250000Y-90500000D02*
X125000000Y-90750000D01*
X126050000Y-90500000D02*
X125250000Y-90500000D01*
X125500000Y-89950000D02*
X126050000Y-90500000D01*
X125500000Y-89500000D02*
X125500000Y-89950000D01*
X118150000Y-92500000D02*
X118150000Y-89849990D01*
X118150000Y-89849990D02*
X118499990Y-89500000D01*
X110300010Y-94474990D02*
X109500000Y-95275000D01*
X110300010Y-92599990D02*
X110300010Y-94474990D01*
X110400000Y-92500000D02*
X110300010Y-92599990D01*
X111650000Y-92500000D02*
X110400000Y-92500000D01*
X111650000Y-92500000D02*
X117950000Y-92500000D01*
X124700000Y-93500000D02*
X124600000Y-93600000D01*
X126050000Y-93500000D02*
X124700000Y-93500000D01*
%TO.N,Net-(C1-Pad1)*%
X109175000Y-90050000D02*
X109500000Y-89725000D01*
X107045000Y-90050000D02*
X109175000Y-90050000D01*
X110250000Y-96200000D02*
X111650000Y-94800000D01*
X109052501Y-96200000D02*
X110250000Y-96200000D01*
X107802501Y-94950000D02*
X109052501Y-96200000D01*
X107045000Y-94950000D02*
X107802501Y-94950000D01*
X106820001Y-94725001D02*
X107045000Y-94950000D01*
X105273001Y-94725001D02*
X106820001Y-94725001D01*
X103774999Y-93226999D02*
X105273001Y-94725001D01*
X103774999Y-91126999D02*
X103774999Y-93226999D01*
X104641997Y-90260001D02*
X103774999Y-91126999D01*
X106834999Y-90260001D02*
X104641997Y-90260001D01*
X107045000Y-90050000D02*
X106834999Y-90260001D01*
X113275000Y-94800000D02*
X114550000Y-96075000D01*
X111650000Y-94800000D02*
X113275000Y-94800000D01*
X118787500Y-96950000D02*
X118787500Y-96162490D01*
X118787500Y-96162490D02*
X119199990Y-95750000D01*
%TO.N,/RXD*%
X128800000Y-87600000D02*
X127149989Y-89250011D01*
X127149989Y-89250011D02*
X127149989Y-91200011D01*
X127149989Y-91200011D02*
X126850000Y-91500000D01*
X126850000Y-91500000D02*
X126050000Y-91500000D01*
%TO.N,/TXD*%
X126486410Y-92500000D02*
X126050000Y-92500000D01*
X127600000Y-91386410D02*
X126486410Y-92500000D01*
X127600000Y-90000000D02*
X127600000Y-91386410D01*
X128800000Y-89600000D02*
X128000000Y-89600000D01*
X128000000Y-89600000D02*
X127600000Y-90000000D01*
%TO.N,Net-(D1-Pad1)*%
X117212500Y-98687500D02*
X117175000Y-98725000D01*
X117212500Y-96950000D02*
X117212500Y-98687500D01*
%TD*%
D24*
%TO.N,GND*%
X120411928Y-98286730D02*
X120411928Y-98350000D01*
X120428031Y-98513500D01*
X120475722Y-98670716D01*
X120553169Y-98815608D01*
X120657394Y-98942606D01*
X120784392Y-99046831D01*
X120929284Y-99124278D01*
X121086500Y-99171969D01*
X121250000Y-99188072D01*
X121800000Y-99188072D01*
X121963500Y-99171969D01*
X122120716Y-99124278D01*
X122265608Y-99046831D01*
X122392606Y-98942606D01*
X122397878Y-98936182D01*
X122399188Y-98949482D01*
X122435498Y-99069180D01*
X122494463Y-99179494D01*
X122573815Y-99276185D01*
X122651574Y-99340000D01*
X119846105Y-99340000D01*
X119850812Y-99324482D01*
X119863072Y-99200000D01*
X119860000Y-99010750D01*
X119701250Y-98852000D01*
X118952000Y-98852000D01*
X118952000Y-98872000D01*
X118698000Y-98872000D01*
X118698000Y-98852000D01*
X118678000Y-98852000D01*
X118678000Y-98598000D01*
X118698000Y-98598000D01*
X118698000Y-98578000D01*
X118952000Y-98578000D01*
X118952000Y-98598000D01*
X119701250Y-98598000D01*
X119860000Y-98439250D01*
X119863072Y-98250000D01*
X119850812Y-98125518D01*
X119814502Y-98005820D01*
X119755537Y-97895506D01*
X119676185Y-97798815D01*
X119644422Y-97772748D01*
X119718671Y-97682275D01*
X119749603Y-97624405D01*
X120411928Y-98286730D01*
%TA.AperFunction,Conductor*%
D25*
G36*
X120411928Y-98286730D02*
G01*
X120411928Y-98350000D01*
X120428031Y-98513500D01*
X120475722Y-98670716D01*
X120553169Y-98815608D01*
X120657394Y-98942606D01*
X120784392Y-99046831D01*
X120929284Y-99124278D01*
X121086500Y-99171969D01*
X121250000Y-99188072D01*
X121800000Y-99188072D01*
X121963500Y-99171969D01*
X122120716Y-99124278D01*
X122265608Y-99046831D01*
X122392606Y-98942606D01*
X122397878Y-98936182D01*
X122399188Y-98949482D01*
X122435498Y-99069180D01*
X122494463Y-99179494D01*
X122573815Y-99276185D01*
X122651574Y-99340000D01*
X119846105Y-99340000D01*
X119850812Y-99324482D01*
X119863072Y-99200000D01*
X119860000Y-99010750D01*
X119701250Y-98852000D01*
X118952000Y-98852000D01*
X118952000Y-98872000D01*
X118698000Y-98872000D01*
X118698000Y-98852000D01*
X118678000Y-98852000D01*
X118678000Y-98598000D01*
X118698000Y-98598000D01*
X118698000Y-98578000D01*
X118952000Y-98578000D01*
X118952000Y-98598000D01*
X119701250Y-98598000D01*
X119860000Y-98439250D01*
X119863072Y-98250000D01*
X119850812Y-98125518D01*
X119814502Y-98005820D01*
X119755537Y-97895506D01*
X119676185Y-97798815D01*
X119644422Y-97772748D01*
X119718671Y-97682275D01*
X119749603Y-97624405D01*
X120411928Y-98286730D01*
G37*
%TD.AperFunction*%
D24*
X108398815Y-85698815D02*
X108319463Y-85795506D01*
X108260498Y-85905820D01*
X108224188Y-86025518D01*
X108211928Y-86150000D01*
X108215000Y-86714250D01*
X108373750Y-86873000D01*
X109173000Y-86873000D01*
X109173000Y-86853000D01*
X109427000Y-86853000D01*
X109427000Y-86873000D01*
X110226250Y-86873000D01*
X110385000Y-86714250D01*
X110388072Y-86150000D01*
X110375812Y-86025518D01*
X110339502Y-85905820D01*
X110280537Y-85795506D01*
X110201185Y-85698815D01*
X110153889Y-85660000D01*
X112846111Y-85660000D01*
X112798815Y-85698815D01*
X112719463Y-85795506D01*
X112660498Y-85905820D01*
X112624188Y-86025518D01*
X112611928Y-86150000D01*
X112611928Y-87850000D01*
X112624188Y-87974482D01*
X112660498Y-88094180D01*
X112719463Y-88204494D01*
X112798815Y-88301185D01*
X112895506Y-88380537D01*
X113005820Y-88439502D01*
X113125518Y-88475812D01*
X113250000Y-88488072D01*
X114150000Y-88488072D01*
X114274482Y-88475812D01*
X114394180Y-88439502D01*
X114485044Y-88390934D01*
X114532382Y-88479497D01*
X114639716Y-88610284D01*
X114770503Y-88717618D01*
X114919717Y-88797375D01*
X115081623Y-88846488D01*
X115250000Y-88863072D01*
X115750000Y-88863072D01*
X115918377Y-88846488D01*
X116080283Y-88797375D01*
X116229497Y-88717618D01*
X116360284Y-88610284D01*
X116422068Y-88535000D01*
X118125121Y-88535000D01*
X118009734Y-88582795D01*
X117840216Y-88696063D01*
X117696053Y-88840226D01*
X117582785Y-89009744D01*
X117504764Y-89198102D01*
X117464990Y-89398061D01*
X117464990Y-89519324D01*
X117444454Y-89557744D01*
X117423833Y-89625725D01*
X117400998Y-89701004D01*
X117398238Y-89729024D01*
X117386324Y-89849990D01*
X117390001Y-89887322D01*
X117390001Y-89961928D01*
X116950000Y-89961928D01*
X116825518Y-89974188D01*
X116705820Y-90010498D01*
X116595506Y-90069463D01*
X116498815Y-90148815D01*
X116419463Y-90245506D01*
X116360498Y-90355820D01*
X116324188Y-90475518D01*
X116311928Y-90600000D01*
X116311928Y-91740000D01*
X113287087Y-91740000D01*
X113275812Y-91625518D01*
X113239502Y-91505820D01*
X113180537Y-91395506D01*
X113143191Y-91350000D01*
X113180537Y-91304494D01*
X113239502Y-91194180D01*
X113275812Y-91074482D01*
X113288072Y-90950000D01*
X113285000Y-90485750D01*
X113126250Y-90327000D01*
X111777000Y-90327000D01*
X111777000Y-90347000D01*
X111523000Y-90347000D01*
X111523000Y-90327000D01*
X111503000Y-90327000D01*
X111503000Y-90073000D01*
X111523000Y-90073000D01*
X111523000Y-88973750D01*
X111777000Y-88973750D01*
X111777000Y-90073000D01*
X113126250Y-90073000D01*
X113285000Y-89914250D01*
X113288072Y-89450000D01*
X113275812Y-89325518D01*
X113239502Y-89205820D01*
X113180537Y-89095506D01*
X113101185Y-88998815D01*
X113004494Y-88919463D01*
X112894180Y-88860498D01*
X112774482Y-88824188D01*
X112650000Y-88811928D01*
X111935750Y-88815000D01*
X111777000Y-88973750D01*
X111523000Y-88973750D01*
X111364250Y-88815000D01*
X110650000Y-88811928D01*
X110525518Y-88824188D01*
X110405820Y-88860498D01*
X110356684Y-88886762D01*
X110229497Y-88782382D01*
X110080283Y-88702625D01*
X109918377Y-88653512D01*
X109750000Y-88636928D01*
X109250000Y-88636928D01*
X109081623Y-88653512D01*
X108919717Y-88702625D01*
X108770503Y-88782382D01*
X108639716Y-88889716D01*
X108532382Y-89020503D01*
X108452625Y-89169717D01*
X108416138Y-89290000D01*
X108210444Y-89290000D01*
X108124494Y-89219463D01*
X108014180Y-89160498D01*
X107894482Y-89124188D01*
X107882420Y-89123000D01*
X108246250Y-89123000D01*
X108405000Y-88964250D01*
X108408072Y-88950000D01*
X108395812Y-88825518D01*
X108359502Y-88705820D01*
X108300537Y-88595506D01*
X108221185Y-88498815D01*
X108124494Y-88419463D01*
X108014180Y-88360498D01*
X107894482Y-88324188D01*
X107770000Y-88311928D01*
X107652104Y-88312753D01*
X107647954Y-88307000D01*
X106257000Y-88307000D01*
X106257000Y-88318133D01*
X106195518Y-88324188D01*
X106186248Y-88327000D01*
X106003000Y-88327000D01*
X106003000Y-88307000D01*
X104612046Y-88307000D01*
X104485881Y-88481874D01*
X104565724Y-88704976D01*
X104687631Y-88892764D01*
X104828206Y-89037116D01*
X104749259Y-89155269D01*
X104676892Y-89329978D01*
X104643769Y-89496500D01*
X104641996Y-89496325D01*
X104604673Y-89500001D01*
X104604664Y-89500001D01*
X104493011Y-89510998D01*
X104349750Y-89554455D01*
X104217721Y-89625027D01*
X104101996Y-89720000D01*
X104078198Y-89748998D01*
X103264001Y-90563196D01*
X103234998Y-90586998D01*
X103193628Y-90637408D01*
X103140025Y-90702723D01*
X103075943Y-90822611D01*
X103069453Y-90834753D01*
X103025996Y-90978014D01*
X103014999Y-91089667D01*
X103014999Y-91089677D01*
X103011323Y-91126999D01*
X103014999Y-91164322D01*
X103015000Y-93189667D01*
X103011323Y-93226999D01*
X103015000Y-93264332D01*
X103025997Y-93375985D01*
X103031150Y-93392972D01*
X103069453Y-93519245D01*
X103140025Y-93651275D01*
X103201341Y-93725988D01*
X103234999Y-93767000D01*
X103263997Y-93790798D01*
X104661344Y-95188146D01*
X104640000Y-95295448D01*
X104640000Y-95484552D01*
X104676892Y-95670022D01*
X104749259Y-95844731D01*
X104828206Y-95962884D01*
X104687631Y-96107236D01*
X104565724Y-96295024D01*
X104485881Y-96518126D01*
X104612046Y-96693000D01*
X106003000Y-96693000D01*
X106003000Y-96673000D01*
X106186248Y-96673000D01*
X106195518Y-96675812D01*
X106257000Y-96681867D01*
X106257000Y-96693000D01*
X107647954Y-96693000D01*
X107652104Y-96687247D01*
X107770000Y-96688072D01*
X107894482Y-96675812D01*
X108014180Y-96639502D01*
X108124494Y-96580537D01*
X108221185Y-96501185D01*
X108247193Y-96469494D01*
X108441491Y-96663792D01*
X108398815Y-96698815D01*
X108319463Y-96795506D01*
X108260498Y-96905820D01*
X108224188Y-97025518D01*
X108211928Y-97150000D01*
X108215000Y-97714250D01*
X108373750Y-97873000D01*
X109173000Y-97873000D01*
X109173000Y-97853000D01*
X109427000Y-97853000D01*
X109427000Y-97873000D01*
X110226250Y-97873000D01*
X110385000Y-97714250D01*
X110388072Y-97150000D01*
X110375812Y-97025518D01*
X110353947Y-96953439D01*
X110398986Y-96949003D01*
X110542247Y-96905546D01*
X110674276Y-96834974D01*
X110790001Y-96740001D01*
X110813804Y-96710997D01*
X111336729Y-96188072D01*
X112650000Y-96188072D01*
X112774482Y-96175812D01*
X112894180Y-96139502D01*
X113004494Y-96080537D01*
X113101185Y-96001185D01*
X113180537Y-95904494D01*
X113223784Y-95823586D01*
X113515000Y-96114802D01*
X113515000Y-96176939D01*
X113554774Y-96376898D01*
X113610706Y-96511928D01*
X113250000Y-96511928D01*
X113125518Y-96524188D01*
X113005820Y-96560498D01*
X112895506Y-96619463D01*
X112798815Y-96698815D01*
X112719463Y-96795506D01*
X112660498Y-96905820D01*
X112638809Y-96977317D01*
X112576930Y-96965009D01*
X112373052Y-96965009D01*
X112173093Y-97004783D01*
X111984735Y-97082804D01*
X111815217Y-97196072D01*
X111671054Y-97340235D01*
X111557786Y-97509753D01*
X111479765Y-97698111D01*
X111439991Y-97898070D01*
X111439991Y-98101948D01*
X111479765Y-98301907D01*
X111557786Y-98490265D01*
X111671054Y-98659783D01*
X111815217Y-98803946D01*
X111984735Y-98917214D01*
X112173093Y-98995235D01*
X112373052Y-99035009D01*
X112576930Y-99035009D01*
X112638815Y-99022699D01*
X112660498Y-99094180D01*
X112719463Y-99204494D01*
X112798815Y-99301185D01*
X112846111Y-99340000D01*
X110153889Y-99340000D01*
X110201185Y-99301185D01*
X110280537Y-99204494D01*
X110339502Y-99094180D01*
X110375812Y-98974482D01*
X110388072Y-98850000D01*
X110385000Y-98285750D01*
X110226250Y-98127000D01*
X109427000Y-98127000D01*
X109427000Y-98147000D01*
X109173000Y-98147000D01*
X109173000Y-98127000D01*
X108373750Y-98127000D01*
X108215000Y-98285750D01*
X108211928Y-98850000D01*
X108224188Y-98974482D01*
X108260498Y-99094180D01*
X108319463Y-99204494D01*
X108398815Y-99301185D01*
X108446111Y-99340000D01*
X100660000Y-99340000D01*
X100660000Y-97382371D01*
X100757631Y-97532764D01*
X100913831Y-97693161D01*
X101098322Y-97820003D01*
X101304013Y-97908415D01*
X101523000Y-97955000D01*
X101823000Y-97955000D01*
X101823000Y-96947000D01*
X102077000Y-96947000D01*
X102077000Y-97955000D01*
X102377000Y-97955000D01*
X102595987Y-97908415D01*
X102801678Y-97820003D01*
X102986169Y-97693161D01*
X103142369Y-97532764D01*
X103264276Y-97344976D01*
X103344119Y-97121874D01*
X104485881Y-97121874D01*
X104565724Y-97344976D01*
X104687631Y-97532764D01*
X104843831Y-97693161D01*
X105028322Y-97820003D01*
X105234013Y-97908415D01*
X105453000Y-97955000D01*
X106003000Y-97955000D01*
X106003000Y-96947000D01*
X106257000Y-96947000D01*
X106257000Y-97955000D01*
X106807000Y-97955000D01*
X107025987Y-97908415D01*
X107231678Y-97820003D01*
X107416169Y-97693161D01*
X107572369Y-97532764D01*
X107694276Y-97344976D01*
X107774119Y-97121874D01*
X107647954Y-96947000D01*
X106257000Y-96947000D01*
X106003000Y-96947000D01*
X104612046Y-96947000D01*
X104485881Y-97121874D01*
X103344119Y-97121874D01*
X103217954Y-96947000D01*
X102077000Y-96947000D01*
X101823000Y-96947000D01*
X101803000Y-96947000D01*
X101803000Y-96693000D01*
X101823000Y-96693000D01*
X101823000Y-95685000D01*
X102077000Y-95685000D01*
X102077000Y-96693000D01*
X103217954Y-96693000D01*
X103344119Y-96518126D01*
X103264276Y-96295024D01*
X103142369Y-96107236D01*
X102986169Y-95946839D01*
X102801678Y-95819997D01*
X102595987Y-95731585D01*
X102377000Y-95685000D01*
X102077000Y-95685000D01*
X101823000Y-95685000D01*
X101523000Y-95685000D01*
X101304013Y-95731585D01*
X101098322Y-95819997D01*
X100913831Y-95946839D01*
X100757631Y-96107236D01*
X100660000Y-96257629D01*
X100660000Y-88742371D01*
X100757631Y-88892764D01*
X100913831Y-89053161D01*
X101098322Y-89180003D01*
X101304013Y-89268415D01*
X101523000Y-89315000D01*
X101823000Y-89315000D01*
X101823000Y-88307000D01*
X102077000Y-88307000D01*
X102077000Y-89315000D01*
X102377000Y-89315000D01*
X102595987Y-89268415D01*
X102801678Y-89180003D01*
X102986169Y-89053161D01*
X103142369Y-88892764D01*
X103264276Y-88704976D01*
X103344119Y-88481874D01*
X103217954Y-88307000D01*
X102077000Y-88307000D01*
X101823000Y-88307000D01*
X101803000Y-88307000D01*
X101803000Y-88053000D01*
X101823000Y-88053000D01*
X101823000Y-87045000D01*
X102077000Y-87045000D01*
X102077000Y-88053000D01*
X103217954Y-88053000D01*
X103344119Y-87878126D01*
X104485881Y-87878126D01*
X104612046Y-88053000D01*
X106003000Y-88053000D01*
X106003000Y-87045000D01*
X106257000Y-87045000D01*
X106257000Y-88053000D01*
X107647954Y-88053000D01*
X107774119Y-87878126D01*
X107764054Y-87850000D01*
X108211928Y-87850000D01*
X108224188Y-87974482D01*
X108260498Y-88094180D01*
X108319463Y-88204494D01*
X108398815Y-88301185D01*
X108495506Y-88380537D01*
X108605820Y-88439502D01*
X108725518Y-88475812D01*
X108850000Y-88488072D01*
X109014250Y-88485000D01*
X109173000Y-88326250D01*
X109173000Y-87127000D01*
X109427000Y-87127000D01*
X109427000Y-88326250D01*
X109585750Y-88485000D01*
X109750000Y-88488072D01*
X109874482Y-88475812D01*
X109994180Y-88439502D01*
X110104494Y-88380537D01*
X110201185Y-88301185D01*
X110280537Y-88204494D01*
X110339502Y-88094180D01*
X110375812Y-87974482D01*
X110388072Y-87850000D01*
X110385000Y-87285750D01*
X110226250Y-87127000D01*
X109427000Y-87127000D01*
X109173000Y-87127000D01*
X108373750Y-87127000D01*
X108215000Y-87285750D01*
X108211928Y-87850000D01*
X107764054Y-87850000D01*
X107694276Y-87655024D01*
X107572369Y-87467236D01*
X107416169Y-87306839D01*
X107231678Y-87179997D01*
X107025987Y-87091585D01*
X106807000Y-87045000D01*
X106257000Y-87045000D01*
X106003000Y-87045000D01*
X105453000Y-87045000D01*
X105234013Y-87091585D01*
X105028322Y-87179997D01*
X104843831Y-87306839D01*
X104687631Y-87467236D01*
X104565724Y-87655024D01*
X104485881Y-87878126D01*
X103344119Y-87878126D01*
X103264276Y-87655024D01*
X103142369Y-87467236D01*
X102986169Y-87306839D01*
X102801678Y-87179997D01*
X102595987Y-87091585D01*
X102377000Y-87045000D01*
X102077000Y-87045000D01*
X101823000Y-87045000D01*
X101523000Y-87045000D01*
X101304013Y-87091585D01*
X101098322Y-87179997D01*
X100913831Y-87306839D01*
X100757631Y-87467236D01*
X100660000Y-87617629D01*
X100660000Y-85660000D01*
X108446111Y-85660000D01*
X108398815Y-85698815D01*
%TA.AperFunction,Conductor*%
D25*
G36*
X108398815Y-85698815D02*
G01*
X108319463Y-85795506D01*
X108260498Y-85905820D01*
X108224188Y-86025518D01*
X108211928Y-86150000D01*
X108215000Y-86714250D01*
X108373750Y-86873000D01*
X109173000Y-86873000D01*
X109173000Y-86853000D01*
X109427000Y-86853000D01*
X109427000Y-86873000D01*
X110226250Y-86873000D01*
X110385000Y-86714250D01*
X110388072Y-86150000D01*
X110375812Y-86025518D01*
X110339502Y-85905820D01*
X110280537Y-85795506D01*
X110201185Y-85698815D01*
X110153889Y-85660000D01*
X112846111Y-85660000D01*
X112798815Y-85698815D01*
X112719463Y-85795506D01*
X112660498Y-85905820D01*
X112624188Y-86025518D01*
X112611928Y-86150000D01*
X112611928Y-87850000D01*
X112624188Y-87974482D01*
X112660498Y-88094180D01*
X112719463Y-88204494D01*
X112798815Y-88301185D01*
X112895506Y-88380537D01*
X113005820Y-88439502D01*
X113125518Y-88475812D01*
X113250000Y-88488072D01*
X114150000Y-88488072D01*
X114274482Y-88475812D01*
X114394180Y-88439502D01*
X114485044Y-88390934D01*
X114532382Y-88479497D01*
X114639716Y-88610284D01*
X114770503Y-88717618D01*
X114919717Y-88797375D01*
X115081623Y-88846488D01*
X115250000Y-88863072D01*
X115750000Y-88863072D01*
X115918377Y-88846488D01*
X116080283Y-88797375D01*
X116229497Y-88717618D01*
X116360284Y-88610284D01*
X116422068Y-88535000D01*
X118125121Y-88535000D01*
X118009734Y-88582795D01*
X117840216Y-88696063D01*
X117696053Y-88840226D01*
X117582785Y-89009744D01*
X117504764Y-89198102D01*
X117464990Y-89398061D01*
X117464990Y-89519324D01*
X117444454Y-89557744D01*
X117423833Y-89625725D01*
X117400998Y-89701004D01*
X117398238Y-89729024D01*
X117386324Y-89849990D01*
X117390001Y-89887322D01*
X117390001Y-89961928D01*
X116950000Y-89961928D01*
X116825518Y-89974188D01*
X116705820Y-90010498D01*
X116595506Y-90069463D01*
X116498815Y-90148815D01*
X116419463Y-90245506D01*
X116360498Y-90355820D01*
X116324188Y-90475518D01*
X116311928Y-90600000D01*
X116311928Y-91740000D01*
X113287087Y-91740000D01*
X113275812Y-91625518D01*
X113239502Y-91505820D01*
X113180537Y-91395506D01*
X113143191Y-91350000D01*
X113180537Y-91304494D01*
X113239502Y-91194180D01*
X113275812Y-91074482D01*
X113288072Y-90950000D01*
X113285000Y-90485750D01*
X113126250Y-90327000D01*
X111777000Y-90327000D01*
X111777000Y-90347000D01*
X111523000Y-90347000D01*
X111523000Y-90327000D01*
X111503000Y-90327000D01*
X111503000Y-90073000D01*
X111523000Y-90073000D01*
X111523000Y-88973750D01*
X111777000Y-88973750D01*
X111777000Y-90073000D01*
X113126250Y-90073000D01*
X113285000Y-89914250D01*
X113288072Y-89450000D01*
X113275812Y-89325518D01*
X113239502Y-89205820D01*
X113180537Y-89095506D01*
X113101185Y-88998815D01*
X113004494Y-88919463D01*
X112894180Y-88860498D01*
X112774482Y-88824188D01*
X112650000Y-88811928D01*
X111935750Y-88815000D01*
X111777000Y-88973750D01*
X111523000Y-88973750D01*
X111364250Y-88815000D01*
X110650000Y-88811928D01*
X110525518Y-88824188D01*
X110405820Y-88860498D01*
X110356684Y-88886762D01*
X110229497Y-88782382D01*
X110080283Y-88702625D01*
X109918377Y-88653512D01*
X109750000Y-88636928D01*
X109250000Y-88636928D01*
X109081623Y-88653512D01*
X108919717Y-88702625D01*
X108770503Y-88782382D01*
X108639716Y-88889716D01*
X108532382Y-89020503D01*
X108452625Y-89169717D01*
X108416138Y-89290000D01*
X108210444Y-89290000D01*
X108124494Y-89219463D01*
X108014180Y-89160498D01*
X107894482Y-89124188D01*
X107882420Y-89123000D01*
X108246250Y-89123000D01*
X108405000Y-88964250D01*
X108408072Y-88950000D01*
X108395812Y-88825518D01*
X108359502Y-88705820D01*
X108300537Y-88595506D01*
X108221185Y-88498815D01*
X108124494Y-88419463D01*
X108014180Y-88360498D01*
X107894482Y-88324188D01*
X107770000Y-88311928D01*
X107652104Y-88312753D01*
X107647954Y-88307000D01*
X106257000Y-88307000D01*
X106257000Y-88318133D01*
X106195518Y-88324188D01*
X106186248Y-88327000D01*
X106003000Y-88327000D01*
X106003000Y-88307000D01*
X104612046Y-88307000D01*
X104485881Y-88481874D01*
X104565724Y-88704976D01*
X104687631Y-88892764D01*
X104828206Y-89037116D01*
X104749259Y-89155269D01*
X104676892Y-89329978D01*
X104643769Y-89496500D01*
X104641996Y-89496325D01*
X104604673Y-89500001D01*
X104604664Y-89500001D01*
X104493011Y-89510998D01*
X104349750Y-89554455D01*
X104217721Y-89625027D01*
X104101996Y-89720000D01*
X104078198Y-89748998D01*
X103264001Y-90563196D01*
X103234998Y-90586998D01*
X103193628Y-90637408D01*
X103140025Y-90702723D01*
X103075943Y-90822611D01*
X103069453Y-90834753D01*
X103025996Y-90978014D01*
X103014999Y-91089667D01*
X103014999Y-91089677D01*
X103011323Y-91126999D01*
X103014999Y-91164322D01*
X103015000Y-93189667D01*
X103011323Y-93226999D01*
X103015000Y-93264332D01*
X103025997Y-93375985D01*
X103031150Y-93392972D01*
X103069453Y-93519245D01*
X103140025Y-93651275D01*
X103201341Y-93725988D01*
X103234999Y-93767000D01*
X103263997Y-93790798D01*
X104661344Y-95188146D01*
X104640000Y-95295448D01*
X104640000Y-95484552D01*
X104676892Y-95670022D01*
X104749259Y-95844731D01*
X104828206Y-95962884D01*
X104687631Y-96107236D01*
X104565724Y-96295024D01*
X104485881Y-96518126D01*
X104612046Y-96693000D01*
X106003000Y-96693000D01*
X106003000Y-96673000D01*
X106186248Y-96673000D01*
X106195518Y-96675812D01*
X106257000Y-96681867D01*
X106257000Y-96693000D01*
X107647954Y-96693000D01*
X107652104Y-96687247D01*
X107770000Y-96688072D01*
X107894482Y-96675812D01*
X108014180Y-96639502D01*
X108124494Y-96580537D01*
X108221185Y-96501185D01*
X108247193Y-96469494D01*
X108441491Y-96663792D01*
X108398815Y-96698815D01*
X108319463Y-96795506D01*
X108260498Y-96905820D01*
X108224188Y-97025518D01*
X108211928Y-97150000D01*
X108215000Y-97714250D01*
X108373750Y-97873000D01*
X109173000Y-97873000D01*
X109173000Y-97853000D01*
X109427000Y-97853000D01*
X109427000Y-97873000D01*
X110226250Y-97873000D01*
X110385000Y-97714250D01*
X110388072Y-97150000D01*
X110375812Y-97025518D01*
X110353947Y-96953439D01*
X110398986Y-96949003D01*
X110542247Y-96905546D01*
X110674276Y-96834974D01*
X110790001Y-96740001D01*
X110813804Y-96710997D01*
X111336729Y-96188072D01*
X112650000Y-96188072D01*
X112774482Y-96175812D01*
X112894180Y-96139502D01*
X113004494Y-96080537D01*
X113101185Y-96001185D01*
X113180537Y-95904494D01*
X113223784Y-95823586D01*
X113515000Y-96114802D01*
X113515000Y-96176939D01*
X113554774Y-96376898D01*
X113610706Y-96511928D01*
X113250000Y-96511928D01*
X113125518Y-96524188D01*
X113005820Y-96560498D01*
X112895506Y-96619463D01*
X112798815Y-96698815D01*
X112719463Y-96795506D01*
X112660498Y-96905820D01*
X112638809Y-96977317D01*
X112576930Y-96965009D01*
X112373052Y-96965009D01*
X112173093Y-97004783D01*
X111984735Y-97082804D01*
X111815217Y-97196072D01*
X111671054Y-97340235D01*
X111557786Y-97509753D01*
X111479765Y-97698111D01*
X111439991Y-97898070D01*
X111439991Y-98101948D01*
X111479765Y-98301907D01*
X111557786Y-98490265D01*
X111671054Y-98659783D01*
X111815217Y-98803946D01*
X111984735Y-98917214D01*
X112173093Y-98995235D01*
X112373052Y-99035009D01*
X112576930Y-99035009D01*
X112638815Y-99022699D01*
X112660498Y-99094180D01*
X112719463Y-99204494D01*
X112798815Y-99301185D01*
X112846111Y-99340000D01*
X110153889Y-99340000D01*
X110201185Y-99301185D01*
X110280537Y-99204494D01*
X110339502Y-99094180D01*
X110375812Y-98974482D01*
X110388072Y-98850000D01*
X110385000Y-98285750D01*
X110226250Y-98127000D01*
X109427000Y-98127000D01*
X109427000Y-98147000D01*
X109173000Y-98147000D01*
X109173000Y-98127000D01*
X108373750Y-98127000D01*
X108215000Y-98285750D01*
X108211928Y-98850000D01*
X108224188Y-98974482D01*
X108260498Y-99094180D01*
X108319463Y-99204494D01*
X108398815Y-99301185D01*
X108446111Y-99340000D01*
X100660000Y-99340000D01*
X100660000Y-97382371D01*
X100757631Y-97532764D01*
X100913831Y-97693161D01*
X101098322Y-97820003D01*
X101304013Y-97908415D01*
X101523000Y-97955000D01*
X101823000Y-97955000D01*
X101823000Y-96947000D01*
X102077000Y-96947000D01*
X102077000Y-97955000D01*
X102377000Y-97955000D01*
X102595987Y-97908415D01*
X102801678Y-97820003D01*
X102986169Y-97693161D01*
X103142369Y-97532764D01*
X103264276Y-97344976D01*
X103344119Y-97121874D01*
X104485881Y-97121874D01*
X104565724Y-97344976D01*
X104687631Y-97532764D01*
X104843831Y-97693161D01*
X105028322Y-97820003D01*
X105234013Y-97908415D01*
X105453000Y-97955000D01*
X106003000Y-97955000D01*
X106003000Y-96947000D01*
X106257000Y-96947000D01*
X106257000Y-97955000D01*
X106807000Y-97955000D01*
X107025987Y-97908415D01*
X107231678Y-97820003D01*
X107416169Y-97693161D01*
X107572369Y-97532764D01*
X107694276Y-97344976D01*
X107774119Y-97121874D01*
X107647954Y-96947000D01*
X106257000Y-96947000D01*
X106003000Y-96947000D01*
X104612046Y-96947000D01*
X104485881Y-97121874D01*
X103344119Y-97121874D01*
X103217954Y-96947000D01*
X102077000Y-96947000D01*
X101823000Y-96947000D01*
X101803000Y-96947000D01*
X101803000Y-96693000D01*
X101823000Y-96693000D01*
X101823000Y-95685000D01*
X102077000Y-95685000D01*
X102077000Y-96693000D01*
X103217954Y-96693000D01*
X103344119Y-96518126D01*
X103264276Y-96295024D01*
X103142369Y-96107236D01*
X102986169Y-95946839D01*
X102801678Y-95819997D01*
X102595987Y-95731585D01*
X102377000Y-95685000D01*
X102077000Y-95685000D01*
X101823000Y-95685000D01*
X101523000Y-95685000D01*
X101304013Y-95731585D01*
X101098322Y-95819997D01*
X100913831Y-95946839D01*
X100757631Y-96107236D01*
X100660000Y-96257629D01*
X100660000Y-88742371D01*
X100757631Y-88892764D01*
X100913831Y-89053161D01*
X101098322Y-89180003D01*
X101304013Y-89268415D01*
X101523000Y-89315000D01*
X101823000Y-89315000D01*
X101823000Y-88307000D01*
X102077000Y-88307000D01*
X102077000Y-89315000D01*
X102377000Y-89315000D01*
X102595987Y-89268415D01*
X102801678Y-89180003D01*
X102986169Y-89053161D01*
X103142369Y-88892764D01*
X103264276Y-88704976D01*
X103344119Y-88481874D01*
X103217954Y-88307000D01*
X102077000Y-88307000D01*
X101823000Y-88307000D01*
X101803000Y-88307000D01*
X101803000Y-88053000D01*
X101823000Y-88053000D01*
X101823000Y-87045000D01*
X102077000Y-87045000D01*
X102077000Y-88053000D01*
X103217954Y-88053000D01*
X103344119Y-87878126D01*
X104485881Y-87878126D01*
X104612046Y-88053000D01*
X106003000Y-88053000D01*
X106003000Y-87045000D01*
X106257000Y-87045000D01*
X106257000Y-88053000D01*
X107647954Y-88053000D01*
X107774119Y-87878126D01*
X107764054Y-87850000D01*
X108211928Y-87850000D01*
X108224188Y-87974482D01*
X108260498Y-88094180D01*
X108319463Y-88204494D01*
X108398815Y-88301185D01*
X108495506Y-88380537D01*
X108605820Y-88439502D01*
X108725518Y-88475812D01*
X108850000Y-88488072D01*
X109014250Y-88485000D01*
X109173000Y-88326250D01*
X109173000Y-87127000D01*
X109427000Y-87127000D01*
X109427000Y-88326250D01*
X109585750Y-88485000D01*
X109750000Y-88488072D01*
X109874482Y-88475812D01*
X109994180Y-88439502D01*
X110104494Y-88380537D01*
X110201185Y-88301185D01*
X110280537Y-88204494D01*
X110339502Y-88094180D01*
X110375812Y-87974482D01*
X110388072Y-87850000D01*
X110385000Y-87285750D01*
X110226250Y-87127000D01*
X109427000Y-87127000D01*
X109173000Y-87127000D01*
X108373750Y-87127000D01*
X108215000Y-87285750D01*
X108211928Y-87850000D01*
X107764054Y-87850000D01*
X107694276Y-87655024D01*
X107572369Y-87467236D01*
X107416169Y-87306839D01*
X107231678Y-87179997D01*
X107025987Y-87091585D01*
X106807000Y-87045000D01*
X106257000Y-87045000D01*
X106003000Y-87045000D01*
X105453000Y-87045000D01*
X105234013Y-87091585D01*
X105028322Y-87179997D01*
X104843831Y-87306839D01*
X104687631Y-87467236D01*
X104565724Y-87655024D01*
X104485881Y-87878126D01*
X103344119Y-87878126D01*
X103264276Y-87655024D01*
X103142369Y-87467236D01*
X102986169Y-87306839D01*
X102801678Y-87179997D01*
X102595987Y-87091585D01*
X102377000Y-87045000D01*
X102077000Y-87045000D01*
X101823000Y-87045000D01*
X101523000Y-87045000D01*
X101304013Y-87091585D01*
X101098322Y-87179997D01*
X100913831Y-87306839D01*
X100757631Y-87467236D01*
X100660000Y-87617629D01*
X100660000Y-85660000D01*
X108446111Y-85660000D01*
X108398815Y-85698815D01*
G37*
%TD.AperFunction*%
D24*
X115627000Y-97098000D02*
X115647000Y-97098000D01*
X115647000Y-97352000D01*
X115627000Y-97352000D01*
X115627000Y-97372000D01*
X115373000Y-97372000D01*
X115373000Y-97352000D01*
X115353000Y-97352000D01*
X115353000Y-97098000D01*
X115373000Y-97098000D01*
X115373000Y-97078000D01*
X115627000Y-97078000D01*
X115627000Y-97098000D01*
%TA.AperFunction,Conductor*%
D25*
G36*
X115627000Y-97098000D02*
G01*
X115647000Y-97098000D01*
X115647000Y-97352000D01*
X115627000Y-97352000D01*
X115627000Y-97372000D01*
X115373000Y-97372000D01*
X115373000Y-97352000D01*
X115353000Y-97352000D01*
X115353000Y-97098000D01*
X115373000Y-97098000D01*
X115373000Y-97078000D01*
X115627000Y-97078000D01*
X115627000Y-97098000D01*
G37*
%TD.AperFunction*%
D24*
X116311928Y-94400000D02*
X116324188Y-94524482D01*
X116360498Y-94644180D01*
X116419463Y-94754494D01*
X116498815Y-94851185D01*
X116595506Y-94930537D01*
X116705820Y-94989502D01*
X116825518Y-95025812D01*
X116950000Y-95038072D01*
X118448207Y-95038072D01*
X118396053Y-95090226D01*
X118282785Y-95259744D01*
X118204764Y-95448102D01*
X118164990Y-95648061D01*
X118164990Y-95723027D01*
X118152526Y-95738214D01*
X118081954Y-95870244D01*
X118073236Y-95898986D01*
X118038497Y-96013504D01*
X118037176Y-96026917D01*
X118000000Y-96057426D01*
X117907275Y-95981329D01*
X117759142Y-95902150D01*
X117598408Y-95853392D01*
X117431250Y-95836928D01*
X116993750Y-95836928D01*
X116826592Y-95853392D01*
X116665858Y-95902150D01*
X116517725Y-95981329D01*
X116387885Y-96087885D01*
X116281329Y-96217725D01*
X116280916Y-96218497D01*
X116219180Y-96185498D01*
X116099482Y-96149188D01*
X115975000Y-96136928D01*
X115785750Y-96140000D01*
X115627002Y-96298748D01*
X115627002Y-96140000D01*
X115585000Y-96140000D01*
X115585000Y-95973061D01*
X115545226Y-95773102D01*
X115467205Y-95584744D01*
X115353937Y-95415226D01*
X115209774Y-95271063D01*
X115040256Y-95157795D01*
X114851898Y-95079774D01*
X114651939Y-95040000D01*
X114589802Y-95040000D01*
X113838804Y-94289003D01*
X113815001Y-94259999D01*
X113699276Y-94165026D01*
X113567247Y-94094454D01*
X113423986Y-94050997D01*
X113312333Y-94040000D01*
X113312322Y-94040000D01*
X113286840Y-94037490D01*
X113275812Y-93925518D01*
X113239502Y-93805820D01*
X113180537Y-93695506D01*
X113143191Y-93650000D01*
X113180537Y-93604494D01*
X113239502Y-93494180D01*
X113275812Y-93374482D01*
X113287087Y-93260000D01*
X116311928Y-93260000D01*
X116311928Y-94400000D01*
%TA.AperFunction,Conductor*%
D25*
G36*
X116311928Y-94400000D02*
G01*
X116324188Y-94524482D01*
X116360498Y-94644180D01*
X116419463Y-94754494D01*
X116498815Y-94851185D01*
X116595506Y-94930537D01*
X116705820Y-94989502D01*
X116825518Y-95025812D01*
X116950000Y-95038072D01*
X118448207Y-95038072D01*
X118396053Y-95090226D01*
X118282785Y-95259744D01*
X118204764Y-95448102D01*
X118164990Y-95648061D01*
X118164990Y-95723027D01*
X118152526Y-95738214D01*
X118081954Y-95870244D01*
X118073236Y-95898986D01*
X118038497Y-96013504D01*
X118037176Y-96026917D01*
X118000000Y-96057426D01*
X117907275Y-95981329D01*
X117759142Y-95902150D01*
X117598408Y-95853392D01*
X117431250Y-95836928D01*
X116993750Y-95836928D01*
X116826592Y-95853392D01*
X116665858Y-95902150D01*
X116517725Y-95981329D01*
X116387885Y-96087885D01*
X116281329Y-96217725D01*
X116280916Y-96218497D01*
X116219180Y-96185498D01*
X116099482Y-96149188D01*
X115975000Y-96136928D01*
X115785750Y-96140000D01*
X115627002Y-96298748D01*
X115627002Y-96140000D01*
X115585000Y-96140000D01*
X115585000Y-95973061D01*
X115545226Y-95773102D01*
X115467205Y-95584744D01*
X115353937Y-95415226D01*
X115209774Y-95271063D01*
X115040256Y-95157795D01*
X114851898Y-95079774D01*
X114651939Y-95040000D01*
X114589802Y-95040000D01*
X113838804Y-94289003D01*
X113815001Y-94259999D01*
X113699276Y-94165026D01*
X113567247Y-94094454D01*
X113423986Y-94050997D01*
X113312333Y-94040000D01*
X113312322Y-94040000D01*
X113286840Y-94037490D01*
X113275812Y-93925518D01*
X113239502Y-93805820D01*
X113180537Y-93695506D01*
X113143191Y-93650000D01*
X113180537Y-93604494D01*
X113239502Y-93494180D01*
X113275812Y-93374482D01*
X113287087Y-93260000D01*
X116311928Y-93260000D01*
X116311928Y-94400000D01*
G37*
%TD.AperFunction*%
D24*
X128927000Y-95473000D02*
X128947000Y-95473000D01*
X128947000Y-95727000D01*
X128927000Y-95727000D01*
X128927000Y-95747000D01*
X128673000Y-95747000D01*
X128673000Y-95727000D01*
X128653000Y-95727000D01*
X128653000Y-95473000D01*
X128673000Y-95473000D01*
X128673000Y-95453000D01*
X128927000Y-95453000D01*
X128927000Y-95473000D01*
%TA.AperFunction,Conductor*%
D25*
G36*
X128927000Y-95473000D02*
G01*
X128947000Y-95473000D01*
X128947000Y-95727000D01*
X128927000Y-95727000D01*
X128927000Y-95747000D01*
X128673000Y-95747000D01*
X128673000Y-95727000D01*
X128653000Y-95727000D01*
X128653000Y-95473000D01*
X128673000Y-95473000D01*
X128673000Y-95453000D01*
X128927000Y-95453000D01*
X128927000Y-95473000D01*
G37*
%TD.AperFunction*%
D24*
X109627000Y-91148000D02*
X109647000Y-91148000D01*
X109647000Y-91402000D01*
X109627000Y-91402000D01*
X109627000Y-92201250D01*
X109642892Y-92217142D01*
X109603948Y-92290001D01*
X109594464Y-92307744D01*
X109551007Y-92451005D01*
X109540010Y-92562658D01*
X109540010Y-92562668D01*
X109536334Y-92599990D01*
X109540010Y-92637313D01*
X109540011Y-93872000D01*
X109373000Y-93872000D01*
X109373000Y-93852000D01*
X109353000Y-93852000D01*
X109353000Y-93598000D01*
X109373000Y-93598000D01*
X109373000Y-92798750D01*
X109214250Y-92640000D01*
X109025000Y-92636928D01*
X108900518Y-92649188D01*
X108855001Y-92662995D01*
X108855001Y-92377322D01*
X108858677Y-92339999D01*
X108858486Y-92338062D01*
X108900518Y-92350812D01*
X109025000Y-92363072D01*
X109214250Y-92360000D01*
X109373000Y-92201250D01*
X109373000Y-91402000D01*
X109353000Y-91402000D01*
X109353000Y-91148000D01*
X109373000Y-91148000D01*
X109373000Y-91128000D01*
X109627000Y-91128000D01*
X109627000Y-91148000D01*
%TA.AperFunction,Conductor*%
D25*
G36*
X109627000Y-91148000D02*
G01*
X109647000Y-91148000D01*
X109647000Y-91402000D01*
X109627000Y-91402000D01*
X109627000Y-92201250D01*
X109642892Y-92217142D01*
X109603948Y-92290001D01*
X109594464Y-92307744D01*
X109551007Y-92451005D01*
X109540010Y-92562658D01*
X109540010Y-92562668D01*
X109536334Y-92599990D01*
X109540010Y-92637313D01*
X109540011Y-93872000D01*
X109373000Y-93872000D01*
X109373000Y-93852000D01*
X109353000Y-93852000D01*
X109353000Y-93598000D01*
X109373000Y-93598000D01*
X109373000Y-92798750D01*
X109214250Y-92640000D01*
X109025000Y-92636928D01*
X108900518Y-92649188D01*
X108855001Y-92662995D01*
X108855001Y-92377322D01*
X108858677Y-92339999D01*
X108858486Y-92338062D01*
X108900518Y-92350812D01*
X109025000Y-92363072D01*
X109214250Y-92360000D01*
X109373000Y-92201250D01*
X109373000Y-91402000D01*
X109353000Y-91402000D01*
X109353000Y-91148000D01*
X109373000Y-91148000D01*
X109373000Y-91128000D01*
X109627000Y-91128000D01*
X109627000Y-91148000D01*
G37*
%TD.AperFunction*%
D24*
X121097000Y-92606928D02*
X120803000Y-92606928D01*
X120803000Y-92393072D01*
X121097000Y-92393072D01*
X121097000Y-92606928D01*
%TA.AperFunction,Conductor*%
D25*
G36*
X121097000Y-92606928D02*
G01*
X120803000Y-92606928D01*
X120803000Y-92393072D01*
X121097000Y-92393072D01*
X121097000Y-92606928D01*
G37*
%TD.AperFunction*%
D24*
X129340001Y-86286928D02*
X128125000Y-86286928D01*
X128000518Y-86299188D01*
X127880820Y-86335498D01*
X127770506Y-86394463D01*
X127673815Y-86473815D01*
X127594463Y-86570506D01*
X127535498Y-86680820D01*
X127499188Y-86800518D01*
X127486928Y-86925000D01*
X127486928Y-87423217D01*
X127459774Y-87396063D01*
X127290256Y-87282795D01*
X127101898Y-87204774D01*
X126901939Y-87165000D01*
X126839802Y-87165000D01*
X126663803Y-86989002D01*
X126640001Y-86959999D01*
X126548267Y-86884715D01*
X126539502Y-86855820D01*
X126480537Y-86745506D01*
X126401185Y-86648815D01*
X126304494Y-86569463D01*
X126194180Y-86510498D01*
X126074482Y-86474188D01*
X125950000Y-86461928D01*
X125050000Y-86461928D01*
X124925518Y-86474188D01*
X124805820Y-86510498D01*
X124695506Y-86569463D01*
X124598815Y-86648815D01*
X124588072Y-86661905D01*
X124588072Y-86150000D01*
X124575812Y-86025518D01*
X124539502Y-85905820D01*
X124480537Y-85795506D01*
X124401185Y-85698815D01*
X124353889Y-85660000D01*
X129340001Y-85660000D01*
X129340001Y-86286928D01*
%TA.AperFunction,Conductor*%
D25*
G36*
X129340001Y-86286928D02*
G01*
X128125000Y-86286928D01*
X128000518Y-86299188D01*
X127880820Y-86335498D01*
X127770506Y-86394463D01*
X127673815Y-86473815D01*
X127594463Y-86570506D01*
X127535498Y-86680820D01*
X127499188Y-86800518D01*
X127486928Y-86925000D01*
X127486928Y-87423217D01*
X127459774Y-87396063D01*
X127290256Y-87282795D01*
X127101898Y-87204774D01*
X126901939Y-87165000D01*
X126839802Y-87165000D01*
X126663803Y-86989002D01*
X126640001Y-86959999D01*
X126548267Y-86884715D01*
X126539502Y-86855820D01*
X126480537Y-86745506D01*
X126401185Y-86648815D01*
X126304494Y-86569463D01*
X126194180Y-86510498D01*
X126074482Y-86474188D01*
X125950000Y-86461928D01*
X125050000Y-86461928D01*
X124925518Y-86474188D01*
X124805820Y-86510498D01*
X124695506Y-86569463D01*
X124598815Y-86648815D01*
X124588072Y-86661905D01*
X124588072Y-86150000D01*
X124575812Y-86025518D01*
X124539502Y-85905820D01*
X124480537Y-85795506D01*
X124401185Y-85698815D01*
X124353889Y-85660000D01*
X129340001Y-85660000D01*
X129340001Y-86286928D01*
G37*
%TD.AperFunction*%
D24*
X120904284Y-85700722D02*
X120759392Y-85778169D01*
X120632394Y-85882394D01*
X120528169Y-86009392D01*
X120450722Y-86154284D01*
X120403031Y-86311500D01*
X120386928Y-86475000D01*
X120386928Y-86875000D01*
X120400717Y-87015000D01*
X116513284Y-87015000D01*
X116564502Y-86919180D01*
X116600812Y-86799482D01*
X116613072Y-86675000D01*
X116610000Y-86510750D01*
X116451250Y-86352000D01*
X115627000Y-86352000D01*
X115627000Y-86372000D01*
X115373000Y-86372000D01*
X115373000Y-86352000D01*
X115353000Y-86352000D01*
X115353000Y-86098000D01*
X115373000Y-86098000D01*
X115373000Y-86078000D01*
X115627000Y-86078000D01*
X115627000Y-86098000D01*
X116451250Y-86098000D01*
X116610000Y-85939250D01*
X116613072Y-85775000D01*
X116601746Y-85660000D01*
X121038526Y-85660000D01*
X120904284Y-85700722D01*
%TA.AperFunction,Conductor*%
D25*
G36*
X120904284Y-85700722D02*
G01*
X120759392Y-85778169D01*
X120632394Y-85882394D01*
X120528169Y-86009392D01*
X120450722Y-86154284D01*
X120403031Y-86311500D01*
X120386928Y-86475000D01*
X120386928Y-86875000D01*
X120400717Y-87015000D01*
X116513284Y-87015000D01*
X116564502Y-86919180D01*
X116600812Y-86799482D01*
X116613072Y-86675000D01*
X116610000Y-86510750D01*
X116451250Y-86352000D01*
X115627000Y-86352000D01*
X115627000Y-86372000D01*
X115373000Y-86372000D01*
X115373000Y-86352000D01*
X115353000Y-86352000D01*
X115353000Y-86098000D01*
X115373000Y-86098000D01*
X115373000Y-86078000D01*
X115627000Y-86078000D01*
X115627000Y-86098000D01*
X116451250Y-86098000D01*
X116610000Y-85939250D01*
X116613072Y-85775000D01*
X116601746Y-85660000D01*
X121038526Y-85660000D01*
X120904284Y-85700722D01*
G37*
%TD.AperFunction*%
%TD*%
D26*
X126800000Y-99000000D03*
X126800000Y-85800000D03*
X122074990Y-92500000D03*
X104500000Y-91475000D03*
X119650000Y-90300000D03*
X104500000Y-92525000D03*
X119712664Y-91712678D03*
X126800000Y-88200000D03*
X122074990Y-93600000D03*
X123600000Y-93600000D03*
X124575000Y-98825000D03*
X112474991Y-98000009D03*
X125500000Y-89500000D03*
X118499990Y-89500000D03*
X124600000Y-93600000D03*
X114550000Y-96075000D03*
X119199990Y-95750000D03*
X128800000Y-97600000D03*
X128800000Y-95600000D03*
X128800000Y-93600000D03*
X128800000Y-91600000D03*
X128800000Y-89600000D03*
X128800000Y-87600000D03*
D27*
X106130000Y-96820000D03*
X106130000Y-88180000D03*
D26*
X105600000Y-89610000D03*
D28*
X101950000Y-88180000D03*
D26*
X105600000Y-95390000D03*
D28*
X101950000Y-96820000D03*
M02*
