M48
; DRILL file {KiCad (5.1.8)-1} date 05/04/21 18:07:08
; FORMAT={-:-/ absolute / metric / decimal}
; #@! TF.CreationDate,2021-05-04T18:07:08+08:00
; #@! TF.GenerationSoftware,Kicad,Pcbnew,(5.1.8)-1
; #@! TF.FileFunction,Plated,1,2,PTH
FMAT,2
METRIC
T1C0.400
T2C0.600
T3C0.800
%
G90
G05
T1
X104.7Y-91.95
X104.7Y-92.95
X112.7Y-89.7
X113.2Y-95.85
X113.45Y-97.7
X113.6Y-86.65
X113.6Y-99.25
X114.7Y-97.7
X117.7Y-95.95
X118.7Y-87.95
X118.7Y-96.75
X119.7Y-92.45
X119.7Y-89.45
X119.7Y-95.05
X119.95Y-93.45
X119.95Y-98.2
X120.511Y-91.848
X125.45Y-97.95
X126.2Y-86.75
X127.9Y-98.95
X128.2Y-95.4
X128.2Y-92.95
X128.45Y-89.2
T3
X132.2Y-87.95
X132.2Y-89.95
X132.2Y-91.95
X132.2Y-93.95
X132.2Y-95.95
X132.2Y-97.95
T2
X98.45Y-88.63
X98.25Y-88.63
X98.05Y-88.63
X97.85Y-88.63
X98.45Y-97.27
X98.25Y-97.27
X98.05Y-97.27
X97.85Y-97.27
X102.88Y-88.63
X102.68Y-88.63
X102.48Y-88.63
X102.28Y-88.63
X102.08Y-88.63
X101.78Y-88.63
X102.88Y-97.27
X102.68Y-97.27
X102.48Y-97.27
X102.28Y-97.27
X102.08Y-97.27
X101.78Y-97.27
T0
M30
