%TF.GenerationSoftware,KiCad,Pcbnew,(5.1.8)-1*%
%TF.CreationDate,2020-12-30T11:25:41+08:00*%
%TF.ProjectId,downloader,646f776e-6c6f-4616-9465-722e6b696361,rev?*%
%TF.SameCoordinates,Original*%
%TF.FileFunction,Legend,Top*%
%TF.FilePolarity,Positive*%
%FSLAX46Y46*%
G04 Gerber Fmt 4.6, Leading zero omitted, Abs format (unit mm)*
G04 Created by KiCad (PCBNEW (5.1.8)-1) date 2020-12-30 11:25:41*
%MOMM*%
%LPD*%
G01*
G04 APERTURE LIST*
%ADD10C,0.150000*%
%ADD11C,0.120000*%
G04 APERTURE END LIST*
D10*
X104219047Y-87052380D02*
X104219047Y-86052380D01*
X104457142Y-86052380D01*
X104600000Y-86100000D01*
X104695238Y-86195238D01*
X104742857Y-86290476D01*
X104790476Y-86480952D01*
X104790476Y-86623809D01*
X104742857Y-86814285D01*
X104695238Y-86909523D01*
X104600000Y-87004761D01*
X104457142Y-87052380D01*
X104219047Y-87052380D01*
X105409523Y-86052380D02*
X105600000Y-86052380D01*
X105695238Y-86100000D01*
X105790476Y-86195238D01*
X105838095Y-86385714D01*
X105838095Y-86719047D01*
X105790476Y-86909523D01*
X105695238Y-87004761D01*
X105600000Y-87052380D01*
X105409523Y-87052380D01*
X105314285Y-87004761D01*
X105219047Y-86909523D01*
X105171428Y-86719047D01*
X105171428Y-86385714D01*
X105219047Y-86195238D01*
X105314285Y-86100000D01*
X105409523Y-86052380D01*
X106171428Y-86052380D02*
X106409523Y-87052380D01*
X106600000Y-86338095D01*
X106790476Y-87052380D01*
X107028571Y-86052380D01*
X107409523Y-87052380D02*
X107409523Y-86052380D01*
X107980952Y-87052380D01*
X107980952Y-86052380D01*
X103228571Y-99052380D02*
X102895238Y-98576190D01*
X102657142Y-99052380D02*
X102657142Y-98052380D01*
X103038095Y-98052380D01*
X103133333Y-98100000D01*
X103180952Y-98147619D01*
X103228571Y-98242857D01*
X103228571Y-98385714D01*
X103180952Y-98480952D01*
X103133333Y-98528571D01*
X103038095Y-98576190D01*
X102657142Y-98576190D01*
X103657142Y-98528571D02*
X103990476Y-98528571D01*
X104133333Y-99052380D02*
X103657142Y-99052380D01*
X103657142Y-98052380D01*
X104133333Y-98052380D01*
X104895238Y-98528571D02*
X105038095Y-98576190D01*
X105085714Y-98623809D01*
X105133333Y-98719047D01*
X105133333Y-98861904D01*
X105085714Y-98957142D01*
X105038095Y-99004761D01*
X104942857Y-99052380D01*
X104561904Y-99052380D01*
X104561904Y-98052380D01*
X104895238Y-98052380D01*
X104990476Y-98100000D01*
X105038095Y-98147619D01*
X105085714Y-98242857D01*
X105085714Y-98338095D01*
X105038095Y-98433333D01*
X104990476Y-98480952D01*
X104895238Y-98528571D01*
X104561904Y-98528571D01*
X105752380Y-98052380D02*
X105942857Y-98052380D01*
X106038095Y-98100000D01*
X106133333Y-98195238D01*
X106180952Y-98385714D01*
X106180952Y-98719047D01*
X106133333Y-98909523D01*
X106038095Y-99004761D01*
X105942857Y-99052380D01*
X105752380Y-99052380D01*
X105657142Y-99004761D01*
X105561904Y-98909523D01*
X105514285Y-98719047D01*
X105514285Y-98385714D01*
X105561904Y-98195238D01*
X105657142Y-98100000D01*
X105752380Y-98052380D01*
X106800000Y-98052380D02*
X106990476Y-98052380D01*
X107085714Y-98100000D01*
X107180952Y-98195238D01*
X107228571Y-98385714D01*
X107228571Y-98719047D01*
X107180952Y-98909523D01*
X107085714Y-99004761D01*
X106990476Y-99052380D01*
X106800000Y-99052380D01*
X106704761Y-99004761D01*
X106609523Y-98909523D01*
X106561904Y-98719047D01*
X106561904Y-98385714D01*
X106609523Y-98195238D01*
X106704761Y-98100000D01*
X106800000Y-98052380D01*
X107514285Y-98052380D02*
X108085714Y-98052380D01*
X107799999Y-99052380D02*
X107799999Y-98052380D01*
D11*
%TO.C,R1*%
X117762742Y-99247500D02*
X118237258Y-99247500D01*
X117762742Y-98202500D02*
X118237258Y-98202500D01*
%TO.C,D1*%
X116515000Y-97685000D02*
X118800000Y-97685000D01*
X116515000Y-96215000D02*
X116515000Y-97685000D01*
X118800000Y-96215000D02*
X116515000Y-96215000D01*
D10*
%TO.C,U2*%
X121430000Y-95070000D02*
X125570000Y-95070000D01*
X120500000Y-89930000D02*
X125570000Y-89930000D01*
D11*
%TO.C,U1*%
X116710000Y-95910000D02*
X116710000Y-94650000D01*
X116710000Y-89090000D02*
X116710000Y-90350000D01*
X112950000Y-95910000D02*
X116710000Y-95910000D01*
X110700000Y-89090000D02*
X116710000Y-89090000D01*
%TO.C,SW2*%
X113150000Y-96600000D02*
X113150000Y-96900000D01*
X109850000Y-96600000D02*
X113150000Y-96600000D01*
X109850000Y-96900000D02*
X109850000Y-96600000D01*
X113150000Y-99400000D02*
X113150000Y-99100000D01*
X109850000Y-99400000D02*
X113150000Y-99400000D01*
X109850000Y-99100000D02*
X109850000Y-99400000D01*
%TO.C,SW1*%
X113150000Y-85600000D02*
X113150000Y-85900000D01*
X109850000Y-85600000D02*
X113150000Y-85600000D01*
X109850000Y-85900000D02*
X109850000Y-85600000D01*
X113150000Y-88400000D02*
X113150000Y-88100000D01*
X109850000Y-88400000D02*
X113150000Y-88400000D01*
X109850000Y-88100000D02*
X109850000Y-88400000D01*
%TO.C,R3*%
X122047500Y-97087742D02*
X122047500Y-97562258D01*
X121002500Y-97087742D02*
X121002500Y-97562258D01*
%TO.C,R2*%
X122022500Y-87262742D02*
X122022500Y-87737258D01*
X120977500Y-87262742D02*
X120977500Y-87737258D01*
%TO.C,Q2*%
X125235000Y-99055000D02*
X125235000Y-98125000D01*
X125235000Y-95895000D02*
X125235000Y-96825000D01*
X125235000Y-95895000D02*
X123075000Y-95895000D01*
X125235000Y-99055000D02*
X123775000Y-99055000D01*
%TO.C,Q1*%
X125260000Y-89080000D02*
X125260000Y-88150000D01*
X125260000Y-85920000D02*
X125260000Y-86850000D01*
X125260000Y-85920000D02*
X123100000Y-85920000D01*
X125260000Y-89080000D02*
X123800000Y-89080000D01*
%TO.C,J2*%
X129685000Y-89440000D02*
X130310000Y-89440000D01*
X130310000Y-89440000D02*
X130310000Y-95560000D01*
X130310000Y-95560000D02*
X129394493Y-95560000D01*
X130310000Y-89790000D02*
X132310000Y-89790000D01*
X132310000Y-89790000D02*
X132310000Y-90210000D01*
X132310000Y-90210000D02*
X130310000Y-90210000D01*
X130310000Y-89850000D02*
X132310000Y-89850000D01*
X130310000Y-89970000D02*
X132310000Y-89970000D01*
X130310000Y-90090000D02*
X132310000Y-90090000D01*
X129685000Y-90500000D02*
X130310000Y-90500000D01*
X130310000Y-90790000D02*
X132310000Y-90790000D01*
X132310000Y-90790000D02*
X132310000Y-91210000D01*
X132310000Y-91210000D02*
X130310000Y-91210000D01*
X129468215Y-91500000D02*
X130310000Y-91500000D01*
X130310000Y-91790000D02*
X132310000Y-91790000D01*
X132310000Y-91790000D02*
X132310000Y-92210000D01*
X132310000Y-92210000D02*
X130310000Y-92210000D01*
X129468215Y-92500000D02*
X130310000Y-92500000D01*
X130310000Y-92790000D02*
X132310000Y-92790000D01*
X132310000Y-92790000D02*
X132310000Y-93210000D01*
X132310000Y-93210000D02*
X130310000Y-93210000D01*
X129468215Y-93500000D02*
X130310000Y-93500000D01*
X130310000Y-93790000D02*
X132310000Y-93790000D01*
X132310000Y-93790000D02*
X132310000Y-94210000D01*
X132310000Y-94210000D02*
X130310000Y-94210000D01*
X129468215Y-94500000D02*
X130310000Y-94500000D01*
X130310000Y-94790000D02*
X132310000Y-94790000D01*
X132310000Y-94790000D02*
X132310000Y-95210000D01*
X132310000Y-95210000D02*
X130310000Y-95210000D01*
X128315000Y-90000000D02*
X128315000Y-89315000D01*
X128315000Y-89315000D02*
X129000000Y-89315000D01*
%TO.C,J1*%
X101000000Y-87800000D02*
X99100000Y-87800000D01*
X104900000Y-87800000D02*
X102900000Y-87800000D01*
X101000000Y-97200000D02*
X99100000Y-97200000D01*
X104900000Y-97200000D02*
X102900000Y-97200000D01*
X99100000Y-87800000D02*
X99100000Y-97200000D01*
%TO.C,C4*%
X114990000Y-98140580D02*
X114990000Y-97859420D01*
X116010000Y-98140580D02*
X116010000Y-97859420D01*
%TO.C,C2*%
X114990000Y-87140580D02*
X114990000Y-86859420D01*
X116010000Y-87140580D02*
X116010000Y-86859420D01*
%TO.C,C3*%
X108990000Y-94640580D02*
X108990000Y-94359420D01*
X110010000Y-94640580D02*
X110010000Y-94359420D01*
%TO.C,C1*%
X110010000Y-90359420D02*
X110010000Y-90640580D01*
X108990000Y-90359420D02*
X108990000Y-90640580D01*
%TD*%
M02*
