%TF.GenerationSoftware,KiCad,Pcbnew,(5.1.8)-1*%
%TF.CreationDate,2020-12-30T11:25:41+08:00*%
%TF.ProjectId,downloader,646f776e-6c6f-4616-9465-722e6b696361,rev?*%
%TF.SameCoordinates,Original*%
%TF.FileFunction,Soldermask,Top*%
%TF.FilePolarity,Negative*%
%FSLAX46Y46*%
G04 Gerber Fmt 4.6, Leading zero omitted, Abs format (unit mm)*
G04 Created by KiCad (PCBNEW (5.1.8)-1) date 2020-12-30 11:25:41*
%MOMM*%
%LPD*%
G01*
G04 APERTURE LIST*
%ADD10O,0.950000X0.950000*%
%ADD11O,2.200000X1.100000*%
%ADD12C,0.750000*%
%ADD13O,1.700000X1.100000*%
G04 APERTURE END LIST*
%TO.C,R1*%
G36*
G01*
X118375000Y-99025000D02*
X118375000Y-98425000D01*
G75*
G02*
X118600000Y-98200000I225000J0D01*
G01*
X119050000Y-98200000D01*
G75*
G02*
X119275000Y-98425000I0J-225000D01*
G01*
X119275000Y-99025000D01*
G75*
G02*
X119050000Y-99250000I-225000J0D01*
G01*
X118600000Y-99250000D01*
G75*
G02*
X118375000Y-99025000I0J225000D01*
G01*
G37*
G36*
G01*
X116725000Y-99025000D02*
X116725000Y-98425000D01*
G75*
G02*
X116950000Y-98200000I225000J0D01*
G01*
X117400000Y-98200000D01*
G75*
G02*
X117625000Y-98425000I0J-225000D01*
G01*
X117625000Y-99025000D01*
G75*
G02*
X117400000Y-99250000I-225000J0D01*
G01*
X116950000Y-99250000D01*
G75*
G02*
X116725000Y-99025000I0J225000D01*
G01*
G37*
%TD*%
%TO.C,D1*%
G36*
G01*
X118300000Y-97231250D02*
X118300000Y-96668750D01*
G75*
G02*
X118543750Y-96425000I243750J0D01*
G01*
X119031250Y-96425000D01*
G75*
G02*
X119275000Y-96668750I0J-243750D01*
G01*
X119275000Y-97231250D01*
G75*
G02*
X119031250Y-97475000I-243750J0D01*
G01*
X118543750Y-97475000D01*
G75*
G02*
X118300000Y-97231250I0J243750D01*
G01*
G37*
G36*
G01*
X116725000Y-97231250D02*
X116725000Y-96668750D01*
G75*
G02*
X116968750Y-96425000I243750J0D01*
G01*
X117456250Y-96425000D01*
G75*
G02*
X117700000Y-96668750I0J-243750D01*
G01*
X117700000Y-97231250D01*
G75*
G02*
X117456250Y-97475000I-243750J0D01*
G01*
X116968750Y-97475000D01*
G75*
G02*
X116725000Y-97231250I0J243750D01*
G01*
G37*
%TD*%
%TO.C,U2*%
G36*
G01*
X125450000Y-90755001D02*
X125450000Y-90244999D01*
G75*
G02*
X125499999Y-90195000I49999J0D01*
G01*
X126600001Y-90195000D01*
G75*
G02*
X126650000Y-90244999I0J-49999D01*
G01*
X126650000Y-90755001D01*
G75*
G02*
X126600001Y-90805000I-49999J0D01*
G01*
X125499999Y-90805000D01*
G75*
G02*
X125450000Y-90755001I0J49999D01*
G01*
G37*
G36*
G01*
X125450000Y-91755001D02*
X125450000Y-91244999D01*
G75*
G02*
X125499999Y-91195000I49999J0D01*
G01*
X126600001Y-91195000D01*
G75*
G02*
X126650000Y-91244999I0J-49999D01*
G01*
X126650000Y-91755001D01*
G75*
G02*
X126600001Y-91805000I-49999J0D01*
G01*
X125499999Y-91805000D01*
G75*
G02*
X125450000Y-91755001I0J49999D01*
G01*
G37*
G36*
G01*
X120350000Y-94755001D02*
X120350000Y-94244999D01*
G75*
G02*
X120399999Y-94195000I49999J0D01*
G01*
X121500001Y-94195000D01*
G75*
G02*
X121550000Y-94244999I0J-49999D01*
G01*
X121550000Y-94755001D01*
G75*
G02*
X121500001Y-94805000I-49999J0D01*
G01*
X120399999Y-94805000D01*
G75*
G02*
X120350000Y-94755001I0J49999D01*
G01*
G37*
G36*
G01*
X125450000Y-92755001D02*
X125450000Y-92244999D01*
G75*
G02*
X125499999Y-92195000I49999J0D01*
G01*
X126600001Y-92195000D01*
G75*
G02*
X126650000Y-92244999I0J-49999D01*
G01*
X126650000Y-92755001D01*
G75*
G02*
X126600001Y-92805000I-49999J0D01*
G01*
X125499999Y-92805000D01*
G75*
G02*
X125450000Y-92755001I0J49999D01*
G01*
G37*
G36*
G01*
X125450000Y-93755001D02*
X125450000Y-93244999D01*
G75*
G02*
X125499999Y-93195000I49999J0D01*
G01*
X126600001Y-93195000D01*
G75*
G02*
X126650000Y-93244999I0J-49999D01*
G01*
X126650000Y-93755001D01*
G75*
G02*
X126600001Y-93805000I-49999J0D01*
G01*
X125499999Y-93805000D01*
G75*
G02*
X125450000Y-93755001I0J49999D01*
G01*
G37*
G36*
G01*
X125450000Y-94755001D02*
X125450000Y-94244999D01*
G75*
G02*
X125499999Y-94195000I49999J0D01*
G01*
X126600001Y-94195000D01*
G75*
G02*
X126650000Y-94244999I0J-49999D01*
G01*
X126650000Y-94755001D01*
G75*
G02*
X126600001Y-94805000I-49999J0D01*
G01*
X125499999Y-94805000D01*
G75*
G02*
X125450000Y-94755001I0J49999D01*
G01*
G37*
G36*
G01*
X120350000Y-93755001D02*
X120350000Y-93244999D01*
G75*
G02*
X120399999Y-93195000I49999J0D01*
G01*
X121500001Y-93195000D01*
G75*
G02*
X121550000Y-93244999I0J-49999D01*
G01*
X121550000Y-93755001D01*
G75*
G02*
X121500001Y-93805000I-49999J0D01*
G01*
X120399999Y-93805000D01*
G75*
G02*
X120350000Y-93755001I0J49999D01*
G01*
G37*
G36*
G01*
X120350000Y-92755001D02*
X120350000Y-92244999D01*
G75*
G02*
X120399999Y-92195000I49999J0D01*
G01*
X121500001Y-92195000D01*
G75*
G02*
X121550000Y-92244999I0J-49999D01*
G01*
X121550000Y-92755001D01*
G75*
G02*
X121500001Y-92805000I-49999J0D01*
G01*
X120399999Y-92805000D01*
G75*
G02*
X120350000Y-92755001I0J49999D01*
G01*
G37*
G36*
G01*
X120350000Y-91755001D02*
X120350000Y-91244999D01*
G75*
G02*
X120399999Y-91195000I49999J0D01*
G01*
X121500001Y-91195000D01*
G75*
G02*
X121550000Y-91244999I0J-49999D01*
G01*
X121550000Y-91755001D01*
G75*
G02*
X121500001Y-91805000I-49999J0D01*
G01*
X120399999Y-91805000D01*
G75*
G02*
X120350000Y-91755001I0J49999D01*
G01*
G37*
G36*
G01*
X120350000Y-90755001D02*
X120350000Y-90244999D01*
G75*
G02*
X120399999Y-90195000I49999J0D01*
G01*
X121500001Y-90195000D01*
G75*
G02*
X121550000Y-90244999I0J-49999D01*
G01*
X121550000Y-90755001D01*
G75*
G02*
X121500001Y-90805000I-49999J0D01*
G01*
X120399999Y-90805000D01*
G75*
G02*
X120350000Y-90755001I0J49999D01*
G01*
G37*
%TD*%
%TO.C,U1*%
G36*
G01*
X110600000Y-90950000D02*
X110600000Y-89450000D01*
G75*
G02*
X110650000Y-89400000I50000J0D01*
G01*
X112650000Y-89400000D01*
G75*
G02*
X112700000Y-89450000I0J-50000D01*
G01*
X112700000Y-90950000D01*
G75*
G02*
X112650000Y-91000000I-50000J0D01*
G01*
X110650000Y-91000000D01*
G75*
G02*
X110600000Y-90950000I0J50000D01*
G01*
G37*
G36*
G01*
X110600000Y-95550000D02*
X110600000Y-94050000D01*
G75*
G02*
X110650000Y-94000000I50000J0D01*
G01*
X112650000Y-94000000D01*
G75*
G02*
X112700000Y-94050000I0J-50000D01*
G01*
X112700000Y-95550000D01*
G75*
G02*
X112650000Y-95600000I-50000J0D01*
G01*
X110650000Y-95600000D01*
G75*
G02*
X110600000Y-95550000I0J50000D01*
G01*
G37*
G36*
G01*
X110600000Y-93250000D02*
X110600000Y-91750000D01*
G75*
G02*
X110650000Y-91700000I50000J0D01*
G01*
X112650000Y-91700000D01*
G75*
G02*
X112700000Y-91750000I0J-50000D01*
G01*
X112700000Y-93250000D01*
G75*
G02*
X112650000Y-93300000I-50000J0D01*
G01*
X110650000Y-93300000D01*
G75*
G02*
X110600000Y-93250000I0J50000D01*
G01*
G37*
G36*
G01*
X116900000Y-94400000D02*
X116900000Y-90600000D01*
G75*
G02*
X116950000Y-90550000I50000J0D01*
G01*
X118950000Y-90550000D01*
G75*
G02*
X119000000Y-90600000I0J-50000D01*
G01*
X119000000Y-94400000D01*
G75*
G02*
X118950000Y-94450000I-50000J0D01*
G01*
X116950000Y-94450000D01*
G75*
G02*
X116900000Y-94400000I0J50000D01*
G01*
G37*
%TD*%
%TO.C,SW2*%
G36*
G01*
X113200000Y-98850000D02*
X113200000Y-97150000D01*
G75*
G02*
X113250000Y-97100000I50000J0D01*
G01*
X114150000Y-97100000D01*
G75*
G02*
X114200000Y-97150000I0J-50000D01*
G01*
X114200000Y-98850000D01*
G75*
G02*
X114150000Y-98900000I-50000J0D01*
G01*
X113250000Y-98900000D01*
G75*
G02*
X113200000Y-98850000I0J50000D01*
G01*
G37*
G36*
G01*
X108800000Y-98850000D02*
X108800000Y-97150000D01*
G75*
G02*
X108850000Y-97100000I50000J0D01*
G01*
X109750000Y-97100000D01*
G75*
G02*
X109800000Y-97150000I0J-50000D01*
G01*
X109800000Y-98850000D01*
G75*
G02*
X109750000Y-98900000I-50000J0D01*
G01*
X108850000Y-98900000D01*
G75*
G02*
X108800000Y-98850000I0J50000D01*
G01*
G37*
%TD*%
%TO.C,SW1*%
G36*
G01*
X113200000Y-87850000D02*
X113200000Y-86150000D01*
G75*
G02*
X113250000Y-86100000I50000J0D01*
G01*
X114150000Y-86100000D01*
G75*
G02*
X114200000Y-86150000I0J-50000D01*
G01*
X114200000Y-87850000D01*
G75*
G02*
X114150000Y-87900000I-50000J0D01*
G01*
X113250000Y-87900000D01*
G75*
G02*
X113200000Y-87850000I0J50000D01*
G01*
G37*
G36*
G01*
X108800000Y-87850000D02*
X108800000Y-86150000D01*
G75*
G02*
X108850000Y-86100000I50000J0D01*
G01*
X109750000Y-86100000D01*
G75*
G02*
X109800000Y-86150000I0J-50000D01*
G01*
X109800000Y-87850000D01*
G75*
G02*
X109750000Y-87900000I-50000J0D01*
G01*
X108850000Y-87900000D01*
G75*
G02*
X108800000Y-87850000I0J50000D01*
G01*
G37*
%TD*%
%TO.C,R3*%
G36*
G01*
X121225000Y-97700000D02*
X121825000Y-97700000D01*
G75*
G02*
X122050000Y-97925000I0J-225000D01*
G01*
X122050000Y-98375000D01*
G75*
G02*
X121825000Y-98600000I-225000J0D01*
G01*
X121225000Y-98600000D01*
G75*
G02*
X121000000Y-98375000I0J225000D01*
G01*
X121000000Y-97925000D01*
G75*
G02*
X121225000Y-97700000I225000J0D01*
G01*
G37*
G36*
G01*
X121225000Y-96050000D02*
X121825000Y-96050000D01*
G75*
G02*
X122050000Y-96275000I0J-225000D01*
G01*
X122050000Y-96725000D01*
G75*
G02*
X121825000Y-96950000I-225000J0D01*
G01*
X121225000Y-96950000D01*
G75*
G02*
X121000000Y-96725000I0J225000D01*
G01*
X121000000Y-96275000D01*
G75*
G02*
X121225000Y-96050000I225000J0D01*
G01*
G37*
%TD*%
%TO.C,R2*%
G36*
G01*
X121200000Y-87875000D02*
X121800000Y-87875000D01*
G75*
G02*
X122025000Y-88100000I0J-225000D01*
G01*
X122025000Y-88550000D01*
G75*
G02*
X121800000Y-88775000I-225000J0D01*
G01*
X121200000Y-88775000D01*
G75*
G02*
X120975000Y-88550000I0J225000D01*
G01*
X120975000Y-88100000D01*
G75*
G02*
X121200000Y-87875000I225000J0D01*
G01*
G37*
G36*
G01*
X121200000Y-86225000D02*
X121800000Y-86225000D01*
G75*
G02*
X122025000Y-86450000I0J-225000D01*
G01*
X122025000Y-86900000D01*
G75*
G02*
X121800000Y-87125000I-225000J0D01*
G01*
X121200000Y-87125000D01*
G75*
G02*
X120975000Y-86900000I0J225000D01*
G01*
X120975000Y-86450000D01*
G75*
G02*
X121200000Y-86225000I225000J0D01*
G01*
G37*
%TD*%
%TO.C,Q2*%
G36*
G01*
X124975000Y-97875000D02*
X124975000Y-97075000D01*
G75*
G02*
X125025000Y-97025000I50000J0D01*
G01*
X125925000Y-97025000D01*
G75*
G02*
X125975000Y-97075000I0J-50000D01*
G01*
X125975000Y-97875000D01*
G75*
G02*
X125925000Y-97925000I-50000J0D01*
G01*
X125025000Y-97925000D01*
G75*
G02*
X124975000Y-97875000I0J50000D01*
G01*
G37*
G36*
G01*
X122975000Y-98825000D02*
X122975000Y-98025000D01*
G75*
G02*
X123025000Y-97975000I50000J0D01*
G01*
X123925000Y-97975000D01*
G75*
G02*
X123975000Y-98025000I0J-50000D01*
G01*
X123975000Y-98825000D01*
G75*
G02*
X123925000Y-98875000I-50000J0D01*
G01*
X123025000Y-98875000D01*
G75*
G02*
X122975000Y-98825000I0J50000D01*
G01*
G37*
G36*
G01*
X122975000Y-96925000D02*
X122975000Y-96125000D01*
G75*
G02*
X123025000Y-96075000I50000J0D01*
G01*
X123925000Y-96075000D01*
G75*
G02*
X123975000Y-96125000I0J-50000D01*
G01*
X123975000Y-96925000D01*
G75*
G02*
X123925000Y-96975000I-50000J0D01*
G01*
X123025000Y-96975000D01*
G75*
G02*
X122975000Y-96925000I0J50000D01*
G01*
G37*
%TD*%
%TO.C,Q1*%
G36*
G01*
X125000000Y-87900000D02*
X125000000Y-87100000D01*
G75*
G02*
X125050000Y-87050000I50000J0D01*
G01*
X125950000Y-87050000D01*
G75*
G02*
X126000000Y-87100000I0J-50000D01*
G01*
X126000000Y-87900000D01*
G75*
G02*
X125950000Y-87950000I-50000J0D01*
G01*
X125050000Y-87950000D01*
G75*
G02*
X125000000Y-87900000I0J50000D01*
G01*
G37*
G36*
G01*
X123000000Y-88850000D02*
X123000000Y-88050000D01*
G75*
G02*
X123050000Y-88000000I50000J0D01*
G01*
X123950000Y-88000000D01*
G75*
G02*
X124000000Y-88050000I0J-50000D01*
G01*
X124000000Y-88850000D01*
G75*
G02*
X123950000Y-88900000I-50000J0D01*
G01*
X123050000Y-88900000D01*
G75*
G02*
X123000000Y-88850000I0J50000D01*
G01*
G37*
G36*
G01*
X123000000Y-86950000D02*
X123000000Y-86150000D01*
G75*
G02*
X123050000Y-86100000I50000J0D01*
G01*
X123950000Y-86100000D01*
G75*
G02*
X124000000Y-86150000I0J-50000D01*
G01*
X124000000Y-86950000D01*
G75*
G02*
X123950000Y-87000000I-50000J0D01*
G01*
X123050000Y-87000000D01*
G75*
G02*
X123000000Y-86950000I0J50000D01*
G01*
G37*
%TD*%
D10*
%TO.C,J2*%
X129000000Y-95000000D03*
X129000000Y-94000000D03*
X129000000Y-93000000D03*
X129000000Y-92000000D03*
X129000000Y-91000000D03*
G36*
G01*
X128525000Y-90425000D02*
X128525000Y-89575000D01*
G75*
G02*
X128575000Y-89525000I50000J0D01*
G01*
X129425000Y-89525000D01*
G75*
G02*
X129475000Y-89575000I0J-50000D01*
G01*
X129475000Y-90425000D01*
G75*
G02*
X129425000Y-90475000I-50000J0D01*
G01*
X128575000Y-90475000D01*
G75*
G02*
X128525000Y-90425000I0J50000D01*
G01*
G37*
%TD*%
%TO.C,J1*%
G36*
G01*
X106320000Y-95400000D02*
X107770000Y-95400000D01*
G75*
G02*
X107820000Y-95450000I0J-50000D01*
G01*
X107820000Y-96050000D01*
G75*
G02*
X107770000Y-96100000I-50000J0D01*
G01*
X106320000Y-96100000D01*
G75*
G02*
X106270000Y-96050000I0J50000D01*
G01*
X106270000Y-95450000D01*
G75*
G02*
X106320000Y-95400000I50000J0D01*
G01*
G37*
G36*
G01*
X106320000Y-94600000D02*
X107770000Y-94600000D01*
G75*
G02*
X107820000Y-94650000I0J-50000D01*
G01*
X107820000Y-95250000D01*
G75*
G02*
X107770000Y-95300000I-50000J0D01*
G01*
X106320000Y-95300000D01*
G75*
G02*
X106270000Y-95250000I0J50000D01*
G01*
X106270000Y-94650000D01*
G75*
G02*
X106320000Y-94600000I50000J0D01*
G01*
G37*
G36*
G01*
X106320000Y-89700000D02*
X107770000Y-89700000D01*
G75*
G02*
X107820000Y-89750000I0J-50000D01*
G01*
X107820000Y-90350000D01*
G75*
G02*
X107770000Y-90400000I-50000J0D01*
G01*
X106320000Y-90400000D01*
G75*
G02*
X106270000Y-90350000I0J50000D01*
G01*
X106270000Y-89750000D01*
G75*
G02*
X106320000Y-89700000I50000J0D01*
G01*
G37*
G36*
G01*
X106320000Y-88900000D02*
X107770000Y-88900000D01*
G75*
G02*
X107820000Y-88950000I0J-50000D01*
G01*
X107820000Y-89550000D01*
G75*
G02*
X107770000Y-89600000I-50000J0D01*
G01*
X106320000Y-89600000D01*
G75*
G02*
X106270000Y-89550000I0J50000D01*
G01*
X106270000Y-88950000D01*
G75*
G02*
X106320000Y-88900000I50000J0D01*
G01*
G37*
G36*
G01*
X106320000Y-88900000D02*
X107770000Y-88900000D01*
G75*
G02*
X107820000Y-88950000I0J-50000D01*
G01*
X107820000Y-89550000D01*
G75*
G02*
X107770000Y-89600000I-50000J0D01*
G01*
X106320000Y-89600000D01*
G75*
G02*
X106270000Y-89550000I0J50000D01*
G01*
X106270000Y-88950000D01*
G75*
G02*
X106320000Y-88900000I50000J0D01*
G01*
G37*
G36*
G01*
X106320000Y-89700000D02*
X107770000Y-89700000D01*
G75*
G02*
X107820000Y-89750000I0J-50000D01*
G01*
X107820000Y-90350000D01*
G75*
G02*
X107770000Y-90400000I-50000J0D01*
G01*
X106320000Y-90400000D01*
G75*
G02*
X106270000Y-90350000I0J50000D01*
G01*
X106270000Y-89750000D01*
G75*
G02*
X106320000Y-89700000I50000J0D01*
G01*
G37*
G36*
G01*
X106320000Y-94600000D02*
X107770000Y-94600000D01*
G75*
G02*
X107820000Y-94650000I0J-50000D01*
G01*
X107820000Y-95250000D01*
G75*
G02*
X107770000Y-95300000I-50000J0D01*
G01*
X106320000Y-95300000D01*
G75*
G02*
X106270000Y-95250000I0J50000D01*
G01*
X106270000Y-94650000D01*
G75*
G02*
X106320000Y-94600000I50000J0D01*
G01*
G37*
G36*
G01*
X106320000Y-95400000D02*
X107770000Y-95400000D01*
G75*
G02*
X107820000Y-95450000I0J-50000D01*
G01*
X107820000Y-96050000D01*
G75*
G02*
X107770000Y-96100000I-50000J0D01*
G01*
X106320000Y-96100000D01*
G75*
G02*
X106270000Y-96050000I0J50000D01*
G01*
X106270000Y-95450000D01*
G75*
G02*
X106320000Y-95400000I50000J0D01*
G01*
G37*
G36*
G01*
X106320000Y-90550000D02*
X107770000Y-90550000D01*
G75*
G02*
X107820000Y-90600000I0J-50000D01*
G01*
X107820000Y-90900000D01*
G75*
G02*
X107770000Y-90950000I-50000J0D01*
G01*
X106320000Y-90950000D01*
G75*
G02*
X106270000Y-90900000I0J50000D01*
G01*
X106270000Y-90600000D01*
G75*
G02*
X106320000Y-90550000I50000J0D01*
G01*
G37*
G36*
G01*
X106320000Y-91050000D02*
X107770000Y-91050000D01*
G75*
G02*
X107820000Y-91100000I0J-50000D01*
G01*
X107820000Y-91400000D01*
G75*
G02*
X107770000Y-91450000I-50000J0D01*
G01*
X106320000Y-91450000D01*
G75*
G02*
X106270000Y-91400000I0J50000D01*
G01*
X106270000Y-91100000D01*
G75*
G02*
X106320000Y-91050000I50000J0D01*
G01*
G37*
G36*
G01*
X106320000Y-91550000D02*
X107770000Y-91550000D01*
G75*
G02*
X107820000Y-91600000I0J-50000D01*
G01*
X107820000Y-91900000D01*
G75*
G02*
X107770000Y-91950000I-50000J0D01*
G01*
X106320000Y-91950000D01*
G75*
G02*
X106270000Y-91900000I0J50000D01*
G01*
X106270000Y-91600000D01*
G75*
G02*
X106320000Y-91550000I50000J0D01*
G01*
G37*
G36*
G01*
X106320000Y-92550000D02*
X107770000Y-92550000D01*
G75*
G02*
X107820000Y-92600000I0J-50000D01*
G01*
X107820000Y-92900000D01*
G75*
G02*
X107770000Y-92950000I-50000J0D01*
G01*
X106320000Y-92950000D01*
G75*
G02*
X106270000Y-92900000I0J50000D01*
G01*
X106270000Y-92600000D01*
G75*
G02*
X106320000Y-92550000I50000J0D01*
G01*
G37*
G36*
G01*
X106320000Y-93050000D02*
X107770000Y-93050000D01*
G75*
G02*
X107820000Y-93100000I0J-50000D01*
G01*
X107820000Y-93400000D01*
G75*
G02*
X107770000Y-93450000I-50000J0D01*
G01*
X106320000Y-93450000D01*
G75*
G02*
X106270000Y-93400000I0J50000D01*
G01*
X106270000Y-93100000D01*
G75*
G02*
X106320000Y-93050000I50000J0D01*
G01*
G37*
G36*
G01*
X106320000Y-93550000D02*
X107770000Y-93550000D01*
G75*
G02*
X107820000Y-93600000I0J-50000D01*
G01*
X107820000Y-93900000D01*
G75*
G02*
X107770000Y-93950000I-50000J0D01*
G01*
X106320000Y-93950000D01*
G75*
G02*
X106270000Y-93900000I0J50000D01*
G01*
X106270000Y-93600000D01*
G75*
G02*
X106320000Y-93550000I50000J0D01*
G01*
G37*
G36*
G01*
X106320000Y-94050000D02*
X107770000Y-94050000D01*
G75*
G02*
X107820000Y-94100000I0J-50000D01*
G01*
X107820000Y-94400000D01*
G75*
G02*
X107770000Y-94450000I-50000J0D01*
G01*
X106320000Y-94450000D01*
G75*
G02*
X106270000Y-94400000I0J50000D01*
G01*
X106270000Y-94100000D01*
G75*
G02*
X106320000Y-94050000I50000J0D01*
G01*
G37*
G36*
G01*
X106320000Y-92050000D02*
X107770000Y-92050000D01*
G75*
G02*
X107820000Y-92100000I0J-50000D01*
G01*
X107820000Y-92400000D01*
G75*
G02*
X107770000Y-92450000I-50000J0D01*
G01*
X106320000Y-92450000D01*
G75*
G02*
X106270000Y-92400000I0J50000D01*
G01*
X106270000Y-92100000D01*
G75*
G02*
X106320000Y-92050000I50000J0D01*
G01*
G37*
D11*
X106130000Y-96820000D03*
X106130000Y-88180000D03*
D12*
X105600000Y-89610000D03*
D13*
X101950000Y-88180000D03*
D12*
X105600000Y-95390000D03*
D13*
X101950000Y-96820000D03*
%TD*%
%TO.C,C4*%
G36*
G01*
X115775000Y-97725000D02*
X115225000Y-97725000D01*
G75*
G02*
X114975000Y-97475000I0J250000D01*
G01*
X114975000Y-96975000D01*
G75*
G02*
X115225000Y-96725000I250000J0D01*
G01*
X115775000Y-96725000D01*
G75*
G02*
X116025000Y-96975000I0J-250000D01*
G01*
X116025000Y-97475000D01*
G75*
G02*
X115775000Y-97725000I-250000J0D01*
G01*
G37*
G36*
G01*
X115775000Y-99275000D02*
X115225000Y-99275000D01*
G75*
G02*
X114975000Y-99025000I0J250000D01*
G01*
X114975000Y-98525000D01*
G75*
G02*
X115225000Y-98275000I250000J0D01*
G01*
X115775000Y-98275000D01*
G75*
G02*
X116025000Y-98525000I0J-250000D01*
G01*
X116025000Y-99025000D01*
G75*
G02*
X115775000Y-99275000I-250000J0D01*
G01*
G37*
%TD*%
%TO.C,C2*%
G36*
G01*
X115775000Y-86725000D02*
X115225000Y-86725000D01*
G75*
G02*
X114975000Y-86475000I0J250000D01*
G01*
X114975000Y-85975000D01*
G75*
G02*
X115225000Y-85725000I250000J0D01*
G01*
X115775000Y-85725000D01*
G75*
G02*
X116025000Y-85975000I0J-250000D01*
G01*
X116025000Y-86475000D01*
G75*
G02*
X115775000Y-86725000I-250000J0D01*
G01*
G37*
G36*
G01*
X115775000Y-88275000D02*
X115225000Y-88275000D01*
G75*
G02*
X114975000Y-88025000I0J250000D01*
G01*
X114975000Y-87525000D01*
G75*
G02*
X115225000Y-87275000I250000J0D01*
G01*
X115775000Y-87275000D01*
G75*
G02*
X116025000Y-87525000I0J-250000D01*
G01*
X116025000Y-88025000D01*
G75*
G02*
X115775000Y-88275000I-250000J0D01*
G01*
G37*
%TD*%
%TO.C,C3*%
G36*
G01*
X109775000Y-94225000D02*
X109225000Y-94225000D01*
G75*
G02*
X108975000Y-93975000I0J250000D01*
G01*
X108975000Y-93475000D01*
G75*
G02*
X109225000Y-93225000I250000J0D01*
G01*
X109775000Y-93225000D01*
G75*
G02*
X110025000Y-93475000I0J-250000D01*
G01*
X110025000Y-93975000D01*
G75*
G02*
X109775000Y-94225000I-250000J0D01*
G01*
G37*
G36*
G01*
X109775000Y-95775000D02*
X109225000Y-95775000D01*
G75*
G02*
X108975000Y-95525000I0J250000D01*
G01*
X108975000Y-95025000D01*
G75*
G02*
X109225000Y-94775000I250000J0D01*
G01*
X109775000Y-94775000D01*
G75*
G02*
X110025000Y-95025000I0J-250000D01*
G01*
X110025000Y-95525000D01*
G75*
G02*
X109775000Y-95775000I-250000J0D01*
G01*
G37*
%TD*%
%TO.C,C1*%
G36*
G01*
X109225000Y-90775000D02*
X109775000Y-90775000D01*
G75*
G02*
X110025000Y-91025000I0J-250000D01*
G01*
X110025000Y-91525000D01*
G75*
G02*
X109775000Y-91775000I-250000J0D01*
G01*
X109225000Y-91775000D01*
G75*
G02*
X108975000Y-91525000I0J250000D01*
G01*
X108975000Y-91025000D01*
G75*
G02*
X109225000Y-90775000I250000J0D01*
G01*
G37*
G36*
G01*
X109225000Y-89225000D02*
X109775000Y-89225000D01*
G75*
G02*
X110025000Y-89475000I0J-250000D01*
G01*
X110025000Y-89975000D01*
G75*
G02*
X109775000Y-90225000I-250000J0D01*
G01*
X109225000Y-90225000D01*
G75*
G02*
X108975000Y-89975000I0J250000D01*
G01*
X108975000Y-89475000D01*
G75*
G02*
X109225000Y-89225000I250000J0D01*
G01*
G37*
%TD*%
M02*
