%TF.GenerationSoftware,KiCad,Pcbnew,(5.1.8)-1*%
%TF.CreationDate,2021-05-04T18:07:08+08:00*%
%TF.ProjectId,downloader,646f776e-6c6f-4616-9465-722e6b696361,rev?*%
%TF.SameCoordinates,Original*%
%TF.FileFunction,Copper,L1,Top*%
%TF.FilePolarity,Positive*%
%FSLAX46Y46*%
G04 Gerber Fmt 4.6, Leading zero omitted, Abs format (unit mm)*
G04 Created by KiCad (PCBNEW (5.1.8)-1) date 2021-05-04 18:07:08*
%MOMM*%
%LPD*%
G01*
G04 APERTURE LIST*
%TA.AperFunction,SMDPad,CuDef*%
%ADD10R,2.500000X4.000000*%
%TD*%
%TA.AperFunction,SMDPad,CuDef*%
%ADD11R,1.100000X0.510000*%
%TD*%
%TA.AperFunction,SMDPad,CuDef*%
%ADD12R,2.000000X1.500000*%
%TD*%
%TA.AperFunction,SMDPad,CuDef*%
%ADD13R,2.000000X3.800000*%
%TD*%
%TA.AperFunction,SMDPad,CuDef*%
%ADD14R,0.900000X1.700000*%
%TD*%
%TA.AperFunction,SMDPad,CuDef*%
%ADD15R,0.900000X0.800000*%
%TD*%
%TA.AperFunction,ComponentPad*%
%ADD16O,1.350000X1.350000*%
%TD*%
%TA.AperFunction,ComponentPad*%
%ADD17R,1.350000X1.350000*%
%TD*%
%TA.AperFunction,SMDPad,CuDef*%
%ADD18R,1.450000X0.600000*%
%TD*%
%TA.AperFunction,SMDPad,CuDef*%
%ADD19R,1.450000X0.300000*%
%TD*%
%TA.AperFunction,ComponentPad*%
%ADD20O,2.100000X1.000000*%
%TD*%
%TA.AperFunction,ComponentPad*%
%ADD21O,1.600000X1.000000*%
%TD*%
%TA.AperFunction,ViaPad*%
%ADD22C,0.800000*%
%TD*%
%TA.AperFunction,Conductor*%
%ADD23C,0.500000*%
%TD*%
%TA.AperFunction,Conductor*%
%ADD24C,0.400000*%
%TD*%
%TA.AperFunction,Conductor*%
%ADD25C,0.250000*%
%TD*%
%TA.AperFunction,Conductor*%
%ADD26C,0.300000*%
%TD*%
%TA.AperFunction,Conductor*%
%ADD27C,0.254000*%
%TD*%
%TA.AperFunction,Conductor*%
%ADD28C,0.350000*%
%TD*%
%ADD29C,0.350000*%
%ADD30O,1.700000X0.600000*%
%ADD31O,1.200000X0.600000*%
G04 APERTURE END LIST*
%TO.P,R5,2*%
%TO.N,/RTS*%
%TA.AperFunction,SMDPad,CuDef*%
G36*
G01*
X121275000Y-86675000D02*
X121275000Y-87225000D01*
G75*
G02*
X121075000Y-87425000I-200000J0D01*
G01*
X120675000Y-87425000D01*
G75*
G02*
X120475000Y-87225000I0J200000D01*
G01*
X120475000Y-86675000D01*
G75*
G02*
X120675000Y-86475000I200000J0D01*
G01*
X121075000Y-86475000D01*
G75*
G02*
X121275000Y-86675000I0J-200000D01*
G01*
G37*
%TD.AperFunction*%
%TO.P,R5,1*%
%TO.N,Net-(Q1-Pad1)*%
%TA.AperFunction,SMDPad,CuDef*%
G36*
G01*
X122925000Y-86675000D02*
X122925000Y-87225000D01*
G75*
G02*
X122725000Y-87425000I-200000J0D01*
G01*
X122325000Y-87425000D01*
G75*
G02*
X122125000Y-87225000I0J200000D01*
G01*
X122125000Y-86675000D01*
G75*
G02*
X122325000Y-86475000I200000J0D01*
G01*
X122725000Y-86475000D01*
G75*
G02*
X122925000Y-86675000I0J-200000D01*
G01*
G37*
%TD.AperFunction*%
%TD*%
D10*
%TO.P,U2,11*%
%TO.N,N/C*%
X124200000Y-92950000D03*
D11*
%TO.P,U2,10*%
%TO.N,Net-(C3-Pad2)*%
X126750000Y-90950000D03*
%TO.P,U2,9*%
%TO.N,/RXD*%
X126750000Y-91950000D03*
%TO.P,U2,5*%
%TO.N,N/C*%
X121650000Y-94950000D03*
%TO.P,U2,8*%
%TO.N,/TXD*%
X126750000Y-92950000D03*
%TO.P,U2,7*%
%TO.N,VCC*%
X126750000Y-93950000D03*
%TO.P,U2,6*%
%TO.N,/RTS*%
X126750000Y-94950000D03*
%TO.P,U2,4*%
%TO.N,/DTR*%
X121650000Y-93950000D03*
%TO.P,U2,3*%
%TO.N,GND*%
X121650000Y-92950000D03*
%TO.P,U2,2*%
%TO.N,/D-*%
X121650000Y-91950000D03*
%TO.P,U2,1*%
%TO.N,/D+*%
X121650000Y-90950000D03*
%TD*%
D12*
%TO.P,U1,1*%
%TO.N,GND*%
X111050000Y-90650000D03*
%TO.P,U1,3*%
%TO.N,VCC*%
X111050000Y-95250000D03*
%TO.P,U1,2*%
%TO.N,+3V3*%
X111050000Y-92950000D03*
D13*
X117350000Y-92950000D03*
%TD*%
D14*
%TO.P,SW2,2*%
%TO.N,/EN*%
X110400000Y-98450000D03*
%TO.P,SW2,1*%
%TO.N,GND*%
X106000000Y-98450000D03*
%TD*%
%TO.P,SW1,2*%
%TO.N,/IO0*%
X110400000Y-87450000D03*
%TO.P,SW1,1*%
%TO.N,GND*%
X106000000Y-87450000D03*
%TD*%
%TO.P,R4,2*%
%TO.N,/DTR*%
%TA.AperFunction,SMDPad,CuDef*%
G36*
G01*
X121275000Y-98675000D02*
X121275000Y-99225000D01*
G75*
G02*
X121075000Y-99425000I-200000J0D01*
G01*
X120675000Y-99425000D01*
G75*
G02*
X120475000Y-99225000I0J200000D01*
G01*
X120475000Y-98675000D01*
G75*
G02*
X120675000Y-98475000I200000J0D01*
G01*
X121075000Y-98475000D01*
G75*
G02*
X121275000Y-98675000I0J-200000D01*
G01*
G37*
%TD.AperFunction*%
%TO.P,R4,1*%
%TO.N,Net-(Q2-Pad1)*%
%TA.AperFunction,SMDPad,CuDef*%
G36*
G01*
X122925000Y-98675000D02*
X122925000Y-99225000D01*
G75*
G02*
X122725000Y-99425000I-200000J0D01*
G01*
X122325000Y-99425000D01*
G75*
G02*
X122125000Y-99225000I0J200000D01*
G01*
X122125000Y-98675000D01*
G75*
G02*
X122325000Y-98475000I200000J0D01*
G01*
X122725000Y-98475000D01*
G75*
G02*
X122925000Y-98675000I0J-200000D01*
G01*
G37*
%TD.AperFunction*%
%TD*%
%TO.P,R3,2*%
%TO.N,/TXD*%
%TA.AperFunction,SMDPad,CuDef*%
G36*
G01*
X118475000Y-98025000D02*
X117925000Y-98025000D01*
G75*
G02*
X117725000Y-97825000I0J200000D01*
G01*
X117725000Y-97425000D01*
G75*
G02*
X117925000Y-97225000I200000J0D01*
G01*
X118475000Y-97225000D01*
G75*
G02*
X118675000Y-97425000I0J-200000D01*
G01*
X118675000Y-97825000D01*
G75*
G02*
X118475000Y-98025000I-200000J0D01*
G01*
G37*
%TD.AperFunction*%
%TO.P,R3,1*%
%TO.N,Net-(D3-Pad1)*%
%TA.AperFunction,SMDPad,CuDef*%
G36*
G01*
X118475000Y-99675000D02*
X117925000Y-99675000D01*
G75*
G02*
X117725000Y-99475000I0J200000D01*
G01*
X117725000Y-99075000D01*
G75*
G02*
X117925000Y-98875000I200000J0D01*
G01*
X118475000Y-98875000D01*
G75*
G02*
X118675000Y-99075000I0J-200000D01*
G01*
X118675000Y-99475000D01*
G75*
G02*
X118475000Y-99675000I-200000J0D01*
G01*
G37*
%TD.AperFunction*%
%TD*%
%TO.P,R2,2*%
%TO.N,/RXD*%
%TA.AperFunction,SMDPad,CuDef*%
G36*
G01*
X117425000Y-87875000D02*
X117975000Y-87875000D01*
G75*
G02*
X118175000Y-88075000I0J-200000D01*
G01*
X118175000Y-88475000D01*
G75*
G02*
X117975000Y-88675000I-200000J0D01*
G01*
X117425000Y-88675000D01*
G75*
G02*
X117225000Y-88475000I0J200000D01*
G01*
X117225000Y-88075000D01*
G75*
G02*
X117425000Y-87875000I200000J0D01*
G01*
G37*
%TD.AperFunction*%
%TO.P,R2,1*%
%TO.N,Net-(D2-Pad1)*%
%TA.AperFunction,SMDPad,CuDef*%
G36*
G01*
X117425000Y-86225000D02*
X117975000Y-86225000D01*
G75*
G02*
X118175000Y-86425000I0J-200000D01*
G01*
X118175000Y-86825000D01*
G75*
G02*
X117975000Y-87025000I-200000J0D01*
G01*
X117425000Y-87025000D01*
G75*
G02*
X117225000Y-86825000I0J200000D01*
G01*
X117225000Y-86425000D01*
G75*
G02*
X117425000Y-86225000I200000J0D01*
G01*
G37*
%TD.AperFunction*%
%TD*%
%TO.P,R1,2*%
%TO.N,GND*%
%TA.AperFunction,SMDPad,CuDef*%
G36*
G01*
X105925000Y-94875000D02*
X106475000Y-94875000D01*
G75*
G02*
X106675000Y-95075000I0J-200000D01*
G01*
X106675000Y-95475000D01*
G75*
G02*
X106475000Y-95675000I-200000J0D01*
G01*
X105925000Y-95675000D01*
G75*
G02*
X105725000Y-95475000I0J200000D01*
G01*
X105725000Y-95075000D01*
G75*
G02*
X105925000Y-94875000I200000J0D01*
G01*
G37*
%TD.AperFunction*%
%TO.P,R1,1*%
%TO.N,Net-(D1-Pad1)*%
%TA.AperFunction,SMDPad,CuDef*%
G36*
G01*
X105925000Y-93225000D02*
X106475000Y-93225000D01*
G75*
G02*
X106675000Y-93425000I0J-200000D01*
G01*
X106675000Y-93825000D01*
G75*
G02*
X106475000Y-94025000I-200000J0D01*
G01*
X105925000Y-94025000D01*
G75*
G02*
X105725000Y-93825000I0J200000D01*
G01*
X105725000Y-93425000D01*
G75*
G02*
X105925000Y-93225000I200000J0D01*
G01*
G37*
%TD.AperFunction*%
%TD*%
D15*
%TO.P,Q2,3*%
%TO.N,/EN*%
X126700000Y-97950000D03*
%TO.P,Q2,2*%
%TO.N,/RTS*%
X124700000Y-98900000D03*
%TO.P,Q2,1*%
%TO.N,Net-(Q2-Pad1)*%
X124700000Y-97000000D03*
%TD*%
%TO.P,Q1,3*%
%TO.N,/IO0*%
X126700000Y-87950000D03*
%TO.P,Q1,2*%
%TO.N,/DTR*%
X124700000Y-88900000D03*
%TO.P,Q1,1*%
%TO.N,Net-(Q1-Pad1)*%
X124700000Y-87000000D03*
%TD*%
D16*
%TO.P,J2,6*%
%TO.N,+3V3*%
X132200000Y-97950000D03*
%TO.P,J2,5*%
%TO.N,GND*%
X132200000Y-95950000D03*
%TO.P,J2,4*%
%TO.N,/EN*%
X132200000Y-93950000D03*
%TO.P,J2,3*%
%TO.N,/IO0*%
X132200000Y-91950000D03*
%TO.P,J2,2*%
%TO.N,/TXD*%
X132200000Y-89950000D03*
D17*
%TO.P,J2,1*%
%TO.N,/RXD*%
X132200000Y-87950000D03*
%TD*%
D18*
%TO.P,J1,B1*%
%TO.N,GND*%
X103245000Y-96200000D03*
%TO.P,J1,A9*%
%TO.N,VCC*%
X103245000Y-95400000D03*
%TO.P,J1,B9*%
X103245000Y-90500000D03*
%TO.P,J1,B12*%
%TO.N,GND*%
X103245000Y-89700000D03*
%TO.P,J1,A1*%
X103245000Y-89700000D03*
%TO.P,J1,A4*%
%TO.N,VCC*%
X103245000Y-90500000D03*
%TO.P,J1,B4*%
X103245000Y-95400000D03*
%TO.P,J1,A12*%
%TO.N,GND*%
X103245000Y-96200000D03*
D19*
%TO.P,J1,B8*%
%TO.N,N/C*%
X103245000Y-91200000D03*
%TO.P,J1,A5*%
X103245000Y-91700000D03*
%TO.P,J1,B7*%
%TO.N,/D-*%
X103245000Y-92200000D03*
%TO.P,J1,A7*%
X103245000Y-93200000D03*
%TO.P,J1,B6*%
%TO.N,/D+*%
X103245000Y-93700000D03*
%TO.P,J1,A8*%
%TO.N,N/C*%
X103245000Y-94200000D03*
%TO.P,J1,B5*%
X103245000Y-94700000D03*
%TO.P,J1,A6*%
%TO.N,/D+*%
X103245000Y-92700000D03*
D20*
%TO.P,J1,S1*%
%TO.N,GND*%
X102330000Y-97270000D03*
X102330000Y-88630000D03*
D21*
X98150000Y-88630000D03*
X98150000Y-97270000D03*
%TD*%
%TO.P,D3,2*%
%TO.N,+3V3*%
%TA.AperFunction,SMDPad,CuDef*%
G36*
G01*
X116456250Y-98100000D02*
X115943750Y-98100000D01*
G75*
G02*
X115725000Y-97881250I0J218750D01*
G01*
X115725000Y-97443750D01*
G75*
G02*
X115943750Y-97225000I218750J0D01*
G01*
X116456250Y-97225000D01*
G75*
G02*
X116675000Y-97443750I0J-218750D01*
G01*
X116675000Y-97881250D01*
G75*
G02*
X116456250Y-98100000I-218750J0D01*
G01*
G37*
%TD.AperFunction*%
%TO.P,D3,1*%
%TO.N,Net-(D3-Pad1)*%
%TA.AperFunction,SMDPad,CuDef*%
G36*
G01*
X116456250Y-99675000D02*
X115943750Y-99675000D01*
G75*
G02*
X115725000Y-99456250I0J218750D01*
G01*
X115725000Y-99018750D01*
G75*
G02*
X115943750Y-98800000I218750J0D01*
G01*
X116456250Y-98800000D01*
G75*
G02*
X116675000Y-99018750I0J-218750D01*
G01*
X116675000Y-99456250D01*
G75*
G02*
X116456250Y-99675000I-218750J0D01*
G01*
G37*
%TD.AperFunction*%
%TD*%
%TO.P,D2,2*%
%TO.N,+3V3*%
%TA.AperFunction,SMDPad,CuDef*%
G36*
G01*
X115443750Y-87800000D02*
X115956250Y-87800000D01*
G75*
G02*
X116175000Y-88018750I0J-218750D01*
G01*
X116175000Y-88456250D01*
G75*
G02*
X115956250Y-88675000I-218750J0D01*
G01*
X115443750Y-88675000D01*
G75*
G02*
X115225000Y-88456250I0J218750D01*
G01*
X115225000Y-88018750D01*
G75*
G02*
X115443750Y-87800000I218750J0D01*
G01*
G37*
%TD.AperFunction*%
%TO.P,D2,1*%
%TO.N,Net-(D2-Pad1)*%
%TA.AperFunction,SMDPad,CuDef*%
G36*
G01*
X115443750Y-86225000D02*
X115956250Y-86225000D01*
G75*
G02*
X116175000Y-86443750I0J-218750D01*
G01*
X116175000Y-86881250D01*
G75*
G02*
X115956250Y-87100000I-218750J0D01*
G01*
X115443750Y-87100000D01*
G75*
G02*
X115225000Y-86881250I0J218750D01*
G01*
X115225000Y-86443750D01*
G75*
G02*
X115443750Y-86225000I218750J0D01*
G01*
G37*
%TD.AperFunction*%
%TD*%
%TO.P,D1,2*%
%TO.N,VCC*%
%TA.AperFunction,SMDPad,CuDef*%
G36*
G01*
X106456250Y-91100000D02*
X105943750Y-91100000D01*
G75*
G02*
X105725000Y-90881250I0J218750D01*
G01*
X105725000Y-90443750D01*
G75*
G02*
X105943750Y-90225000I218750J0D01*
G01*
X106456250Y-90225000D01*
G75*
G02*
X106675000Y-90443750I0J-218750D01*
G01*
X106675000Y-90881250D01*
G75*
G02*
X106456250Y-91100000I-218750J0D01*
G01*
G37*
%TD.AperFunction*%
%TO.P,D1,1*%
%TO.N,Net-(D1-Pad1)*%
%TA.AperFunction,SMDPad,CuDef*%
G36*
G01*
X106456250Y-92675000D02*
X105943750Y-92675000D01*
G75*
G02*
X105725000Y-92456250I0J218750D01*
G01*
X105725000Y-92018750D01*
G75*
G02*
X105943750Y-91800000I218750J0D01*
G01*
X106456250Y-91800000D01*
G75*
G02*
X106675000Y-92018750I0J-218750D01*
G01*
X106675000Y-92456250D01*
G75*
G02*
X106456250Y-92675000I-218750J0D01*
G01*
G37*
%TD.AperFunction*%
%TD*%
%TO.P,C6,2*%
%TO.N,GND*%
%TA.AperFunction,SMDPad,CuDef*%
G36*
G01*
X112450000Y-98125000D02*
X111950000Y-98125000D01*
G75*
G02*
X111725000Y-97900000I0J225000D01*
G01*
X111725000Y-97450000D01*
G75*
G02*
X111950000Y-97225000I225000J0D01*
G01*
X112450000Y-97225000D01*
G75*
G02*
X112675000Y-97450000I0J-225000D01*
G01*
X112675000Y-97900000D01*
G75*
G02*
X112450000Y-98125000I-225000J0D01*
G01*
G37*
%TD.AperFunction*%
%TO.P,C6,1*%
%TO.N,/EN*%
%TA.AperFunction,SMDPad,CuDef*%
G36*
G01*
X112450000Y-99675000D02*
X111950000Y-99675000D01*
G75*
G02*
X111725000Y-99450000I0J225000D01*
G01*
X111725000Y-99000000D01*
G75*
G02*
X111950000Y-98775000I225000J0D01*
G01*
X112450000Y-98775000D01*
G75*
G02*
X112675000Y-99000000I0J-225000D01*
G01*
X112675000Y-99450000D01*
G75*
G02*
X112450000Y-99675000I-225000J0D01*
G01*
G37*
%TD.AperFunction*%
%TD*%
%TO.P,C5,2*%
%TO.N,GND*%
%TA.AperFunction,SMDPad,CuDef*%
G36*
G01*
X111950000Y-87775000D02*
X112450000Y-87775000D01*
G75*
G02*
X112675000Y-88000000I0J-225000D01*
G01*
X112675000Y-88450000D01*
G75*
G02*
X112450000Y-88675000I-225000J0D01*
G01*
X111950000Y-88675000D01*
G75*
G02*
X111725000Y-88450000I0J225000D01*
G01*
X111725000Y-88000000D01*
G75*
G02*
X111950000Y-87775000I225000J0D01*
G01*
G37*
%TD.AperFunction*%
%TO.P,C5,1*%
%TO.N,/IO0*%
%TA.AperFunction,SMDPad,CuDef*%
G36*
G01*
X111950000Y-86225000D02*
X112450000Y-86225000D01*
G75*
G02*
X112675000Y-86450000I0J-225000D01*
G01*
X112675000Y-86900000D01*
G75*
G02*
X112450000Y-87125000I-225000J0D01*
G01*
X111950000Y-87125000D01*
G75*
G02*
X111725000Y-86900000I0J225000D01*
G01*
X111725000Y-86450000D01*
G75*
G02*
X111950000Y-86225000I225000J0D01*
G01*
G37*
%TD.AperFunction*%
%TD*%
%TO.P,C4,2*%
%TO.N,VCC*%
%TA.AperFunction,SMDPad,CuDef*%
G36*
G01*
X122025000Y-97200000D02*
X122025000Y-96700000D01*
G75*
G02*
X122250000Y-96475000I225000J0D01*
G01*
X122700000Y-96475000D01*
G75*
G02*
X122925000Y-96700000I0J-225000D01*
G01*
X122925000Y-97200000D01*
G75*
G02*
X122700000Y-97425000I-225000J0D01*
G01*
X122250000Y-97425000D01*
G75*
G02*
X122025000Y-97200000I0J225000D01*
G01*
G37*
%TD.AperFunction*%
%TO.P,C4,1*%
%TO.N,GND*%
%TA.AperFunction,SMDPad,CuDef*%
G36*
G01*
X120475000Y-97200000D02*
X120475000Y-96700000D01*
G75*
G02*
X120700000Y-96475000I225000J0D01*
G01*
X121150000Y-96475000D01*
G75*
G02*
X121375000Y-96700000I0J-225000D01*
G01*
X121375000Y-97200000D01*
G75*
G02*
X121150000Y-97425000I-225000J0D01*
G01*
X120700000Y-97425000D01*
G75*
G02*
X120475000Y-97200000I0J225000D01*
G01*
G37*
%TD.AperFunction*%
%TD*%
%TO.P,C3,2*%
%TO.N,Net-(C3-Pad2)*%
%TA.AperFunction,SMDPad,CuDef*%
G36*
G01*
X122025000Y-89200000D02*
X122025000Y-88700000D01*
G75*
G02*
X122250000Y-88475000I225000J0D01*
G01*
X122700000Y-88475000D01*
G75*
G02*
X122925000Y-88700000I0J-225000D01*
G01*
X122925000Y-89200000D01*
G75*
G02*
X122700000Y-89425000I-225000J0D01*
G01*
X122250000Y-89425000D01*
G75*
G02*
X122025000Y-89200000I0J225000D01*
G01*
G37*
%TD.AperFunction*%
%TO.P,C3,1*%
%TO.N,GND*%
%TA.AperFunction,SMDPad,CuDef*%
G36*
G01*
X120475000Y-89200000D02*
X120475000Y-88700000D01*
G75*
G02*
X120700000Y-88475000I225000J0D01*
G01*
X121150000Y-88475000D01*
G75*
G02*
X121375000Y-88700000I0J-225000D01*
G01*
X121375000Y-89200000D01*
G75*
G02*
X121150000Y-89425000I-225000J0D01*
G01*
X120700000Y-89425000D01*
G75*
G02*
X120475000Y-89200000I0J225000D01*
G01*
G37*
%TD.AperFunction*%
%TD*%
%TO.P,C2,2*%
%TO.N,GND*%
%TA.AperFunction,SMDPad,CuDef*%
G36*
G01*
X107950000Y-94775000D02*
X108450000Y-94775000D01*
G75*
G02*
X108675000Y-95000000I0J-225000D01*
G01*
X108675000Y-95450000D01*
G75*
G02*
X108450000Y-95675000I-225000J0D01*
G01*
X107950000Y-95675000D01*
G75*
G02*
X107725000Y-95450000I0J225000D01*
G01*
X107725000Y-95000000D01*
G75*
G02*
X107950000Y-94775000I225000J0D01*
G01*
G37*
%TD.AperFunction*%
%TO.P,C2,1*%
%TO.N,+3V3*%
%TA.AperFunction,SMDPad,CuDef*%
G36*
G01*
X107950000Y-93225000D02*
X108450000Y-93225000D01*
G75*
G02*
X108675000Y-93450000I0J-225000D01*
G01*
X108675000Y-93900000D01*
G75*
G02*
X108450000Y-94125000I-225000J0D01*
G01*
X107950000Y-94125000D01*
G75*
G02*
X107725000Y-93900000I0J225000D01*
G01*
X107725000Y-93450000D01*
G75*
G02*
X107950000Y-93225000I225000J0D01*
G01*
G37*
%TD.AperFunction*%
%TD*%
%TO.P,C1,2*%
%TO.N,GND*%
%TA.AperFunction,SMDPad,CuDef*%
G36*
G01*
X108450000Y-91125000D02*
X107950000Y-91125000D01*
G75*
G02*
X107725000Y-90900000I0J225000D01*
G01*
X107725000Y-90450000D01*
G75*
G02*
X107950000Y-90225000I225000J0D01*
G01*
X108450000Y-90225000D01*
G75*
G02*
X108675000Y-90450000I0J-225000D01*
G01*
X108675000Y-90900000D01*
G75*
G02*
X108450000Y-91125000I-225000J0D01*
G01*
G37*
%TD.AperFunction*%
%TO.P,C1,1*%
%TO.N,VCC*%
%TA.AperFunction,SMDPad,CuDef*%
G36*
G01*
X108450000Y-92675000D02*
X107950000Y-92675000D01*
G75*
G02*
X107725000Y-92450000I0J225000D01*
G01*
X107725000Y-92000000D01*
G75*
G02*
X107950000Y-91775000I225000J0D01*
G01*
X108450000Y-91775000D01*
G75*
G02*
X108675000Y-92000000I0J-225000D01*
G01*
X108675000Y-92450000D01*
G75*
G02*
X108450000Y-92675000I-225000J0D01*
G01*
G37*
%TD.AperFunction*%
%TD*%
D22*
%TO.N,GND*%
X113450000Y-97700000D03*
X119950000Y-93449999D03*
X112700000Y-89700000D03*
%TO.N,VCC*%
X117700000Y-95950000D03*
X113200000Y-95850000D03*
%TO.N,+3V3*%
X114700000Y-97700000D03*
%TO.N,/IO0*%
X113600000Y-86650000D03*
X126200000Y-86750034D03*
X128450000Y-89200000D03*
%TO.N,/EN*%
X113600000Y-99250000D03*
X127900000Y-98950000D03*
%TO.N,/D-*%
X104700000Y-91950030D03*
X120511320Y-91847706D03*
%TO.N,/D+*%
X104700000Y-92950043D03*
X119699990Y-92450012D03*
%TO.N,/TXD*%
X118700000Y-96750000D03*
X128200000Y-92950000D03*
%TO.N,/RXD*%
X118700000Y-87950020D03*
%TO.N,/DTR*%
X119700000Y-95050000D03*
X119950000Y-98200000D03*
%TO.N,/RTS*%
X128199993Y-95399989D03*
X119700000Y-89450000D03*
X125450000Y-97950000D03*
%TD*%
D23*
%TO.N,GND*%
X98150000Y-88630000D02*
X102330000Y-88630000D01*
X98150000Y-97270000D02*
X102330000Y-97270000D01*
X103245000Y-96355000D02*
X102330000Y-97270000D01*
X103245000Y-96200000D02*
X103245000Y-96355000D01*
X103245000Y-89545000D02*
X102330000Y-88630000D01*
X103245000Y-89700000D02*
X103245000Y-89545000D01*
D24*
X110525000Y-90675000D02*
X110550000Y-90650000D01*
D25*
X113425000Y-97675000D02*
X113450000Y-97700000D01*
X112200000Y-97675000D02*
X113425000Y-97675000D01*
X120092478Y-96950000D02*
X120925000Y-96950000D01*
X118617468Y-98425010D02*
X120092478Y-96950000D01*
X114175010Y-98425010D02*
X118617468Y-98425010D01*
X113450000Y-97700000D02*
X114175010Y-98425010D01*
X118092478Y-87450000D02*
X112975000Y-87450000D01*
X119392488Y-86149990D02*
X118092478Y-87450000D01*
X121600010Y-86457532D02*
X121292468Y-86149990D01*
X121600010Y-88274990D02*
X121600010Y-86457532D01*
X112975000Y-87450000D02*
X112200000Y-88225000D01*
X121292468Y-86149990D02*
X119392488Y-86149990D01*
X120925000Y-88950000D02*
X121600010Y-88274990D01*
X120449999Y-92950000D02*
X119950000Y-93449999D01*
X121650000Y-92950000D02*
X120449999Y-92950000D01*
X112000000Y-89700000D02*
X111050000Y-90650000D01*
X112700000Y-89700000D02*
X112000000Y-89700000D01*
D23*
%TO.N,VCC*%
X106037500Y-90500000D02*
X106200000Y-90662500D01*
X103245000Y-90500000D02*
X106037500Y-90500000D01*
D24*
X102433002Y-90500000D02*
X103245000Y-90500000D01*
X101174990Y-91758012D02*
X102433002Y-90500000D01*
X101174990Y-94169990D02*
X101174990Y-91758012D01*
X102405000Y-95400000D02*
X101174990Y-94169990D01*
X103245000Y-95400000D02*
X102405000Y-95400000D01*
X106637500Y-90662500D02*
X108200000Y-92225000D01*
X106200000Y-90662500D02*
X106637500Y-90662500D01*
D23*
X110789998Y-95250000D02*
X111050000Y-95250000D01*
X109450000Y-93910002D02*
X110789998Y-95250000D01*
X109450000Y-92950000D02*
X109450000Y-93910002D01*
X108725000Y-92225000D02*
X109450000Y-92950000D01*
X108200000Y-92225000D02*
X108725000Y-92225000D01*
D24*
X123225001Y-96199999D02*
X122475000Y-96950000D01*
X128200000Y-93950000D02*
X129000003Y-94750003D01*
X129000003Y-95834001D02*
X128634005Y-96199999D01*
X126750000Y-93950000D02*
X128200000Y-93950000D01*
X128634005Y-96199999D02*
X123225001Y-96199999D01*
X129000003Y-94750003D02*
X129000003Y-95834001D01*
X121475000Y-95950000D02*
X117700000Y-95950000D01*
X122475000Y-96950000D02*
X121475000Y-95950000D01*
X111650000Y-95850000D02*
X111050000Y-95250000D01*
X113200000Y-95850000D02*
X111650000Y-95850000D01*
D23*
%TO.N,+3V3*%
X111050000Y-92950000D02*
X117350000Y-92950000D01*
X115237500Y-96700000D02*
X116200000Y-97662500D01*
X109939998Y-96700000D02*
X115237500Y-96700000D01*
X109450000Y-96210002D02*
X109939998Y-96700000D01*
X109450000Y-94899964D02*
X109450000Y-96210002D01*
X108225036Y-93675000D02*
X109450000Y-94899964D01*
X108200000Y-93675000D02*
X108225036Y-93675000D01*
X115700000Y-91300000D02*
X117350000Y-92950000D01*
X115700000Y-88237500D02*
X115700000Y-91300000D01*
X116200000Y-94100000D02*
X116200000Y-97662500D01*
X117350000Y-92950000D02*
X116200000Y-94100000D01*
D24*
X114737500Y-97662500D02*
X114700000Y-97700000D01*
X116200000Y-97662500D02*
X114737500Y-97662500D01*
D26*
%TO.N,Net-(C3-Pad2)*%
X126750000Y-89469998D02*
X126750000Y-90950000D01*
X125230002Y-87950000D02*
X126750000Y-89469998D01*
X123475000Y-87950000D02*
X125230002Y-87950000D01*
X122475000Y-88950000D02*
X123475000Y-87950000D01*
D23*
%TO.N,/IO0*%
X111175000Y-86675000D02*
X110400000Y-87450000D01*
X112200000Y-86675000D02*
X111175000Y-86675000D01*
X113575000Y-86675000D02*
X113600000Y-86650000D01*
X112200000Y-86675000D02*
X113575000Y-86675000D01*
X126700000Y-87950000D02*
X126700000Y-87250034D01*
X126700000Y-87250034D02*
X126200000Y-86750034D01*
D24*
X127200000Y-87950000D02*
X128450000Y-89200000D01*
X126700000Y-87950000D02*
X127200000Y-87950000D01*
D23*
%TO.N,/EN*%
X111425000Y-98450000D02*
X112200000Y-99225000D01*
X110400000Y-98450000D02*
X111425000Y-98450000D01*
X113575000Y-99225000D02*
X113600000Y-99250000D01*
X112200000Y-99225000D02*
X113575000Y-99225000D01*
X127700000Y-98950000D02*
X126700000Y-97950000D01*
X127900000Y-98950000D02*
X127700000Y-98950000D01*
D24*
X129600012Y-96549988D02*
X132200000Y-93950000D01*
X129600012Y-97249988D02*
X129600012Y-96549988D01*
X127900000Y-98950000D02*
X129600012Y-97249988D01*
D23*
%TO.N,Net-(D1-Pad1)*%
X106200000Y-92237500D02*
X106200000Y-93625000D01*
%TO.N,Net-(D2-Pad1)*%
X117662500Y-86662500D02*
X117700000Y-86625000D01*
X115700000Y-86662500D02*
X117662500Y-86662500D01*
D24*
%TO.N,Net-(D3-Pad1)*%
X118162500Y-99237500D02*
X118200000Y-99275000D01*
X116200000Y-99237500D02*
X118162500Y-99237500D01*
D26*
%TO.N,/D-*%
X103245000Y-92200000D02*
X104450030Y-92200000D01*
X104450030Y-92200000D02*
X104700000Y-91950030D01*
D25*
X101950000Y-92200000D02*
X103245000Y-92200000D01*
X101700000Y-92450000D02*
X101950000Y-92200000D01*
X101700000Y-92950000D02*
X101700000Y-92450000D01*
X101950000Y-93200000D02*
X101700000Y-92950000D01*
X103245000Y-93200000D02*
X101950000Y-93200000D01*
D26*
X120613614Y-91950000D02*
X120511320Y-91847706D01*
X121650000Y-91950000D02*
X120613614Y-91950000D01*
%TO.N,/D+*%
X103245000Y-93700000D02*
X104270000Y-93700000D01*
X104270000Y-93700000D02*
X104700000Y-93270000D01*
X104700000Y-93270000D02*
X104700000Y-92950043D01*
D25*
X104449957Y-92700000D02*
X104700000Y-92950043D01*
X103245000Y-92700000D02*
X104449957Y-92700000D01*
D26*
X120339996Y-90950000D02*
X119699990Y-91590006D01*
X119699990Y-91590006D02*
X119699990Y-92450012D01*
X121650000Y-90950000D02*
X120339996Y-90950000D01*
D24*
%TO.N,/TXD*%
X118200000Y-97250000D02*
X118700000Y-96750000D01*
X118200000Y-97625000D02*
X118200000Y-97250000D01*
X126750000Y-92950000D02*
X128200000Y-92950000D01*
D23*
X131200000Y-89950000D02*
X128200000Y-92950000D01*
X132200000Y-89950000D02*
X131200000Y-89950000D01*
%TO.N,/RXD*%
X131700000Y-87950000D02*
X132200000Y-87950000D01*
X129700000Y-89950000D02*
X131700000Y-87950000D01*
X127700000Y-91950000D02*
X126750000Y-91950000D01*
X131700000Y-87950000D02*
X127700000Y-91950000D01*
D24*
X118375020Y-88275000D02*
X118700000Y-87950020D01*
X117700000Y-88275000D02*
X118375020Y-88275000D01*
D23*
%TO.N,/DTR*%
X120800000Y-93950000D02*
X119700000Y-95050000D01*
X121650000Y-93950000D02*
X120800000Y-93950000D01*
D24*
X123349999Y-90250001D02*
X124700000Y-88900000D01*
X118750001Y-90899999D02*
X119399999Y-90250001D01*
X118750001Y-94100001D02*
X118750001Y-90899999D01*
X119399999Y-90250001D02*
X123349999Y-90250001D01*
X119700000Y-95050000D02*
X118750001Y-94100001D01*
D23*
X120700000Y-98950000D02*
X119950000Y-98200000D01*
X120875000Y-98950000D02*
X120700000Y-98950000D01*
D24*
%TO.N,/RTS*%
X126750000Y-94950000D02*
X127750004Y-94950000D01*
X127750004Y-94950000D02*
X128199993Y-95399989D01*
X120875000Y-86950000D02*
X120200000Y-86950000D01*
X120200000Y-86950000D02*
X119700000Y-87450000D01*
X119700000Y-87450000D02*
X119700000Y-89450000D01*
X125450000Y-98150000D02*
X125450000Y-97950000D01*
X124700000Y-98900000D02*
X125450000Y-98150000D01*
D23*
%TO.N,Net-(Q2-Pad1)*%
X124475000Y-97000000D02*
X122525000Y-98950000D01*
X124700000Y-97000000D02*
X124475000Y-97000000D01*
%TO.N,Net-(Q1-Pad1)*%
X124650000Y-86950000D02*
X124700000Y-87000000D01*
X122525000Y-86950000D02*
X124650000Y-86950000D01*
%TD*%
D27*
%TO.N,GND*%
X105098815Y-86148815D02*
X105019463Y-86245506D01*
X104960498Y-86355820D01*
X104924188Y-86475518D01*
X104911928Y-86600000D01*
X104915000Y-87164250D01*
X105073750Y-87323000D01*
X105873000Y-87323000D01*
X105873000Y-87303000D01*
X106127000Y-87303000D01*
X106127000Y-87323000D01*
X106926250Y-87323000D01*
X107085000Y-87164250D01*
X107088072Y-86600000D01*
X107075812Y-86475518D01*
X107039502Y-86355820D01*
X106980537Y-86245506D01*
X106901185Y-86148815D01*
X106853889Y-86110000D01*
X109546111Y-86110000D01*
X109498815Y-86148815D01*
X109419463Y-86245506D01*
X109360498Y-86355820D01*
X109324188Y-86475518D01*
X109311928Y-86600000D01*
X109311928Y-88300000D01*
X109324188Y-88424482D01*
X109360498Y-88544180D01*
X109419463Y-88654494D01*
X109498815Y-88751185D01*
X109595506Y-88830537D01*
X109705820Y-88889502D01*
X109825518Y-88925812D01*
X109950000Y-88938072D01*
X110850000Y-88938072D01*
X110974482Y-88925812D01*
X111094180Y-88889502D01*
X111121987Y-88874639D01*
X111135498Y-88919180D01*
X111194463Y-89029494D01*
X111273815Y-89126185D01*
X111370506Y-89205537D01*
X111480586Y-89264377D01*
X111335750Y-89265000D01*
X111177000Y-89423750D01*
X111177000Y-90523000D01*
X112526250Y-90523000D01*
X112685000Y-90364250D01*
X112688072Y-89900000D01*
X112675812Y-89775518D01*
X112639502Y-89655820D01*
X112580537Y-89545506D01*
X112501185Y-89448815D01*
X112404494Y-89369463D01*
X112294180Y-89310498D01*
X112292538Y-89310000D01*
X112327002Y-89310000D01*
X112327002Y-89151252D01*
X112485750Y-89310000D01*
X112675000Y-89313072D01*
X112799482Y-89300812D01*
X112919180Y-89264502D01*
X113029494Y-89205537D01*
X113126185Y-89126185D01*
X113205537Y-89029494D01*
X113264502Y-88919180D01*
X113300812Y-88799482D01*
X113313072Y-88675000D01*
X113310000Y-88510750D01*
X113151250Y-88352000D01*
X112327000Y-88352000D01*
X112327000Y-88372000D01*
X112073000Y-88372000D01*
X112073000Y-88352000D01*
X112053000Y-88352000D01*
X112053000Y-88098000D01*
X112073000Y-88098000D01*
X112073000Y-88078000D01*
X112327000Y-88078000D01*
X112327000Y-88098000D01*
X113151250Y-88098000D01*
X113310000Y-87939250D01*
X113313072Y-87775000D01*
X113300812Y-87650518D01*
X113299278Y-87645460D01*
X113498061Y-87685000D01*
X113701939Y-87685000D01*
X113901898Y-87645226D01*
X114090256Y-87567205D01*
X114259774Y-87453937D01*
X114403937Y-87309774D01*
X114517205Y-87140256D01*
X114594144Y-86954511D01*
X114603392Y-87048408D01*
X114652150Y-87209142D01*
X114731329Y-87357275D01*
X114807426Y-87450000D01*
X114731329Y-87542725D01*
X114652150Y-87690858D01*
X114603392Y-87851592D01*
X114586928Y-88018750D01*
X114586928Y-88456250D01*
X114603392Y-88623408D01*
X114652150Y-88784142D01*
X114731329Y-88932275D01*
X114815000Y-89034230D01*
X114815001Y-91256521D01*
X114810719Y-91300000D01*
X114827805Y-91473490D01*
X114878412Y-91640313D01*
X114960590Y-91794059D01*
X115043468Y-91895046D01*
X115043471Y-91895049D01*
X115071184Y-91928817D01*
X115104951Y-91956529D01*
X115213422Y-92065000D01*
X112672621Y-92065000D01*
X112639502Y-91955820D01*
X112580537Y-91845506D01*
X112543191Y-91800000D01*
X112580537Y-91754494D01*
X112639502Y-91644180D01*
X112675812Y-91524482D01*
X112688072Y-91400000D01*
X112685000Y-90935750D01*
X112526250Y-90777000D01*
X111177000Y-90777000D01*
X111177000Y-90797000D01*
X110923000Y-90797000D01*
X110923000Y-90777000D01*
X109573750Y-90777000D01*
X109415000Y-90935750D01*
X109411928Y-91400000D01*
X109424188Y-91524482D01*
X109460498Y-91644180D01*
X109519463Y-91754494D01*
X109556809Y-91800000D01*
X109554451Y-91802873D01*
X109381534Y-91629956D01*
X109353817Y-91596183D01*
X109219059Y-91485589D01*
X109206008Y-91478613D01*
X109264502Y-91369180D01*
X109300812Y-91249482D01*
X109313072Y-91125000D01*
X109310000Y-90960750D01*
X109151250Y-90802000D01*
X108327000Y-90802000D01*
X108327000Y-90822000D01*
X108073000Y-90822000D01*
X108073000Y-90802000D01*
X108053000Y-90802000D01*
X108053000Y-90548000D01*
X108073000Y-90548000D01*
X108073000Y-89748750D01*
X108327000Y-89748750D01*
X108327000Y-90548000D01*
X109151250Y-90548000D01*
X109310000Y-90389250D01*
X109313072Y-90225000D01*
X109300812Y-90100518D01*
X109264502Y-89980820D01*
X109221303Y-89900000D01*
X109411928Y-89900000D01*
X109415000Y-90364250D01*
X109573750Y-90523000D01*
X110923000Y-90523000D01*
X110923000Y-89423750D01*
X110764250Y-89265000D01*
X110050000Y-89261928D01*
X109925518Y-89274188D01*
X109805820Y-89310498D01*
X109695506Y-89369463D01*
X109598815Y-89448815D01*
X109519463Y-89545506D01*
X109460498Y-89655820D01*
X109424188Y-89775518D01*
X109411928Y-89900000D01*
X109221303Y-89900000D01*
X109205537Y-89870506D01*
X109126185Y-89773815D01*
X109029494Y-89694463D01*
X108919180Y-89635498D01*
X108799482Y-89599188D01*
X108675000Y-89586928D01*
X108485750Y-89590000D01*
X108327000Y-89748750D01*
X108073000Y-89748750D01*
X107914250Y-89590000D01*
X107725000Y-89586928D01*
X107600518Y-89599188D01*
X107480820Y-89635498D01*
X107370506Y-89694463D01*
X107273815Y-89773815D01*
X107194463Y-89870506D01*
X107152821Y-89948412D01*
X107062115Y-89837885D01*
X106932275Y-89731329D01*
X106784142Y-89652150D01*
X106623408Y-89603392D01*
X106456250Y-89586928D01*
X105943750Y-89586928D01*
X105776592Y-89603392D01*
X105738325Y-89615000D01*
X104605000Y-89615000D01*
X104605000Y-89572998D01*
X104446252Y-89572998D01*
X104605000Y-89414250D01*
X104608072Y-89400000D01*
X104595812Y-89275518D01*
X104559502Y-89155820D01*
X104500537Y-89045506D01*
X104421185Y-88948815D01*
X104324494Y-88869463D01*
X104214180Y-88810498D01*
X104094482Y-88774188D01*
X103970000Y-88761928D01*
X103852104Y-88762753D01*
X103847954Y-88757000D01*
X102457000Y-88757000D01*
X102457000Y-88768133D01*
X102395518Y-88774188D01*
X102386248Y-88777000D01*
X102203000Y-88777000D01*
X102203000Y-88757000D01*
X100812046Y-88757000D01*
X100685881Y-88931874D01*
X100765724Y-89154976D01*
X100887631Y-89342764D01*
X101028206Y-89487116D01*
X100949259Y-89605269D01*
X100876892Y-89779978D01*
X100840000Y-89965448D01*
X100840000Y-90154552D01*
X100876892Y-90340022D01*
X100949259Y-90514731D01*
X101054319Y-90671964D01*
X101067245Y-90684890D01*
X100613564Y-91138571D01*
X100581700Y-91164721D01*
X100530466Y-91227150D01*
X100477354Y-91291867D01*
X100399818Y-91436926D01*
X100352072Y-91594324D01*
X100335950Y-91758012D01*
X100339991Y-91799040D01*
X100339990Y-94128971D01*
X100335950Y-94169990D01*
X100339990Y-94211008D01*
X100352072Y-94333678D01*
X100399818Y-94491076D01*
X100477354Y-94636135D01*
X100581699Y-94763281D01*
X100613568Y-94789435D01*
X101053458Y-95229325D01*
X100949259Y-95385269D01*
X100876892Y-95559978D01*
X100840000Y-95745448D01*
X100840000Y-95934552D01*
X100876892Y-96120022D01*
X100949259Y-96294731D01*
X101028206Y-96412884D01*
X100887631Y-96557236D01*
X100765724Y-96745024D01*
X100685881Y-96968126D01*
X100812046Y-97143000D01*
X102203000Y-97143000D01*
X102203000Y-97123000D01*
X102386248Y-97123000D01*
X102395518Y-97125812D01*
X102457000Y-97131867D01*
X102457000Y-97143000D01*
X103847954Y-97143000D01*
X103852104Y-97137247D01*
X103970000Y-97138072D01*
X104094482Y-97125812D01*
X104214180Y-97089502D01*
X104324494Y-97030537D01*
X104421185Y-96951185D01*
X104500537Y-96854494D01*
X104559502Y-96744180D01*
X104595812Y-96624482D01*
X104608072Y-96500000D01*
X104605000Y-96485750D01*
X104446250Y-96327000D01*
X104082420Y-96327000D01*
X104094482Y-96325812D01*
X104214180Y-96289502D01*
X104324494Y-96230537D01*
X104421185Y-96151185D01*
X104500537Y-96054494D01*
X104541625Y-95977625D01*
X104605000Y-95914250D01*
X104608072Y-95900000D01*
X104598223Y-95800000D01*
X104608072Y-95700000D01*
X104608072Y-95675000D01*
X105086928Y-95675000D01*
X105099188Y-95799482D01*
X105135498Y-95919180D01*
X105194463Y-96029494D01*
X105273815Y-96126185D01*
X105370506Y-96205537D01*
X105480820Y-96264502D01*
X105600518Y-96300812D01*
X105725000Y-96313072D01*
X105914250Y-96310000D01*
X106073000Y-96151250D01*
X106073000Y-95402000D01*
X106327000Y-95402000D01*
X106327000Y-96151250D01*
X106485750Y-96310000D01*
X106675000Y-96313072D01*
X106799482Y-96300812D01*
X106919180Y-96264502D01*
X107029494Y-96205537D01*
X107126185Y-96126185D01*
X107200000Y-96036241D01*
X107273815Y-96126185D01*
X107370506Y-96205537D01*
X107480820Y-96264502D01*
X107600518Y-96300812D01*
X107725000Y-96313072D01*
X107914250Y-96310000D01*
X108073000Y-96151250D01*
X108073000Y-95352000D01*
X107248750Y-95352000D01*
X107175000Y-95425750D01*
X107151250Y-95402000D01*
X106327000Y-95402000D01*
X106073000Y-95402000D01*
X105248750Y-95402000D01*
X105090000Y-95560750D01*
X105086928Y-95675000D01*
X104608072Y-95675000D01*
X104608072Y-95100000D01*
X104595812Y-94975518D01*
X104595655Y-94975000D01*
X104595812Y-94974482D01*
X104608072Y-94850000D01*
X104608072Y-94550000D01*
X104598223Y-94450000D01*
X104601897Y-94412699D01*
X104708233Y-94355862D01*
X104827764Y-94257764D01*
X104852347Y-94227810D01*
X105102011Y-93978145D01*
X105103031Y-93988500D01*
X105150722Y-94145716D01*
X105228169Y-94290608D01*
X105311863Y-94392590D01*
X105273815Y-94423815D01*
X105194463Y-94520506D01*
X105135498Y-94630820D01*
X105099188Y-94750518D01*
X105086928Y-94875000D01*
X105090000Y-94989250D01*
X105248750Y-95148000D01*
X106073000Y-95148000D01*
X106073000Y-95128000D01*
X106327000Y-95128000D01*
X106327000Y-95148000D01*
X107151250Y-95148000D01*
X107225000Y-95074250D01*
X107248750Y-95098000D01*
X108073000Y-95098000D01*
X108073000Y-95078000D01*
X108327000Y-95078000D01*
X108327000Y-95098000D01*
X108347000Y-95098000D01*
X108347000Y-95352000D01*
X108327000Y-95352000D01*
X108327000Y-96151250D01*
X108485750Y-96310000D01*
X108570703Y-96311379D01*
X108577805Y-96383492D01*
X108628412Y-96550315D01*
X108710590Y-96704061D01*
X108793468Y-96805048D01*
X108793471Y-96805051D01*
X108821184Y-96838819D01*
X108854952Y-96866532D01*
X109283464Y-97295044D01*
X109311181Y-97328817D01*
X109357226Y-97366606D01*
X109324188Y-97475518D01*
X109311928Y-97600000D01*
X109311928Y-99300000D01*
X109324188Y-99424482D01*
X109360498Y-99544180D01*
X109419463Y-99654494D01*
X109498815Y-99751185D01*
X109546111Y-99790000D01*
X106853889Y-99790000D01*
X106901185Y-99751185D01*
X106980537Y-99654494D01*
X107039502Y-99544180D01*
X107075812Y-99424482D01*
X107088072Y-99300000D01*
X107085000Y-98735750D01*
X106926250Y-98577000D01*
X106127000Y-98577000D01*
X106127000Y-98597000D01*
X105873000Y-98597000D01*
X105873000Y-98577000D01*
X105073750Y-98577000D01*
X104915000Y-98735750D01*
X104911928Y-99300000D01*
X104924188Y-99424482D01*
X104960498Y-99544180D01*
X105019463Y-99654494D01*
X105098815Y-99751185D01*
X105146111Y-99790000D01*
X97360000Y-99790000D01*
X97360000Y-98296514D01*
X97504013Y-98358415D01*
X97723000Y-98405000D01*
X98023000Y-98405000D01*
X98023000Y-97397000D01*
X98277000Y-97397000D01*
X98277000Y-98405000D01*
X98577000Y-98405000D01*
X98795987Y-98358415D01*
X99001678Y-98270003D01*
X99186169Y-98143161D01*
X99342369Y-97982764D01*
X99464276Y-97794976D01*
X99544119Y-97571874D01*
X100685881Y-97571874D01*
X100765724Y-97794976D01*
X100887631Y-97982764D01*
X101043831Y-98143161D01*
X101228322Y-98270003D01*
X101434013Y-98358415D01*
X101653000Y-98405000D01*
X102203000Y-98405000D01*
X102203000Y-97397000D01*
X102457000Y-97397000D01*
X102457000Y-98405000D01*
X103007000Y-98405000D01*
X103225987Y-98358415D01*
X103431678Y-98270003D01*
X103616169Y-98143161D01*
X103772369Y-97982764D01*
X103894276Y-97794976D01*
X103964053Y-97600000D01*
X104911928Y-97600000D01*
X104915000Y-98164250D01*
X105073750Y-98323000D01*
X105873000Y-98323000D01*
X105873000Y-97123750D01*
X106127000Y-97123750D01*
X106127000Y-98323000D01*
X106926250Y-98323000D01*
X107085000Y-98164250D01*
X107088072Y-97600000D01*
X107075812Y-97475518D01*
X107039502Y-97355820D01*
X106980537Y-97245506D01*
X106901185Y-97148815D01*
X106804494Y-97069463D01*
X106694180Y-97010498D01*
X106574482Y-96974188D01*
X106450000Y-96961928D01*
X106285750Y-96965000D01*
X106127000Y-97123750D01*
X105873000Y-97123750D01*
X105714250Y-96965000D01*
X105550000Y-96961928D01*
X105425518Y-96974188D01*
X105305820Y-97010498D01*
X105195506Y-97069463D01*
X105098815Y-97148815D01*
X105019463Y-97245506D01*
X104960498Y-97355820D01*
X104924188Y-97475518D01*
X104911928Y-97600000D01*
X103964053Y-97600000D01*
X103974119Y-97571874D01*
X103847954Y-97397000D01*
X102457000Y-97397000D01*
X102203000Y-97397000D01*
X100812046Y-97397000D01*
X100685881Y-97571874D01*
X99544119Y-97571874D01*
X99417954Y-97397000D01*
X98277000Y-97397000D01*
X98023000Y-97397000D01*
X98003000Y-97397000D01*
X98003000Y-97143000D01*
X98023000Y-97143000D01*
X98023000Y-96135000D01*
X98277000Y-96135000D01*
X98277000Y-97143000D01*
X99417954Y-97143000D01*
X99544119Y-96968126D01*
X99464276Y-96745024D01*
X99342369Y-96557236D01*
X99186169Y-96396839D01*
X99001678Y-96269997D01*
X98795987Y-96181585D01*
X98577000Y-96135000D01*
X98277000Y-96135000D01*
X98023000Y-96135000D01*
X97723000Y-96135000D01*
X97504013Y-96181585D01*
X97360000Y-96243486D01*
X97360000Y-89656514D01*
X97504013Y-89718415D01*
X97723000Y-89765000D01*
X98023000Y-89765000D01*
X98023000Y-88757000D01*
X98277000Y-88757000D01*
X98277000Y-89765000D01*
X98577000Y-89765000D01*
X98795987Y-89718415D01*
X99001678Y-89630003D01*
X99186169Y-89503161D01*
X99342369Y-89342764D01*
X99464276Y-89154976D01*
X99544119Y-88931874D01*
X99417954Y-88757000D01*
X98277000Y-88757000D01*
X98023000Y-88757000D01*
X98003000Y-88757000D01*
X98003000Y-88503000D01*
X98023000Y-88503000D01*
X98023000Y-87495000D01*
X98277000Y-87495000D01*
X98277000Y-88503000D01*
X99417954Y-88503000D01*
X99544119Y-88328126D01*
X100685881Y-88328126D01*
X100812046Y-88503000D01*
X102203000Y-88503000D01*
X102203000Y-87495000D01*
X102457000Y-87495000D01*
X102457000Y-88503000D01*
X103847954Y-88503000D01*
X103974119Y-88328126D01*
X103964054Y-88300000D01*
X104911928Y-88300000D01*
X104924188Y-88424482D01*
X104960498Y-88544180D01*
X105019463Y-88654494D01*
X105098815Y-88751185D01*
X105195506Y-88830537D01*
X105305820Y-88889502D01*
X105425518Y-88925812D01*
X105550000Y-88938072D01*
X105714250Y-88935000D01*
X105873000Y-88776250D01*
X105873000Y-87577000D01*
X106127000Y-87577000D01*
X106127000Y-88776250D01*
X106285750Y-88935000D01*
X106450000Y-88938072D01*
X106574482Y-88925812D01*
X106694180Y-88889502D01*
X106804494Y-88830537D01*
X106901185Y-88751185D01*
X106980537Y-88654494D01*
X107039502Y-88544180D01*
X107075812Y-88424482D01*
X107088072Y-88300000D01*
X107085000Y-87735750D01*
X106926250Y-87577000D01*
X106127000Y-87577000D01*
X105873000Y-87577000D01*
X105073750Y-87577000D01*
X104915000Y-87735750D01*
X104911928Y-88300000D01*
X103964054Y-88300000D01*
X103894276Y-88105024D01*
X103772369Y-87917236D01*
X103616169Y-87756839D01*
X103431678Y-87629997D01*
X103225987Y-87541585D01*
X103007000Y-87495000D01*
X102457000Y-87495000D01*
X102203000Y-87495000D01*
X101653000Y-87495000D01*
X101434013Y-87541585D01*
X101228322Y-87629997D01*
X101043831Y-87756839D01*
X100887631Y-87917236D01*
X100765724Y-88105024D01*
X100685881Y-88328126D01*
X99544119Y-88328126D01*
X99464276Y-88105024D01*
X99342369Y-87917236D01*
X99186169Y-87756839D01*
X99001678Y-87629997D01*
X98795987Y-87541585D01*
X98577000Y-87495000D01*
X98277000Y-87495000D01*
X98023000Y-87495000D01*
X97723000Y-87495000D01*
X97504013Y-87541585D01*
X97360000Y-87603486D01*
X97360000Y-86110000D01*
X105146111Y-86110000D01*
X105098815Y-86148815D01*
%TA.AperFunction,Conductor*%
D28*
G36*
X105098815Y-86148815D02*
G01*
X105019463Y-86245506D01*
X104960498Y-86355820D01*
X104924188Y-86475518D01*
X104911928Y-86600000D01*
X104915000Y-87164250D01*
X105073750Y-87323000D01*
X105873000Y-87323000D01*
X105873000Y-87303000D01*
X106127000Y-87303000D01*
X106127000Y-87323000D01*
X106926250Y-87323000D01*
X107085000Y-87164250D01*
X107088072Y-86600000D01*
X107075812Y-86475518D01*
X107039502Y-86355820D01*
X106980537Y-86245506D01*
X106901185Y-86148815D01*
X106853889Y-86110000D01*
X109546111Y-86110000D01*
X109498815Y-86148815D01*
X109419463Y-86245506D01*
X109360498Y-86355820D01*
X109324188Y-86475518D01*
X109311928Y-86600000D01*
X109311928Y-88300000D01*
X109324188Y-88424482D01*
X109360498Y-88544180D01*
X109419463Y-88654494D01*
X109498815Y-88751185D01*
X109595506Y-88830537D01*
X109705820Y-88889502D01*
X109825518Y-88925812D01*
X109950000Y-88938072D01*
X110850000Y-88938072D01*
X110974482Y-88925812D01*
X111094180Y-88889502D01*
X111121987Y-88874639D01*
X111135498Y-88919180D01*
X111194463Y-89029494D01*
X111273815Y-89126185D01*
X111370506Y-89205537D01*
X111480586Y-89264377D01*
X111335750Y-89265000D01*
X111177000Y-89423750D01*
X111177000Y-90523000D01*
X112526250Y-90523000D01*
X112685000Y-90364250D01*
X112688072Y-89900000D01*
X112675812Y-89775518D01*
X112639502Y-89655820D01*
X112580537Y-89545506D01*
X112501185Y-89448815D01*
X112404494Y-89369463D01*
X112294180Y-89310498D01*
X112292538Y-89310000D01*
X112327002Y-89310000D01*
X112327002Y-89151252D01*
X112485750Y-89310000D01*
X112675000Y-89313072D01*
X112799482Y-89300812D01*
X112919180Y-89264502D01*
X113029494Y-89205537D01*
X113126185Y-89126185D01*
X113205537Y-89029494D01*
X113264502Y-88919180D01*
X113300812Y-88799482D01*
X113313072Y-88675000D01*
X113310000Y-88510750D01*
X113151250Y-88352000D01*
X112327000Y-88352000D01*
X112327000Y-88372000D01*
X112073000Y-88372000D01*
X112073000Y-88352000D01*
X112053000Y-88352000D01*
X112053000Y-88098000D01*
X112073000Y-88098000D01*
X112073000Y-88078000D01*
X112327000Y-88078000D01*
X112327000Y-88098000D01*
X113151250Y-88098000D01*
X113310000Y-87939250D01*
X113313072Y-87775000D01*
X113300812Y-87650518D01*
X113299278Y-87645460D01*
X113498061Y-87685000D01*
X113701939Y-87685000D01*
X113901898Y-87645226D01*
X114090256Y-87567205D01*
X114259774Y-87453937D01*
X114403937Y-87309774D01*
X114517205Y-87140256D01*
X114594144Y-86954511D01*
X114603392Y-87048408D01*
X114652150Y-87209142D01*
X114731329Y-87357275D01*
X114807426Y-87450000D01*
X114731329Y-87542725D01*
X114652150Y-87690858D01*
X114603392Y-87851592D01*
X114586928Y-88018750D01*
X114586928Y-88456250D01*
X114603392Y-88623408D01*
X114652150Y-88784142D01*
X114731329Y-88932275D01*
X114815000Y-89034230D01*
X114815001Y-91256521D01*
X114810719Y-91300000D01*
X114827805Y-91473490D01*
X114878412Y-91640313D01*
X114960590Y-91794059D01*
X115043468Y-91895046D01*
X115043471Y-91895049D01*
X115071184Y-91928817D01*
X115104951Y-91956529D01*
X115213422Y-92065000D01*
X112672621Y-92065000D01*
X112639502Y-91955820D01*
X112580537Y-91845506D01*
X112543191Y-91800000D01*
X112580537Y-91754494D01*
X112639502Y-91644180D01*
X112675812Y-91524482D01*
X112688072Y-91400000D01*
X112685000Y-90935750D01*
X112526250Y-90777000D01*
X111177000Y-90777000D01*
X111177000Y-90797000D01*
X110923000Y-90797000D01*
X110923000Y-90777000D01*
X109573750Y-90777000D01*
X109415000Y-90935750D01*
X109411928Y-91400000D01*
X109424188Y-91524482D01*
X109460498Y-91644180D01*
X109519463Y-91754494D01*
X109556809Y-91800000D01*
X109554451Y-91802873D01*
X109381534Y-91629956D01*
X109353817Y-91596183D01*
X109219059Y-91485589D01*
X109206008Y-91478613D01*
X109264502Y-91369180D01*
X109300812Y-91249482D01*
X109313072Y-91125000D01*
X109310000Y-90960750D01*
X109151250Y-90802000D01*
X108327000Y-90802000D01*
X108327000Y-90822000D01*
X108073000Y-90822000D01*
X108073000Y-90802000D01*
X108053000Y-90802000D01*
X108053000Y-90548000D01*
X108073000Y-90548000D01*
X108073000Y-89748750D01*
X108327000Y-89748750D01*
X108327000Y-90548000D01*
X109151250Y-90548000D01*
X109310000Y-90389250D01*
X109313072Y-90225000D01*
X109300812Y-90100518D01*
X109264502Y-89980820D01*
X109221303Y-89900000D01*
X109411928Y-89900000D01*
X109415000Y-90364250D01*
X109573750Y-90523000D01*
X110923000Y-90523000D01*
X110923000Y-89423750D01*
X110764250Y-89265000D01*
X110050000Y-89261928D01*
X109925518Y-89274188D01*
X109805820Y-89310498D01*
X109695506Y-89369463D01*
X109598815Y-89448815D01*
X109519463Y-89545506D01*
X109460498Y-89655820D01*
X109424188Y-89775518D01*
X109411928Y-89900000D01*
X109221303Y-89900000D01*
X109205537Y-89870506D01*
X109126185Y-89773815D01*
X109029494Y-89694463D01*
X108919180Y-89635498D01*
X108799482Y-89599188D01*
X108675000Y-89586928D01*
X108485750Y-89590000D01*
X108327000Y-89748750D01*
X108073000Y-89748750D01*
X107914250Y-89590000D01*
X107725000Y-89586928D01*
X107600518Y-89599188D01*
X107480820Y-89635498D01*
X107370506Y-89694463D01*
X107273815Y-89773815D01*
X107194463Y-89870506D01*
X107152821Y-89948412D01*
X107062115Y-89837885D01*
X106932275Y-89731329D01*
X106784142Y-89652150D01*
X106623408Y-89603392D01*
X106456250Y-89586928D01*
X105943750Y-89586928D01*
X105776592Y-89603392D01*
X105738325Y-89615000D01*
X104605000Y-89615000D01*
X104605000Y-89572998D01*
X104446252Y-89572998D01*
X104605000Y-89414250D01*
X104608072Y-89400000D01*
X104595812Y-89275518D01*
X104559502Y-89155820D01*
X104500537Y-89045506D01*
X104421185Y-88948815D01*
X104324494Y-88869463D01*
X104214180Y-88810498D01*
X104094482Y-88774188D01*
X103970000Y-88761928D01*
X103852104Y-88762753D01*
X103847954Y-88757000D01*
X102457000Y-88757000D01*
X102457000Y-88768133D01*
X102395518Y-88774188D01*
X102386248Y-88777000D01*
X102203000Y-88777000D01*
X102203000Y-88757000D01*
X100812046Y-88757000D01*
X100685881Y-88931874D01*
X100765724Y-89154976D01*
X100887631Y-89342764D01*
X101028206Y-89487116D01*
X100949259Y-89605269D01*
X100876892Y-89779978D01*
X100840000Y-89965448D01*
X100840000Y-90154552D01*
X100876892Y-90340022D01*
X100949259Y-90514731D01*
X101054319Y-90671964D01*
X101067245Y-90684890D01*
X100613564Y-91138571D01*
X100581700Y-91164721D01*
X100530466Y-91227150D01*
X100477354Y-91291867D01*
X100399818Y-91436926D01*
X100352072Y-91594324D01*
X100335950Y-91758012D01*
X100339991Y-91799040D01*
X100339990Y-94128971D01*
X100335950Y-94169990D01*
X100339990Y-94211008D01*
X100352072Y-94333678D01*
X100399818Y-94491076D01*
X100477354Y-94636135D01*
X100581699Y-94763281D01*
X100613568Y-94789435D01*
X101053458Y-95229325D01*
X100949259Y-95385269D01*
X100876892Y-95559978D01*
X100840000Y-95745448D01*
X100840000Y-95934552D01*
X100876892Y-96120022D01*
X100949259Y-96294731D01*
X101028206Y-96412884D01*
X100887631Y-96557236D01*
X100765724Y-96745024D01*
X100685881Y-96968126D01*
X100812046Y-97143000D01*
X102203000Y-97143000D01*
X102203000Y-97123000D01*
X102386248Y-97123000D01*
X102395518Y-97125812D01*
X102457000Y-97131867D01*
X102457000Y-97143000D01*
X103847954Y-97143000D01*
X103852104Y-97137247D01*
X103970000Y-97138072D01*
X104094482Y-97125812D01*
X104214180Y-97089502D01*
X104324494Y-97030537D01*
X104421185Y-96951185D01*
X104500537Y-96854494D01*
X104559502Y-96744180D01*
X104595812Y-96624482D01*
X104608072Y-96500000D01*
X104605000Y-96485750D01*
X104446250Y-96327000D01*
X104082420Y-96327000D01*
X104094482Y-96325812D01*
X104214180Y-96289502D01*
X104324494Y-96230537D01*
X104421185Y-96151185D01*
X104500537Y-96054494D01*
X104541625Y-95977625D01*
X104605000Y-95914250D01*
X104608072Y-95900000D01*
X104598223Y-95800000D01*
X104608072Y-95700000D01*
X104608072Y-95675000D01*
X105086928Y-95675000D01*
X105099188Y-95799482D01*
X105135498Y-95919180D01*
X105194463Y-96029494D01*
X105273815Y-96126185D01*
X105370506Y-96205537D01*
X105480820Y-96264502D01*
X105600518Y-96300812D01*
X105725000Y-96313072D01*
X105914250Y-96310000D01*
X106073000Y-96151250D01*
X106073000Y-95402000D01*
X106327000Y-95402000D01*
X106327000Y-96151250D01*
X106485750Y-96310000D01*
X106675000Y-96313072D01*
X106799482Y-96300812D01*
X106919180Y-96264502D01*
X107029494Y-96205537D01*
X107126185Y-96126185D01*
X107200000Y-96036241D01*
X107273815Y-96126185D01*
X107370506Y-96205537D01*
X107480820Y-96264502D01*
X107600518Y-96300812D01*
X107725000Y-96313072D01*
X107914250Y-96310000D01*
X108073000Y-96151250D01*
X108073000Y-95352000D01*
X107248750Y-95352000D01*
X107175000Y-95425750D01*
X107151250Y-95402000D01*
X106327000Y-95402000D01*
X106073000Y-95402000D01*
X105248750Y-95402000D01*
X105090000Y-95560750D01*
X105086928Y-95675000D01*
X104608072Y-95675000D01*
X104608072Y-95100000D01*
X104595812Y-94975518D01*
X104595655Y-94975000D01*
X104595812Y-94974482D01*
X104608072Y-94850000D01*
X104608072Y-94550000D01*
X104598223Y-94450000D01*
X104601897Y-94412699D01*
X104708233Y-94355862D01*
X104827764Y-94257764D01*
X104852347Y-94227810D01*
X105102011Y-93978145D01*
X105103031Y-93988500D01*
X105150722Y-94145716D01*
X105228169Y-94290608D01*
X105311863Y-94392590D01*
X105273815Y-94423815D01*
X105194463Y-94520506D01*
X105135498Y-94630820D01*
X105099188Y-94750518D01*
X105086928Y-94875000D01*
X105090000Y-94989250D01*
X105248750Y-95148000D01*
X106073000Y-95148000D01*
X106073000Y-95128000D01*
X106327000Y-95128000D01*
X106327000Y-95148000D01*
X107151250Y-95148000D01*
X107225000Y-95074250D01*
X107248750Y-95098000D01*
X108073000Y-95098000D01*
X108073000Y-95078000D01*
X108327000Y-95078000D01*
X108327000Y-95098000D01*
X108347000Y-95098000D01*
X108347000Y-95352000D01*
X108327000Y-95352000D01*
X108327000Y-96151250D01*
X108485750Y-96310000D01*
X108570703Y-96311379D01*
X108577805Y-96383492D01*
X108628412Y-96550315D01*
X108710590Y-96704061D01*
X108793468Y-96805048D01*
X108793471Y-96805051D01*
X108821184Y-96838819D01*
X108854952Y-96866532D01*
X109283464Y-97295044D01*
X109311181Y-97328817D01*
X109357226Y-97366606D01*
X109324188Y-97475518D01*
X109311928Y-97600000D01*
X109311928Y-99300000D01*
X109324188Y-99424482D01*
X109360498Y-99544180D01*
X109419463Y-99654494D01*
X109498815Y-99751185D01*
X109546111Y-99790000D01*
X106853889Y-99790000D01*
X106901185Y-99751185D01*
X106980537Y-99654494D01*
X107039502Y-99544180D01*
X107075812Y-99424482D01*
X107088072Y-99300000D01*
X107085000Y-98735750D01*
X106926250Y-98577000D01*
X106127000Y-98577000D01*
X106127000Y-98597000D01*
X105873000Y-98597000D01*
X105873000Y-98577000D01*
X105073750Y-98577000D01*
X104915000Y-98735750D01*
X104911928Y-99300000D01*
X104924188Y-99424482D01*
X104960498Y-99544180D01*
X105019463Y-99654494D01*
X105098815Y-99751185D01*
X105146111Y-99790000D01*
X97360000Y-99790000D01*
X97360000Y-98296514D01*
X97504013Y-98358415D01*
X97723000Y-98405000D01*
X98023000Y-98405000D01*
X98023000Y-97397000D01*
X98277000Y-97397000D01*
X98277000Y-98405000D01*
X98577000Y-98405000D01*
X98795987Y-98358415D01*
X99001678Y-98270003D01*
X99186169Y-98143161D01*
X99342369Y-97982764D01*
X99464276Y-97794976D01*
X99544119Y-97571874D01*
X100685881Y-97571874D01*
X100765724Y-97794976D01*
X100887631Y-97982764D01*
X101043831Y-98143161D01*
X101228322Y-98270003D01*
X101434013Y-98358415D01*
X101653000Y-98405000D01*
X102203000Y-98405000D01*
X102203000Y-97397000D01*
X102457000Y-97397000D01*
X102457000Y-98405000D01*
X103007000Y-98405000D01*
X103225987Y-98358415D01*
X103431678Y-98270003D01*
X103616169Y-98143161D01*
X103772369Y-97982764D01*
X103894276Y-97794976D01*
X103964053Y-97600000D01*
X104911928Y-97600000D01*
X104915000Y-98164250D01*
X105073750Y-98323000D01*
X105873000Y-98323000D01*
X105873000Y-97123750D01*
X106127000Y-97123750D01*
X106127000Y-98323000D01*
X106926250Y-98323000D01*
X107085000Y-98164250D01*
X107088072Y-97600000D01*
X107075812Y-97475518D01*
X107039502Y-97355820D01*
X106980537Y-97245506D01*
X106901185Y-97148815D01*
X106804494Y-97069463D01*
X106694180Y-97010498D01*
X106574482Y-96974188D01*
X106450000Y-96961928D01*
X106285750Y-96965000D01*
X106127000Y-97123750D01*
X105873000Y-97123750D01*
X105714250Y-96965000D01*
X105550000Y-96961928D01*
X105425518Y-96974188D01*
X105305820Y-97010498D01*
X105195506Y-97069463D01*
X105098815Y-97148815D01*
X105019463Y-97245506D01*
X104960498Y-97355820D01*
X104924188Y-97475518D01*
X104911928Y-97600000D01*
X103964053Y-97600000D01*
X103974119Y-97571874D01*
X103847954Y-97397000D01*
X102457000Y-97397000D01*
X102203000Y-97397000D01*
X100812046Y-97397000D01*
X100685881Y-97571874D01*
X99544119Y-97571874D01*
X99417954Y-97397000D01*
X98277000Y-97397000D01*
X98023000Y-97397000D01*
X98003000Y-97397000D01*
X98003000Y-97143000D01*
X98023000Y-97143000D01*
X98023000Y-96135000D01*
X98277000Y-96135000D01*
X98277000Y-97143000D01*
X99417954Y-97143000D01*
X99544119Y-96968126D01*
X99464276Y-96745024D01*
X99342369Y-96557236D01*
X99186169Y-96396839D01*
X99001678Y-96269997D01*
X98795987Y-96181585D01*
X98577000Y-96135000D01*
X98277000Y-96135000D01*
X98023000Y-96135000D01*
X97723000Y-96135000D01*
X97504013Y-96181585D01*
X97360000Y-96243486D01*
X97360000Y-89656514D01*
X97504013Y-89718415D01*
X97723000Y-89765000D01*
X98023000Y-89765000D01*
X98023000Y-88757000D01*
X98277000Y-88757000D01*
X98277000Y-89765000D01*
X98577000Y-89765000D01*
X98795987Y-89718415D01*
X99001678Y-89630003D01*
X99186169Y-89503161D01*
X99342369Y-89342764D01*
X99464276Y-89154976D01*
X99544119Y-88931874D01*
X99417954Y-88757000D01*
X98277000Y-88757000D01*
X98023000Y-88757000D01*
X98003000Y-88757000D01*
X98003000Y-88503000D01*
X98023000Y-88503000D01*
X98023000Y-87495000D01*
X98277000Y-87495000D01*
X98277000Y-88503000D01*
X99417954Y-88503000D01*
X99544119Y-88328126D01*
X100685881Y-88328126D01*
X100812046Y-88503000D01*
X102203000Y-88503000D01*
X102203000Y-87495000D01*
X102457000Y-87495000D01*
X102457000Y-88503000D01*
X103847954Y-88503000D01*
X103974119Y-88328126D01*
X103964054Y-88300000D01*
X104911928Y-88300000D01*
X104924188Y-88424482D01*
X104960498Y-88544180D01*
X105019463Y-88654494D01*
X105098815Y-88751185D01*
X105195506Y-88830537D01*
X105305820Y-88889502D01*
X105425518Y-88925812D01*
X105550000Y-88938072D01*
X105714250Y-88935000D01*
X105873000Y-88776250D01*
X105873000Y-87577000D01*
X106127000Y-87577000D01*
X106127000Y-88776250D01*
X106285750Y-88935000D01*
X106450000Y-88938072D01*
X106574482Y-88925812D01*
X106694180Y-88889502D01*
X106804494Y-88830537D01*
X106901185Y-88751185D01*
X106980537Y-88654494D01*
X107039502Y-88544180D01*
X107075812Y-88424482D01*
X107088072Y-88300000D01*
X107085000Y-87735750D01*
X106926250Y-87577000D01*
X106127000Y-87577000D01*
X105873000Y-87577000D01*
X105073750Y-87577000D01*
X104915000Y-87735750D01*
X104911928Y-88300000D01*
X103964054Y-88300000D01*
X103894276Y-88105024D01*
X103772369Y-87917236D01*
X103616169Y-87756839D01*
X103431678Y-87629997D01*
X103225987Y-87541585D01*
X103007000Y-87495000D01*
X102457000Y-87495000D01*
X102203000Y-87495000D01*
X101653000Y-87495000D01*
X101434013Y-87541585D01*
X101228322Y-87629997D01*
X101043831Y-87756839D01*
X100887631Y-87917236D01*
X100765724Y-88105024D01*
X100685881Y-88328126D01*
X99544119Y-88328126D01*
X99464276Y-88105024D01*
X99342369Y-87917236D01*
X99186169Y-87756839D01*
X99001678Y-87629997D01*
X98795987Y-87541585D01*
X98577000Y-87495000D01*
X98277000Y-87495000D01*
X98023000Y-87495000D01*
X97723000Y-87495000D01*
X97504013Y-87541585D01*
X97360000Y-87603486D01*
X97360000Y-86110000D01*
X105146111Y-86110000D01*
X105098815Y-86148815D01*
G37*
%TD.AperFunction*%
D27*
X113665000Y-97598061D02*
X113665000Y-97801939D01*
X113704774Y-98001898D01*
X113782795Y-98190256D01*
X113814256Y-98237341D01*
X113701939Y-98215000D01*
X113498061Y-98215000D01*
X113299278Y-98254540D01*
X113300812Y-98249482D01*
X113313072Y-98125000D01*
X113310000Y-97960750D01*
X113151250Y-97802000D01*
X112327000Y-97802000D01*
X112327000Y-97822000D01*
X112073000Y-97822000D01*
X112073000Y-97802000D01*
X112053000Y-97802000D01*
X112053000Y-97585000D01*
X113667598Y-97585000D01*
X113665000Y-97598061D01*
%TA.AperFunction,Conductor*%
D28*
G36*
X113665000Y-97598061D02*
G01*
X113665000Y-97801939D01*
X113704774Y-98001898D01*
X113782795Y-98190256D01*
X113814256Y-98237341D01*
X113701939Y-98215000D01*
X113498061Y-98215000D01*
X113299278Y-98254540D01*
X113300812Y-98249482D01*
X113313072Y-98125000D01*
X113310000Y-97960750D01*
X113151250Y-97802000D01*
X112327000Y-97802000D01*
X112327000Y-97822000D01*
X112073000Y-97822000D01*
X112073000Y-97802000D01*
X112053000Y-97802000D01*
X112053000Y-97585000D01*
X113667598Y-97585000D01*
X113665000Y-97598061D01*
G37*
%TD.AperFunction*%
D27*
X119998750Y-96823000D02*
X120798000Y-96823000D01*
X120798000Y-96803000D01*
X121052000Y-96803000D01*
X121052000Y-96823000D01*
X121072000Y-96823000D01*
X121072000Y-97077000D01*
X121052000Y-97077000D01*
X121052000Y-97097000D01*
X120798000Y-97097000D01*
X120798000Y-97077000D01*
X119998750Y-97077000D01*
X119910750Y-97165000D01*
X119848061Y-97165000D01*
X119648102Y-97204774D01*
X119628547Y-97212874D01*
X119695226Y-97051898D01*
X119735000Y-96851939D01*
X119735000Y-96785000D01*
X119960750Y-96785000D01*
X119998750Y-96823000D01*
%TA.AperFunction,Conductor*%
D28*
G36*
X119998750Y-96823000D02*
G01*
X120798000Y-96823000D01*
X120798000Y-96803000D01*
X121052000Y-96803000D01*
X121052000Y-96823000D01*
X121072000Y-96823000D01*
X121072000Y-97077000D01*
X121052000Y-97077000D01*
X121052000Y-97097000D01*
X120798000Y-97097000D01*
X120798000Y-97077000D01*
X119998750Y-97077000D01*
X119910750Y-97165000D01*
X119848061Y-97165000D01*
X119648102Y-97204774D01*
X119628547Y-97212874D01*
X119695226Y-97051898D01*
X119735000Y-96851939D01*
X119735000Y-96785000D01*
X119960750Y-96785000D01*
X119998750Y-96823000D01*
G37*
%TD.AperFunction*%
D27*
X132327000Y-95823000D02*
X132347000Y-95823000D01*
X132347000Y-96077000D01*
X132327000Y-96077000D01*
X132327000Y-96097000D01*
X132073000Y-96097000D01*
X132073000Y-96077000D01*
X132053000Y-96077000D01*
X132053000Y-95823000D01*
X132073000Y-95823000D01*
X132073000Y-95803000D01*
X132327000Y-95803000D01*
X132327000Y-95823000D01*
%TA.AperFunction,Conductor*%
D28*
G36*
X132327000Y-95823000D02*
G01*
X132347000Y-95823000D01*
X132347000Y-96077000D01*
X132327000Y-96077000D01*
X132327000Y-96097000D01*
X132073000Y-96097000D01*
X132073000Y-96077000D01*
X132053000Y-96077000D01*
X132053000Y-95823000D01*
X132073000Y-95823000D01*
X132073000Y-95803000D01*
X132327000Y-95803000D01*
X132327000Y-95823000D01*
G37*
%TD.AperFunction*%
D27*
X119664644Y-93833777D02*
X119585001Y-93754134D01*
X119585001Y-93482416D01*
X119598051Y-93485012D01*
X119801929Y-93485012D01*
X120001888Y-93445238D01*
X120089455Y-93408966D01*
X119664644Y-93833777D01*
%TA.AperFunction,Conductor*%
D28*
G36*
X119664644Y-93833777D02*
G01*
X119585001Y-93754134D01*
X119585001Y-93482416D01*
X119598051Y-93485012D01*
X119801929Y-93485012D01*
X120001888Y-93445238D01*
X120089455Y-93408966D01*
X119664644Y-93833777D01*
G37*
%TD.AperFunction*%
D27*
X121797000Y-93056928D02*
X121503000Y-93056928D01*
X121503000Y-92843072D01*
X121797000Y-92843072D01*
X121797000Y-93056928D01*
%TA.AperFunction,Conductor*%
D28*
G36*
X121797000Y-93056928D02*
G01*
X121503000Y-93056928D01*
X121503000Y-92843072D01*
X121797000Y-92843072D01*
X121797000Y-93056928D01*
G37*
%TD.AperFunction*%
D27*
X121052000Y-88823000D02*
X121072000Y-88823000D01*
X121072000Y-89077000D01*
X121052000Y-89077000D01*
X121052000Y-89097000D01*
X120798000Y-89097000D01*
X120798000Y-89077000D01*
X120778000Y-89077000D01*
X120778000Y-88823000D01*
X120798000Y-88823000D01*
X120798000Y-88803000D01*
X121052000Y-88803000D01*
X121052000Y-88823000D01*
%TA.AperFunction,Conductor*%
D28*
G36*
X121052000Y-88823000D02*
G01*
X121072000Y-88823000D01*
X121072000Y-89077000D01*
X121052000Y-89077000D01*
X121052000Y-89097000D01*
X120798000Y-89097000D01*
X120798000Y-89077000D01*
X120778000Y-89077000D01*
X120778000Y-88823000D01*
X120798000Y-88823000D01*
X120798000Y-88803000D01*
X121052000Y-88803000D01*
X121052000Y-88823000D01*
G37*
%TD.AperFunction*%
D27*
X120046547Y-86126074D02*
X120036311Y-86127082D01*
X119878913Y-86174828D01*
X119733854Y-86252364D01*
X119606709Y-86356709D01*
X119580558Y-86388574D01*
X119138578Y-86830555D01*
X119106709Y-86856709D01*
X119020045Y-86962311D01*
X119001898Y-86954794D01*
X118804162Y-86915462D01*
X118813072Y-86825000D01*
X118813072Y-86425000D01*
X118796969Y-86261500D01*
X118751012Y-86110000D01*
X120059738Y-86110000D01*
X120046547Y-86126074D01*
%TA.AperFunction,Conductor*%
D28*
G36*
X120046547Y-86126074D02*
G01*
X120036311Y-86127082D01*
X119878913Y-86174828D01*
X119733854Y-86252364D01*
X119606709Y-86356709D01*
X119580558Y-86388574D01*
X119138578Y-86830555D01*
X119106709Y-86856709D01*
X119020045Y-86962311D01*
X119001898Y-86954794D01*
X118804162Y-86915462D01*
X118813072Y-86825000D01*
X118813072Y-86425000D01*
X118796969Y-86261500D01*
X118751012Y-86110000D01*
X120059738Y-86110000D01*
X120046547Y-86126074D01*
G37*
%TD.AperFunction*%
%TD*%
D29*
X113450000Y-97700000D03*
X119950000Y-93449999D03*
X112700000Y-89700000D03*
X117700000Y-95950000D03*
X113200000Y-95850000D03*
X114700000Y-97700000D03*
X113600000Y-86650000D03*
X126200000Y-86750034D03*
X128450000Y-89200000D03*
X113600000Y-99250000D03*
X127900000Y-98950000D03*
X104700000Y-91950030D03*
X120511320Y-91847706D03*
X104700000Y-92950043D03*
X119699990Y-92450012D03*
X118700000Y-96750000D03*
X128200000Y-92950000D03*
X118700000Y-87950020D03*
X119700000Y-95050000D03*
X119950000Y-98200000D03*
X128199993Y-95399989D03*
X119700000Y-89450000D03*
X125450000Y-97950000D03*
X132200000Y-97950000D03*
X132200000Y-95950000D03*
X132200000Y-93950000D03*
X132200000Y-91950000D03*
X132200000Y-89950000D03*
X132200000Y-87950000D03*
D30*
X102330000Y-97270000D03*
X102330000Y-88630000D03*
D29*
X101800000Y-90060000D03*
D31*
X98150000Y-88630000D03*
D29*
X101800000Y-95840000D03*
D31*
X98150000Y-97270000D03*
M02*
