%TF.GenerationSoftware,KiCad,Pcbnew,(5.1.8)-1*%
%TF.CreationDate,2021-05-04T18:07:08+08:00*%
%TF.ProjectId,downloader,646f776e-6c6f-4616-9465-722e6b696361,rev?*%
%TF.SameCoordinates,Original*%
%TF.FileFunction,Soldermask,Top*%
%TF.FilePolarity,Negative*%
%FSLAX46Y46*%
G04 Gerber Fmt 4.6, Leading zero omitted, Abs format (unit mm)*
G04 Created by KiCad (PCBNEW (5.1.8)-1) date 2021-05-04 18:07:08*
%MOMM*%
%LPD*%
G01*
G04 APERTURE LIST*
%ADD10O,1.450000X1.450000*%
%ADD11O,2.200000X1.100000*%
%ADD12C,0.750000*%
%ADD13O,1.700000X1.100000*%
G04 APERTURE END LIST*
%TO.C,R5*%
G36*
G01*
X121325000Y-86650000D02*
X121325000Y-87250000D01*
G75*
G02*
X121100000Y-87475000I-225000J0D01*
G01*
X120650000Y-87475000D01*
G75*
G02*
X120425000Y-87250000I0J225000D01*
G01*
X120425000Y-86650000D01*
G75*
G02*
X120650000Y-86425000I225000J0D01*
G01*
X121100000Y-86425000D01*
G75*
G02*
X121325000Y-86650000I0J-225000D01*
G01*
G37*
G36*
G01*
X122975000Y-86650000D02*
X122975000Y-87250000D01*
G75*
G02*
X122750000Y-87475000I-225000J0D01*
G01*
X122300000Y-87475000D01*
G75*
G02*
X122075000Y-87250000I0J225000D01*
G01*
X122075000Y-86650000D01*
G75*
G02*
X122300000Y-86425000I225000J0D01*
G01*
X122750000Y-86425000D01*
G75*
G02*
X122975000Y-86650000I0J-225000D01*
G01*
G37*
%TD*%
%TO.C,U2*%
G36*
G01*
X122900000Y-94950000D02*
X122900000Y-90950000D01*
G75*
G02*
X122950000Y-90900000I50000J0D01*
G01*
X125450000Y-90900000D01*
G75*
G02*
X125500000Y-90950000I0J-50000D01*
G01*
X125500000Y-94950000D01*
G75*
G02*
X125450000Y-95000000I-50000J0D01*
G01*
X122950000Y-95000000D01*
G75*
G02*
X122900000Y-94950000I0J50000D01*
G01*
G37*
G36*
G01*
X126150000Y-91205001D02*
X126150000Y-90694999D01*
G75*
G02*
X126199999Y-90645000I49999J0D01*
G01*
X127300001Y-90645000D01*
G75*
G02*
X127350000Y-90694999I0J-49999D01*
G01*
X127350000Y-91205001D01*
G75*
G02*
X127300001Y-91255000I-49999J0D01*
G01*
X126199999Y-91255000D01*
G75*
G02*
X126150000Y-91205001I0J49999D01*
G01*
G37*
G36*
G01*
X126150000Y-92205001D02*
X126150000Y-91694999D01*
G75*
G02*
X126199999Y-91645000I49999J0D01*
G01*
X127300001Y-91645000D01*
G75*
G02*
X127350000Y-91694999I0J-49999D01*
G01*
X127350000Y-92205001D01*
G75*
G02*
X127300001Y-92255000I-49999J0D01*
G01*
X126199999Y-92255000D01*
G75*
G02*
X126150000Y-92205001I0J49999D01*
G01*
G37*
G36*
G01*
X121050000Y-95205001D02*
X121050000Y-94694999D01*
G75*
G02*
X121099999Y-94645000I49999J0D01*
G01*
X122200001Y-94645000D01*
G75*
G02*
X122250000Y-94694999I0J-49999D01*
G01*
X122250000Y-95205001D01*
G75*
G02*
X122200001Y-95255000I-49999J0D01*
G01*
X121099999Y-95255000D01*
G75*
G02*
X121050000Y-95205001I0J49999D01*
G01*
G37*
G36*
G01*
X126150000Y-93205001D02*
X126150000Y-92694999D01*
G75*
G02*
X126199999Y-92645000I49999J0D01*
G01*
X127300001Y-92645000D01*
G75*
G02*
X127350000Y-92694999I0J-49999D01*
G01*
X127350000Y-93205001D01*
G75*
G02*
X127300001Y-93255000I-49999J0D01*
G01*
X126199999Y-93255000D01*
G75*
G02*
X126150000Y-93205001I0J49999D01*
G01*
G37*
G36*
G01*
X126150000Y-94205001D02*
X126150000Y-93694999D01*
G75*
G02*
X126199999Y-93645000I49999J0D01*
G01*
X127300001Y-93645000D01*
G75*
G02*
X127350000Y-93694999I0J-49999D01*
G01*
X127350000Y-94205001D01*
G75*
G02*
X127300001Y-94255000I-49999J0D01*
G01*
X126199999Y-94255000D01*
G75*
G02*
X126150000Y-94205001I0J49999D01*
G01*
G37*
G36*
G01*
X126150000Y-95205001D02*
X126150000Y-94694999D01*
G75*
G02*
X126199999Y-94645000I49999J0D01*
G01*
X127300001Y-94645000D01*
G75*
G02*
X127350000Y-94694999I0J-49999D01*
G01*
X127350000Y-95205001D01*
G75*
G02*
X127300001Y-95255000I-49999J0D01*
G01*
X126199999Y-95255000D01*
G75*
G02*
X126150000Y-95205001I0J49999D01*
G01*
G37*
G36*
G01*
X121050000Y-94205001D02*
X121050000Y-93694999D01*
G75*
G02*
X121099999Y-93645000I49999J0D01*
G01*
X122200001Y-93645000D01*
G75*
G02*
X122250000Y-93694999I0J-49999D01*
G01*
X122250000Y-94205001D01*
G75*
G02*
X122200001Y-94255000I-49999J0D01*
G01*
X121099999Y-94255000D01*
G75*
G02*
X121050000Y-94205001I0J49999D01*
G01*
G37*
G36*
G01*
X121050000Y-93205001D02*
X121050000Y-92694999D01*
G75*
G02*
X121099999Y-92645000I49999J0D01*
G01*
X122200001Y-92645000D01*
G75*
G02*
X122250000Y-92694999I0J-49999D01*
G01*
X122250000Y-93205001D01*
G75*
G02*
X122200001Y-93255000I-49999J0D01*
G01*
X121099999Y-93255000D01*
G75*
G02*
X121050000Y-93205001I0J49999D01*
G01*
G37*
G36*
G01*
X121050000Y-92205001D02*
X121050000Y-91694999D01*
G75*
G02*
X121099999Y-91645000I49999J0D01*
G01*
X122200001Y-91645000D01*
G75*
G02*
X122250000Y-91694999I0J-49999D01*
G01*
X122250000Y-92205001D01*
G75*
G02*
X122200001Y-92255000I-49999J0D01*
G01*
X121099999Y-92255000D01*
G75*
G02*
X121050000Y-92205001I0J49999D01*
G01*
G37*
G36*
G01*
X121050000Y-91205001D02*
X121050000Y-90694999D01*
G75*
G02*
X121099999Y-90645000I49999J0D01*
G01*
X122200001Y-90645000D01*
G75*
G02*
X122250000Y-90694999I0J-49999D01*
G01*
X122250000Y-91205001D01*
G75*
G02*
X122200001Y-91255000I-49999J0D01*
G01*
X121099999Y-91255000D01*
G75*
G02*
X121050000Y-91205001I0J49999D01*
G01*
G37*
%TD*%
%TO.C,U1*%
G36*
G01*
X110000000Y-91400000D02*
X110000000Y-89900000D01*
G75*
G02*
X110050000Y-89850000I50000J0D01*
G01*
X112050000Y-89850000D01*
G75*
G02*
X112100000Y-89900000I0J-50000D01*
G01*
X112100000Y-91400000D01*
G75*
G02*
X112050000Y-91450000I-50000J0D01*
G01*
X110050000Y-91450000D01*
G75*
G02*
X110000000Y-91400000I0J50000D01*
G01*
G37*
G36*
G01*
X110000000Y-96000000D02*
X110000000Y-94500000D01*
G75*
G02*
X110050000Y-94450000I50000J0D01*
G01*
X112050000Y-94450000D01*
G75*
G02*
X112100000Y-94500000I0J-50000D01*
G01*
X112100000Y-96000000D01*
G75*
G02*
X112050000Y-96050000I-50000J0D01*
G01*
X110050000Y-96050000D01*
G75*
G02*
X110000000Y-96000000I0J50000D01*
G01*
G37*
G36*
G01*
X110000000Y-93700000D02*
X110000000Y-92200000D01*
G75*
G02*
X110050000Y-92150000I50000J0D01*
G01*
X112050000Y-92150000D01*
G75*
G02*
X112100000Y-92200000I0J-50000D01*
G01*
X112100000Y-93700000D01*
G75*
G02*
X112050000Y-93750000I-50000J0D01*
G01*
X110050000Y-93750000D01*
G75*
G02*
X110000000Y-93700000I0J50000D01*
G01*
G37*
G36*
G01*
X116300000Y-94850000D02*
X116300000Y-91050000D01*
G75*
G02*
X116350000Y-91000000I50000J0D01*
G01*
X118350000Y-91000000D01*
G75*
G02*
X118400000Y-91050000I0J-50000D01*
G01*
X118400000Y-94850000D01*
G75*
G02*
X118350000Y-94900000I-50000J0D01*
G01*
X116350000Y-94900000D01*
G75*
G02*
X116300000Y-94850000I0J50000D01*
G01*
G37*
%TD*%
%TO.C,SW2*%
G36*
G01*
X109900000Y-99300000D02*
X109900000Y-97600000D01*
G75*
G02*
X109950000Y-97550000I50000J0D01*
G01*
X110850000Y-97550000D01*
G75*
G02*
X110900000Y-97600000I0J-50000D01*
G01*
X110900000Y-99300000D01*
G75*
G02*
X110850000Y-99350000I-50000J0D01*
G01*
X109950000Y-99350000D01*
G75*
G02*
X109900000Y-99300000I0J50000D01*
G01*
G37*
G36*
G01*
X105500000Y-99300000D02*
X105500000Y-97600000D01*
G75*
G02*
X105550000Y-97550000I50000J0D01*
G01*
X106450000Y-97550000D01*
G75*
G02*
X106500000Y-97600000I0J-50000D01*
G01*
X106500000Y-99300000D01*
G75*
G02*
X106450000Y-99350000I-50000J0D01*
G01*
X105550000Y-99350000D01*
G75*
G02*
X105500000Y-99300000I0J50000D01*
G01*
G37*
%TD*%
%TO.C,SW1*%
G36*
G01*
X109900000Y-88300000D02*
X109900000Y-86600000D01*
G75*
G02*
X109950000Y-86550000I50000J0D01*
G01*
X110850000Y-86550000D01*
G75*
G02*
X110900000Y-86600000I0J-50000D01*
G01*
X110900000Y-88300000D01*
G75*
G02*
X110850000Y-88350000I-50000J0D01*
G01*
X109950000Y-88350000D01*
G75*
G02*
X109900000Y-88300000I0J50000D01*
G01*
G37*
G36*
G01*
X105500000Y-88300000D02*
X105500000Y-86600000D01*
G75*
G02*
X105550000Y-86550000I50000J0D01*
G01*
X106450000Y-86550000D01*
G75*
G02*
X106500000Y-86600000I0J-50000D01*
G01*
X106500000Y-88300000D01*
G75*
G02*
X106450000Y-88350000I-50000J0D01*
G01*
X105550000Y-88350000D01*
G75*
G02*
X105500000Y-88300000I0J50000D01*
G01*
G37*
%TD*%
%TO.C,R4*%
G36*
G01*
X121325000Y-98650000D02*
X121325000Y-99250000D01*
G75*
G02*
X121100000Y-99475000I-225000J0D01*
G01*
X120650000Y-99475000D01*
G75*
G02*
X120425000Y-99250000I0J225000D01*
G01*
X120425000Y-98650000D01*
G75*
G02*
X120650000Y-98425000I225000J0D01*
G01*
X121100000Y-98425000D01*
G75*
G02*
X121325000Y-98650000I0J-225000D01*
G01*
G37*
G36*
G01*
X122975000Y-98650000D02*
X122975000Y-99250000D01*
G75*
G02*
X122750000Y-99475000I-225000J0D01*
G01*
X122300000Y-99475000D01*
G75*
G02*
X122075000Y-99250000I0J225000D01*
G01*
X122075000Y-98650000D01*
G75*
G02*
X122300000Y-98425000I225000J0D01*
G01*
X122750000Y-98425000D01*
G75*
G02*
X122975000Y-98650000I0J-225000D01*
G01*
G37*
%TD*%
%TO.C,R3*%
G36*
G01*
X118500000Y-98075000D02*
X117900000Y-98075000D01*
G75*
G02*
X117675000Y-97850000I0J225000D01*
G01*
X117675000Y-97400000D01*
G75*
G02*
X117900000Y-97175000I225000J0D01*
G01*
X118500000Y-97175000D01*
G75*
G02*
X118725000Y-97400000I0J-225000D01*
G01*
X118725000Y-97850000D01*
G75*
G02*
X118500000Y-98075000I-225000J0D01*
G01*
G37*
G36*
G01*
X118500000Y-99725000D02*
X117900000Y-99725000D01*
G75*
G02*
X117675000Y-99500000I0J225000D01*
G01*
X117675000Y-99050000D01*
G75*
G02*
X117900000Y-98825000I225000J0D01*
G01*
X118500000Y-98825000D01*
G75*
G02*
X118725000Y-99050000I0J-225000D01*
G01*
X118725000Y-99500000D01*
G75*
G02*
X118500000Y-99725000I-225000J0D01*
G01*
G37*
%TD*%
%TO.C,R2*%
G36*
G01*
X117400000Y-87825000D02*
X118000000Y-87825000D01*
G75*
G02*
X118225000Y-88050000I0J-225000D01*
G01*
X118225000Y-88500000D01*
G75*
G02*
X118000000Y-88725000I-225000J0D01*
G01*
X117400000Y-88725000D01*
G75*
G02*
X117175000Y-88500000I0J225000D01*
G01*
X117175000Y-88050000D01*
G75*
G02*
X117400000Y-87825000I225000J0D01*
G01*
G37*
G36*
G01*
X117400000Y-86175000D02*
X118000000Y-86175000D01*
G75*
G02*
X118225000Y-86400000I0J-225000D01*
G01*
X118225000Y-86850000D01*
G75*
G02*
X118000000Y-87075000I-225000J0D01*
G01*
X117400000Y-87075000D01*
G75*
G02*
X117175000Y-86850000I0J225000D01*
G01*
X117175000Y-86400000D01*
G75*
G02*
X117400000Y-86175000I225000J0D01*
G01*
G37*
%TD*%
%TO.C,R1*%
G36*
G01*
X105900000Y-94825000D02*
X106500000Y-94825000D01*
G75*
G02*
X106725000Y-95050000I0J-225000D01*
G01*
X106725000Y-95500000D01*
G75*
G02*
X106500000Y-95725000I-225000J0D01*
G01*
X105900000Y-95725000D01*
G75*
G02*
X105675000Y-95500000I0J225000D01*
G01*
X105675000Y-95050000D01*
G75*
G02*
X105900000Y-94825000I225000J0D01*
G01*
G37*
G36*
G01*
X105900000Y-93175000D02*
X106500000Y-93175000D01*
G75*
G02*
X106725000Y-93400000I0J-225000D01*
G01*
X106725000Y-93850000D01*
G75*
G02*
X106500000Y-94075000I-225000J0D01*
G01*
X105900000Y-94075000D01*
G75*
G02*
X105675000Y-93850000I0J225000D01*
G01*
X105675000Y-93400000D01*
G75*
G02*
X105900000Y-93175000I225000J0D01*
G01*
G37*
%TD*%
%TO.C,Q2*%
G36*
G01*
X126200000Y-98350000D02*
X126200000Y-97550000D01*
G75*
G02*
X126250000Y-97500000I50000J0D01*
G01*
X127150000Y-97500000D01*
G75*
G02*
X127200000Y-97550000I0J-50000D01*
G01*
X127200000Y-98350000D01*
G75*
G02*
X127150000Y-98400000I-50000J0D01*
G01*
X126250000Y-98400000D01*
G75*
G02*
X126200000Y-98350000I0J50000D01*
G01*
G37*
G36*
G01*
X124200000Y-99300000D02*
X124200000Y-98500000D01*
G75*
G02*
X124250000Y-98450000I50000J0D01*
G01*
X125150000Y-98450000D01*
G75*
G02*
X125200000Y-98500000I0J-50000D01*
G01*
X125200000Y-99300000D01*
G75*
G02*
X125150000Y-99350000I-50000J0D01*
G01*
X124250000Y-99350000D01*
G75*
G02*
X124200000Y-99300000I0J50000D01*
G01*
G37*
G36*
G01*
X124200000Y-97400000D02*
X124200000Y-96600000D01*
G75*
G02*
X124250000Y-96550000I50000J0D01*
G01*
X125150000Y-96550000D01*
G75*
G02*
X125200000Y-96600000I0J-50000D01*
G01*
X125200000Y-97400000D01*
G75*
G02*
X125150000Y-97450000I-50000J0D01*
G01*
X124250000Y-97450000D01*
G75*
G02*
X124200000Y-97400000I0J50000D01*
G01*
G37*
%TD*%
%TO.C,Q1*%
G36*
G01*
X126200000Y-88350000D02*
X126200000Y-87550000D01*
G75*
G02*
X126250000Y-87500000I50000J0D01*
G01*
X127150000Y-87500000D01*
G75*
G02*
X127200000Y-87550000I0J-50000D01*
G01*
X127200000Y-88350000D01*
G75*
G02*
X127150000Y-88400000I-50000J0D01*
G01*
X126250000Y-88400000D01*
G75*
G02*
X126200000Y-88350000I0J50000D01*
G01*
G37*
G36*
G01*
X124200000Y-89300000D02*
X124200000Y-88500000D01*
G75*
G02*
X124250000Y-88450000I50000J0D01*
G01*
X125150000Y-88450000D01*
G75*
G02*
X125200000Y-88500000I0J-50000D01*
G01*
X125200000Y-89300000D01*
G75*
G02*
X125150000Y-89350000I-50000J0D01*
G01*
X124250000Y-89350000D01*
G75*
G02*
X124200000Y-89300000I0J50000D01*
G01*
G37*
G36*
G01*
X124200000Y-87400000D02*
X124200000Y-86600000D01*
G75*
G02*
X124250000Y-86550000I50000J0D01*
G01*
X125150000Y-86550000D01*
G75*
G02*
X125200000Y-86600000I0J-50000D01*
G01*
X125200000Y-87400000D01*
G75*
G02*
X125150000Y-87450000I-50000J0D01*
G01*
X124250000Y-87450000D01*
G75*
G02*
X124200000Y-87400000I0J50000D01*
G01*
G37*
%TD*%
D10*
%TO.C,J2*%
X132200000Y-97950000D03*
X132200000Y-95950000D03*
X132200000Y-93950000D03*
X132200000Y-91950000D03*
X132200000Y-89950000D03*
G36*
G01*
X131475000Y-88625000D02*
X131475000Y-87275000D01*
G75*
G02*
X131525000Y-87225000I50000J0D01*
G01*
X132875000Y-87225000D01*
G75*
G02*
X132925000Y-87275000I0J-50000D01*
G01*
X132925000Y-88625000D01*
G75*
G02*
X132875000Y-88675000I-50000J0D01*
G01*
X131525000Y-88675000D01*
G75*
G02*
X131475000Y-88625000I0J50000D01*
G01*
G37*
%TD*%
%TO.C,J1*%
G36*
G01*
X102520000Y-95850000D02*
X103970000Y-95850000D01*
G75*
G02*
X104020000Y-95900000I0J-50000D01*
G01*
X104020000Y-96500000D01*
G75*
G02*
X103970000Y-96550000I-50000J0D01*
G01*
X102520000Y-96550000D01*
G75*
G02*
X102470000Y-96500000I0J50000D01*
G01*
X102470000Y-95900000D01*
G75*
G02*
X102520000Y-95850000I50000J0D01*
G01*
G37*
G36*
G01*
X102520000Y-95050000D02*
X103970000Y-95050000D01*
G75*
G02*
X104020000Y-95100000I0J-50000D01*
G01*
X104020000Y-95700000D01*
G75*
G02*
X103970000Y-95750000I-50000J0D01*
G01*
X102520000Y-95750000D01*
G75*
G02*
X102470000Y-95700000I0J50000D01*
G01*
X102470000Y-95100000D01*
G75*
G02*
X102520000Y-95050000I50000J0D01*
G01*
G37*
G36*
G01*
X102520000Y-90150000D02*
X103970000Y-90150000D01*
G75*
G02*
X104020000Y-90200000I0J-50000D01*
G01*
X104020000Y-90800000D01*
G75*
G02*
X103970000Y-90850000I-50000J0D01*
G01*
X102520000Y-90850000D01*
G75*
G02*
X102470000Y-90800000I0J50000D01*
G01*
X102470000Y-90200000D01*
G75*
G02*
X102520000Y-90150000I50000J0D01*
G01*
G37*
G36*
G01*
X102520000Y-89350000D02*
X103970000Y-89350000D01*
G75*
G02*
X104020000Y-89400000I0J-50000D01*
G01*
X104020000Y-90000000D01*
G75*
G02*
X103970000Y-90050000I-50000J0D01*
G01*
X102520000Y-90050000D01*
G75*
G02*
X102470000Y-90000000I0J50000D01*
G01*
X102470000Y-89400000D01*
G75*
G02*
X102520000Y-89350000I50000J0D01*
G01*
G37*
G36*
G01*
X102520000Y-89350000D02*
X103970000Y-89350000D01*
G75*
G02*
X104020000Y-89400000I0J-50000D01*
G01*
X104020000Y-90000000D01*
G75*
G02*
X103970000Y-90050000I-50000J0D01*
G01*
X102520000Y-90050000D01*
G75*
G02*
X102470000Y-90000000I0J50000D01*
G01*
X102470000Y-89400000D01*
G75*
G02*
X102520000Y-89350000I50000J0D01*
G01*
G37*
G36*
G01*
X102520000Y-90150000D02*
X103970000Y-90150000D01*
G75*
G02*
X104020000Y-90200000I0J-50000D01*
G01*
X104020000Y-90800000D01*
G75*
G02*
X103970000Y-90850000I-50000J0D01*
G01*
X102520000Y-90850000D01*
G75*
G02*
X102470000Y-90800000I0J50000D01*
G01*
X102470000Y-90200000D01*
G75*
G02*
X102520000Y-90150000I50000J0D01*
G01*
G37*
G36*
G01*
X102520000Y-95050000D02*
X103970000Y-95050000D01*
G75*
G02*
X104020000Y-95100000I0J-50000D01*
G01*
X104020000Y-95700000D01*
G75*
G02*
X103970000Y-95750000I-50000J0D01*
G01*
X102520000Y-95750000D01*
G75*
G02*
X102470000Y-95700000I0J50000D01*
G01*
X102470000Y-95100000D01*
G75*
G02*
X102520000Y-95050000I50000J0D01*
G01*
G37*
G36*
G01*
X102520000Y-95850000D02*
X103970000Y-95850000D01*
G75*
G02*
X104020000Y-95900000I0J-50000D01*
G01*
X104020000Y-96500000D01*
G75*
G02*
X103970000Y-96550000I-50000J0D01*
G01*
X102520000Y-96550000D01*
G75*
G02*
X102470000Y-96500000I0J50000D01*
G01*
X102470000Y-95900000D01*
G75*
G02*
X102520000Y-95850000I50000J0D01*
G01*
G37*
G36*
G01*
X102520000Y-91000000D02*
X103970000Y-91000000D01*
G75*
G02*
X104020000Y-91050000I0J-50000D01*
G01*
X104020000Y-91350000D01*
G75*
G02*
X103970000Y-91400000I-50000J0D01*
G01*
X102520000Y-91400000D01*
G75*
G02*
X102470000Y-91350000I0J50000D01*
G01*
X102470000Y-91050000D01*
G75*
G02*
X102520000Y-91000000I50000J0D01*
G01*
G37*
G36*
G01*
X102520000Y-91500000D02*
X103970000Y-91500000D01*
G75*
G02*
X104020000Y-91550000I0J-50000D01*
G01*
X104020000Y-91850000D01*
G75*
G02*
X103970000Y-91900000I-50000J0D01*
G01*
X102520000Y-91900000D01*
G75*
G02*
X102470000Y-91850000I0J50000D01*
G01*
X102470000Y-91550000D01*
G75*
G02*
X102520000Y-91500000I50000J0D01*
G01*
G37*
G36*
G01*
X102520000Y-92000000D02*
X103970000Y-92000000D01*
G75*
G02*
X104020000Y-92050000I0J-50000D01*
G01*
X104020000Y-92350000D01*
G75*
G02*
X103970000Y-92400000I-50000J0D01*
G01*
X102520000Y-92400000D01*
G75*
G02*
X102470000Y-92350000I0J50000D01*
G01*
X102470000Y-92050000D01*
G75*
G02*
X102520000Y-92000000I50000J0D01*
G01*
G37*
G36*
G01*
X102520000Y-93000000D02*
X103970000Y-93000000D01*
G75*
G02*
X104020000Y-93050000I0J-50000D01*
G01*
X104020000Y-93350000D01*
G75*
G02*
X103970000Y-93400000I-50000J0D01*
G01*
X102520000Y-93400000D01*
G75*
G02*
X102470000Y-93350000I0J50000D01*
G01*
X102470000Y-93050000D01*
G75*
G02*
X102520000Y-93000000I50000J0D01*
G01*
G37*
G36*
G01*
X102520000Y-93500000D02*
X103970000Y-93500000D01*
G75*
G02*
X104020000Y-93550000I0J-50000D01*
G01*
X104020000Y-93850000D01*
G75*
G02*
X103970000Y-93900000I-50000J0D01*
G01*
X102520000Y-93900000D01*
G75*
G02*
X102470000Y-93850000I0J50000D01*
G01*
X102470000Y-93550000D01*
G75*
G02*
X102520000Y-93500000I50000J0D01*
G01*
G37*
G36*
G01*
X102520000Y-94000000D02*
X103970000Y-94000000D01*
G75*
G02*
X104020000Y-94050000I0J-50000D01*
G01*
X104020000Y-94350000D01*
G75*
G02*
X103970000Y-94400000I-50000J0D01*
G01*
X102520000Y-94400000D01*
G75*
G02*
X102470000Y-94350000I0J50000D01*
G01*
X102470000Y-94050000D01*
G75*
G02*
X102520000Y-94000000I50000J0D01*
G01*
G37*
G36*
G01*
X102520000Y-94500000D02*
X103970000Y-94500000D01*
G75*
G02*
X104020000Y-94550000I0J-50000D01*
G01*
X104020000Y-94850000D01*
G75*
G02*
X103970000Y-94900000I-50000J0D01*
G01*
X102520000Y-94900000D01*
G75*
G02*
X102470000Y-94850000I0J50000D01*
G01*
X102470000Y-94550000D01*
G75*
G02*
X102520000Y-94500000I50000J0D01*
G01*
G37*
G36*
G01*
X102520000Y-92500000D02*
X103970000Y-92500000D01*
G75*
G02*
X104020000Y-92550000I0J-50000D01*
G01*
X104020000Y-92850000D01*
G75*
G02*
X103970000Y-92900000I-50000J0D01*
G01*
X102520000Y-92900000D01*
G75*
G02*
X102470000Y-92850000I0J50000D01*
G01*
X102470000Y-92550000D01*
G75*
G02*
X102520000Y-92500000I50000J0D01*
G01*
G37*
D11*
X102330000Y-97270000D03*
X102330000Y-88630000D03*
D12*
X101800000Y-90060000D03*
D13*
X98150000Y-88630000D03*
D12*
X101800000Y-95840000D03*
D13*
X98150000Y-97270000D03*
%TD*%
%TO.C,D3*%
G36*
G01*
X116481250Y-98150000D02*
X115918750Y-98150000D01*
G75*
G02*
X115675000Y-97906250I0J243750D01*
G01*
X115675000Y-97418750D01*
G75*
G02*
X115918750Y-97175000I243750J0D01*
G01*
X116481250Y-97175000D01*
G75*
G02*
X116725000Y-97418750I0J-243750D01*
G01*
X116725000Y-97906250D01*
G75*
G02*
X116481250Y-98150000I-243750J0D01*
G01*
G37*
G36*
G01*
X116481250Y-99725000D02*
X115918750Y-99725000D01*
G75*
G02*
X115675000Y-99481250I0J243750D01*
G01*
X115675000Y-98993750D01*
G75*
G02*
X115918750Y-98750000I243750J0D01*
G01*
X116481250Y-98750000D01*
G75*
G02*
X116725000Y-98993750I0J-243750D01*
G01*
X116725000Y-99481250D01*
G75*
G02*
X116481250Y-99725000I-243750J0D01*
G01*
G37*
%TD*%
%TO.C,D2*%
G36*
G01*
X115418750Y-87750000D02*
X115981250Y-87750000D01*
G75*
G02*
X116225000Y-87993750I0J-243750D01*
G01*
X116225000Y-88481250D01*
G75*
G02*
X115981250Y-88725000I-243750J0D01*
G01*
X115418750Y-88725000D01*
G75*
G02*
X115175000Y-88481250I0J243750D01*
G01*
X115175000Y-87993750D01*
G75*
G02*
X115418750Y-87750000I243750J0D01*
G01*
G37*
G36*
G01*
X115418750Y-86175000D02*
X115981250Y-86175000D01*
G75*
G02*
X116225000Y-86418750I0J-243750D01*
G01*
X116225000Y-86906250D01*
G75*
G02*
X115981250Y-87150000I-243750J0D01*
G01*
X115418750Y-87150000D01*
G75*
G02*
X115175000Y-86906250I0J243750D01*
G01*
X115175000Y-86418750D01*
G75*
G02*
X115418750Y-86175000I243750J0D01*
G01*
G37*
%TD*%
%TO.C,D1*%
G36*
G01*
X106481250Y-91150000D02*
X105918750Y-91150000D01*
G75*
G02*
X105675000Y-90906250I0J243750D01*
G01*
X105675000Y-90418750D01*
G75*
G02*
X105918750Y-90175000I243750J0D01*
G01*
X106481250Y-90175000D01*
G75*
G02*
X106725000Y-90418750I0J-243750D01*
G01*
X106725000Y-90906250D01*
G75*
G02*
X106481250Y-91150000I-243750J0D01*
G01*
G37*
G36*
G01*
X106481250Y-92725000D02*
X105918750Y-92725000D01*
G75*
G02*
X105675000Y-92481250I0J243750D01*
G01*
X105675000Y-91993750D01*
G75*
G02*
X105918750Y-91750000I243750J0D01*
G01*
X106481250Y-91750000D01*
G75*
G02*
X106725000Y-91993750I0J-243750D01*
G01*
X106725000Y-92481250D01*
G75*
G02*
X106481250Y-92725000I-243750J0D01*
G01*
G37*
%TD*%
%TO.C,C6*%
G36*
G01*
X112475000Y-98175000D02*
X111925000Y-98175000D01*
G75*
G02*
X111675000Y-97925000I0J250000D01*
G01*
X111675000Y-97425000D01*
G75*
G02*
X111925000Y-97175000I250000J0D01*
G01*
X112475000Y-97175000D01*
G75*
G02*
X112725000Y-97425000I0J-250000D01*
G01*
X112725000Y-97925000D01*
G75*
G02*
X112475000Y-98175000I-250000J0D01*
G01*
G37*
G36*
G01*
X112475000Y-99725000D02*
X111925000Y-99725000D01*
G75*
G02*
X111675000Y-99475000I0J250000D01*
G01*
X111675000Y-98975000D01*
G75*
G02*
X111925000Y-98725000I250000J0D01*
G01*
X112475000Y-98725000D01*
G75*
G02*
X112725000Y-98975000I0J-250000D01*
G01*
X112725000Y-99475000D01*
G75*
G02*
X112475000Y-99725000I-250000J0D01*
G01*
G37*
%TD*%
%TO.C,C5*%
G36*
G01*
X111925000Y-87725000D02*
X112475000Y-87725000D01*
G75*
G02*
X112725000Y-87975000I0J-250000D01*
G01*
X112725000Y-88475000D01*
G75*
G02*
X112475000Y-88725000I-250000J0D01*
G01*
X111925000Y-88725000D01*
G75*
G02*
X111675000Y-88475000I0J250000D01*
G01*
X111675000Y-87975000D01*
G75*
G02*
X111925000Y-87725000I250000J0D01*
G01*
G37*
G36*
G01*
X111925000Y-86175000D02*
X112475000Y-86175000D01*
G75*
G02*
X112725000Y-86425000I0J-250000D01*
G01*
X112725000Y-86925000D01*
G75*
G02*
X112475000Y-87175000I-250000J0D01*
G01*
X111925000Y-87175000D01*
G75*
G02*
X111675000Y-86925000I0J250000D01*
G01*
X111675000Y-86425000D01*
G75*
G02*
X111925000Y-86175000I250000J0D01*
G01*
G37*
%TD*%
%TO.C,C4*%
G36*
G01*
X121975000Y-97225000D02*
X121975000Y-96675000D01*
G75*
G02*
X122225000Y-96425000I250000J0D01*
G01*
X122725000Y-96425000D01*
G75*
G02*
X122975000Y-96675000I0J-250000D01*
G01*
X122975000Y-97225000D01*
G75*
G02*
X122725000Y-97475000I-250000J0D01*
G01*
X122225000Y-97475000D01*
G75*
G02*
X121975000Y-97225000I0J250000D01*
G01*
G37*
G36*
G01*
X120425000Y-97225000D02*
X120425000Y-96675000D01*
G75*
G02*
X120675000Y-96425000I250000J0D01*
G01*
X121175000Y-96425000D01*
G75*
G02*
X121425000Y-96675000I0J-250000D01*
G01*
X121425000Y-97225000D01*
G75*
G02*
X121175000Y-97475000I-250000J0D01*
G01*
X120675000Y-97475000D01*
G75*
G02*
X120425000Y-97225000I0J250000D01*
G01*
G37*
%TD*%
%TO.C,C3*%
G36*
G01*
X121975000Y-89225000D02*
X121975000Y-88675000D01*
G75*
G02*
X122225000Y-88425000I250000J0D01*
G01*
X122725000Y-88425000D01*
G75*
G02*
X122975000Y-88675000I0J-250000D01*
G01*
X122975000Y-89225000D01*
G75*
G02*
X122725000Y-89475000I-250000J0D01*
G01*
X122225000Y-89475000D01*
G75*
G02*
X121975000Y-89225000I0J250000D01*
G01*
G37*
G36*
G01*
X120425000Y-89225000D02*
X120425000Y-88675000D01*
G75*
G02*
X120675000Y-88425000I250000J0D01*
G01*
X121175000Y-88425000D01*
G75*
G02*
X121425000Y-88675000I0J-250000D01*
G01*
X121425000Y-89225000D01*
G75*
G02*
X121175000Y-89475000I-250000J0D01*
G01*
X120675000Y-89475000D01*
G75*
G02*
X120425000Y-89225000I0J250000D01*
G01*
G37*
%TD*%
%TO.C,C2*%
G36*
G01*
X107925000Y-94725000D02*
X108475000Y-94725000D01*
G75*
G02*
X108725000Y-94975000I0J-250000D01*
G01*
X108725000Y-95475000D01*
G75*
G02*
X108475000Y-95725000I-250000J0D01*
G01*
X107925000Y-95725000D01*
G75*
G02*
X107675000Y-95475000I0J250000D01*
G01*
X107675000Y-94975000D01*
G75*
G02*
X107925000Y-94725000I250000J0D01*
G01*
G37*
G36*
G01*
X107925000Y-93175000D02*
X108475000Y-93175000D01*
G75*
G02*
X108725000Y-93425000I0J-250000D01*
G01*
X108725000Y-93925000D01*
G75*
G02*
X108475000Y-94175000I-250000J0D01*
G01*
X107925000Y-94175000D01*
G75*
G02*
X107675000Y-93925000I0J250000D01*
G01*
X107675000Y-93425000D01*
G75*
G02*
X107925000Y-93175000I250000J0D01*
G01*
G37*
%TD*%
%TO.C,C1*%
G36*
G01*
X108475000Y-91175000D02*
X107925000Y-91175000D01*
G75*
G02*
X107675000Y-90925000I0J250000D01*
G01*
X107675000Y-90425000D01*
G75*
G02*
X107925000Y-90175000I250000J0D01*
G01*
X108475000Y-90175000D01*
G75*
G02*
X108725000Y-90425000I0J-250000D01*
G01*
X108725000Y-90925000D01*
G75*
G02*
X108475000Y-91175000I-250000J0D01*
G01*
G37*
G36*
G01*
X108475000Y-92725000D02*
X107925000Y-92725000D01*
G75*
G02*
X107675000Y-92475000I0J250000D01*
G01*
X107675000Y-91975000D01*
G75*
G02*
X107925000Y-91725000I250000J0D01*
G01*
X108475000Y-91725000D01*
G75*
G02*
X108725000Y-91975000I0J-250000D01*
G01*
X108725000Y-92475000D01*
G75*
G02*
X108475000Y-92725000I-250000J0D01*
G01*
G37*
%TD*%
M02*
